0
SECTION
2
HEADER
9
$INSUNITS
70
4
9
$ACADVER
1
AC1014
9
$HANDSEED
5
FFFF
0
ENDSEC
0
SECTION
2
TABLES
0
TABLE
2
VPORT
5
8
100
AcDbSymbolTable
0
ENDTAB
0
TABLE
2
LTYPE
5
5
100
AcDbSymbolTable
0
LTYPE
5
14
100
AcDbSymbolTableRecord
100
AcDbLinetypeTableRecord
2
BYBLOCK
70
0
0
LTYPE
5
15
100
AcDbSymbolTableRecord
100
AcDbLinetypeTableRecord
2
BYLAYER
70
0
0
ENDTAB
0
TABLE
2
LAYER
5
2
100
AcDbSymbolTable
70
2
0
LAYER
5
50
100
AcDbSymbolTableRecord
100
AcDbLayerTableRecord
2
0
70
0
6
CONTINUOUS
0
ENDTAB
0
TABLE
2
STYLE
5
3
100
AcDbSymbolTable
70
1
0
STYLE
5
11
100
AcDbSymbolTableRecord
100
AcDbTextStyleTableRecord
2
STANDARD
70
0
0
ENDTAB
0
TABLE
2
VIEW
5
6
100
AcDbSymbolTable
70
0
0
ENDTAB
0
TABLE
2
UCS
5
7
100
AcDbSymbolTable
70
0
0
ENDTAB
0
TABLE
2
APPID
5
9
100
AcDbSymbolTable
70
2
0
APPID
5
12
100
AcDbSymbolTableRecord
100
AcDbRegAppTableRecord
2
ACAD
70
0
0
ENDTAB
0
TABLE
2
DIMSTYLE
5
A
100
AcDbSymbolTable
70
1
0
ENDTAB
0
TABLE
2
BLOCK_RECORD
5
1
100
AcDbSymbolTable
70
1
0
BLOCK_RECORD
5
1F
100
AcDbSymbolTableRecord
100
AcDbBlockTableRecord
2
*MODEL_SPACE
0
BLOCK_RECORD
5
1B
100
AcDbSymbolTableRecord
100
AcDbBlockTableRecord
2
*PAPER_SPACE
0
ENDTAB
0
ENDSEC
0
SECTION
2
BLOCKS
0
BLOCK
5
20
100
AcDbEntity
100
AcDbBlockBegin
2
*MODEL_SPACE
0
ENDBLK
5
21
100
AcDbEntity
100
AcDbBlockEnd
0
BLOCK
5
1C
100
AcDbEntity
100
AcDbBlockBegin
2
*PAPER_SPACE
0
ENDBLK
5
1D
100
AcDbEntity
100
AcDbBlockEnd
0
ENDSEC
0
SECTION
2
ENTITIES
0
LWPOLYLINE
5
100
100
AcDbEntity
8
0
100
AcDbPolyline
90
41
70
1
43
0.0
10
17.404482671904336
20
-7.8545517328095782
42
0.41421356237309442
10
18.770508075688777
20
-7.4885263290251451
10
23.094010767585047
20
6.6613381477509392e-15
10
18.770508075688785
20
7.4885263290251345
42
0.41421356237309714
10
17.404482671904347
20
7.8545517328095729
10
9.6102540378443884
20
3.3545517328095666
10
7.7102540378443907
20
6.6454482671904245
10
15.504482671904348
20
11.145448267190428
42
0.41421356237309298
10
15.870508075688791
20
12.511473670974869
10
11.54700538379252
20
20.000000000000018
10
2.9000000000000172
20
20.000000000000014
42
0.41421356237309331
10
1.9000000000000177
20
19.000000000000014
10
1.9000000000000061
20
10
10
-1.8999999999999928
20
10
10
-1.899999999999987
20
19.000000000000014
42
0.41421356237309492
10
-2.899999999999987
20
20.000000000000014
10
-11.547005383792525
20
20.000000000000007
10
-15.870508075688786
20
12.51147367097488
42
0.41421356237309975
10
-15.504482671904345
20
11.145448267190442
10
-7.710254037844388
20
6.6454482671904369
10
-9.6102540378443813
20
3.3545517328095809
10
-17.404482671904336
20
7.8545517328095924
42
0.41421356237309476
10
-18.770508075688774
20
7.4885263290251558
10
-23.094010767585047
20
0
10
-18.770508075688785
20
-7.4885263290251309
42
0.41421356237309587
10
-17.404482671904347
20
-7.8545517328095729
10
-9.6102540378443901
20
-3.3545517328095675
10
-7.7102540378443818
20
-6.6454482671904325
10
-15.504482671904341
20
-11.14544826719044
42
0.41421356237309648
10
-15.870508075688779
20
-12.511473670974882
10
-11.547005383792513
20
-20.000000000000018
10
-1.9000000000000128
20
-20.000000000000014
10
-1.9000000000000061
20
-10
10
1.8999999999999839
20
-10
10
1.8999999999999739
20
-19.000000000000007
42
0.41421356237309515
10
2.8999999999999737
20
-20.000000000000007
10
11.547005383792532
20
-20.000000000000004
10
15.870508075688779
20
-12.511473670974889
42
0.41421356237309648
10
15.504482671904338
20
-11.145448267190446
10
7.7102540378443907
20
-6.6454482671904369
10
9.6102540378443848
20
-3.354551732809572
0
ENDSEC
0
SECTION
2
OBJECTS
0
DICTIONARY
5
C
100
AcDbDictionary
3
ACAD_GROUP
350
D
3
ACAD_MLINESTYLE
350
17
0
DICTIONARY
5
D
100
AcDbDictionary
0
DICTIONARY
5
1A
330
C
100
AcDbDictionary
0
DICTIONARY
5
17
100
AcDbDictionary
0
ENDSEC
0
EOF
