0
SECTION
2
HEADER
9
$INSUNITS
70
4
9
$ACADVER
1
AC1014
9
$HANDSEED
5
FFFF
0
ENDSEC
0
SECTION
2
TABLES
0
TABLE
2
VPORT
5
8
100
AcDbSymbolTable
0
ENDTAB
0
TABLE
2
LTYPE
5
5
100
AcDbSymbolTable
0
LTYPE
5
14
100
AcDbSymbolTableRecord
100
AcDbLinetypeTableRecord
2
BYBLOCK
70
0
0
LTYPE
5
15
100
AcDbSymbolTableRecord
100
AcDbLinetypeTableRecord
2
BYLAYER
70
0
0
ENDTAB
0
TABLE
2
LAYER
5
2
100
AcDbSymbolTable
70
2
0
LAYER
5
50
100
AcDbSymbolTableRecord
100
AcDbLayerTableRecord
2
0
70
0
6
CONTINUOUS
0
ENDTAB
0
TABLE
2
STYLE
5
3
100
AcDbSymbolTable
70
1
0
STYLE
5
11
100
AcDbSymbolTableRecord
100
AcDbTextStyleTableRecord
2
STANDARD
70
0
0
ENDTAB
0
TABLE
2
VIEW
5
6
100
AcDbSymbolTable
70
0
0
ENDTAB
0
TABLE
2
UCS
5
7
100
AcDbSymbolTable
70
0
0
ENDTAB
0
TABLE
2
APPID
5
9
100
AcDbSymbolTable
70
2
0
APPID
5
12
100
AcDbSymbolTableRecord
100
AcDbRegAppTableRecord
2
ACAD
70
0
0
ENDTAB
0
TABLE
2
DIMSTYLE
5
A
100
AcDbSymbolTable
70
1
0
ENDTAB
0
TABLE
2
BLOCK_RECORD
5
1
100
AcDbSymbolTable
70
1
0
BLOCK_RECORD
5
1F
100
AcDbSymbolTableRecord
100
AcDbBlockTableRecord
2
*MODEL_SPACE
0
BLOCK_RECORD
5
1B
100
AcDbSymbolTableRecord
100
AcDbBlockTableRecord
2
*PAPER_SPACE
0
ENDTAB
0
ENDSEC
0
SECTION
2
BLOCKS
0
BLOCK
5
20
100
AcDbEntity
100
AcDbBlockBegin
2
*MODEL_SPACE
0
ENDBLK
5
21
100
AcDbEntity
100
AcDbBlockEnd
0
BLOCK
5
1C
100
AcDbEntity
100
AcDbBlockBegin
2
*PAPER_SPACE
0
ENDBLK
5
1D
100
AcDbEntity
100
AcDbBlockEnd
0
ENDSEC
0
SECTION
2
ENTITIES
0
LWPOLYLINE
5
100
100
AcDbEntity
8
0
100
AcDbPolyline
90
4
70
1
43
0.0
10
62.000000923871994
20
-13.100000208616255
10
64.000000953674316
20
-13.100000208616256
10
64.000000953674316
20
-14.000000208616257
10
62.000000923871994
20
-14.000000208616257
0
SPLINE
5
101
100
AcDbEntity
8
0
100
AcDbSpline
70
4
71
3
72
8
73
4
74
0
42
0.000000001
43
0.0000000001
44
0.0000000001
40
0
40
0
40
0
40
0
40
1
40
1
40
1
40
1
41
1
41
1
41
1
41
1
10
72.555981810028925
20
-12.353310007658845
30
0
10
73.851116978998732
20
-11.847516173325607
30
0
10
74.479281678531706
20
-11.998766627308008
30
0
10
74.571443363442839
20
-12.21242175468419
30
0
0
SPLINE
5
102
100
AcDbEntity
8
0
100
AcDbSpline
70
4
71
3
72
8
73
4
74
0
42
0.000000001
43
0.0000000001
44
0.0000000001
40
0
40
0
40
0
40
0
40
1
40
1
40
1
40
1
41
1
41
1
41
1
41
1
10
74.571443363442839
20
-12.21242175468419
30
0
10
74.718505873329647
20
-12.554175218362582
30
0
10
74.287459843252918
20
-13.553199054742233
30
0
10
72.981074284617534
20
-14.184668892674562
30
0
0
SPLINE
5
103
100
AcDbEntity
8
0
100
AcDbSpline
70
4
71
3
72
8
73
4
74
0
42
0.000000001
43
0.0000000001
44
0.0000000001
40
0
40
0
40
0
40
0
40
1
40
1
40
1
40
1
41
1
41
1
41
1
41
1
10
72.981074284617534
20
-14.184668892674562
30
0
10
72.946015055961141
20
-14.19635530222669
30
0
10
72.910961210266294
20
-14.20737960750664
30
0
10
72.876122683033969
20
-14.2166383013941
30
0
0
SPLINE
5
104
100
AcDbEntity
8
0
100
AcDbSpline
70
4
71
3
72
8
73
4
74
0
42
0.000000001
43
0.0000000001
44
0.0000000001
40
0
40
0
40
0
40
0
40
1
40
1
40
1
40
1
41
1
41
1
41
1
41
1
10
72.876122683033969
20
-14.2166383013941
30
0
10
72.830701253369796
20
-14.229207516642477
30
0
10
72.786162629401886
20
-14.242433453201478
30
0
10
72.741844706858046
20
-14.253899161329551
30
0
0
SPLINE
5
105
100
AcDbEntity
8
0
100
AcDbSpline
70
4
71
3
72
8
73
4
74
0
42
0.000000001
43
0.0000000001
44
0.0000000001
40
0
40
0
40
0
40
0
40
1
40
1
40
1
40
1
41
1
41
1
41
1
41
1
10
72.741844706858046
20
-14.253899161329551
30
0
10
72.561488579707316
20
-14.294249841201854
30
0
10
72.391273952140324
20
-14.326881354193574
30
0
10
72.227228198523918
20
-14.346281547664734
30
0
0
SPLINE
5
106
100
AcDbEntity
8
0
100
AcDbSpline
70
4
71
3
72
8
73
4
74
0
42
0.000000001
43
0.0000000001
44
0.0000000001
40
0
40
0
40
0
40
0
40
1
40
1
40
1
40
1
41
1
41
1
41
1
41
1
10
72.227228198523918
20
-14.346281547664734
30
0
10
71.900024879948887
20
-14.388392455967978
30
0
10
71.608763595726529
20
-14.405149615311954
30
0
10
71.356087379983961
20
-14.426315420175611
30
0
0
SPLINE
5
107
100
AcDbEntity
8
0
100
AcDbSpline
70
4
71
3
72
8
73
4
74
0
42
0.000000001
43
0.0000000001
44
0.0000000001
40
0
40
0
40
0
40
0
40
1
40
1
40
1
40
1
41
1
41
1
41
1
41
1
10
71.356087379983961
20
-14.426315420175611
30
0
10
71.229749272112684
20
-14.436015516911189
30
0
10
71.112007753856687
20
-14.447481225039262
30
0
10
71.004633819570003
20
-14.458284828895147
30
0
0
SPLINE
5
108
100
AcDbEntity
8
0
100
AcDbSpline
70
4
71
3
72
8
73
4
74
0
42
0.000000001
43
0.0000000001
44
0.0000000001
40
0
40
0
40
0
40
0
40
1
40
1
40
1
40
1
41
1
41
1
41
1
41
1
10
71.004633819570003
20
-14.458284828895147
30
0
10
70.896597781011138
20
-14.471295446991645
30
0
10
70.798477157650353
20
-14.482099050847527
30
0
10
70.708963889827956
20
-14.496649195950901
30
0
0
SPLINE
5
109
100
AcDbEntity
8
0
100
AcDbSpline
70
4
71
3
72
8
73
4
74
0
42
0.000000001
43
0.0000000001
44
0.0000000001
40
0
40
0
40
0
40
0
40
1
40
1
40
1
40
1
41
1
41
1
41
1
41
1
10
70.708963889827956
20
-14.496649195950901
30
0
10
70.529926588260054
20
-14.523768556302649
30
0
10
70.386395301158231
20
-14.557062173566557
30
0
10
70.273062428421895
20
-14.587707373741722
30
0
0
SPLINE
5
110
100
AcDbEntity
8
0
100
AcDbSpline
70
4
71
3
72
8
73
4
74
0
42
0.000000001
43
0.0000000001
44
0.0000000001
40
0
40
0
40
0
40
0
40
1
40
1
40
1
40
1
41
1
41
1
41
1
41
1
10
70.273062428421895
20
-14.587707373741722
30
0
10
70.160391659957753
20
-14.623428706670303
30
0
10
70.076831947623432
20
-14.649665261325806
30
0
10
70.016639671431861
20
-14.681634670045334
30
0
0
SPLINE
5
111
100
AcDbEntity
8
0
100
AcDbSpline
70
4
71
3
72
8
73
4
74
0
42
0.000000001
43
0.0000000001
44
0.0000000001
40
0
40
0
40
0
40
0
40
1
40
1
40
1
40
1
41
1
41
1
41
1
41
1
10
70.016639671431861
20
-14.681634670045334
30
0
10
69.956226693816191
20
-14.71162314890989
30
0
10
69.917862326760456
20
-14.737639002141321
30
0
10
69.89426880623212
20
-14.760570418397471
30
0
0
SPLINE
5
112
100
AcDbEntity
8
0
100
AcDbSpline
70
4
71
3
72
8
73
4
74
0
42
0.000000001
43
0.0000000001
44
0.0000000001
40
0
40
0
40
0
40
0
40
1
40
1
40
1
40
1
41
1
41
1
41
1
41
1
10
69.89426880623212
20
-14.760570418397471
30
0
10
69.84664574528891
20
-14.806653952333811
30
0
10
69.857228647720731
20
-14.841487096604581
30
0
10
69.867370147304428
20
-14.878311936653471
30
0
0
SPLINE
5
113
100
AcDbEntity
8
0
100
AcDbSpline
70
4
71
3
72
8
73
4
74
0
42
0.000000001
43
0.0000000001
44
0.0000000001
40
0
40
0
40
0
40
0
40
1
40
1
40
1
40
1
41
1
41
1
41
1
41
1
10
69.867370147304428
20
-14.878311936653471
30
0
10
69.877732348312207
20
-14.915131393740801
30
0
10
69.887873847895904
20
-14.950190622397193
30
0
10
69.949831735479989
20
-14.968713393133671
30
0
0
SPLINE
5
114
100
AcDbEntity
8
0
100
AcDbSpline
70
4
71
3
72
8
73
4
74
0
42
0.000000001
43
0.0000000001
44
0.0000000001
40
0
40
0
40
0
40
0
40
1
40
1
40
1
40
1
41
1
41
1
41
1
41
1
10
69.949831735479989
20
-14.968713393133671
30
0
10
69.980476935655162
20
-14.978192788445186
30
0
10
70.024353455350877
20
-14.983484239661101
30
0
10
70.086311342934962
20
-14.983042836812974
30
0
0
SPLINE
5
115
100
AcDbEntity
8
0
100
AcDbSpline
70
4
71
3
72
8
73
4
74
0
42
0.000000001
43
0.0000000001
44
0.0000000001
40
0
40
0
40
0
40
0
40
1
40
1
40
1
40
1
41
1
41
1
41
1
41
1
10
70.086311342934962
20
-14.983042836812974
30
0
10
70.148269230519048
20
-14.981277225420484
30
0
10
70.231834325814901
20
-14.982822135388918
30
0
10
70.339208260101586
20
-14.973563441501462
30
0
0
SPLINE
5
116
100
AcDbEntity
8
0
100
AcDbSpline
70
4
71
3
72
8
73
4
74
0
42
0.000000001
43
0.0000000001
44
0.0000000001
40
0
40
0
40
0
40
0
40
1
40
1
40
1
40
1
41
1
41
1
41
1
41
1
10
70.339208260101586
20
-14.973563441501462
30
0
10
70.557708052883982
20
-14.96209773337339
30
0
10
70.878295711698712
20
-14.944678469757219
30
0
10
71.3829914218732
20
-14.93564047729383
30
0
0
SPLINE
5
117
100
AcDbEntity
8
0
100
AcDbSpline
70
4
71
3
72
8
73
4
74
0
42
0.000000001
43
0.0000000001
44
0.0000000001
40
0
40
0
40
0
40
0
40
1
40
1
40
1
40
1
41
1
41
1
41
1
41
1
10
71.3829914218732
20
-14.93564047729383
30
0
10
71.635226234767657
20
-14.928362713261356
30
0
10
71.934648088718731
20
-14.922850560621388
30
0
10
72.292055204620794
20
-14.884706894989691
30
0
0
SPLINE
5
118
100
AcDbEntity
8
0
100
AcDbSpline
70
4
71
3
72
8
73
4
74
0
42
0.000000001
43
0.0000000001
44
0.0000000001
40
0
40
0
40
0
40
0
40
1
40
1
40
1
40
1
41
1
41
1
41
1
41
1
10
72.292055204620794
20
-14.884706894989691
30
0
10
72.387527410892844
20
-14.875227499678177
30
0
10
72.488285685419243
20
-14.86067197161324
30
0
10
72.592359864268133
20
-14.843037389534576
30
0
0
LINE
5
119
100
AcDbEntity
8
0
100
AcDbLine
10
72.592359864268133
20
-14.843037389534576
30
0
11
72.626977690076387
21
-14.950196005358753
31
0
0
SPLINE
5
120
100
AcDbEntity
8
0
100
AcDbSpline
70
4
71
3
72
8
73
4
74
0
42
0.000000001
43
0.0000000001
44
0.0000000001
40
0
40
0
40
0
40
0
40
1
40
1
40
1
40
1
41
1
41
1
41
1
41
1
10
72.626977690076387
20
-14.950196005358753
30
0
10
72.628301898620748
20
-14.954825352302489
30
0
10
72.77183856868416
20
-15.42556534094089
30
0
10
72.565902608188551
20
-15.707788632699863
30
0
0
SPLINE
5
121
100
AcDbEntity
8
0
100
AcDbSpline
70
4
71
3
72
8
73
4
74
0
42
0.000000001
43
0.0000000001
44
0.0000000001
40
0
40
0
40
0
40
0
40
1
40
1
40
1
40
1
41
1
41
1
41
1
41
1
10
72.565902608188551
20
-15.707788632699863
30
0
10
72.408477897293992
20
-15.923424689931039
30
0
10
72.015128747039284
20
-16.043588540890148
30
0
10
71.468322128561553
20
-16.039621298218616
30
0
0
SPLINE
5
122
100
AcDbEntity
8
0
100
AcDbSpline
70
4
71
3
72
8
73
4
74
0
42
0.000000001
43
0.0000000001
44
0.0000000001
40
0
40
0
40
0
40
0
40
1
40
1
40
1
40
1
41
1
41
1
41
1
41
1
10
71.468322128561553
20
-16.039621298218616
30
0
10
69.595514439514773
20
-16.033888444154577
30
0
10
67.358021870533463
20
-15.84470964300297
30
0
10
66.528771258872709
20
-15.767980908891461
30
0
0
SPLINE
5
123
100
AcDbEntity
8
0
100
AcDbSpline
70
4
71
3
72
8
73
4
74
0
42
0.000000001
43
0.0000000001
44
0.0000000001
40
0
40
0
40
0
40
0
40
1
40
1
40
1
40
1
41
1
41
1
41
1
41
1
10
66.528771258872709
20
-15.767980908891461
30
0
10
66.513338308073088
20
-15.7386545342991
30
0
10
66.498344068640819
20
-15.708671438396106
30
0
10
66.482911117841198
20
-15.679565765227812
30
0
0
SPLINE
5
124
100
AcDbEntity
8
0
100
AcDbSpline
70
4
71
3
72
8
73
4
74
0
42
0.000000001
43
0.0000000001
44
0.0000000001
40
0
40
0
40
0
40
0
40
1
40
1
40
1
40
1
41
1
41
1
41
1
41
1
10
66.482911117841198
20
-15.679565765227812
30
0
10
67.234988901061556
20
-15.130557515471031
30
0
10
69.567953676314914
20
-13.520126138902393
30
0
10
72.555981810028925
20
-12.353310007658845
30
0
0
SPLINE
5
125
100
AcDbEntity
8
0
100
AcDbSpline
70
4
71
3
72
8
73
4
74
0
42
0.000000001
43
0.0000000001
44
0.0000000001
40
0
40
0
40
0
40
0
40
1
40
1
40
1
40
1
41
1
41
1
41
1
41
1
10
65.279272838029542
20
-22.649575119243632
30
0
10
65.231426384181489
20
-22.713072533834584
30
0
10
65.203426909614279
20
-22.769738970202759
30
0
10
65.18821196875794
20
-22.820672552506885
30
0
0
SPLINE
5
126
100
AcDbEntity
8
0
100
AcDbSpline
70
4
71
3
72
8
73
4
74
0
42
0.000000001
43
0.0000000001
44
0.0000000001
40
0
40
0
40
0
40
0
40
1
40
1
40
1
40
1
41
1
41
1
41
1
41
1
10
65.18821196875794
20
-22.820672552506885
30
0
10
64.624430180992945
20
-23.593256727799488
30
0
10
63.881169688811937
20
-24.067963959109431
30
0
10
63.064049581032208
20
-24.067958576147866
30
0
0
SPLINE
5
127
100
AcDbEntity
8
0
100
AcDbSpline
70
4
71
3
72
8
73
4
74
0
42
0.000000001
43
0.0000000001
44
0.0000000001
40
0
40
0
40
0
40
0
40
1
40
1
40
1
40
1
41
1
41
1
41
1
41
1
10
63.064049581032208
20
-24.067958576147866
30
0
10
62.242959539100141
20
-24.067958576147866
30
0
10
61.495511102823514
20
-23.587959893622006
30
0
10
60.930625807938213
20
-22.807661934410387
30
0
0
SPLINE
5
128
100
AcDbEntity
8
0
100
AcDbSpline
70
4
71
3
72
8
73
4
74
0
42
0.000000001
43
0.0000000001
44
0.0000000001
40
0
40
0
40
0
40
0
40
1
40
1
40
1
40
1
41
1
41
1
41
1
41
1
10
60.930625807938213
20
-22.807661934410387
30
0
10
60.914530752866405
20
-22.760259574891236
30
0
10
60.886307885394366
20
-22.707560381194604
30
0
10
60.842652067122685
20
-22.649575119243632
30
0
0
SPLINE
5
129
100
AcDbEntity
8
0
100
AcDbSpline
70
4
71
3
72
8
73
4
74
0
42
0.000000001
43
0.0000000001
44
0.0000000001
40
0
40
0
40
0
40
0
40
1
40
1
40
1
40
1
41
1
41
1
41
1
41
1
10
60.842652067122685
20
-22.649575119243632
30
0
10
60.495165749380263
20
-22.18589219321364
30
0
10
60.842652067122685
20
-21.819447084848186
30
0
10
61.364102245160396
20
-21.896617221807816
30
0
0
SPLINE
5
130
100
AcDbEntity
8
0
100
AcDbSpline
70
4
71
3
72
8
73
4
74
0
42
0.000000001
43
0.0000000001
44
0.0000000001
40
0
40
0
40
0
40
0
40
1
40
1
40
1
40
1
41
1
41
1
41
1
41
1
10
61.364102245160396
20
-21.896617221807816
30
0
10
61.386150855720288
20
-21.899701658783112
30
0
10
61.407537362007986
20
-21.900363763055299
30
0
10
61.428923868295712
20
-21.901467270175601
30
0
0
SPLINE
5
131
100
AcDbEntity
8
0
100
AcDbSpline
70
4
71
3
72
8
73
4
74
0
42
0.000000001
43
0.0000000001
44
0.0000000001
40
0
40
0
40
0
40
0
40
1
40
1
40
1
40
1
41
1
41
1
41
1
41
1
10
61.428923868295712
20
-21.901467270175601
30
0
10
61.94067125811705
20
-21.96739240043123
30
0
10
62.531575097714565
20
-22.015456864222571
30
0
10
63.172527022439183
20
-22.015456864222571
30
0
0
SPLINE
5
132
100
AcDbEntity
8
0
100
AcDbSpline
70
4
71
3
72
8
73
4
74
0
42
0.000000001
43
0.0000000001
44
0.0000000001
40
0
40
0
40
0
40
0
40
1
40
1
40
1
40
1
41
1
41
1
41
1
41
1
10
63.172527022439183
20
-22.015456864222571
30
0
10
63.72462509213284
20
-22.015456864222571
30
0
10
64.313763320337856
20
-21.977975302863058
30
0
10
64.917895787975155
20
-21.88757384638286
30
0
0
SPLINE
5
133
100
AcDbEntity
8
0
100
AcDbSpline
70
4
71
3
72
8
73
4
74
0
42
0.000000001
43
0.0000000001
44
0.0000000001
40
0
40
0
40
0
40
0
40
1
40
1
40
1
40
1
41
1
41
1
41
1
41
1
10
64.917895787975155
20
-21.88757384638286
30
0
10
65.344977266861108
20
-21.899922360207178
30
0
10
65.589937007203858
20
-22.235501566973397
30
0
10
65.279272838029542
20
-22.649575119243632
30
0
0
SPLINE
5
134
100
AcDbEntity
8
0
100
AcDbSpline
70
4
71
3
72
8
73
4
74
0
42
0.000000001
43
0.0000000001
44
0.0000000001
40
0
40
0
40
0
40
0
40
1
40
1
40
1
40
1
41
1
41
1
41
1
41
1
10
67.212940290501649
20
-17.288678316213645
30
0
10
68.115388413488972
20
-17.34842918955712
30
0
10
70.156209098823695
20
-17.555247955748953
30
0
10
72.3533509879327
20
-18.258155076576873
30
0
0
SPLINE
5
135
100
AcDbEntity
8
0
100
AcDbSpline
70
4
71
3
72
8
73
4
74
0
42
0.000000001
43
0.0000000001
44
0.0000000001
40
0
40
0
40
0
40
0
40
1
40
1
40
1
40
1
41
1
41
1
41
1
41
1
10
72.3533509879327
20
-18.258155076576873
30
0
10
73.361192115351685
20
-18.580287645360048
30
0
10
73.603506130086473
20
-18.949160469390179
30
0
10
73.582119623798761
20
-19.024559611995755
30
0
0
SPLINE
5
136
100
AcDbEntity
8
0
100
AcDbSpline
70
4
71
3
72
8
73
4
74
0
42
0.000000001
43
0.0000000001
44
0.0000000001
40
0
40
0
40
0
40
0
40
1
40
1
40
1
40
1
41
1
41
1
41
1
41
1
10
73.582119623798761
20
-19.024559611995755
30
0
10
73.522589451879355
20
-19.235345620859139
30
0
10
72.801821664587138
20
-19.610613403225496
30
0
10
71.737093399375908
20
-19.349555916330168
30
0
0
LINE
5
137
100
AcDbEntity
8
0
100
AcDbLine
10
71.737093399375922
20
-19.349555916330168
30
0
11
71.204400906114984
21
-19.21880916293922
31
0
0
LINE
5
138
100
AcDbEntity
8
0
100
AcDbLine
10
71.204400906114984
20
-19.21880916293922
30
0
11
71.015884209235566
21
-19.733646372697411
31
0
0
SPLINE
5
139
100
AcDbEntity
8
0
100
AcDbSpline
70
4
71
3
72
8
73
4
74
0
42
0.000000001
43
0.0000000001
44
0.0000000001
40
0
40
0
40
0
40
0
40
1
40
1
40
1
40
1
41
1
41
1
41
1
41
1
10
71.015884209235566
20
-19.733646372697411
30
0
10
70.999127049891598
20
-19.779288503785626
30
0
10
70.868380296500646
20
-20.037697573592226
30
0
10
70.68934299493273
20
-20.08664484307981
30
0
0
SPLINE
5
140
100
AcDbEntity
8
0
100
AcDbSpline
70
4
71
3
72
8
73
4
74
0
42
0.000000001
43
0.0000000001
44
0.0000000001
40
0
40
0
40
0
40
0
40
1
40
1
40
1
40
1
41
1
41
1
41
1
41
1
10
70.68934299493273
20
-20.08664484307981
30
0
10
70.527062852708809
20
-20.131404168471782
30
0
10
70.259836491862885
20
-20.014545455912021
30
0
10
69.957330200936511
20
-19.767160691385371
30
0
0
SPLINE
5
141
100
AcDbEntity
8
0
100
AcDbSpline
70
4
71
3
72
8
73
4
74
0
42
0.000000001
43
0.0000000001
44
0.0000000001
40
0
40
0
40
0
40
0
40
1
40
1
40
1
40
1
41
1
41
1
41
1
41
1
10
69.957330200936511
20
-19.767160691385371
30
0
10
68.756343029694364
20
-18.785556118621891
30
0
10
67.570347406403727
20
-17.639249070931371
30
0
10
67.212940290501649
20
-17.288678316213645
30
0
0
SPLINE
5
142
100
AcDbEntity
8
0
100
AcDbSpline
70
4
71
3
72
8
73
4
74
0
42
0.000000001
43
0.0000000001
44
0.0000000001
40
0
40
0
40
0
40
0
40
1
40
1
40
1
40
1
41
1
41
1
41
1
41
1
10
59.645406054166479
20
-15.679571148189375
30
0
10
59.629752401942795
20
-15.708676821357672
30
0
10
59.614978863934581
20
-15.738659917260662
30
0
10
59.599545913134975
20
-15.767986291853015
30
0
0
SPLINE
5
143
100
AcDbEntity
8
0
100
AcDbSpline
70
4
71
3
72
8
73
4
74
0
42
0.000000001
43
0.0000000001
44
0.0000000001
40
0
40
0
40
0
40
0
40
1
40
1
40
1
40
1
41
1
41
1
41
1
41
1
10
59.599545913134975
20
-15.767986291853015
30
0
10
58.770518694379049
20
-15.844715025964536
30
0
10
56.532584722549622
20
-16.033893827116135
30
0
10
54.660000426407684
20
-16.039621298218616
30
0
0
SPLINE
5
144
100
AcDbEntity
8
0
100
AcDbSpline
70
4
71
3
72
8
73
4
74
0
42
0.000000001
43
0.0000000001
44
0.0000000001
40
0
40
0
40
0
40
0
40
1
40
1
40
1
40
1
41
1
41
1
41
1
41
1
10
54.660000426407684
20
-16.039621298218616
30
0
10
54.114076613626203
20
-16.041386909611099
30
0
10
53.720068050580082
20
-15.923424689931039
30
0
10
53.562199245356616
20
-15.707567931275804
30
0
0
SPLINE
5
145
100
AcDbEntity
8
0
100
AcDbSpline
70
0
71
2
72
6
73
3
74
0
42
0.000000001
43
0.0000000001
44
0.0000000001
40
0
40
0
40
0
40
1
40
1
40
1
10
53.562199245356616
20
-15.707567931275804
30
0
10
53.356486677765872
20
-15.42556534094089
30
0
10
53.499581944981145
20
-14.95526675515061
30
0
0
LINE
5
146
100
AcDbEntity
8
0
100
AcDbLine
10
53.499581944981145
20
-14.95526675515061
30
0
11
53.537946312036894
21
-14.843478792382703
31
0
0
SPLINE
5
147
100
AcDbEntity
8
0
100
AcDbSpline
70
4
71
3
72
8
73
4
74
0
42
0.000000001
43
0.0000000001
44
0.0000000001
40
0
40
0
40
0
40
0
40
1
40
1
40
1
40
1
41
1
41
1
41
1
41
1
10
53.537946312036894
20
-14.843478792382703
30
0
10
53.641353003652021
20
-14.861118757422926
30
0
10
53.741454556867801
20
-14.87544820110223
30
0
10
53.836485360291718
20
-14.884712277951255
30
0
0
SPLINE
5
148
100
AcDbEntity
8
0
100
AcDbSpline
70
4
71
3
72
8
73
4
74
0
42
0.000000001
43
0.0000000001
44
0.0000000001
40
0
40
0
40
0
40
0
40
1
40
1
40
1
40
1
41
1
41
1
41
1
41
1
10
53.836485360291718
20
-14.884712277951255
30
0
10
54.193892476193788
20
-14.922855943582949
30
0
10
54.4930936287208
20
-14.928368096222922
30
0
10
54.745328441615257
20
-14.935645860255384
30
0
0
SPLINE
5
149
100
AcDbEntity
8
0
100
AcDbSpline
70
4
71
3
72
8
73
4
74
0
42
0.000000001
43
0.0000000001
44
0.0000000001
40
0
40
0
40
0
40
0
40
1
40
1
40
1
40
1
41
1
41
1
41
1
41
1
10
54.745328441615257
20
-14.935645860255384
30
0
10
55.250242161733013
20
-14.944683852718786
30
0
10
55.570609119123695
20
-14.962103116334953
30
0
10
55.789108911906098
20
-14.973568824463026
30
0
0
SPLINE
5
150
100
AcDbEntity
8
0
100
AcDbSpline
70
4
71
3
72
8
73
4
74
0
42
0.000000001
43
0.0000000001
44
0.0000000001
40
0
40
0
40
0
40
0
40
1
40
1
40
1
40
1
41
1
41
1
41
1
41
1
10
55.789108911906098
20
-14.973568824463026
30
0
10
55.896485537673556
20
-14.982827518350476
30
0
10
55.980050632969416
20
-14.981067289919546
30
0
10
56.042005829072721
20
-14.98304821977454
30
0
0
SPLINE
5
151
100
AcDbEntity
8
0
100
AcDbSpline
70
4
71
3
72
8
73
4
74
0
42
0.000000001
43
0.0000000001
44
0.0000000001
40
0
40
0
40
0
40
0
40
1
40
1
40
1
40
1
41
1
41
1
41
1
41
1
10
56.042005829072721
20
-14.98304821977454
30
0
10
56.104181726600075
20
-14.983489622622663
30
0
10
56.147619534928467
20
-14.978198171406751
30
0
10
56.178485436527694
20
-14.968718776095233
30
0
0
SPLINE
5
152
100
AcDbEntity
8
0
100
AcDbSpline
70
4
71
3
72
8
73
4
74
0
42
0.000000001
43
0.0000000001
44
0.0000000001
40
0
40
0
40
0
40
0
40
1
40
1
40
1
40
1
41
1
41
1
41
1
41
1
10
56.178485436527694
20
-14.968718776095233
30
0
10
56.240222622687725
20
-14.9499753039347
30
0
10
56.25058482369549
20
-14.915142159663919
30
0
10
56.260947024703256
20
-14.878317319615038
30
0
0
SPLINE
5
153
100
AcDbEntity
8
0
100
AcDbSpline
70
4
71
3
72
8
73
4
74
0
42
0.000000001
43
0.0000000001
44
0.0000000001
40
0
40
0
40
0
40
0
40
1
40
1
40
1
40
1
41
1
41
1
41
1
41
1
10
56.260947024703256
20
-14.878317319615038
30
0
10
56.271088524286945
20
-14.841497862527707
30
0
10
56.281453416775491
20
-14.806659335295373
30
0
10
56.234269067199619
20
-14.760575801359025
30
0
0
SPLINE
5
154
100
AcDbEntity
8
0
100
AcDbSpline
70
4
71
3
72
8
73
4
74
0
42
0.000000001
43
0.0000000001
44
0.0000000001
40
0
40
0
40
0
40
0
40
1
40
1
40
1
40
1
41
1
41
1
41
1
41
1
10
56.234269067199619
20
-14.760575801359025
30
0
10
56.210236835303945
20
-14.737423683678831
30
0
10
56.172093169672266
20
-14.711628531871453
30
0
10
56.111677500575823
20
-14.681419351582843
30
0
0
SPLINE
5
155
100
AcDbEntity
8
0
100
AcDbSpline
70
4
71
3
72
8
73
4
74
0
42
0.000000001
43
0.0000000001
44
0.0000000001
40
0
40
0
40
0
40
0
40
1
40
1
40
1
40
1
41
1
41
1
41
1
41
1
10
56.111677500575823
20
-14.681419351582843
30
0
10
56.051264522960167
20
-14.64967064428736
30
0
10
55.967699427664314
20
-14.623434089631859
30
0
10
55.854810649256876
20
-14.587712756703279
30
0
0
SPLINE
5
156
100
AcDbEntity
8
0
100
AcDbSpline
70
4
71
3
72
8
73
4
74
0
42
0.000000001
43
0.0000000001
44
0.0000000001
40
0
40
0
40
0
40
0
40
1
40
1
40
1
40
1
41
1
41
1
41
1
41
1
10
55.854810649256876
20
-14.587712756703279
30
0
10
55.741701169425383
20
-14.557067556528111
30
0
10
55.598605902210124
20
-14.523773939264213
30
0
10
55.419350590698926
20
-14.496654578912462
30
0
0
SPLINE
5
157
100
AcDbEntity
8
0
100
AcDbSpline
70
4
71
3
72
8
73
4
74
0
42
0.000000001
43
0.0000000001
44
0.0000000001
40
0
40
0
40
0
40
0
40
1
40
1
40
1
40
1
41
1
41
1
41
1
41
1
10
55.419350590698926
20
-14.496654578912462
30
0
10
55.329613929971714
20
-14.481883732385036
30
0
10
55.231716699515765
20
-14.471300829953211
30
0
10
55.12345726805205
20
-14.458290211856708
30
0
0
SPLINE
5
158
100
AcDbEntity
8
0
100
AcDbSpline
70
4
71
3
72
8
73
4
74
0
42
0.000000001
43
0.0000000001
44
0.0000000001
40
0
40
0
40
0
40
0
40
1
40
1
40
1
40
1
41
1
41
1
41
1
41
1
10
55.12345726805205
20
-14.458290211856708
30
0
10
55.016080642284599
20
-14.447486608000819
30
0
10
54.898562516933431
20
-14.436020899872751
30
0
10
54.772442419005429
20
-14.426320803137171
30
0
0
SPLINE
5
159
100
AcDbEntity
8
0
100
AcDbSpline
70
4
71
3
72
8
73
4
74
0
42
0.000000001
43
0.0000000001
44
0.0000000001
40
0
40
0
40
0
40
0
40
1
40
1
40
1
40
1
41
1
41
1
41
1
41
1
10
54.772442419005429
20
-14.426320803137171
30
0
10
54.519545501838813
20
-14.405154998273517
30
0
10
54.228281526135653
20
-14.38839783892954
30
0
10
53.901301600465487
20
-14.346286930626299
30
0
0
SPLINE
5
160
100
AcDbEntity
8
0
100
AcDbSpline
70
4
71
3
72
8
73
4
74
0
42
0.000000001
43
0.0000000001
44
0.0000000001
40
0
40
0
40
0
40
0
40
1
40
1
40
1
40
1
41
1
41
1
41
1
41
1
10
53.901301600465487
20
-14.346286930626299
30
0
10
53.736819826962517
20
-14.326886737155139
30
0
10
53.566384497971441
20
-14.294249841201854
30
0
10
53.386687783612139
20
-14.253904544291105
30
0
0
SPLINE
5
161
100
AcDbEntity
8
0
100
AcDbSpline
70
4
71
3
72
8
73
4
74
0
42
0.000000001
43
0.0000000001
44
0.0000000001
40
0
40
0
40
0
40
0
40
1
40
1
40
1
40
1
41
1
41
1
41
1
41
1
10
53.386687783612139
20
-14.253904544291105
30
0
10
53.341707756796097
20
-14.242438836163041
30
0
10
53.297610535676306
20
-14.229207516642477
30
0
10
53.251971096068864
20
-14.216643684355663
30
0
0
SPLINE
5
162
100
AcDbEntity
8
0
100
AcDbSpline
70
4
71
3
72
8
73
4
74
0
42
0.000000001
43
0.0000000001
44
0.0000000001
40
0
40
0
40
0
40
0
40
1
40
1
40
1
40
1
41
1
41
1
41
1
41
1
10
53.251971096068864
20
-14.216643684355663
30
0
10
53.216914558893258
20
-14.207384990468206
30
0
10
53.182296733084975
20
-14.196360685188257
30
0
10
53.147240195909369
20
-14.184674275636127
30
0
0
SPLINE
5
163
100
AcDbEntity
8
0
100
AcDbSpline
70
4
71
3
72
8
73
4
74
0
42
0.000000001
43
0.0000000001
44
0.0000000001
40
0
40
0
40
0
40
0
40
1
40
1
40
1
40
1
41
1
41
1
41
1
41
1
10
53.147240195909369
20
-14.184674275636127
30
0
10
51.840639318811476
20
-13.552983736279732
30
0
10
51.409808607197256
20
-12.553959899900079
30
0
10
51.556873808564838
20
-12.212427137645754
30
0
0
SPLINE
5
164
100
AcDbEntity
8
0
100
AcDbSpline
70
4
71
3
72
8
73
4
74
0
42
0.000000001
43
0.0000000001
44
0.0000000001
40
0
40
0
40
0
40
0
40
1
40
1
40
1
40
1
41
1
41
1
41
1
41
1
10
51.556873808564838
20
-12.212427137645754
30
0
10
51.649256194900033
20
-11.998556691807082
30
0
10
52.277641595857048
20
-11.847742257711227
30
0
10
53.571896650611414
20
-12.353315390620399
30
0
0
SPLINE
5
165
100
AcDbEntity
8
0
100
AcDbSpline
70
4
71
3
72
8
73
4
74
0
42
0.000000001
43
0.0000000001
44
0.0000000001
40
0
40
0
40
0
40
0
40
1
40
1
40
1
40
1
41
1
41
1
41
1
41
1
10
53.571896650611414
20
-12.353315390620399
30
0
10
56.560145485749487
20
-13.520126138902393
30
0
10
58.893107569522058
20
-15.130557515471031
30
0
10
59.645406054166479
20
-15.679571148189375
30
0
0
SPLINE
5
166
100
AcDbEntity
8
0
100
AcDbSpline
70
4
71
3
72
8
73
4
74
0
42
0.000000001
43
0.0000000001
44
0.0000000001
40
0
40
0
40
0
40
0
40
1
40
1
40
1
40
1
41
1
41
1
41
1
41
1
10
53.774968875555764
20
-18.258149693615316
30
0
10
55.965718497809327
20
-17.55722350264238
30
0
10
58.010727127239662
20
-17.349527313715861
30
0
10
58.915161563043519
20
-17.28889363467615
30
0
0
SPLINE
5
167
100
AcDbEntity
8
0
100
AcDbSpline
70
4
71
3
72
8
73
4
74
0
42
0.000000001
43
0.0000000001
44
0.0000000001
40
0
40
0
40
0
40
0
40
1
40
1
40
1
40
1
41
1
41
1
41
1
41
1
10
58.915161563043519
20
-17.28889363467615
30
0
10
58.557313044293338
20
-17.639905792241986
30
0
10
57.373080340914399
20
-18.784894014349696
30
0
10
56.170992354032734
20
-19.767160691385371
30
0
0
SPLINE
5
168
100
AcDbEntity
8
0
100
AcDbSpline
70
4
71
3
72
8
73
4
74
0
42
0.000000001
43
0.0000000001
44
0.0000000001
40
0
40
0
40
0
40
0
40
1
40
1
40
1
40
1
41
1
41
1
41
1
41
1
10
56.170992354032734
20
-19.767160691385371
30
0
10
55.869807580169933
20
-20.013000545943584
30
0
10
55.603240632115401
20
-20.128976452807102
30
0
10
55.441625285644463
20
-20.087306947351991
30
0
0
SPLINE
5
169
100
AcDbEntity
8
0
100
AcDbSpline
70
4
71
3
72
8
73
4
74
0
42
0.000000001
43
0.0000000001
44
0.0000000001
40
0
40
0
40
0
40
0
40
1
40
1
40
1
40
1
41
1
41
1
41
1
41
1
10
55.441625285644463
20
-20.087306947351991
30
0
10
55.281772859085208
20
-20.045637441896869
30
0
10
55.149039792877716
20
-19.826690863304783
30
0
10
55.11222033579039
20
-19.733646372697411
30
0
0
LINE
5
170
100
AcDbEntity
8
0
100
AcDbLine
10
55.11222033579039
20
-19.733646372697411
30
0
11
54.923482937486909
21
-19.21880916293922
31
0
0
LINE
5
171
100
AcDbEntity
8
0
100
AcDbLine
10
54.923482937486909
20
-19.21880916293922
30
0
11
54.391008454169253
21
-19.349555916330168
31
0
0
SPLINE
5
172
100
AcDbEntity
8
0
100
AcDbSpline
70
4
71
3
72
8
73
4
74
0
42
0.000000001
43
0.0000000001
44
0.0000000001
40
0
40
0
40
0
40
0
40
1
40
1
40
1
40
1
41
1
41
1
41
1
41
1
10
54.391008454169253
20
-19.349555916330168
30
0
10
53.325838786109912
20
-19.610392701801427
30
0
10
52.605512401665813
20
-19.235566322283198
30
0
10
52.546200239689696
20
-19.024559611995755
30
0
0
SPLINE
5
173
100
AcDbEntity
8
0
100
AcDbSpline
70
4
71
3
72
8
73
4
74
0
42
0.000000001
43
0.0000000001
44
0.0000000001
40
0
40
0
40
0
40
0
40
1
40
1
40
1
40
1
41
1
41
1
41
1
41
1
10
52.546200239689696
20
-19.024559611995755
30
0
10
52.524813733401984
20
-18.949155086428611
30
0
10
52.766686345288662
20
-18.580502963822543
30
0
10
53.774968875555764
20
-18.258149693615316
30
0
0
SPLINE
5
174
100
AcDbEntity
8
0
100
AcDbSpline
70
4
71
3
72
8
73
4
74
0
42
0.000000001
43
0.0000000001
44
0.0000000001
40
0
40
0
40
0
40
0
40
1
40
1
40
1
40
1
41
1
41
1
41
1
41
1
10
66.235965064681892
20
-19.480749455530791
30
0
10
66.231556419162246
20
-19.604665230698956
30
0
10
66.225602863674141
20
-19.727472115785247
30
0
10
66.215240662666375
20
-19.848739473864676
30
0
0
SPLINE
5
175
100
AcDbEntity
8
0
100
AcDbSpline
70
4
71
3
72
8
73
4
74
0
42
0.000000001
43
0.0000000001
44
0.0000000001
40
0
40
0
40
0
40
0
40
1
40
1
40
1
40
1
41
1
41
1
41
1
41
1
10
66.215240662666375
20
-19.848739473864676
30
0
10
66.118005536482599
20
-20.2645786375274
30
0
10
65.763464847612582
20
-20.507113353686254
30
0
10
64.874019268279426
20
-20.621985753429467
30
0
0
SPLINE
5
176
100
AcDbEntity
8
0
100
AcDbSpline
70
4
71
3
72
8
73
4
74
0
42
0.000000001
43
0.0000000001
44
0.0000000001
40
0
40
0
40
0
40
0
40
1
40
1
40
1
40
1
41
1
41
1
41
1
41
1
10
64.874019268279426
20
-20.621985753429467
30
0
10
64.72320752566435
20
-20.641606648324682
30
0
10
64.595103806400573
20
-20.67269863430954
30
0
10
64.482877132265344
20
-20.709959494244981
30
0
0
SPLINE
5
177
100
AcDbEntity
8
0
100
AcDbSpline
70
4
71
3
72
8
73
4
74
0
42
0.000000001
43
0.0000000001
44
0.0000000001
40
0
40
0
40
0
40
0
40
1
40
1
40
1
40
1
41
1
41
1
41
1
41
1
10
64.482877132265344
20
-20.709959494244981
30
0
10
63.368760194718412
20
-20.844899574693095
30
0
10
62.315279627691979
20
-20.780293270020277
30
0
10
61.503227578223317
20
-20.671153724341103
30
0
0
SPLINE
5
178
100
AcDbEntity
8
0
100
AcDbSpline
70
4
71
3
72
8
73
4
74
0
42
0.000000001
43
0.0000000001
44
0.0000000001
40
0
40
0
40
0
40
0
40
1
40
1
40
1
40
1
41
1
41
1
41
1
41
1
10
61.503227578223317
20
-20.671153724341103
30
0
10
61.424953934143375
20
-20.651532829445884
30
0
10
61.341612231752372
20
-20.634334267253777
30
0
10
61.247905636872808
20
-20.621985753429467
30
0
0
SPLINE
5
179
100
AcDbEntity
8
0
100
AcDbSpline
70
4
71
3
72
8
73
4
74
0
42
0.000000001
43
0.0000000001
44
0.0000000001
40
0
40
0
40
0
40
0
40
1
40
1
40
1
40
1
41
1
41
1
41
1
41
1
10
61.247905636872808
20
-20.621985753429467
30
0
10
60.388671929309048
20
-20.510859894933734
30
0
10
60.028837097742318
20
-20.281115095447319
30
0
10
59.917493229303304
20
-19.890855765129484
30
0
0
SPLINE
5
180
100
AcDbEntity
8
0
100
AcDbSpline
70
4
71
3
72
8
73
4
74
0
42
0.000000001
43
0.0000000001
44
0.0000000001
40
0
40
0
40
0
40
0
40
1
40
1
40
1
40
1
41
1
41
1
41
1
41
1
10
59.917493229303304
20
-19.890855765129484
30
0
10
59.903161094143229
20
-19.73629478978615
30
0
10
59.894341111623106
20
-19.579526800202199
30
0
10
59.890594570375626
20
-19.420557179339202
30
0
0
SPLINE
5
181
100
AcDbEntity
8
0
100
AcDbSpline
70
4
71
3
72
8
73
4
74
0
42
0.000000001
43
0.0000000001
44
0.0000000001
40
0
40
0
40
0
40
0
40
1
40
1
40
1
40
1
41
1
41
1
41
1
41
1
10
59.890594570375626
20
-19.420557179339202
30
0
10
59.96071033620764
20
-18.99942656446056
30
0
10
60.298273164309641
20
-18.667819983327441
30
0
10
60.727779667379494
20
-18.520752090479071
30
0
0
SPLINE
5
182
100
AcDbEntity
8
0
100
AcDbSpline
70
4
71
3
72
8
73
4
74
0
42
0.000000001
43
0.0000000001
44
0.0000000001
40
0
40
0
40
0
40
0
40
1
40
1
40
1
40
1
41
1
41
1
41
1
41
1
10
60.727779667379494
20
-18.520752090479071
30
0
10
61.710267045839217
20
-18.291227992416729
30
0
10
63.252124875063501
20
-18.076474740881796
30
0
10
64.942592815623797
20
-18.387136218575332
30
0
0
SPLINE
5
183
100
AcDbEntity
8
0
100
AcDbSpline
70
4
71
3
72
8
73
4
74
0
42
0.000000001
43
0.0000000001
44
0.0000000001
40
0
40
0
40
0
40
0
40
1
40
1
40
1
40
1
41
1
41
1
41
1
41
1
10
64.942592815623797
20
-18.387136218575332
30
0
10
65.059451528183544
20
-18.423955675662658
30
0
10
65.168591073862729
20
-18.455930467343759
30
0
10
65.259872644558385
20
-18.477979077903655
30
0
0
SPLINE
5
184
100
AcDbEntity
8
0
100
AcDbSpline
70
4
71
3
72
8
73
4
74
0
42
0.000000001
43
0.0000000001
44
0.0000000001
40
0
40
0
40
0
40
0
40
1
40
1
40
1
40
1
41
1
41
1
41
1
41
1
10
65.259872644558385
20
-18.477979077903655
30
0
10
65.773385645772208
20
-18.601894853071816
30
0
10
66.184590079529627
20
-18.986642030749685
30
0
10
66.235965064681892
20
-19.480749455530791
30
0
0
SPLINE
5
185
100
AcDbEntity
8
0
100
AcDbSpline
70
4
71
3
72
8
73
4
74
0
42
0.000000001
43
0.0000000001
44
0.0000000001
40
0
40
0
40
0
40
0
40
1
40
1
40
1
40
1
41
1
41
1
41
1
41
1
10
60.606070906451933
20
-16.189999712427902
30
0
10
61.047043117649849
20
-15.47319916780722
30
0
10
62.298522468348011
20
-15.488411417182784
30
0
10
62.939253691648567
20
-15.385446128415762
30
0
0
SPLINE
5
186
100
AcDbEntity
8
0
100
AcDbSpline
70
4
71
3
72
8
73
4
74
0
42
0.000000001
43
0.0000000001
44
0.0000000001
40
0
40
0
40
0
40
0
40
1
40
1
40
1
40
1
41
1
41
1
41
1
41
1
10
62.939253691648567
20
-15.385446128415762
30
0
10
63.003857304840608
20
-15.383459815599213
30
0
10
63.069341032248118
20
-15.38192028859234
30
0
10
63.135486863927795
20
-15.38169420420672
30
0
0
SPLINE
5
187
100
AcDbEntity
8
0
100
AcDbSpline
70
4
71
3
72
8
73
4
74
0
42
0.000000001
43
0.0000000001
44
0.0000000001
40
0
40
0
40
0
40
0
40
1
40
1
40
1
40
1
41
1
41
1
41
1
41
1
10
63.135486863927795
20
-15.38169420420672
30
0
10
63.768501611828569
20
-15.489073521454964
30
0
10
65.047541725726575
20
-15.463935090958209
30
0
10
65.494026089564471
20
-16.190656433738525
30
0
0
SPLINE
5
188
100
AcDbEntity
8
0
100
AcDbSpline
70
4
71
3
72
8
73
4
74
0
42
0.000000001
43
0.0000000001
44
0.0000000001
40
0
40
0
40
0
40
0
40
1
40
1
40
1
40
1
41
1
41
1
41
1
41
1
10
65.494026089564471
20
-16.190656433738525
30
0
10
65.516516102972489
20
-16.227475890825847
30
0
10
65.538564713532395
20
-16.256802265418209
30
0
10
65.560392622668218
20
-16.285687237162449
30
0
0
SPLINE
5
189
100
AcDbEntity
8
0
100
AcDbSpline
70
4
71
3
72
8
73
4
74
0
42
0.000000001
43
0.0000000001
44
0.0000000001
40
0
40
0
40
0
40
0
40
1
40
1
40
1
40
1
41
1
41
1
41
1
41
1
10
65.560392622668218
20
-16.285687237162449
30
0
10
65.752214457946991
20
-16.711226497560752
30
0
10
65.897516739402874
20
-17.222311783109895
30
0
10
65.503287474932691
20
-17.249872546309767
30
0
0
SPLINE
5
190
100
AcDbEntity
8
0
100
AcDbSpline
70
4
71
3
72
8
73
4
74
0
42
0.000000001
43
0.0000000001
44
0.0000000001
40
0
40
0
40
0
40
0
40
1
40
1
40
1
40
1
41
1
41
1
41
1
41
1
10
65.503287474932691
20
-17.249872546309767
30
0
10
63.714483592549129
20
-16.855425271896316
30
0
10
62.063924929013027
20
-16.999839364694388
30
0
10
60.895127867914468
20
-17.228265338598
30
0
0
SPLINE
5
191
100
AcDbEntity
8
0
100
AcDbSpline
70
4
71
3
72
8
73
4
74
0
42
0.000000001
43
0.0000000001
44
0.0000000001
40
0
40
0
40
0
40
0
40
1
40
1
40
1
40
1
41
1
41
1
41
1
41
1
10
60.895127867914468
20
-17.228265338598
30
0
10
60.851913452490933
20
-17.231791178421417
30
0
10
60.808696345586604
20
-17.234880998358271
30
0
10
60.765261228738993
20
-17.241938060966678
30
0
0
SPLINE
5
192
100
AcDbEntity
8
0
100
AcDbSpline
70
4
71
3
72
8
73
4
74
0
42
0.000000001
43
0.0000000001
44
0.0000000001
40
0
40
0
40
0
40
0
40
1
40
1
40
1
40
1
41
1
41
1
41
1
41
1
10
60.765261228738993
20
-17.241938060966678
30
0
10
60.152750181429695
20
-17.342039614182454
30
0
10
60.373898391300848
20
-16.674186339049363
30
0
10
60.606070906451933
20
-16.189999712427902
30
0
0
SPLINE
5
193
100
AcDbEntity
8
0
100
AcDbSpline
70
4
71
3
72
8
73
4
74
0
42
0.000000001
43
0.0000000001
44
0.0000000001
40
0
40
0
40
0
40
0
40
1
40
1
40
1
40
1
41
1
41
1
41
1
41
1
10
73.893453971687606
20
-15.08602427446468
30
0
10
75.356160734097259
20
-14.224362851236247
30
0
10
76.153877956925044
20
-12.788560130715849
30
0
10
75.696579223308134
20
-11.727578406752105
30
0
0
SPLINE
5
194
100
AcDbEntity
8
0
100
AcDbSpline
70
4
71
3
72
8
73
4
74
0
42
0.000000001
43
0.0000000001
44
0.0000000001
40
0
40
0
40
0
40
0
40
1
40
1
40
1
40
1
41
1
41
1
41
1
41
1
10
75.696579223308134
20
-11.727578406752105
30
0
10
75.530773241260803
20
-11.342831229074235
30
0
10
74.782003287920588
20
-10.168522015335721
30
0
10
72.110154167501648
20
-11.212084475683287
30
0
0
SPLINE
5
195
100
AcDbEntity
8
0
100
AcDbSpline
70
4
71
3
72
8
73
4
74
0
42
0.000000001
43
0.0000000001
44
0.0000000001
40
0
40
0
40
0
40
0
40
1
40
1
40
1
40
1
41
1
41
1
41
1
41
1
10
72.110154167501648
20
-11.212084475683287
30
0
10
69.460132956218544
20
-12.246824262029964
30
0
10
67.33971441825949
20
-13.58627735354364
30
0
10
66.254043741089475
20
-14.337475022548528
30
0
0
SPLINE
5
196
100
AcDbEntity
8
0
100
AcDbSpline
70
4
71
3
72
8
73
4
74
0
42
0.000000001
43
0.0000000001
44
0.0000000001
40
0
40
0
40
0
40
0
40
1
40
1
40
1
40
1
41
1
41
1
41
1
41
1
10
66.254043741089475
20
-14.337475022548528
30
0
10
66.316661041464954
20
-14.098907549061215
30
0
10
66.350175360152917
20
-13.853288395927068
30
0
10
66.350175360152917
20
-13.603696617159805
30
0
0
SPLINE
5
197
100
AcDbEntity
8
0
100
AcDbSpline
70
4
71
3
72
8
73
4
74
0
42
0.000000001
43
0.0000000001
44
0.0000000001
40
0
40
0
40
0
40
0
40
1
40
1
40
1
40
1
41
1
41
1
41
1
41
1
10
66.350175360152917
20
-13.603696617159805
30
0
10
66.350175360152917
20
-12.360598537614425
30
0
10
65.554000355812775
20
-11.290358119763233
30
0
10
64.414747679249885
20
-10.807931721572704
30
0
0
SPLINE
5
198
100
AcDbEntity
8
0
100
AcDbSpline
70
4
71
3
72
8
73
4
74
0
42
0.000000001
43
0.0000000001
44
0.0000000001
40
0
40
0
40
0
40
0
40
1
40
1
40
1
40
1
41
1
41
1
41
1
41
1
10
64.414747679249885
20
-10.807931721572704
30
0
10
64.490814309089203
20
-10.605526983862092
30
0
10
64.603485077553358
20
-10.343365989846463
30
0
10
64.792661187224198
20
-10.014623144264569
30
0
0
SPLINE
5
199
100
AcDbEntity
8
0
100
AcDbSpline
70
4
71
3
72
8
73
4
74
0
42
0.000000001
43
0.0000000001
44
0.0000000001
40
0
40
0
40
0
40
0
40
1
40
1
40
1
40
1
41
1
41
1
41
1
41
1
10
64.792661187224198
20
-10.014623144264569
30
0
10
64.924732149159496
20
-9.7917093230009407
30
0
10
65.091420936903077
20
-9.5368314759793282
30
0
10
65.32337005914934
20
-9.2788584260592977
30
0
0
SPLINE
5
200
100
AcDbEntity
8
0
100
AcDbSpline
70
4
71
3
72
8
73
4
74
0
42
0.000000001
43
0.0000000001
44
0.0000000001
40
0
40
0
40
0
40
0
40
1
40
1
40
1
40
1
41
1
41
1
41
1
41
1
10
65.32337005914934
20
-9.2788584260592977
30
0
10
65.439125264588796
20
-9.1498719010992886
30
0
10
65.571416927948164
20
-9.0211114605248888
30
0
10
65.723552879107601
20
-8.9049148522373134
30
0
0
SPLINE
5
201
100
AcDbEntity
8
0
100
AcDbSpline
70
4
71
3
72
8
73
4
74
0
42
0.000000001
43
0.0000000001
44
0.0000000001
40
0
40
0
40
0
40
0
40
1
40
1
40
1
40
1
41
1
41
1
41
1
41
1
10
65.723552879107601
20
-8.9049148522373134
30
0
10
65.798739394731456
20
-8.8447225760457222
30
0
10
65.881200982907018
20
-8.79334759089347
30
0
10
65.966308296690514
20
-8.7430761128615195
30
0
0
SPLINE
5
202
100
AcDbEntity
8
0
100
AcDbSpline
70
4
71
3
72
8
73
4
74
0
42
0.000000001
43
0.0000000001
44
0.0000000001
40
0
40
0
40
0
40
0
40
1
40
1
40
1
40
1
41
1
41
1
41
1
41
1
10
65.966308296690514
20
-8.7430761128615195
30
0
10
66.052739819018399
20
-8.6958944547664281
30
0
10
66.14357998686593
20
-8.6546609691978773
30
0
10
66.238166695960956
20
-8.6231329633264622
30
0
0
SPLINE
5
203
100
AcDbEntity
8
0
100
AcDbSpline
70
4
71
3
72
8
73
4
74
0
42
0.000000001
43
0.0000000001
44
0.0000000001
40
0
40
0
40
0
40
0
40
1
40
1
40
1
40
1
41
1
41
1
41
1
41
1
10
66.238166695960956
20
-8.6231329633264622
30
0
10
66.285571746960869
20
-8.6105637480780892
30
0
10
66.33319749938488
20
-8.5953514987025255
30
0
10
66.374207592048592
20
-8.5898393460625559
30
0
0
LINE
5
204
100
AcDbEntity
8
0
100
AcDbLine
10
66.374207592048606
20
-8.5898393460625559
30
0
11
66.405296886552662
21
-8.5832236863022722
31
0
0
SPLINE
5
205
100
AcDbEntity
8
0
100
AcDbSpline
70
4
71
3
72
8
73
4
74
0
42
0.000000001
43
0.0000000001
44
0.0000000001
40
0
40
0
40
0
40
0
40
1
40
1
40
1
40
1
41
1
41
1
41
1
41
1
10
66.405296886552662
20
-8.5832236863022722
30
0
10
66.415659087560428
20
-8.5816787763338471
30
0
10
66.423375562960246
20
-8.5823408806060275
30
0
10
66.43241624690441
20
-8.5814580749097793
30
0
0
LINE
5
206
100
AcDbEntity
8
0
100
AcDbLine
10
66.43241624690441
20
-8.5814580749097793
30
0
11
66.445203472096082
21
-8.5805752692135329
31
0
0
LINE
5
207
100
AcDbEntity
8
0
100
AcDbLine
10
66.445203472096082
20
-8.5805752692135329
30
0
11
66.460636422895675
21
-8.5805752692135329
31
0
0
SPLINE
5
208
100
AcDbEntity
8
0
100
AcDbSpline
70
4
71
3
72
8
73
4
74
0
42
0.000000001
43
0.0000000001
44
0.0000000001
40
0
40
0
40
0
40
0
40
1
40
1
40
1
40
1
41
1
41
1
41
1
41
1
10
66.460636422895675
20
-8.5805752692135329
30
0
10
66.471440026751566
20
-8.5807959706376007
30
0
10
66.481581526335276
20
-8.5801338663654114
30
0
10
66.492385130191153
20
-8.5807959706376007
30
0
0
SPLINE
5
209
100
AcDbEntity
8
0
100
AcDbSpline
70
4
71
3
72
8
73
4
74
0
42
0.000000001
43
0.0000000001
44
0.0000000001
40
0
40
0
40
0
40
0
40
1
40
1
40
1
40
1
41
1
41
1
41
1
41
1
10
66.492385130191153
20
-8.5807959706376007
30
0
10
66.576830339702468
20
-8.5841011090369541
30
0
10
66.661937653485964
20
-8.599539442798136
30
0
10
66.741535506110296
20
-8.6257759974536405
30
0
0
SPLINE
5
210
100
AcDbEntity
8
0
100
AcDbSpline
70
4
71
3
72
8
73
4
74
0
42
0.000000001
43
0.0000000001
44
0.0000000001
40
0
40
0
40
0
40
0
40
1
40
1
40
1
40
1
41
1
41
1
41
1
41
1
10
66.741535506110296
20
-8.6257759974536405
30
0
10
66.901829335517661
20
-8.6769302811818356
30
0
10
67.038971047244829
20
-8.7660075291176653
30
0
10
67.136868277700771
20
-8.864343470940943
30
0
0
SPLINE
5
211
100
AcDbEntity
8
0
100
AcDbSpline
70
4
71
3
72
8
73
4
74
0
42
0.000000001
43
0.0000000001
44
0.0000000001
40
0
40
0
40
0
40
0
40
1
40
1
40
1
40
1
41
1
41
1
41
1
41
1
10
67.136868277700771
20
-8.864343470940943
30
0
10
67.234103403884532
20
-8.9642243227326635
30
0
10
67.288560134531309
20
-9.072481062715589
30
0
10
67.308186412388096
20
-9.1750103315960416
30
0
0
SPLINE
5
212
100
AcDbEntity
8
0
100
AcDbSpline
70
4
71
3
72
8
73
4
74
0
42
0.000000001
43
0.0000000001
44
0.0000000001
40
0
40
0
40
0
40
0
40
1
40
1
40
1
40
1
41
1
41
1
41
1
41
1
10
67.308186412388096
20
-9.1750103315960416
30
0
10
67.317886509123653
20
-9.2268267195964171
30
0
10
67.319431419092098
20
-9.277975620363053
30
0
10
67.314581370724312
20
-9.3284677998190695
30
0
0
SPLINE
5
213
100
AcDbEntity
8
0
100
AcDbSpline
70
4
71
3
72
8
73
4
74
0
42
0.000000001
43
0.0000000001
44
0.0000000001
40
0
40
0
40
0
40
0
40
1
40
1
40
1
40
1
41
1
41
1
41
1
41
1
10
67.314581370724312
20
-9.3284677998190695
30
0
10
67.309289919508387
20
-9.3789599792750771
30
0
10
67.29605859998783
20
-9.4290107558829632
30
0
10
67.28040494776414
20
-9.4768545182502422
30
0
0
SPLINE
5
214
100
AcDbEntity
8
0
100
AcDbSpline
70
4
71
3
72
8
73
4
74
0
42
0.000000001
43
0.0000000001
44
0.0000000001
40
0
40
0
40
0
40
0
40
1
40
1
40
1
40
1
41
1
41
1
41
1
41
1
10
67.28040494776414
20
-9.4768545182502422
30
0
10
67.263427086996103
20
-9.5236001564587713
30
0
10
67.243362097771993
20
-9.563504050521388
30
0
10
67.222637695756461
20
-9.597459772057487
30
0
0
SPLINE
5
215
100
AcDbEntity
8
0
100
AcDbSpline
70
4
71
3
72
8
73
4
74
0
42
0.000000001
43
0.0000000001
44
0.0000000001
40
0
40
0
40
0
40
0
40
1
40
1
40
1
40
1
41
1
41
1
41
1
41
1
10
67.222637695756461
20
-9.597459772057487
30
0
10
67.20080978662061
20
-9.6296498822010808
30
0
10
67.177657668940412
20
-9.6554450340084585
30
0
10
67.154728944165058
20
-9.6757334161374189
30
0
0
SPLINE
5
216
100
AcDbEntity
8
0
100
AcDbSpline
70
4
71
3
72
8
73
4
74
0
42
0.000000001
43
0.0000000001
44
0.0000000001
40
0
40
0
40
0
40
0
40
1
40
1
40
1
40
1
41
1
41
1
41
1
41
1
10
67.154728944165058
20
-9.6757334161374189
30
0
10
67.13157682648486
20
-9.6962371167288968
30
0
10
67.107544594589186
20
-9.7085856305532037
30
0
10
67.083512362693511
20
-9.7189478315609747
30
0
0
SPLINE
5
217
100
AcDbEntity
8
0
100
AcDbSpline
70
4
71
3
72
8
73
4
74
0
42
0.000000001
43
0.0000000001
44
0.0000000001
40
0
40
0
40
0
40
0
40
1
40
1
40
1
40
1
41
1
41
1
41
1
41
1
10
67.083512362693511
20
-9.7189478315609747
30
0
10
67.059259429373782
20
-9.7290893311446691
30
0
10
67.034785794630011
20
-9.7346014837846511
30
0
10
67.010312159886212
20
-9.7359256923290225
30
0
0
SPLINE
5
218
100
AcDbEntity
8
0
100
AcDbSpline
70
4
71
3
72
8
73
4
74
0
42
0.000000001
43
0.0000000001
44
0.0000000001
40
0
40
0
40
0
40
0
40
1
40
1
40
1
40
1
41
1
41
1
41
1
41
1
10
67.010312159886212
20
-9.7359256923290225
30
0
10
66.961144188974572
20
-9.7403343378486866
30
0
10
66.913739137974645
20
-9.7284272268724905
30
0
10
66.875154069494812
20
-9.7110133462178876
30
0
0
SPLINE
5
219
100
AcDbEntity
8
0
100
AcDbSpline
70
4
71
3
72
8
73
4
74
0
42
0.000000001
43
0.0000000001
44
0.0000000001
40
0
40
0
40
0
40
0
40
1
40
1
40
1
40
1
41
1
41
1
41
1
41
1
10
66.875154069494812
20
-9.7110133462178876
30
0
10
66.836569001014993
20
-9.6927112769054737
30
0
10
66.806362512207187
20
-9.6686817364905782
30
0
10
66.78343109595103
20
-9.6435433059938269
30
0
0
SPLINE
5
220
100
AcDbEntity
8
0
100
AcDbSpline
70
4
71
3
72
8
73
4
74
0
42
0.000000001
43
0.0000000001
44
0.0000000001
40
0
40
0
40
0
40
0
40
1
40
1
40
1
40
1
41
1
41
1
41
1
41
1
10
66.78343109595103
20
-9.6435433059938269
30
0
10
66.737570954919519
20
-9.5926097236896943
30
0
10
66.718609472815714
20
-9.5363846901696512
30
0
10
66.707803177479036
20
-9.4883202263783151
30
0
0
SPLINE
5
221
100
AcDbEntity
8
0
100
AcDbSpline
70
4
71
3
72
8
73
4
74
0
42
0.000000001
43
0.0000000001
44
0.0000000001
40
0
40
0
40
0
40
0
40
1
40
1
40
1
40
1
41
1
41
1
41
1
41
1
10
66.707803177479036
20
-9.4883202263783151
30
0
10
66.701187517718751
20
-9.4642853030018657
30
0
10
66.699866000655192
20
-9.4417952895938413
30
0
10
66.695236653711447
20
-9.4221743946986241
30
0
0
SPLINE
5
222
100
AcDbEntity
8
0
100
AcDbSpline
70
4
71
3
72
8
73
4
74
0
42
0.000000001
43
0.0000000001
44
0.0000000001
40
0
40
0
40
0
40
0
40
1
40
1
40
1
40
1
41
1
41
1
41
1
41
1
10
66.695236653711447
20
-9.4221743946986241
30
0
10
66.692811629527554
20
-9.4027742012274622
30
0
10
66.689283098223356
20
-9.3855756390353591
30
0
10
66.685095154127737
20
-9.3707994095463683
30
0
0
SPLINE
5
223
100
AcDbEntity
8
0
100
AcDbSpline
70
4
71
3
72
8
73
4
74
0
42
0.000000001
43
0.0000000001
44
0.0000000001
40
0
40
0
40
0
40
0
40
1
40
1
40
1
40
1
41
1
41
1
41
1
41
1
10
66.685095154127737
20
-9.3707994095463683
30
0
10
66.673188043151569
20
-9.3119313418991396
30
0
10
66.640997933007952
20
-9.2938499740107936
30
0
10
66.606382798680457
20
-9.2788584260592977
30
0
0
SPLINE
5
224
100
AcDbEntity
8
0
100
AcDbSpline
70
4
71
3
72
8
73
4
74
0
42
0.000000001
43
0.0000000001
44
0.0000000001
40
0
40
0
40
0
40
0
40
1
40
1
40
1
40
1
41
1
41
1
41
1
41
1
10
66.606382798680457
20
-9.2788584260592977
30
0
10
66.571105560080781
20
-9.263425475259691
30
0
10
66.538912758456405
20
-9.2455648087953897
30
0
10
66.481586909296837
20
-9.2998035294988863
30
0
0
SPLINE
5
225
100
AcDbEntity
8
0
100
AcDbSpline
70
4
71
3
72
8
73
4
74
0
42
0.000000001
43
0.0000000001
44
0.0000000001
40
0
40
0
40
0
40
0
40
1
40
1
40
1
40
1
41
1
41
1
41
1
41
1
10
66.481586909296837
20
-9.2998035294988863
30
0
10
66.468578982681109
20
-9.3139122717541341
30
0
10
66.454467548945075
20
-9.3335385496109158
30
0
10
66.438813896721399
20
-9.3595544028423596
30
0
0
SPLINE
5
226
100
AcDbEntity
8
0
100
AcDbSpline
70
4
71
3
72
8
73
4
74
0
42
0.000000001
43
0.0000000001
44
0.0000000001
40
0
40
0
40
0
40
0
40
1
40
1
40
1
40
1
41
1
41
1
41
1
41
1
10
66.438813896721399
20
-9.3595544028423596
30
0
10
66.42558526868163
20
-9.386894464618166
30
0
10
66.409048810761689
20
-9.419746679033949
30
0
10
66.399566723969414
20
-9.4647267058499889
30
0
0
SPLINE
5
227
100
AcDbEntity
8
0
100
AcDbSpline
70
4
71
3
72
8
73
4
74
0
42
0.000000001
43
0.0000000001
44
0.0000000001
40
0
40
0
40
0
40
0
40
1
40
1
40
1
40
1
41
1
41
1
41
1
41
1
10
66.399566723969414
20
-9.4647267058499889
30
0
10
66.396479595513327
20
-9.4755303097058707
30
0
10
66.393833869905379
20
-9.4872167192580026
30
0
10
66.391629547145556
20
-9.4993445316582559
30
0
0
SPLINE
5
228
100
AcDbEntity
8
0
100
AcDbSpline
70
4
71
3
72
8
73
4
74
0
42
0.000000001
43
0.0000000001
44
0.0000000001
40
0
40
0
40
0
40
0
40
1
40
1
40
1
40
1
41
1
41
1
41
1
41
1
10
66.391629547145556
20
-9.4993445316582559
30
0
10
66.390087328657899
20
-9.5119137469066413
30
0
10
66.38854241868944
20
-9.5249189820415765
30
0
10
66.386779498777756
20
-9.5383710029861994
30
0
0
SPLINE
5
229
100
AcDbEntity
8
0
100
AcDbSpline
70
4
71
3
72
8
73
4
74
0
42
0.000000001
43
0.0000000001
44
0.0000000001
40
0
40
0
40
0
40
0
40
1
40
1
40
1
40
1
41
1
41
1
41
1
41
1
10
66.386779498777756
20
-9.5383710029861994
30
0
10
66.383471668897613
20
-9.5657110647620041
30
0
10
66.384795877441988
20
-9.5956995436265569
30
0
10
66.386338095929617
20
-9.628551758042331
30
0
0
SPLINE
5
230
100
AcDbEntity
8
0
100
AcDbSpline
70
4
71
3
72
8
73
4
74
0
42
0.000000001
43
0.0000000001
44
0.0000000001
40
0
40
0
40
0
40
0
40
1
40
1
40
1
40
1
41
1
41
1
41
1
41
1
10
66.386338095929617
20
-9.628551758042331
30
0
10
66.391850248569625
20
-9.6933733811776523
30
0
10
66.408828109337662
20
-9.7696607124410395
30
0
10
66.449838202001374
20
-9.8483757593691088
30
0
0
SPLINE
5
231
100
AcDbEntity
8
0
100
AcDbSpline
70
4
71
3
72
8
73
4
74
0
42
0.000000001
43
0.0000000001
44
0.0000000001
40
0
40
0
40
0
40
0
40
1
40
1
40
1
40
1
41
1
41
1
41
1
41
1
10
66.449838202001374
20
-9.8483757593691088
30
0
10
66.490406891816946
20
-9.9268701048731103
30
0
10
66.554789803584939
20
-10.006462574535862
30
0
10
66.646071374280609
20
-10.071510282056803
30
0
0
SPLINE
5
232
100
AcDbEntity
8
0
100
AcDbSpline
70
4
71
3
72
8
73
4
74
0
42
0.000000001
43
0.0000000001
44
0.0000000001
40
0
40
0
40
0
40
0
40
1
40
1
40
1
40
1
41
1
41
1
41
1
41
1
10
66.646071374280609
20
-10.071510282056803
30
0
10
66.691931515312092
20
-10.103479690776345
30
0
10
66.744186614679819
20
-10.133026766792764
30
0
10
66.803278075231873
20
-10.153971870232352
30
0
0
SPLINE
5
233
100
AcDbEntity
8
0
100
AcDbSpline
70
4
71
3
72
8
73
4
74
0
42
0.000000001
43
0.0000000001
44
0.0000000001
40
0
40
0
40
0
40
0
40
1
40
1
40
1
40
1
41
1
41
1
41
1
41
1
10
66.803278075231873
20
-10.153971870232352
30
0
10
66.862148834359871
20
-10.176241182216309
30
0
10
66.927632561767382
20
-10.19079132731968
30
0
10
66.998187038966734
20
-10.194984654376846
30
0
0
SPLINE
5
234
100
AcDbEntity
8
0
100
AcDbSpline
70
4
71
3
72
8
73
4
74
0
42
0.000000001
43
0.0000000001
44
0.0000000001
40
0
40
0
40
0
40
0
40
1
40
1
40
1
40
1
41
1
41
1
41
1
41
1
10
66.998187038966734
20
-10.194984654376846
30
0
10
67.138857281998114
20
-10.205788258232737
30
0
10
67.303341746981857
20
-10.165437578360423
30
0
10
67.4431264928362
20
-10.068205143657449
30
0
0
SPLINE
5
235
100
AcDbEntity
8
0
100
AcDbSpline
70
4
71
3
72
8
73
4
74
0
42
0.000000001
43
0.0000000001
44
0.0000000001
40
0
40
0
40
0
40
0
40
1
40
1
40
1
40
1
41
1
41
1
41
1
41
1
10
67.4431264928362
20
-10.068205143657449
30
0
10
67.512136060067135
20
-10.019478575593922
30
0
10
67.574093947651207
20
-9.9584034937060899
30
0
10
67.627234544195943
20
-9.8896092449376702
30
0
0
SPLINE
5
236
100
AcDbEntity
8
0
100
AcDbSpline
70
4
71
3
72
8
73
4
74
0
42
0.000000001
43
0.0000000001
44
0.0000000001
40
0
40
0
40
0
40
0
40
1
40
1
40
1
40
1
41
1
41
1
41
1
41
1
10
67.627234544195943
20
-9.8896092449376702
30
0
10
67.678609529348194
20
-9.820158274858624
30
0
10
67.721161840499576
20
-9.7438655606336599
30
0
10
67.755117562035679
20
-9.6633902852746765
30
0
0
SPLINE
5
237
100
AcDbEntity
8
0
100
AcDbSpline
70
4
71
3
72
8
73
4
74
0
42
0.000000001
43
0.0000000001
44
0.0000000001
40
0
40
0
40
0
40
0
40
1
40
1
40
1
40
1
41
1
41
1
41
1
41
1
10
67.755117562035679
20
-9.6633902852746765
30
0
10
67.787086970755212
20
-9.5829150099156806
30
0
10
67.815089136803195
20
-9.4953772889867132
30
0
10
67.830080684754691
20
-9.3983655557077945
30
0
0
SPLINE
5
238
100
AcDbEntity
8
0
100
AcDbSpline
70
4
71
3
72
8
73
4
74
0
42
0.000000001
43
0.0000000001
44
0.0000000001
40
0
40
0
40
0
40
0
40
1
40
1
40
1
40
1
41
1
41
1
41
1
41
1
10
67.830080684754691
20
-9.3983655557077945
30
0
10
67.844189427009937
20
-9.3013538224288865
30
0
10
67.846396441250533
20
-9.1964022208453144
30
0
10
67.829639281906552
20
-9.0892436050211316
30
0
0
SPLINE
5
239
100
AcDbEntity
8
0
100
AcDbSpline
70
4
71
3
72
8
73
4
74
0
42
0.000000001
43
0.0000000001
44
0.0000000001
40
0
40
0
40
0
40
0
40
1
40
1
40
1
40
1
41
1
41
1
41
1
41
1
10
67.829639281906552
20
-9.0892436050211316
30
0
10
67.798552678883283
20
-8.8742696520621536
30
0
10
67.690069854514718
20
-8.6597371019512899
30
0
10
67.529119303796733
20
-8.4901845786564643
30
0
0
SPLINE
5
240
100
AcDbEntity
8
0
100
AcDbSpline
70
4
71
3
72
8
73
4
74
0
42
0.000000001
43
0.0000000001
44
0.0000000001
40
0
40
0
40
0
40
0
40
1
40
1
40
1
40
1
41
1
41
1
41
1
41
1
10
67.529119303796733
20
-8.4901845786564643
30
0
10
67.367721967269048
20
-8.3204113539375797
30
0
10
67.160246479766585
20
-8.1845884677932226
30
0
10
66.913521128031363
20
-8.1025682824657981
30
0
0
SPLINE
5
241
100
AcDbEntity
8
0
100
AcDbSpline
70
4
71
3
72
8
73
4
74
0
42
0.000000001
43
0.0000000001
44
0.0000000001
40
0
40
0
40
0
40
0
40
1
40
1
40
1
40
1
41
1
41
1
41
1
41
1
10
66.913521128031363
20
-8.1025682824657981
30
0
10
66.790049447192104
20
-8.0611194784347369
30
0
10
66.655553461072884
20
-8.034215436545491
30
0
10
66.511796089585431
20
-8.0282618810573965
30
0
0
SPLINE
5
242
100
AcDbEntity
8
0
100
AcDbSpline
70
4
71
3
72
8
73
4
74
0
42
0.000000001
43
0.0000000001
44
0.0000000001
40
0
40
0
40
0
40
0
40
1
40
1
40
1
40
1
41
1
41
1
41
1
41
1
10
66.511796089585431
20
-8.0282618810573965
30
0
10
66.493717413177862
20
-8.0273790753611518
30
0
10
66.47541534386545
20
-8.027599776785209
30
0
10
66.45689526460977
20
-8.0273790753611518
30
0
0
LINE
5
243
100
AcDbEntity
8
0
100
AcDbLine
10
66.456895264609784
20
-8.0273790753611536
30
0
11
66.429555202833953
21
-8.0273790753611518
31
0
0
LINE
5
244
100
AcDbEntity
8
0
100
AcDbLine
10
66.429555202833953
20
-8.0273790753611518
30
0
11
66.399128012602077
21
-8.0291446867536447
31
0
0
SPLINE
5
245
100
AcDbEntity
8
0
100
AcDbSpline
70
4
71
3
72
8
73
4
74
0
42
0.000000001
43
0.0000000001
44
0.0000000001
40
0
40
0
40
0
40
0
40
1
40
1
40
1
40
1
41
1
41
1
41
1
41
1
10
66.399128012602077
20
-8.0291446867536447
30
0
10
66.379063023377952
20
-8.0306895967220697
30
0
10
66.357235114242116
20
-8.0311309995701929
30
0
10
66.338273632138282
20
-8.0339947351214356
30
0
0
SPLINE
5
246
100
AcDbEntity
8
0
100
AcDbSpline
70
4
71
3
72
8
73
4
74
0
42
0.000000001
43
0.0000000001
44
0.0000000001
40
0
40
0
40
0
40
0
40
1
40
1
40
1
40
1
41
1
41
1
41
1
41
1
10
66.338273632138282
20
-8.0339947351214356
30
0
10
66.320194955730742
20
-8.037299873520789
30
0
10
66.301672184994246
20
-8.0406103948817087
30
0
10
66.283152105738537
20
-8.0436948318570156
30
0
0
SPLINE
5
247
100
AcDbEntity
8
0
100
AcDbSpline
70
4
71
3
72
8
73
4
74
0
42
0.000000001
43
0.0000000001
44
0.0000000001
40
0
40
0
40
0
40
0
40
1
40
1
40
1
40
1
41
1
41
1
41
1
41
1
10
66.283152105738537
20
-8.0436948318570156
30
0
10
66.207085475899248
20
-8.0556019428332011
30
0
10
66.140277539947348
20
-8.0761056434246665
30
0
10
66.070161774115348
20
-8.0955112198573946
30
0
0
SPLINE
5
248
100
AcDbEntity
8
0
100
AcDbSpline
70
4
71
3
72
8
73
4
74
0
42
0.000000001
43
0.0000000001
44
0.0000000001
40
0
40
0
40
0
40
0
40
1
40
1
40
1
40
1
41
1
41
1
41
1
41
1
10
66.070161774115348
20
-8.0955112198573946
30
0
10
65.933240763812236
20
-8.1407119480974881
30
0
10
65.808886277276727
20
-8.1982558072003471
30
0
10
65.694893991748984
20
-8.2613172019047312
30
0
0
SPLINE
5
249
100
AcDbEntity
8
0
100
AcDbSpline
70
4
71
3
72
8
73
4
74
0
42
0.000000001
43
0.0000000001
44
0.0000000001
40
0
40
0
40
0
40
0
40
1
40
1
40
1
40
1
41
1
41
1
41
1
41
1
10
65.694893991748984
20
-8.2613172019047312
30
0
10
65.583326730405133
20
-8.3270216307363008
30
0
10
65.478816531669693
20
-8.394933073808474
30
0
10
65.386654846758574
20
-8.4692340922553129
30
0
0
SPLINE
5
250
100
AcDbEntity
8
0
100
AcDbSpline
70
4
71
3
72
8
73
4
74
0
42
0.000000001
43
0.0000000001
44
0.0000000001
40
0
40
0
40
0
40
0
40
1
40
1
40
1
40
1
41
1
41
1
41
1
41
1
10
65.386654846758574
20
-8.4692340922553129
30
0
10
65.199903761271656
20
-8.6147570751352518
30
0
10
65.04732640726408
20
-8.7690973490545172
30
0
10
64.916579653873129
20
-8.920347803036929
30
0
0
SPLINE
5
251
100
AcDbEntity
8
0
100
AcDbSpline
70
4
71
3
72
8
73
4
74
0
42
0.000000001
43
0.0000000001
44
0.0000000001
40
0
40
0
40
0
40
0
40
1
40
1
40
1
40
1
41
1
41
1
41
1
41
1
10
64.916579653873129
20
-8.920347803036929
30
0
10
64.655304157034536
20
-9.2232954968114349
30
0
10
64.480016088194887
20
-9.5138946767616268
30
0
10
64.345520102075682
20
-9.7689986081688609
30
0
0
SPLINE
5
252
100
AcDbEntity
8
0
100
AcDbSpline
70
4
71
3
72
8
73
4
74
0
42
0.000000001
43
0.0000000001
44
0.0000000001
40
0
40
0
40
0
40
0
40
1
40
1
40
1
40
1
41
1
41
1
41
1
41
1
10
64.345520102075682
20
-9.7689986081688609
30
0
10
64.160090533652323
20
-10.133021383831197
30
0
10
64.061313188980918
20
-10.42935341784543
30
0
10
64.007295169701479
20
-10.663953648661199
30
0
0
SPLINE
5
253
100
AcDbEntity
8
0
100
AcDbSpline
70
4
71
3
72
8
73
4
74
0
42
0.000000001
43
0.0000000001
44
0.0000000001
40
0
40
0
40
0
40
0
40
1
40
1
40
1
40
1
41
1
41
1
41
1
41
1
10
64.007295169701479
20
-10.663953648661199
30
0
10
63.708535420022585
20
-10.580167851941273
30
0
10
63.392579799632372
20
-10.533648298118372
30
0
10
63.064937769690005
20
-10.533648298118372
30
0
0
SPLINE
5
254
100
AcDbEntity
8
0
100
AcDbSpline
70
4
71
3
72
8
73
4
74
0
42
0.000000001
43
0.0000000001
44
0.0000000001
40
0
40
0
40
0
40
0
40
1
40
1
40
1
40
1
41
1
41
1
41
1
41
1
10
63.064937769690005
20
-10.533648298118372
30
0
10
62.736633635475471
20
-10.533648298118372
30
0
10
62.420236612237119
20
-10.580173234902839
30
0
10
62.1210354597101
20
-10.664174350085254
30
0
0
SPLINE
5
255
100
AcDbEntity
8
0
100
AcDbSpline
70
4
71
3
72
8
73
4
74
0
42
0.000000001
43
0.0000000001
44
0.0000000001
40
0
40
0
40
0
40
0
40
1
40
1
40
1
40
1
41
1
41
1
41
1
41
1
10
62.1210354597101
20
-10.664174350085254
30
0
10
62.06723814185473
20
-10.42957950223105
30
0
10
61.968237404278469
20
-10.133242085255265
30
0
10
61.782810527335918
20
-9.7689986081688609
30
0
0
SPLINE
5
256
100
AcDbEntity
8
0
100
AcDbSpline
70
4
71
3
72
8
73
4
74
0
42
0.000000001
43
0.0000000001
44
0.0000000001
40
0
40
0
40
0
40
0
40
1
40
1
40
1
40
1
41
1
41
1
41
1
41
1
10
61.782810527335918
20
-9.7689986081688609
30
0
10
61.648314541216692
20
-9.5138946767616268
30
0
10
61.473026472377072
20
-9.2232954968114349
30
0
10
61.21197167696252
20
-8.920347803036929
30
0
0
SPLINE
5
257
100
AcDbEntity
8
0
100
AcDbSpline
70
4
71
3
72
8
73
4
74
0
42
0.000000001
43
0.0000000001
44
0.0000000001
40
0
40
0
40
0
40
0
40
1
40
1
40
1
40
1
41
1
41
1
41
1
41
1
10
61.21197167696252
20
-8.920347803036929
30
0
10
61.081004222147506
20
-8.7690919660929634
30
0
10
60.928647569564006
20
-8.6147516921736873
30
0
10
60.741675782653019
20
-8.4692340922553129
30
0
0
SPLINE
5
258
100
AcDbEntity
8
0
100
AcDbSpline
70
4
71
3
72
8
73
4
74
0
42
0.000000001
43
0.0000000001
44
0.0000000001
40
0
40
0
40
0
40
0
40
1
40
1
40
1
40
1
41
1
41
1
41
1
41
1
10
60.741675782653019
20
-8.4692340922553129
30
0
10
60.649732107685168
20
-8.3949276908469113
30
0
10
60.544562496158314
20
-8.3270216307363008
30
0
10
60.433436637662588
20
-8.2613172019047312
30
0
0
SPLINE
5
259
100
AcDbEntity
8
0
100
AcDbSpline
70
4
71
3
72
8
73
4
74
0
42
0.000000001
43
0.0000000001
44
0.0000000001
40
0
40
0
40
0
40
0
40
1
40
1
40
1
40
1
41
1
41
1
41
1
41
1
10
60.433436637662588
20
-8.2613172019047312
30
0
10
60.319444352134852
20
-8.1982558072003471
30
0
10
60.195089865599343
20
-8.1407119480974881
30
0
10
60.058168855296245
20
-8.0955112198573946
30
0
0
SPLINE
5
260
100
AcDbEntity
8
0
100
AcDbSpline
70
4
71
3
72
8
73
4
74
0
42
0.000000001
43
0.0000000001
44
0.0000000001
40
0
40
0
40
0
40
0
40
1
40
1
40
1
40
1
41
1
41
1
41
1
41
1
10
60.058168855296245
20
-8.0955112198573946
30
0
10
59.988053089464231
20
-8.0761110263862292
30
0
10
59.921247844993147
20
-8.0556019428332011
30
0
10
59.845399225097097
20
-8.0436948318570156
30
0
0
SPLINE
5
261
100
AcDbEntity
8
0
100
AcDbSpline
70
4
71
3
72
8
73
4
74
0
42
0.000000001
43
0.0000000001
44
0.0000000001
40
0
40
0
40
0
40
0
40
1
40
1
40
1
40
1
41
1
41
1
41
1
41
1
10
59.845399225097097
20
-8.0436948318570156
30
0
10
59.82665844441734
20
-8.0406103948817087
30
0
10
59.808356375104935
20
-8.037299873520789
30
0
10
59.790056997273282
20
-8.0339947351214356
30
0
0
SPLINE
5
262
100
AcDbEntity
8
0
100
AcDbSpline
70
4
71
3
72
8
73
4
74
0
42
0.000000001
43
0.0000000001
44
0.0000000001
40
0
40
0
40
0
40
0
40
1
40
1
40
1
40
1
41
1
41
1
41
1
41
1
10
59.790056997273282
20
-8.0339947351214356
30
0
10
59.771095515169478
20
-8.0311309995701929
30
0
10
59.749267606033634
20
-8.0306895967220697
30
0
10
59.729423318233579
20
-8.0291446867536447
30
0
0
LINE
5
263
100
AcDbEntity
8
0
100
AcDbLine
10
59.729423318233579
20
-8.0291446867536429
30
0
11
59.69877542657764
21
-8.0273790753611518
31
0
0
LINE
5
264
100
AcDbEntity
8
0
100
AcDbLine
10
59.69877542657764
20
-8.0273790753611518
30
0
11
59.671214663377761
21
-8.0273790753611518
31
0
0
SPLINE
5
265
100
AcDbEntity
8
0
100
AcDbSpline
70
4
71
3
72
8
73
4
74
0
42
0.000000001
43
0.0000000001
44
0.0000000001
40
0
40
0
40
0
40
0
40
1
40
1
40
1
40
1
41
1
41
1
41
1
41
1
10
59.671214663377761
20
-8.0273790753611518
30
0
10
59.652915285546122
20
-8.027599776785209
30
0
10
59.634613216233703
20
-8.0273790753611518
30
0
10
59.616534539826134
20
-8.0282618810573965
30
0
0
SPLINE
5
266
100
AcDbEntity
8
0
100
AcDbSpline
70
4
71
3
72
8
73
4
74
0
42
0.000000001
43
0.0000000001
44
0.0000000001
40
0
40
0
40
0
40
0
40
1
40
1
40
1
40
1
41
1
41
1
41
1
41
1
10
59.616534539826134
20
-8.0282618810573965
30
0
10
59.472556466914632
20
-8.034215436545491
30
0
10
59.338281182219475
20
-8.061114095473183
30
0
10
59.214809501380223
20
-8.1025682824657981
30
0
0
SPLINE
5
267
100
AcDbEntity
8
0
100
AcDbSpline
70
4
71
3
72
8
73
4
74
0
42
0.000000001
43
0.0000000001
44
0.0000000001
40
0
40
0
40
0
40
0
40
1
40
1
40
1
40
1
41
1
41
1
41
1
41
1
10
59.214809501380223
20
-8.1025682824657981
30
0
10
58.968086841125775
20
-8.1845884677932226
30
0
10
58.760608662142531
20
-8.320405970976017
30
0
10
58.599211325614853
20
-8.4901845786564643
30
0
0
SPLINE
5
268
100
AcDbEntity
8
0
100
AcDbSpline
70
4
71
3
72
8
73
4
74
0
42
0.000000001
43
0.0000000001
44
0.0000000001
40
0
40
0
40
0
40
0
40
1
40
1
40
1
40
1
41
1
41
1
41
1
41
1
10
58.599211325614853
20
-8.4901845786564643
30
0
10
58.43847609335937
20
-8.6597371019512899
30
0
10
58.32977795052831
20
-8.8742696520621536
30
0
10
58.298247253176129
20
-9.0892436050211316
30
0
0
SPLINE
5
269
100
AcDbEntity
8
0
100
AcDbSpline
70
4
71
3
72
8
73
4
74
0
42
0.000000001
43
0.0000000001
44
0.0000000001
40
0
40
0
40
0
40
0
40
1
40
1
40
1
40
1
41
1
41
1
41
1
41
1
10
58.298247253176129
20
-9.0892436050211316
30
0
10
58.281931496680258
20
-9.1964022208453144
30
0
10
58.283915118016019
20
-9.3013538224288865
30
0
10
58.298247253176129
20
-9.3983655557077945
30
0
0
SPLINE
5
270
100
AcDbEntity
8
0
100
AcDbSpline
70
4
71
3
72
8
73
4
74
0
42
0.000000001
43
0.0000000001
44
0.0000000001
40
0
40
0
40
0
40
0
40
1
40
1
40
1
40
1
41
1
41
1
41
1
41
1
10
58.298247253176129
20
-9.3983655557077945
30
0
10
58.313241492608384
20
-9.4953772889867132
30
0
10
58.340802255808264
20
-9.5829150099156806
30
0
10
58.373433768799984
20
-9.6631695838506104
30
0
0
SPLINE
5
271
100
AcDbEntity
8
0
100
AcDbSpline
70
4
71
3
72
8
73
4
74
0
42
0.000000001
43
0.0000000001
44
0.0000000001
40
0
40
0
40
0
40
0
40
1
40
1
40
1
40
1
41
1
41
1
41
1
41
1
10
58.373433768799984
20
-9.6631695838506104
30
0
10
58.407168788912003
20
-9.7438655606336599
30
0
10
58.449721100063378
20
-9.820158274858624
30
0
10
58.500654682367511
20
-9.8896092449376702
30
0
0
SPLINE
5
272
100
AcDbEntity
8
0
100
AcDbSpline
70
4
71
3
72
8
73
4
74
0
42
0.000000001
43
0.0000000001
44
0.0000000001
40
0
40
0
40
0
40
0
40
1
40
1
40
1
40
1
41
1
41
1
41
1
41
1
10
58.500654682367511
20
-9.8896092449376702
30
0
10
58.554013288855543
20
-9.9584034937060899
30
0
10
58.615968484958842
20
-10.019473192632361
30
0
10
58.685422146518661
20
-10.067984442233385
30
0
0
SPLINE
5
273
100
AcDbEntity
8
0
100
AcDbSpline
70
4
71
3
72
8
73
4
74
0
42
0.000000001
43
0.0000000001
44
0.0000000001
40
0
40
0
40
0
40
0
40
1
40
1
40
1
40
1
41
1
41
1
41
1
41
1
10
58.685422146518661
20
-10.067984442233385
30
0
10
58.825209583853784
20
-10.165437578360423
30
0
10
58.989473347413494
20
-10.205788258232737
30
0
10
59.129702187596713
20
-10.194984654376846
30
0
0
SPLINE
5
274
100
AcDbEntity
8
0
100
AcDbSpline
70
4
71
3
72
8
73
4
74
0
42
0.000000001
43
0.0000000001
44
0.0000000001
40
0
40
0
40
0
40
0
40
1
40
1
40
1
40
1
41
1
41
1
41
1
41
1
10
59.129702187596713
20
-10.194984654376846
30
0
10
59.200918769068267
20
-10.190796710281244
30
0
10
59.266402496475763
20
-10.176020480792252
30
0
10
59.325052554179706
20
-10.153971870232352
30
0
0
SPLINE
5
275
100
AcDbEntity
8
0
100
AcDbSpline
70
4
71
3
72
8
73
4
74
0
42
0.000000001
43
0.0000000001
44
0.0000000001
40
0
40
0
40
0
40
0
40
1
40
1
40
1
40
1
41
1
41
1
41
1
41
1
10
59.325052554179706
20
-10.153971870232352
30
0
10
59.384144014731774
20
-10.133026766792764
30
0
10
59.436399114099494
20
-10.103479690776345
30
0
10
59.481817852282873
20
-10.071510282056803
30
0
0
SPLINE
5
276
100
AcDbEntity
8
0
100
AcDbSpline
70
4
71
3
72
8
73
4
74
0
42
0.000000001
43
0.0000000001
44
0.0000000001
40
0
40
0
40
0
40
0
40
1
40
1
40
1
40
1
41
1
41
1
41
1
41
1
10
59.481817852282873
20
-10.071510282056803
30
0
10
59.573320124402599
20
-10.006467957497428
30
0
10
59.637921046113846
20
-9.9268701048731103
30
0
10
59.678713128834289
20
-9.8483757593691088
30
0
0
SPLINE
5
277
100
AcDbEntity
8
0
100
AcDbSpline
70
4
71
3
72
8
73
4
74
0
42
0.000000001
43
0.0000000001
44
0.0000000001
40
0
40
0
40
0
40
0
40
1
40
1
40
1
40
1
41
1
41
1
41
1
41
1
10
59.678713128834289
20
-9.8483757593691088
30
0
10
59.719502520073945
20
-9.7696607124410395
30
0
10
59.736480380841982
20
-9.6933733811776523
30
0
10
59.742213234906025
20
-9.628551758042331
30
0
0
SPLINE
5
278
100
AcDbEntity
8
0
100
AcDbSpline
70
4
71
3
72
8
73
4
74
0
42
0.000000001
43
0.0000000001
44
0.0000000001
40
0
40
0
40
0
40
0
40
1
40
1
40
1
40
1
41
1
41
1
41
1
41
1
10
59.742213234906025
20
-9.628551758042331
30
0
10
59.743537443450386
20
-9.5956995436265569
30
0
10
59.744638259089911
20
-9.5657110647620041
30
0
10
59.741109727785712
20
-9.5383710029861994
30
0
0
SPLINE
5
279
100
AcDbEntity
8
0
100
AcDbSpline
70
4
71
3
72
8
73
4
74
0
42
0.000000001
43
0.0000000001
44
0.0000000001
40
0
40
0
40
0
40
0
40
1
40
1
40
1
40
1
41
1
41
1
41
1
41
1
10
59.741109727785712
20
-9.5383710029861994
30
0
10
59.739785519241345
20
-9.5249189820415765
30
0
10
59.738243300753702
20
-9.5119137469066413
30
0
10
59.736701082266052
20
-9.4993445316582559
30
0
0
SPLINE
5
280
100
AcDbEntity
8
0
100
AcDbSpline
70
4
71
3
72
8
73
4
74
0
42
0.000000001
43
0.0000000001
44
0.0000000001
40
0
40
0
40
0
40
0
40
1
40
1
40
1
40
1
41
1
41
1
41
1
41
1
10
59.736701082266052
20
-9.4993445316582559
30
0
10
59.734496759506214
20
-9.4872167192580026
30
0
10
59.731409631050134
20
-9.4757510111299297
30
0
10
59.728763905442165
20
-9.4647267058499889
30
0
0
SPLINE
5
281
100
AcDbEntity
8
0
100
AcDbSpline
70
4
71
3
72
8
73
4
74
0
42
0.000000001
43
0.0000000001
44
0.0000000001
40
0
40
0
40
0
40
0
40
1
40
1
40
1
40
1
41
1
41
1
41
1
41
1
10
59.728763905442165
20
-9.4647267058499889
30
0
10
59.719281818649883
20
-9.419967380458008
30
0
10
59.702085947938542
20
-9.386894464618166
30
0
10
59.68929603126611
20
-9.3595544028423596
30
0
0
SPLINE
5
282
100
AcDbEntity
8
0
100
AcDbSpline
70
4
71
3
72
8
73
4
74
0
42
0.000000001
43
0.0000000001
44
0.0000000001
40
0
40
0
40
0
40
0
40
1
40
1
40
1
40
1
41
1
41
1
41
1
41
1
10
59.68929603126611
20
-9.3595544028423596
30
0
10
59.673642379042434
20
-9.3335385496109158
30
0
10
59.65975164673047
20
-9.3139122717541341
30
0
10
59.646523018690687
20
-9.2998035294988863
30
0
0
SPLINE
5
283
100
AcDbEntity
8
0
100
AcDbSpline
70
4
71
3
72
8
73
4
74
0
42
0.000000001
43
0.0000000001
44
0.0000000001
40
0
40
0
40
0
40
0
40
1
40
1
40
1
40
1
41
1
41
1
41
1
41
1
10
59.646523018690687
20
-9.2998035294988863
30
0
10
59.589197169531111
20
-9.2455648087953897
30
0
10
59.557004367906728
20
-9.263425475259691
30
0
10
59.522168532155177
20
-9.2788584260592977
30
0
0
SPLINE
5
284
100
AcDbEntity
8
0
100
AcDbSpline
70
4
71
3
72
8
73
4
74
0
42
0.000000001
43
0.0000000001
44
0.0000000001
40
0
40
0
40
0
40
0
40
1
40
1
40
1
40
1
41
1
41
1
41
1
41
1
10
59.522168532155177
20
-9.2788584260592977
30
0
10
59.487332696403627
20
-9.294070675434849
30
0
10
59.454919193355181
20
-9.3119313418991396
30
0
10
59.442794072435703
20
-9.3707994095463683
30
0
0
SPLINE
5
285
100
AcDbEntity
8
0
100
AcDbSpline
70
4
71
3
72
8
73
4
74
0
42
0.000000001
43
0.0000000001
44
0.0000000001
40
0
40
0
40
0
40
0
40
1
40
1
40
1
40
1
41
1
41
1
41
1
41
1
10
59.442794072435703
20
-9.3707994095463683
30
0
10
59.439044839707449
20
-9.3855702560737964
30
0
10
59.435077597035892
20
-9.4027688182659048
30
0
10
59.433093975700132
20
-9.4221743946986241
30
0
0
SPLINE
5
286
100
AcDbEntity
8
0
100
AcDbSpline
70
4
71
3
72
8
73
4
74
0
42
0.000000001
43
0.0000000001
44
0.0000000001
40
0
40
0
40
0
40
0
40
1
40
1
40
1
40
1
41
1
41
1
41
1
41
1
10
59.433093975700132
20
-9.4221743946986241
30
0
10
59.428023225908277
20
-9.4417952895938413
30
0
10
59.427140420212041
20
-9.4642853030018657
30
0
10
59.42030675050848
20
-9.4883202263783151
30
0
0
SPLINE
5
287
100
AcDbEntity
8
0
100
AcDbSpline
70
4
71
3
72
8
73
4
74
0
42
0.000000001
43
0.0000000001
44
0.0000000001
40
0
40
0
40
0
40
0
40
1
40
1
40
1
40
1
41
1
41
1
41
1
41
1
10
59.42030675050848
20
-9.4883202263783151
30
0
10
59.409503146652582
20
-9.5363846901696512
30
0
10
59.39054166454877
20
-9.5926097236896943
30
0
10
59.344678832036486
20
-9.6435433059938269
30
0
0
SPLINE
5
288
100
AcDbEntity
8
0
100
AcDbSpline
70
4
71
3
72
8
73
4
74
0
42
0.000000001
43
0.0000000001
44
0.0000000001
40
0
40
0
40
0
40
0
40
1
40
1
40
1
40
1
41
1
41
1
41
1
41
1
10
59.344678832036486
20
-9.6435433059938269
30
0
10
59.321968117204392
20
-9.6686763535290243
30
0
10
59.291761628396571
20
-9.6927112769054737
30
0
10
59.253176559916767
20
-9.7110133462178876
30
0
0
SPLINE
5
289
100
AcDbEntity
8
0
100
AcDbSpline
70
4
71
3
72
8
73
4
74
0
42
0.000000001
43
0.0000000001
44
0.0000000001
40
0
40
0
40
0
40
0
40
1
40
1
40
1
40
1
41
1
41
1
41
1
41
1
10
59.253176559916767
20
-9.7110133462178876
30
0
10
59.214591491436948
20
-9.728432609834055
30
0
10
59.166965739012952
20
-9.7403397208102405
30
0
10
59.11823917094943
20
-9.7359256923290225
30
0
0
SPLINE
5
290
100
AcDbEntity
8
0
100
AcDbSpline
70
4
71
3
72
8
73
4
74
0
42
0.000000001
43
0.0000000001
44
0.0000000001
40
0
40
0
40
0
40
0
40
1
40
1
40
1
40
1
41
1
41
1
41
1
41
1
10
59.11823917094943
20
-9.7359256923290225
30
0
10
59.093324133357527
20
-9.7343807823605832
30
0
10
59.068629797189672
20
-9.7290893311446691
30
0
10
59.044818266718053
20
-9.7189478315609747
30
0
0
SPLINE
5
291
100
AcDbEntity
8
0
100
AcDbSpline
70
4
71
3
72
8
73
4
74
0
42
0.000000001
43
0.0000000001
44
0.0000000001
40
0
40
0
40
0
40
0
40
1
40
1
40
1
40
1
41
1
41
1
41
1
41
1
10
59.044818266718053
20
-9.7189478315609747
30
0
10
59.020565333398324
20
-9.7085856305532037
30
0
10
58.996533101502663
20
-9.6962371167288968
30
0
10
58.973380983822459
20
-9.6757334161374189
30
0
0
SPLINE
5
292
100
AcDbEntity
8
0
100
AcDbSpline
70
4
71
3
72
8
73
4
74
0
42
0.000000001
43
0.0000000001
44
0.0000000001
40
0
40
0
40
0
40
0
40
1
40
1
40
1
40
1
41
1
41
1
41
1
41
1
10
58.973380983822459
20
-9.6757334161374189
30
0
10
58.950228866142254
20
-9.6554504169700213
30
0
10
58.927520842790955
20
-9.6296498822010808
30
0
10
58.905692933655125
20
-9.597459772057487
30
0
0
SPLINE
5
293
100
AcDbEntity
8
0
100
AcDbSpline
70
4
71
3
72
8
73
4
74
0
42
0.000000001
43
0.0000000001
44
0.0000000001
40
0
40
0
40
0
40
0
40
1
40
1
40
1
40
1
41
1
41
1
41
1
41
1
10
58.905692933655125
20
-9.597459772057487
30
0
10
58.884747830215531
20
-9.563504050521388
30
0
10
58.864903542415462
20
-9.5235947734972086
30
0
10
58.847925681647425
20
-9.4768545182502422
30
0
0
SPLINE
5
294
100
AcDbEntity
8
0
100
AcDbSpline
70
4
71
3
72
8
73
4
74
0
42
0.000000001
43
0.0000000001
44
0.0000000001
40
0
40
0
40
0
40
0
40
1
40
1
40
1
40
1
41
1
41
1
41
1
41
1
10
58.847925681647425
20
-9.4768545182502422
30
0
10
58.832051327999686
20
-9.4290107558829632
30
0
10
58.81882269995991
20
-9.3789599792750771
30
0
10
58.813528557263226
20
-9.3284677998190695
30
0
0
SPLINE
5
295
100
AcDbEntity
8
0
100
AcDbSpline
70
4
71
3
72
8
73
4
74
0
42
0.000000001
43
0.0000000001
44
0.0000000001
40
0
40
0
40
0
40
0
40
1
40
1
40
1
40
1
41
1
41
1
41
1
41
1
10
58.813528557263226
20
-9.3284677998190695
30
0
10
58.80867850889544
20
-9.277975620363053
30
0
10
58.810220727383083
20
-9.2268213366348544
30
0
10
58.820144217023504
20
-9.1750103315960416
30
0
0
SPLINE
5
296
100
AcDbEntity
8
0
100
AcDbSpline
70
4
71
3
72
8
73
4
74
0
42
0.000000001
43
0.0000000001
44
0.0000000001
40
0
40
0
40
0
40
0
40
1
40
1
40
1
40
1
41
1
41
1
41
1
41
1
10
58.820144217023504
20
-9.1750103315960416
30
0
10
58.839326400551371
20
-9.0724864456771535
30
0
10
58.894227225527054
20
-8.9642243227326635
30
0
10
58.991241650286746
20
-8.864343470940943
30
0
0
SPLINE
5
297
100
AcDbEntity
8
0
100
AcDbSpline
70
4
71
3
72
8
73
4
74
0
42
0.000000001
43
0.0000000001
44
0.0000000001
40
0
40
0
40
0
40
0
40
1
40
1
40
1
40
1
41
1
41
1
41
1
41
1
10
58.991241650286746
20
-8.864343470940943
30
0
10
59.088918179318632
20
-8.7660075291176653
30
0
10
59.226280592469855
20
-8.6769302811818356
30
0
10
59.38679243182051
20
-8.6257759974536405
30
0
0
SPLINE
5
298
100
AcDbEntity
8
0
100
AcDbSpline
70
4
71
3
72
8
73
4
74
0
42
0.000000001
43
0.0000000001
44
0.0000000001
40
0
40
0
40
0
40
0
40
1
40
1
40
1
40
1
41
1
41
1
41
1
41
1
10
59.38679243182051
20
-8.6257759974536405
30
0
10
59.466608294388095
20
-8.599539442798136
30
0
10
59.55149490674755
20
-8.5841064919985204
30
0
10
59.635942807739646
20
-8.5807959706376007
30
0
0
SPLINE
5
299
100
AcDbEntity
8
0
100
AcDbSpline
70
4
71
3
72
8
73
4
74
0
42
0.000000001
43
0.0000000001
44
0.0000000001
40
0
40
0
40
0
40
0
40
1
40
1
40
1
40
1
41
1
41
1
41
1
41
1
10
59.635942807739646
20
-8.5807959706376007
30
0
10
59.646525710171474
20
-8.5801338663654114
30
0
10
59.656887911179233
20
-8.5807959706376007
30
0
10
59.667473505091841
20
-8.5805752692135329
30
0
0
LINE
5
300
100
AcDbEntity
8
0
100
AcDbLine
10
59.667473505091849
20
-8.5805752692135329
30
0
11
59.683127157315511
21
-8.5805752692135329
31
0
0
LINE
5
301
100
AcDbEntity
8
0
100
AcDbLine
10
59.683127157315511
20
-8.5805752692135329
30
0
11
59.696135083931232
21
-8.5814580749097793
31
0
0
SPLINE
5
302
100
AcDbEntity
8
0
100
AcDbSpline
70
4
71
3
72
8
73
4
74
0
42
0.000000001
43
0.0000000001
44
0.0000000001
40
0
40
0
40
0
40
0
40
1
40
1
40
1
40
1
41
1
41
1
41
1
41
1
10
59.696135083931232
20
-8.5814580749097793
30
0
10
59.705175767875417
20
-8.5823408806060275
30
0
10
59.712450840427095
20
-8.5816787763338471
30
0
10
59.722592340010799
20
-8.5832236863022722
30
0
0
LINE
5
303
100
AcDbEntity
8
0
100
AcDbLine
10
59.722592340010799
20
-8.5832236863022722
30
0
11
59.754341047306276
21
-8.5898393460625559
31
0
0
SPLINE
5
304
100
AcDbEntity
8
0
100
AcDbSpline
70
4
71
3
72
8
73
4
74
0
42
0.000000001
43
0.0000000001
44
0.0000000001
40
0
40
0
40
0
40
0
40
1
40
1
40
1
40
1
41
1
41
1
41
1
41
1
10
59.754341047306276
20
-8.5898393460625559
30
0
10
59.795130438545918
20
-8.5953514987025255
30
0
10
59.842976892393978
20
-8.6105637480780892
30
0
10
59.890602644817974
20
-8.6231329633264622
30
0
0
SPLINE
5
305
100
AcDbEntity
8
0
100
AcDbSpline
70
4
71
3
72
8
73
4
74
0
42
0.000000001
43
0.0000000001
44
0.0000000001
40
0
40
0
40
0
40
0
40
1
40
1
40
1
40
1
41
1
41
1
41
1
41
1
10
59.890602644817974
20
-8.6231329633264622
30
0
10
59.984971343969711
20
-8.6546609691978773
30
0
10
60.075590810393194
20
-8.6958944547664281
30
0
10
60.162022332721072
20
-8.7430761128615195
30
0
0
SPLINE
5
306
100
AcDbEntity
8
0
100
AcDbSpline
70
4
71
3
72
8
73
4
74
0
42
0.000000001
43
0.0000000001
44
0.0000000001
40
0
40
0
40
0
40
0
40
1
40
1
40
1
40
1
41
1
41
1
41
1
41
1
10
60.162022332721072
20
-8.7430761128615195
30
0
10
60.247129646504561
20
-8.79334759089347
30
0
10
60.329370533256053
20
-8.8447225760457222
30
0
10
60.404777750303978
20
-8.9049148522373134
30
0
0
SPLINE
5
307
100
AcDbEntity
8
0
100
AcDbSpline
70
4
71
3
72
8
73
4
74
0
42
0.000000001
43
0.0000000001
44
0.0000000001
40
0
40
0
40
0
40
0
40
1
40
1
40
1
40
1
41
1
41
1
41
1
41
1
10
60.404777750303978
20
-8.9049148522373134
30
0
10
60.556913701463415
20
-9.0211114605248888
30
0
10
60.689426066246845
20
-9.1498772840608424
30
0
10
60.804739868838183
20
-9.2788584260592977
30
0
0
SPLINE
5
308
100
AcDbEntity
8
0
100
AcDbSpline
70
4
71
3
72
8
73
4
74
0
42
0.000000001
43
0.0000000001
44
0.0000000001
40
0
40
0
40
0
40
0
40
1
40
1
40
1
40
1
41
1
41
1
41
1
41
1
10
60.804739868838183
20
-9.2788584260592977
30
0
10
61.03669168256522
20
-9.5368260930177726
30
0
10
61.203157077403958
20
-9.7917093230009407
30
0
10
61.33566944218741
20
-10.014623144264569
30
0
0
SPLINE
5
309
100
AcDbEntity
8
0
100
AcDbSpline
70
4
71
3
72
8
73
4
74
0
42
0.000000001
43
0.0000000001
44
0.0000000001
40
0
40
0
40
0
40
0
40
1
40
1
40
1
40
1
41
1
41
1
41
1
41
1
10
61.33566944218741
20
-10.014623144264569
30
0
10
61.52506625328229
20
-10.343586691270518
30
0
10
61.637513628841596
20
-10.605968386710217
30
0
10
61.713803651585764
20
-10.808152422996759
30
0
0
SPLINE
5
310
100
AcDbEntity
8
0
100
AcDbSpline
70
4
71
3
72
8
73
4
74
0
42
0.000000001
43
0.0000000001
44
0.0000000001
40
0
40
0
40
0
40
0
40
1
40
1
40
1
40
1
41
1
41
1
41
1
41
1
10
61.713803651585764
20
-10.808152422996759
30
0
10
60.573891562231466
20
-11.290573438225735
30
0
10
59.777713866410537
20
-12.360813856076929
30
0
10
59.777713866410537
20
-13.603696617159805
30
0
0
SPLINE
5
311
100
AcDbEntity
8
0
100
AcDbSpline
70
4
71
3
72
8
73
4
74
0
42
0.000000001
43
0.0000000001
44
0.0000000001
40
0
40
0
40
0
40
0
40
1
40
1
40
1
40
1
41
1
41
1
41
1
41
1
10
59.777713866410537
20
-13.603696617159805
30
0
10
59.777713866410537
20
-13.853288395927068
30
0
10
59.8112281850985
20
-14.098907549061215
30
0
10
59.873845485473979
20
-14.337033619700406
30
0
0
SPLINE
5
312
100
AcDbEntity
8
0
100
AcDbSpline
70
4
71
3
72
8
73
4
74
0
42
0.000000001
43
0.0000000001
44
0.0000000001
40
0
40
0
40
0
40
0
40
1
40
1
40
1
40
1
41
1
41
1
41
1
41
1
10
59.873845485473979
20
-14.337033619700406
30
0
10
58.788172116823183
20
-13.586056652119581
30
0
10
56.667314867496792
20
-12.246824262029964
30
0
10
54.017735059061813
20
-11.212084475683287
30
0
0
SPLINE
5
313
100
AcDbEntity
8
0
100
AcDbSpline
70
4
71
3
72
8
73
4
74
0
42
0.000000001
43
0.0000000001
44
0.0000000001
40
0
40
0
40
0
40
0
40
1
40
1
40
1
40
1
41
1
41
1
41
1
41
1
10
54.017735059061813
20
-11.212084475683287
30
0
10
51.346103948586148
20
-10.1680806124876
30
0
10
50.597113293821877
20
-11.342389826226114
30
0
10
50.431748714622657
20
-11.727578406752105
30
0
0
SPLINE
5
314
100
AcDbEntity
8
0
100
AcDbSpline
70
4
71
3
72
8
73
4
74
0
42
0.000000001
43
0.0000000001
44
0.0000000001
40
0
40
0
40
0
40
0
40
1
40
1
40
1
40
1
41
1
41
1
41
1
41
1
10
50.431748714622657
20
-11.727578406752105
30
0
10
49.974460746928884
20
-12.788339429291781
30
0
10
50.772177969756676
20
-14.224362851236247
30
0
10
52.234664030742266
20
-15.08602427446468
30
0
0
SPLINE
5
315
100
AcDbEntity
8
0
100
AcDbSpline
70
4
71
3
72
8
73
4
74
0
42
0.000000001
43
0.0000000001
44
0.0000000001
40
0
40
0
40
0
40
0
40
1
40
1
40
1
40
1
41
1
41
1
41
1
41
1
10
52.234664030742266
20
-15.08602427446468
30
0
10
52.201591114902413
20
-15.458422938318229
30
0
10
52.240176183382239
20
-15.965982384043954
30
0
10
52.56385097065305
20
-16.417537497673699
30
0
0
SPLINE
5
316
100
AcDbEntity
8
0
100
AcDbSpline
70
4
71
3
72
8
73
4
74
0
42
0.000000001
43
0.0000000001
44
0.0000000001
40
0
40
0
40
0
40
0
40
1
40
1
40
1
40
1
41
1
41
1
41
1
41
1
10
52.56385097065305
20
-16.417537497673699
30
0
10
52.777062003700337
20
-16.715635143080412
30
0
10
53.0767018675947
20
-16.933252130166572
30
0
10
53.454836076993061
20
-17.074366467526847
30
0
0
SPLINE
5
317
100
AcDbEntity
8
0
100
AcDbSpline
70
4
71
3
72
8
73
4
74
0
42
0.000000001
43
0.0000000001
44
0.0000000001
40
0
40
0
40
0
40
0
40
1
40
1
40
1
40
1
41
1
41
1
41
1
41
1
10
53.454836076993061
20
-17.074366467526847
30
0
10
53.437196111952829
20
-17.080099321590883
30
0
10
53.419558838393399
20
-17.085170071382731
30
0
10
53.401918873353154
20
-17.09090292544677
30
0
0
SPLINE
5
318
100
AcDbEntity
8
0
100
AcDbSpline
70
4
71
3
72
8
73
4
74
0
42
0.000000001
43
0.0000000001
44
0.0000000001
40
0
40
0
40
0
40
0
40
1
40
1
40
1
40
1
41
1
41
1
41
1
41
1
10
53.401918873353154
20
-17.09090292544677
30
0
10
51.125620534467977
20
-17.818727775347398
30
0
10
51.268715801683236
20
-19.00979414842989
30
0
10
51.366831042082453
20
-19.357280466172316
30
0
0
SPLINE
5
319
100
AcDbEntity
8
0
100
AcDbSpline
70
4
71
3
72
8
73
4
74
0
42
0.000000001
43
0.0000000001
44
0.0000000001
40
0
40
0
40
0
40
0
40
1
40
1
40
1
40
1
41
1
41
1
41
1
41
1
10
51.366831042082453
20
-19.357280466172316
30
0
10
51.628106538921074
20
-20.282880706839816
30
0
10
52.857537279059329
20
-20.804769596244846
30
0
10
54.221243303892727
20
-20.626179080486633
30
0
0
SPLINE
5
320
100
AcDbEntity
8
0
100
AcDbSpline
70
4
71
3
72
8
73
4
74
0
42
0.000000001
43
0.0000000001
44
0.0000000001
40
0
40
0
40
0
40
0
40
1
40
1
40
1
40
1
41
1
41
1
41
1
41
1
10
54.221243303892727
20
-20.626179080486633
30
0
10
54.404027146708103
20
-20.87577085925389
30
0
10
54.691759899626291
20
-21.152481998372892
30
0
10
55.115094837264749
20
-21.268452522274842
30
0
0
SPLINE
5
321
100
AcDbEntity
8
0
100
AcDbSpline
70
4
71
3
72
8
73
4
74
0
42
0.000000001
43
0.0000000001
44
0.0000000001
40
0
40
0
40
0
40
0
40
1
40
1
40
1
40
1
41
1
41
1
41
1
41
1
10
55.115094837264749
20
-21.268452522274842
30
0
10
55.246945097776006
20
-21.304389173665925
30
0
10
55.380781671103804
20
-21.322470541554281
30
0
10
55.516819875710659
20
-21.322470541554281
30
0
0
SPLINE
5
322
100
AcDbEntity
8
0
100
AcDbSpline
70
4
71
3
72
8
73
4
74
0
42
0.000000001
43
0.0000000001
44
0.0000000001
40
0
40
0
40
0
40
0
40
1
40
1
40
1
40
1
41
1
41
1
41
1
41
1
10
55.516819875710659
20
-21.322470541554281
30
0
10
55.973225037708204
20
-21.322470541554281
30
0
10
56.452561615961876
20
-21.119403699571492
30
0
10
56.946451030799693
20
-20.715913049733086
30
0
0
SPLINE
5
323
100
AcDbEntity
8
0
100
AcDbSpline
70
4
71
3
72
8
73
4
74
0
42
0.000000001
43
0.0000000001
44
0.0000000001
40
0
40
0
40
0
40
0
40
1
40
1
40
1
40
1
41
1
41
1
41
1
41
1
10
56.946451030799693
20
-20.715913049733086
30
0
10
57.618271548604326
20
-20.166904799976301
30
0
10
58.271792688577335
20
-19.581071710170626
30
0
10
58.793684269463157
20
-19.096885083549168
30
0
0
SPLINE
5
324
100
AcDbEntity
8
0
100
AcDbSpline
70
4
71
3
72
8
73
4
74
0
42
0.000000001
43
0.0000000001
44
0.0000000001
40
0
40
0
40
0
40
0
40
1
40
1
40
1
40
1
41
1
41
1
41
1
41
1
10
58.793684269463157
20
-19.096885083549168
30
0
10
58.792801463766899
20
-19.142085811789265
30
0
10
58.791038543855208
20
-19.186624435757174
30
0
10
58.791038543855208
20
-19.23204048245978
30
0
0
SPLINE
5
325
100
AcDbEntity
8
0
100
AcDbSpline
70
4
71
3
72
8
73
4
74
0
42
0.000000001
43
0.0000000001
44
0.0000000001
40
0
40
0
40
0
40
0
40
1
40
1
40
1
40
1
41
1
41
1
41
1
41
1
10
58.791038543855208
20
-19.23204048245978
30
0
10
58.791038543855208
20
-22.501188400812463
30
0
10
60.708164155445829
20
-25.160691698887867
30
0
10
63.06406034695533
20
-25.160691698887867
30
0
0
SPLINE
5
326
100
AcDbEntity
8
0
100
AcDbSpline
70
4
71
3
72
8
73
4
74
0
42
0.000000001
43
0.0000000001
44
0.0000000001
40
0
40
0
40
0
40
0
40
1
40
1
40
1
40
1
41
1
41
1
41
1
41
1
10
63.06406034695533
20
-25.160691698887867
30
0
10
65.420395249832154
20
-25.160691698887867
30
0
10
67.337082150055437
20
-22.501188400812463
30
0
10
67.337082150055437
20
-19.23204048245978
30
0
0
SPLINE
5
327
100
AcDbEntity
8
0
100
AcDbSpline
70
4
71
3
72
8
73
4
74
0
42
0.000000001
43
0.0000000001
44
0.0000000001
40
0
40
0
40
0
40
0
40
1
40
1
40
1
40
1
41
1
41
1
41
1
41
1
10
67.337082150055437
20
-19.23204048245978
30
0
10
67.337082150055437
20
-19.186619052795621
30
0
10
67.335316538662951
20
-19.141859727403642
30
0
10
67.334654434390785
20
-19.096885083549168
30
0
0
SPLINE
5
328
100
AcDbEntity
8
0
100
AcDbSpline
70
4
71
3
72
8
73
4
74
0
42
0.000000001
43
0.0000000001
44
0.0000000001
40
0
40
0
40
0
40
0
40
1
40
1
40
1
40
1
41
1
41
1
41
1
41
1
10
67.334654434390785
20
-19.096885083549168
30
0
10
67.856543323795805
20
-19.580630307322501
30
0
10
68.509405050977406
20
-20.166463397128179
30
0
10
69.181887673054234
20
-20.715913049733086
30
0
0
SPLINE
5
329
100
AcDbEntity
8
0
100
AcDbSpline
70
4
71
3
72
8
73
4
74
0
42
0.000000001
43
0.0000000001
44
0.0000000001
40
0
40
0
40
0
40
0
40
1
40
1
40
1
40
1
41
1
41
1
41
1
41
1
10
69.181887673054234
20
-20.715913049733086
30
0
10
69.675774396411271
20
-21.119403699571492
30
0
10
70.154890273240881
20
-21.322470541554281
30
0
10
70.611521519624034
20
-21.322470541554281
30
0
0
SPLINE
5
330
100
AcDbEntity
8
0
100
AcDbSpline
70
4
71
3
72
8
73
4
74
0
42
0.000000001
43
0.0000000001
44
0.0000000001
40
0
40
0
40
0
40
0
40
1
40
1
40
1
40
1
41
1
41
1
41
1
41
1
10
70.611521519624034
20
-21.322470541554281
30
0
10
70.747339022806827
20
-21.322470541554281
30
0
10
70.881396297558709
20
-21.304389173665925
30
0
10
71.013246558069937
20
-21.268452522274842
30
0
0
SPLINE
5
331
100
AcDbEntity
8
0
100
AcDbSpline
70
4
71
3
72
8
73
4
74
0
42
0.000000001
43
0.0000000001
44
0.0000000001
40
0
40
0
40
0
40
0
40
1
40
1
40
1
40
1
41
1
41
1
41
1
41
1
10
71.013246558069937
20
-21.268452522274842
30
0
10
71.436799505651706
20
-21.152476615411331
30
0
10
71.724314248626598
20
-20.875765476292329
30
0
10
71.907098091441981
20
-20.626179080486633
30
0
0
SPLINE
5
332
100
AcDbEntity
8
0
100
AcDbSpline
70
4
71
3
72
8
73
4
74
0
42
0.000000001
43
0.0000000001
44
0.0000000001
40
0
40
0
40
0
40
0
40
1
40
1
40
1
40
1
41
1
41
1
41
1
41
1
10
71.907098091441981
20
-20.626179080486633
30
0
10
73.269703300635854
20
-20.805216382054535
30
0
10
74.500016846470359
20
-20.282880706839816
30
0
10
74.761510353252248
20
-19.357280466172316
30
0
0
SPLINE
5
333
100
AcDbEntity
8
0
100
AcDbSpline
70
4
71
3
72
8
73
4
74
0
42
0.000000001
43
0.0000000001
44
0.0000000001
40
0
40
0
40
0
40
0
40
1
40
1
40
1
40
1
41
1
41
1
41
1
41
1
10
74.761510353252248
20
-19.357280466172316
30
0
10
74.859184190803347
20
-19.009573447005831
30
0
10
75.002720860866731
20
-17.818727775347398
30
0
10
72.726422521981547
20
-17.09090292544677
30
0
0
SPLINE
5
334
100
AcDbEntity
8
0
100
AcDbSpline
70
4
71
3
72
8
73
4
74
0
42
0.000000001
43
0.0000000001
44
0.0000000001
40
0
40
0
40
0
40
0
40
1
40
1
40
1
40
1
41
1
41
1
41
1
41
1
10
72.726422521981547
20
-17.09090292544677
30
0
10
72.708782556941316
20
-17.085170071382731
30
0
10
72.690921890477028
20
-17.080099321590883
30
0
10
72.673287308398372
20
-17.074366467526847
30
0
0
SPLINE
5
335
100
AcDbEntity
8
0
100
AcDbSpline
70
4
71
3
72
8
73
4
74
0
42
0.000000001
43
0.0000000001
44
0.0000000001
40
0
40
0
40
0
40
0
40
1
40
1
40
1
40
1
41
1
41
1
41
1
41
1
10
72.673287308398372
20
-17.074366467526847
30
0
10
73.051418826315953
20
-16.93325751312814
30
0
10
73.351061381691096
20
-16.715635143080412
30
0
10
73.564490424681651
20
-16.417758199097765
30
0
0
SPLINE
5
336
100
AcDbEntity
8
0
100
AcDbSpline
70
4
71
3
72
8
73
4
74
0
42
0.000000001
43
0.0000000001
44
0.0000000001
40
0
40
0
40
0
40
0
40
1
40
1
40
1
40
1
41
1
41
1
41
1
41
1
10
73.564490424681651
20
-16.417758199097765
30
0
10
73.887941819047626
20
-15.965982384043954
30
0
10
73.926747588951514
20
-15.458422938318229
30
0
10
73.893453971687606
20
-15.08602427446468
30
0
0
ENDSEC
0
SECTION
2
OBJECTS
0
DICTIONARY
5
C
100
AcDbDictionary
3
ACAD_GROUP
350
D
3
ACAD_MLINESTYLE
350
17
0
DICTIONARY
5
D
100
AcDbDictionary
0
DICTIONARY
5
1A
330
C
100
AcDbDictionary
0
DICTIONARY
5
17
100
AcDbDictionary
0
ENDSEC
0
EOF
