0
SECTION
2
HEADER
9
$INSUNITS
70
4
9
$ACADVER
1
AC1014
9
$HANDSEED
5
FFFF
0
ENDSEC
0
SECTION
2
TABLES
0
TABLE
2
VPORT
5
8
100
AcDbSymbolTable
0
ENDTAB
0
TABLE
2
LTYPE
5
5
100
AcDbSymbolTable
0
LTYPE
5
14
100
AcDbSymbolTableRecord
100
AcDbLinetypeTableRecord
2
BYBLOCK
70
0
0
LTYPE
5
15
100
AcDbSymbolTableRecord
100
AcDbLinetypeTableRecord
2
BYLAYER
70
0
0
ENDTAB
0
TABLE
2
LAYER
5
2
100
AcDbSymbolTable
70
2
0
LAYER
5
50
100
AcDbSymbolTableRecord
100
AcDbLayerTableRecord
2
0
70
0
6
CONTINUOUS
0
ENDTAB
0
TABLE
2
STYLE
5
3
100
AcDbSymbolTable
70
1
0
STYLE
5
11
100
AcDbSymbolTableRecord
100
AcDbTextStyleTableRecord
2
STANDARD
70
0
0
ENDTAB
0
TABLE
2
VIEW
5
6
100
AcDbSymbolTable
70
0
0
ENDTAB
0
TABLE
2
UCS
5
7
100
AcDbSymbolTable
70
0
0
ENDTAB
0
TABLE
2
APPID
5
9
100
AcDbSymbolTable
70
2
0
APPID
5
12
100
AcDbSymbolTableRecord
100
AcDbRegAppTableRecord
2
ACAD
70
0
0
ENDTAB
0
TABLE
2
DIMSTYLE
5
A
100
AcDbSymbolTable
70
1
0
ENDTAB
0
TABLE
2
BLOCK_RECORD
5
1
100
AcDbSymbolTable
70
1
0
BLOCK_RECORD
5
1F
100
AcDbSymbolTableRecord
100
AcDbBlockTableRecord
2
*MODEL_SPACE
0
BLOCK_RECORD
5
1B
100
AcDbSymbolTableRecord
100
AcDbBlockTableRecord
2
*PAPER_SPACE
0
ENDTAB
0
ENDSEC
0
SECTION
2
BLOCKS
0
BLOCK
5
20
100
AcDbEntity
100
AcDbBlockBegin
2
*MODEL_SPACE
0
ENDBLK
5
21
100
AcDbEntity
100
AcDbBlockEnd
0
BLOCK
5
1C
100
AcDbEntity
100
AcDbBlockBegin
2
*PAPER_SPACE
0
ENDBLK
5
1D
100
AcDbEntity
100
AcDbBlockEnd
0
ENDSEC
0
SECTION
2
ENTITIES
0
SPLINE
5
100
100
AcDbEntity
8
0
100
AcDbSpline
70
4
71
3
72
8
73
4
74
0
42
0.000000001
43
0.0000000001
44
0.0000000001
40
0
40
0
40
0
40
0
40
0.88727300006567578
40
0.88727300006567578
40
0.88727300006567578
40
0.88727300006567578
41
1
41
1
41
1
41
1
10
-6.8812813631693519
20
29.969620542526254
30
0
10
-5.7608294191943044
20
29.969620542526254
30
0
10
-4.8286761756721797
20
29.164105572744123
30
0
10
-4.632756503147732
20
28.100419424589251
30
0
0
ARC
5
101
100
AcDbEntity
8
0
100
AcDbCircle
10
-5.5516564737957541
20
27.449791288323262
30
0
40
1.1259192367829465
210
0
220
-0
230
1
100
AcDbArc
50
35.300444002173528
51
304.73035497295126
0
SPLINE
5
102
100
AcDbEntity
8
0
100
AcDbSpline
70
4
71
3
72
8
73
4
74
0
42
0.000000001
43
0.0000000001
44
0.0000000001
40
0.33511693989484187
40
0.33511693989484187
40
0.33511693989484187
40
0.33511693989484187
40
1
40
1
40
1
40
1
41
1
41
1
41
1
41
1
10
-4.9102033837921262
20
26.524463205391339
30
0
10
-5.3077834215154729
20
25.850130278365782
30
0
10
-6.041664337568708
20
25.397619250615445
30
0
10
-6.8812813631693519
20
25.397619250615445
30
0
0
SPLINE
5
103
100
AcDbEntity
8
0
100
AcDbSpline
70
4
71
3
72
8
73
4
74
0
42
0.000000001
43
0.0000000001
44
0.0000000001
40
0
40
0
40
0
40
0
40
1
40
1
40
1
40
1
41
1
41
1
41
1
41
1
10
-6.8812813631693519
20
25.397619250615445
30
0
10
-8.1440854199727379
20
25.397619250615445
30
0
10
-9.1672820091247562
20
26.421238940556854
30
0
10
-9.1672820091247562
20
27.683619896570853
30
0
0
SPLINE
5
104
100
AcDbEntity
8
0
100
AcDbSpline
70
4
71
3
72
8
73
4
74
0
42
0.000000001
43
0.0000000001
44
0.0000000001
40
0
40
0
40
0
40
0
40
1
40
1
40
1
40
1
41
1
41
1
41
1
41
1
10
-9.1672820091247562
20
27.683619896570853
30
0
10
-9.1672820091247562
20
28.946423953374236
30
0
10
-8.1436623191833508
20
29.969620542526254
30
0
10
-6.8812813631693519
20
29.969620542526254
30
0
0
SPLINE
5
105
100
AcDbEntity
8
0
100
AcDbSpline
70
4
71
3
72
8
73
4
74
0
42
0.000000001
43
0.0000000001
44
0.0000000001
40
0
40
0
40
0
40
0
40
1
40
1
40
1
40
1
41
1
41
1
41
1
41
1
10
-21.923163611094164
20
39.670307493209847
30
0
10
-21.923163611094164
20
40.440350929896042
30
0
10
-21.299170691172293
20
41.064343849817924
30
0
10
-20.529973456064859
20
41.064343849817924
30
0
0
LINE
5
106
100
AcDbEntity
8
0
100
AcDbLine
10
-20.529973456064855
20
41.064343849817924
30
0
11
-20.529973456064859
21
38.276691007614147
31
0
0
SPLINE
5
107
100
AcDbEntity
8
0
100
AcDbSpline
70
4
71
3
72
8
73
4
74
0
42
0.000000001
43
0.0000000001
44
0.0000000001
40
0
40
0
40
0
40
0
40
1
40
1
40
1
40
1
41
1
41
1
41
1
41
1
10
-20.529973456064859
20
38.276691007614147
30
0
10
-21.299593791961673
20
38.276691007614147
30
0
10
-21.923163611094164
20
38.900683927536022
30
0
10
-21.923163611094164
20
39.670307493209847
30
0
0
SPLINE
5
108
100
AcDbEntity
8
0
100
AcDbSpline
70
4
71
3
72
8
73
4
74
0
42
0.000000001
43
0.0000000001
44
0.0000000001
40
0
40
0
40
0
40
0
40
1
40
1
40
1
40
1
41
1
41
1
41
1
41
1
10
-21.923163611094164
20
33.58869550387066
30
0
10
-21.923163611094164
20
34.358738940556854
30
0
10
-21.299170691172293
20
34.982731860478729
30
0
10
-20.529973456064859
20
34.982731860478729
30
0
0
LINE
5
109
100
AcDbEntity
8
0
100
AcDbLine
10
-20.529973456064855
20
34.982731860478722
30
0
11
-20.529973456064859
21
32.195082248051975
31
0
0
SPLINE
5
110
100
AcDbEntity
8
0
100
AcDbSpline
70
4
71
3
72
8
73
4
74
0
42
0.000000001
43
0.0000000001
44
0.0000000001
40
0
40
0
40
0
40
0
40
1
40
1
40
1
40
1
41
1
41
1
41
1
41
1
10
-20.529973456064859
20
32.195082248051975
30
0
10
-21.299593791961673
20
32.195082248051975
30
0
10
-21.923163611094164
20
32.81907516797385
30
0
10
-21.923163611094164
20
33.58869550387066
30
0
0
SPLINE
5
111
100
AcDbEntity
8
0
100
AcDbSpline
70
4
71
3
72
8
73
4
74
0
42
0.000000001
43
0.0000000001
44
0.0000000001
40
0
40
0
40
0
40
0
40
1
40
1
40
1
40
1
41
1
41
1
41
1
41
1
10
-24.964389476776134
20
30.547469638188684
30
0
10
-24.964389476776134
20
31.317513074874888
30
0
10
-24.340396556854259
20
31.941505994796763
30
0
10
-23.570776220957445
20
31.941505994796763
30
0
0
LINE
5
112
100
AcDbEntity
8
0
100
AcDbLine
10
-23.570776220957445
20
31.941505994796756
30
0
11
-23.570776220957445
21
29.153856382369998
31
0
0
SPLINE
5
113
100
AcDbEntity
8
0
100
AcDbSpline
70
4
71
3
72
8
73
4
74
0
42
0.000000001
43
0.0000000001
44
0.0000000001
40
0
40
0
40
0
40
0
40
1
40
1
40
1
40
1
41
1
41
1
41
1
41
1
10
-23.570776220957445
20
29.153856382369998
30
0
10
-24.340396556854259
20
29.153856382369998
30
0
10
-24.964389476776134
20
29.77784930229188
30
0
10
-24.964389476776134
20
30.547469638188684
30
0
0
SPLINE
5
114
100
AcDbEntity
8
0
100
AcDbSpline
70
4
71
3
72
8
73
4
74
0
42
0.000000001
43
0.0000000001
44
0.0000000001
40
0
40
0
40
0
40
0
40
1
40
1
40
1
40
1
41
1
41
1
41
1
41
1
10
-21.923163611094164
20
22.032966744105028
30
0
10
-21.923163611094164
20
22.803010180791222
30
0
10
-21.299170691172293
20
23.427003100713097
30
0
10
-20.529973456064859
20
23.427003100713097
30
0
0
LINE
5
115
100
AcDbEntity
8
0
100
AcDbLine
10
-20.529973456064855
20
23.427003100713094
30
0
11
-20.529973456064859
21
20.639353488286343
31
0
0
SPLINE
5
116
100
AcDbEntity
8
0
100
AcDbSpline
70
4
71
3
72
8
73
4
74
0
42
0.000000001
43
0.0000000001
44
0.0000000001
40
0
40
0
40
0
40
0
40
1
40
1
40
1
40
1
41
1
41
1
41
1
41
1
10
-20.529973456064859
20
20.639353488286343
30
0
10
-21.299593791961673
20
20.639353488286343
30
0
10
-21.923163611094164
20
21.263346408208221
30
0
10
-21.923163611094164
20
22.032966744105028
30
0
0
SPLINE
5
117
100
AcDbEntity
8
0
100
AcDbSpline
70
4
71
3
72
8
73
4
74
0
42
0.000000001
43
0.0000000001
44
0.0000000001
40
-1
40
-1
40
-1
40
-1
40
0
40
0
40
0
40
0
41
1
41
1
41
1
41
1
10
-41.234782009124764
20
21.410666227340698
30
0
10
-41.457035884857191
20
20.973360878626512
30
0
10
-42.112777512868256
20
21.358172661463428
30
0
10
-41.891369838714603
20
21.794208707809453
30
0
0
SPLINE
5
118
100
AcDbEntity
8
0
100
AcDbSpline
70
4
71
3
72
8
73
4
74
0
42
0.000000001
43
0.0000000001
44
0.0000000001
40
-1
40
-1
40
-1
40
-1
40
0
40
0
40
0
40
0
41
1
41
1
41
1
41
1
10
-41.891369838714603
20
21.794208707809453
30
0
10
-40.34789815902711
20
24.830777235031132
30
0
10
-38.43654841740927
20
28.220831937789921
30
0
10
-35.673028469085708
20
30.29812762260438
30
0
0
SPLINE
5
119
100
AcDbEntity
8
0
100
AcDbSpline
70
4
71
3
72
8
73
4
74
0
42
0.000000001
43
0.0000000001
44
0.0000000001
40
-1
40
-1
40
-1
40
-1
40
0
40
0
40
0
40
0
41
1
41
1
41
1
41
1
10
-35.673028469085708
20
30.29812762260438
30
0
10
-35.28101751327516
20
30.593190361658742
30
0
10
-34.902985032399513
20
29.932788165410372
30
0
10
-35.289485988616953
20
29.641959664026906
30
0
0
SPLINE
5
120
100
AcDbEntity
8
0
100
AcDbSpline
70
4
71
3
72
8
73
4
74
0
42
0.000000001
43
0.0000000001
44
0.0000000001
40
-1
40
-1
40
-1
40
-1
40
-0.97991739333730676
40
-0.97991739333730676
40
-0.97991739333730676
40
-0.97991739333730676
41
1
41
1
41
1
41
1
10
-35.289485988616953
20
29.641959664026906
30
0
10
-35.342578798774014
20
29.602052978715694
30
0
10
-35.395340551898052
20
29.561602502756319
30
0
10
-35.447775108847132
20
29.520622613102262
30
0
0
SPLINE
5
121
100
AcDbEntity
8
0
100
AcDbSpline
70
4
71
3
72
8
73
4
74
0
42
0.000000001
43
0.0000000001
44
0.0000000001
40
-0.52178761608696811
40
-0.52178761608696811
40
-0.52178761608696811
40
-0.52178761608696811
40
0
40
0
40
0
40
0
41
1
41
1
41
1
41
1
10
-35.447775108848106
20
29.52062261310061
30
0
10
-35.255275399013449
20
29.478435506966459
30
0
10
-35.074893100567692
20
29.30272880618184
30
0
10
-35.114651699066172
20
29.052680387496956
30
0
0
SPLINE
5
122
100
AcDbEntity
8
0
100
AcDbSpline
70
4
71
3
72
8
73
4
74
0
42
0.000000001
43
0.0000000001
44
0.0000000001
40
-1
40
-1
40
-1
40
-1
40
0
40
0
40
0
40
0
41
1
41
1
41
1
41
1
10
-35.114651699066172
20
29.052680387496956
30
0
10
-35.672608598073332
20
25.543246666590381
30
0
10
-37.387956091562927
20
20.263856382369994
30
0
10
-41.462113094329851
20
19.335062945683806
30
0
0
SPLINE
5
123
100
AcDbEntity
8
0
100
AcDbSpline
70
4
71
3
72
8
73
4
74
0
42
0.000000001
43
0.0000000001
44
0.0000000001
40
-1
40
-1
40
-1
40
-1
40
0
40
0
40
0
40
0
41
1
41
1
41
1
41
1
10
-41.462113094329851
20
19.335062945683806
30
0
10
-41.939209295908611
20
19.225841576258343
30
0
10
-42.14198761622113
20
19.959055865605681
30
0
10
-41.664045213063574
20
20.067854134241749
30
0
0
SPLINE
5
124
100
AcDbEntity
8
0
100
AcDbSpline
70
4
71
3
72
8
73
4
74
0
42
0.000000001
43
0.0000000001
44
0.0000000001
40
-1
40
-1
40
-1
40
-1
40
-0.0073432193075339399
40
-0.0073432193075339399
40
-0.0073432193075339399
40
-0.0073432193075339399
41
1
41
1
41
1
41
1
10
-41.664045213063574
20
20.067854134241749
30
0
10
-37.891685943637881
20
20.928472865714983
30
0
10
-36.384807947329662
20
25.941293217335254
30
0
10
-35.858952464897783
20
29.182961326934539
30
0
0
SPLINE
5
125
100
AcDbEntity
8
0
100
AcDbSpline
70
4
71
3
72
8
73
4
74
0
42
0.000000001
43
0.0000000001
44
0.0000000001
40
-0.92654751393138057
40
-0.92654751393138057
40
-0.92654751393138057
40
-0.92654751393138057
40
0
40
0
40
0
40
0
41
1
41
1
41
1
41
1
10
-35.85895246489779
20
29.182961326934553
30
0
10
-38.199139291467297
20
27.167142079306124
30
0
10
-39.864694596083496
20
24.105737462406957
30
0
10
-41.234782009124764
20
21.410666227340698
30
0
0
SPLINE
5
126
100
AcDbEntity
8
0
100
AcDbSpline
70
4
71
3
72
8
73
4
74
0
42
0.000000001
43
0.0000000001
44
0.0000000001
40
-1
40
-1
40
-1
40
-1
40
-0.87136241156276895
40
-0.87136241156276895
40
-0.87136241156276895
40
-0.87136241156276895
41
1
41
1
41
1
41
1
10
-37.117442887624122
20
31.180354134241753
30
0
10
-37.060535862172273
20
31.20643863288338
30
0
10
-37.004553544746621
20
31.218330717869662
30
0
10
-36.951146787427234
20
31.218814862309266
30
0
0
SPLINE
5
127
100
AcDbEntity
8
0
100
AcDbSpline
70
4
71
3
72
8
73
4
74
0
42
0.000000001
43
0.0000000001
44
0.0000000001
40
0.87136241156276795
40
0.87136241156276795
40
0.87136241156276795
40
0.87136241156276795
40
1
40
1
40
1
40
1
41
1
41
1
41
1
41
1
10
-36.951146787427234
20
31.218814862309117
30
0
10
-37.004553544746621
20
31.219329030683195
30
0
10
-37.060535862172273
20
31.231261539704768
30
0
10
-37.117442887624122
20
31.257400465011607
30
0
0
SPLINE
5
128
100
AcDbEntity
8
0
100
AcDbSpline
70
4
71
3
72
8
73
4
74
0
42
0.000000001
43
0.0000000001
44
0.0000000001
40
0
40
0
40
0
40
0
40
1
40
1
40
1
40
1
41
1
41
1
41
1
41
1
10
-37.117442887624122
20
31.257400465011607
30
0
10
-41.150962835947681
20
33.110329999923714
30
0
10
-43.608836065928159
20
37.366100594202692
30
0
10
-43.463631750742607
20
41.798401110967021
30
0
0
SPLINE
5
129
100
AcDbEntity
8
0
100
AcDbSpline
70
4
71
3
72
8
73
4
74
0
42
0.000000001
43
0.0000000001
44
0.0000000001
40
0
40
0
40
0
40
0
40
1
40
1
40
1
40
1
41
1
41
1
41
1
41
1
10
-43.463631750742607
20
41.798401110967021
30
0
10
-43.447547461191824
20
42.287350594202699
30
0
10
-42.687238572438574
20
42.289042997360241
30
0
10
-42.703329321543393
20
41.798401110967021
30
0
0
SPLINE
5
130
100
AcDbEntity
8
0
100
AcDbSpline
70
4
71
3
72
8
73
4
74
0
42
0.000000001
43
0.0000000001
44
0.0000000001
40
0
40
0
40
0
40
0
40
1
40
1
40
1
40
1
41
1
41
1
41
1
41
1
10
-42.703329321543393
20
41.798401110967021
30
0
10
-42.840491491953543
20
37.619676847457896
30
0
10
-40.535864721934018
20
33.660667854944876
30
0
10
-36.733480536143006
20
31.913568423589084
30
0
0
SPLINE
5
131
100
AcDbEntity
8
0
100
AcDbSpline
70
4
71
3
72
8
73
4
74
0
42
0.000000001
43
0.0000000001
44
0.0000000001
40
0
40
0
40
0
40
0
40
0.86571624939989411
40
0.86571624939989411
40
0.86571624939989411
40
0.86571624939989411
41
1
41
1
41
1
41
1
10
-36.733480536143006
20
31.913568423589084
30
0
10
-36.348305055698511
20
31.736921080983009
30
0
10
-36.586251041555968
20
31.222062159368601
30
0
10
-36.944129422949629
20
31.218812915494468
30
0
0
SPLINE
5
132
100
AcDbEntity
8
0
100
AcDbSpline
70
4
71
3
72
8
73
4
74
0
42
0.000000001
43
0.0000000001
44
0.0000000001
40
-0.86571624939989222
40
-0.86571624939989222
40
-0.86571624939989222
40
-0.86571624939989222
40
0
40
0
40
0
40
0
41
1
41
1
41
1
41
1
10
-36.944129422949629
20
31.218812915494549
30
0
10
-36.586251041555968
20
31.215367711403907
30
0
10
-36.348305055698511
20
30.700776702709458
30
0
10
-36.733480536143006
20
30.523763074874886
30
0
0
SPLINE
5
133
100
AcDbEntity
8
0
100
AcDbSpline
70
4
71
3
72
8
73
4
74
0
42
0.000000001
43
0.0000000001
44
0.0000000001
40
-1
40
-1
40
-1
40
-1
40
0
40
0
40
0
40
0
41
1
41
1
41
1
41
1
10
-36.733480536143006
20
30.523763074874886
30
0
10
-40.535864721934018
20
28.776666873296115
30
0
10
-42.840491491953543
20
24.818077751795453
30
0
10
-42.703329321543393
20
20.639353488286343
30
0
0
SPLINE
5
134
100
AcDbEntity
8
0
100
AcDbSpline
70
4
71
3
72
8
73
4
74
0
42
0.000000001
43
0.0000000001
44
0.0000000001
40
-1
40
-1
40
-1
40
-1
40
0
40
0
40
0
40
0
41
1
41
1
41
1
41
1
10
-42.703329321543393
20
20.639353488286343
30
0
10
-42.687238572438574
20
20.148708372116097
30
0
10
-43.447547461191824
20
20.150400775273649
30
0
10
-43.463631750742607
20
20.639353488286343
30
0
0
SPLINE
5
135
100
AcDbEntity
8
0
100
AcDbSpline
70
4
71
3
72
8
73
4
74
0
42
0.000000001
43
0.0000000001
44
0.0000000001
40
-1
40
-1
40
-1
40
-1
40
0
40
0
40
0
40
0
41
1
41
1
41
1
41
1
10
-43.463631750742607
20
20.639353488286343
30
0
10
-43.608836065928159
20
25.071654005050664
30
0
10
-41.150962835947681
20
29.327001498540252
30
0
10
-37.117442887624122
20
31.180354134241753
30
0
0
SPLINE
5
136
100
AcDbEntity
8
0
100
AcDbSpline
70
4
71
3
72
8
73
4
74
0
42
0.000000001
43
0.0000000001
44
0.0000000001
40
0
40
0
40
0
40
0
40
1
40
1
40
1
40
1
41
1
41
1
41
1
41
1
10
-24.964389476776134
20
36.629924599329641
30
0
10
-24.964389476776134
20
37.399968036015842
30
0
10
-24.340396556854259
20
38.023960955937717
30
0
10
-23.570776220957445
20
38.023960955937717
30
0
0
LINE
5
137
100
AcDbEntity
8
0
100
AcDbLine
10
-23.570776220957445
20
38.023960955937717
30
0
11
-23.570776220957445
21
35.235888242721572
31
0
0
SPLINE
5
138
100
AcDbEntity
8
0
100
AcDbSpline
70
4
71
3
72
8
73
4
74
0
42
0.000000001
43
0.0000000001
44
0.0000000001
40
0
40
0
40
0
40
0
40
1
40
1
40
1
40
1
41
1
41
1
41
1
41
1
10
-23.570776220957445
20
35.235888242721572
30
0
10
-24.340396556854259
20
35.235888242721572
30
0
10
-24.964389476776134
20
35.859881162643447
30
0
10
-24.964389476776134
20
36.629924599329641
30
0
0
SPLINE
5
139
100
AcDbEntity
8
0
100
AcDbSpline
70
4
71
3
72
8
73
4
74
0
42
0.000000001
43
0.0000000001
44
0.0000000001
40
0
40
0
40
0
40
0
40
1
40
1
40
1
40
1
41
1
41
1
41
1
41
1
10
-24.964389476776134
20
24.465437777837124
30
0
10
-24.964389476776134
20
25.235481214523325
30
0
10
-24.340396556854259
20
25.8594741344452
30
0
10
-23.570776220957445
20
25.8594741344452
30
0
0
LINE
5
140
100
AcDbEntity
8
0
100
AcDbLine
10
-23.570776220957445
20
25.859474134445193
30
0
11
-23.570776220957445
21
23.071824522018435
31
0
0
SPLINE
5
141
100
AcDbEntity
8
0
100
AcDbSpline
70
4
71
3
72
8
73
4
74
0
42
0.000000001
43
0.0000000001
44
0.0000000001
40
0
40
0
40
0
40
0
40
1
40
1
40
1
40
1
41
1
41
1
41
1
41
1
10
-23.570776220957445
20
23.071824522018435
30
0
10
-24.340396556854259
20
23.071824522018435
30
0
10
-24.964389476776134
20
23.69581744194031
30
0
10
-24.964389476776134
20
24.465437777837124
30
0
0
SPLINE
5
142
100
AcDbEntity
8
0
100
AcDbSpline
70
4
71
3
72
8
73
4
74
0
42
0.000000001
43
0.0000000001
44
0.0000000001
40
0
40
0
40
0
40
0
40
1
40
1
40
1
40
1
41
1
41
1
41
1
41
1
10
-18.882783946990973
20
24.465437777837124
30
0
10
-18.882783946990973
20
25.235481214523325
30
0
10
-18.258791027069098
20
25.8594741344452
30
0
10
-17.488747590382896
20
25.8594741344452
30
0
0
LINE
5
143
100
AcDbEntity
8
0
100
AcDbLine
10
-17.488747590382896
20
25.859474134445193
30
0
11
-17.488747590382896
21
23.071824522018435
31
0
0
SPLINE
5
144
100
AcDbEntity
8
0
100
AcDbSpline
70
4
71
3
72
8
73
4
74
0
42
0.000000001
43
0.0000000001
44
0.0000000001
40
0
40
0
40
0
40
0
40
1
40
1
40
1
40
1
41
1
41
1
41
1
41
1
10
-17.488747590382896
20
23.071824522018435
30
0
10
-18.258791027069098
20
23.071824522018435
30
0
10
-18.882783946990973
20
23.69581744194031
30
0
10
-18.882783946990973
20
24.465437777837124
30
0
0
SPLINE
5
145
100
AcDbEntity
8
0
100
AcDbSpline
70
4
71
3
72
8
73
4
74
0
42
0.000000001
43
0.0000000001
44
0.0000000001
40
0
40
0
40
0
40
0
40
1
40
1
40
1
40
1
41
1
41
1
41
1
41
1
10
-28.005192241668709
20
33.58869550387066
30
0
10
-28.005192241668709
20
34.358738940556854
30
0
10
-27.381199321746834
20
34.982731860478729
30
0
10
-26.611578985850024
20
34.982731860478729
30
0
0
LINE
5
146
100
AcDbEntity
8
0
100
AcDbLine
10
-26.611578985850024
20
34.982731860478722
30
0
11
-26.611578985850024
21
32.195082248051975
31
0
0
SPLINE
5
147
100
AcDbEntity
8
0
100
AcDbSpline
70
4
71
3
72
8
73
4
74
0
42
0.000000001
43
0.0000000001
44
0.0000000001
40
0
40
0
40
0
40
0
40
1
40
1
40
1
40
1
41
1
41
1
41
1
41
1
10
-26.611578985850024
20
32.195082248051975
30
0
10
-27.381199321746834
20
32.195082248051975
30
0
10
-28.005192241668709
20
32.81907516797385
30
0
10
-28.005192241668709
20
33.58869550387066
30
0
0
SPLINE
5
148
100
AcDbEntity
8
0
100
AcDbSpline
70
4
71
3
72
8
73
4
74
0
42
0.000000001
43
0.0000000001
44
0.0000000001
40
0
40
0
40
0
40
0
40
1
40
1
40
1
40
1
41
1
41
1
41
1
41
1
10
-28.005192241668709
20
27.50666364351909
30
0
10
-28.005192241668709
20
28.276707080205288
30
0
10
-27.381199321746834
20
28.900700000127166
30
0
10
-26.611578985850024
20
28.900700000127166
30
0
0
LINE
5
149
100
AcDbEntity
8
0
100
AcDbLine
10
-26.611578985850024
20
28.900700000127163
30
0
11
-26.611578985850024
21
26.113050387700412
31
0
0
SPLINE
5
150
100
AcDbEntity
8
0
100
AcDbSpline
70
4
71
3
72
8
73
4
74
0
42
0.000000001
43
0.0000000001
44
0.0000000001
40
0
40
0
40
0
40
0
40
1
40
1
40
1
40
1
41
1
41
1
41
1
41
1
10
-26.611578985850024
20
26.113050387700412
30
0
10
-27.381199321746834
20
26.113050387700412
30
0
10
-28.005192241668709
20
26.737043307622287
30
0
10
-28.005192241668709
20
27.50666364351909
30
0
0
SPLINE
5
151
100
AcDbEntity
8
0
100
AcDbSpline
70
4
71
3
72
8
73
4
74
0
42
0.000000001
43
0.0000000001
44
0.0000000001
40
0
40
0
40
0
40
0
40
1
40
1
40
1
40
1
41
1
41
1
41
1
41
1
10
-35.673028469085708
20
32.139623746871962
30
0
10
-38.43654841740927
20
34.216499560674045
30
0
10
-40.34789815902711
20
37.606970904668181
30
0
10
-41.891369838714603
20
40.643542661666885
30
0
0
SPLINE
5
152
100
AcDbEntity
8
0
100
AcDbSpline
70
4
71
3
72
8
73
4
74
0
42
0.000000001
43
0.0000000001
44
0.0000000001
40
0
40
0
40
0
40
0
40
1
40
1
40
1
40
1
41
1
41
1
41
1
41
1
10
-41.891369838714603
20
40.643542661666885
30
0
10
-42.112777512868256
20
41.079575478235896
30
0
10
-41.457035884857191
20
41.464390490849823
30
0
10
-41.234782009124764
20
41.02708514213564
30
0
0
SPLINE
5
153
100
AcDbEntity
8
0
100
AcDbSpline
70
4
71
3
72
8
73
4
74
0
42
0.000000001
43
0.0000000001
44
0.0000000001
40
0
40
0
40
0
40
0
40
0.92653690151318013
40
0.92653690151318013
40
0.92653690151318013
40
0.92653690151318013
41
1
41
1
41
1
41
1
10
-41.234782009124764
20
41.02708514213564
30
0
10
-39.864710288684662
20
38.332044775667697
30
0
10
-38.199177445045407
20
35.270679419080658
30
0
10
-35.859032876184507
20
33.254859308856709
30
0
0
SPLINE
5
154
100
AcDbEntity
8
0
100
AcDbSpline
70
4
71
3
72
8
73
4
74
0
42
0.000000001
43
0.0000000001
44
0.0000000001
40
0.0073938119276738424
40
0.0073938119276738424
40
0.0073938119276738424
40
0.0073938119276738424
40
1
40
1
40
1
40
1
41
1
41
1
41
1
41
1
10
-35.859032876184514
20
33.254859308856709
30
0
10
-36.384961554957947
20
36.496539651641491
30
0
10
-37.891878209024327
20
41.508899242144182
30
0
10
-41.664045213063574
20
42.369470904668191
30
0
0
SPLINE
5
155
100
AcDbEntity
8
0
100
AcDbSpline
70
4
71
3
72
8
73
4
74
0
42
0.000000001
43
0.0000000001
44
0.0000000001
40
0
40
0
40
0
40
0
40
1
40
1
40
1
40
1
41
1
41
1
41
1
41
1
10
-41.664045213063574
20
42.369470904668191
30
0
10
-42.14198761622113
20
42.478269173304248
30
0
10
-41.939209295908611
20
43.211486692428601
30
0
10
-41.462113094329851
20
43.10226209322613
30
0
0
SPLINE
5
156
100
AcDbEntity
8
0
100
AcDbSpline
70
4
71
3
72
8
73
4
74
0
42
0.000000001
43
0.0000000001
44
0.0000000001
40
0
40
0
40
0
40
0
40
1
40
1
40
1
40
1
41
1
41
1
41
1
41
1
10
-41.462113094329851
20
43.10226209322613
30
0
10
-37.387956091562927
20
42.173468656539939
30
0
10
-35.672608598073332
20
36.893655271530164
30
0
10
-35.114651699066172
20
33.384644651412977
30
0
0
SPLINE
5
157
100
AcDbEntity
8
0
100
AcDbSpline
70
4
71
3
72
8
73
4
74
0
42
0.000000001
43
0.0000000001
44
0.0000000001
40
0
40
0
40
0
40
0
40
0.5214028493620344
40
0.5214028493620344
40
0.5214028493620344
40
0.5214028493620344
41
1
41
1
41
1
41
1
10
-35.114651699066172
20
33.384644651412977
30
0
10
-35.07492241859913
20
33.134780618689284
30
0
10
-35.255009490532409
20
32.959148704971405
30
0
10
-35.447349280246172
20
32.916795970039949
30
0
0
SPLINE
5
158
100
AcDbEntity
8
0
100
AcDbSpline
70
4
71
3
72
8
73
4
74
0
42
0.000000001
43
0.0000000001
44
0.0000000001
40
0.97997175700101613
40
0.97997175700101613
40
0.97997175700101613
40
0.97997175700101613
40
1
40
1
40
1
40
1
41
1
41
1
41
1
41
1
10
-35.447349280245277
20
32.916795970038265
30
0
10
-35.395054897091256
20
32.87592987163675
30
0
10
-35.342435076411412
20
32.835590363269169
30
0
10
-35.289485988616953
20
32.795791705449432
30
0
0
SPLINE
5
159
100
AcDbEntity
8
0
100
AcDbSpline
70
4
71
3
72
8
73
4
74
0
42
0.000000001
43
0.0000000001
44
0.0000000001
40
0
40
0
40
0
40
0
40
1
40
1
40
1
40
1
41
1
41
1
41
1
41
1
10
-35.289485988616953
20
32.795791705449432
30
0
10
-34.902985032399513
20
32.504963204065966
30
0
10
-35.28101751327516
20
31.844561007817592
30
0
10
-35.673028469085708
20
32.139623746871962
30
0
0
SPLINE
5
160
100
AcDbEntity
8
0
100
AcDbSpline
70
4
71
3
72
8
73
4
74
0
42
0.000000001
43
0.0000000001
44
0.0000000001
40
0
40
0
40
0
40
0
40
1
40
1
40
1
40
1
41
1
41
1
41
1
41
1
10
-18.882783946990973
20
30.547469638188684
30
0
10
-18.882783946990973
20
31.317513074874888
30
0
10
-18.258791027069098
20
31.941505994796763
30
0
10
-17.488747590382896
20
31.941505994796763
30
0
0
LINE
5
161
100
AcDbEntity
8
0
100
AcDbLine
10
-17.488747590382896
20
31.941505994796756
30
0
11
-17.488747590382896
21
29.153856382369998
31
0
0
SPLINE
5
162
100
AcDbEntity
8
0
100
AcDbSpline
70
4
71
3
72
8
73
4
74
0
42
0.000000001
43
0.0000000001
44
0.0000000001
40
0
40
0
40
0
40
0
40
1
40
1
40
1
40
1
41
1
41
1
41
1
41
1
10
-17.488747590382896
20
29.153856382369998
30
0
10
-18.258791027069098
20
29.153856382369998
30
0
10
-18.882783946990973
20
29.77784930229188
30
0
10
-18.882783946990973
20
30.547469638188684
30
0
0
SPLINE
5
163
100
AcDbEntity
8
0
100
AcDbSpline
70
4
71
3
72
8
73
4
74
0
42
0.000000001
43
0.0000000001
44
0.0000000001
40
0
40
0
40
0
40
0
40
1
40
1
40
1
40
1
41
1
41
1
41
1
41
1
10
-18.882783946990973
20
36.629924599329641
30
0
10
-18.882783946990973
20
37.399968036015842
30
0
10
-18.258791027069098
20
38.023960955937717
30
0
10
-17.488747590382896
20
38.023960955937717
30
0
0
LINE
5
164
100
AcDbEntity
8
0
100
AcDbLine
10
-17.488747590382896
20
38.023960955937717
30
0
11
-17.488747590382896
21
35.235888242721572
31
0
0
SPLINE
5
165
100
AcDbEntity
8
0
100
AcDbSpline
70
4
71
3
72
8
73
4
74
0
42
0.000000001
43
0.0000000001
44
0.0000000001
40
0
40
0
40
0
40
0
40
1
40
1
40
1
40
1
41
1
41
1
41
1
41
1
10
-17.488747590382896
20
35.235888242721572
30
0
10
-18.258791027069098
20
35.235888242721572
30
0
10
-18.882783946990973
20
35.859881162643447
30
0
10
-18.882783946990973
20
36.629924599329641
30
0
0
SPLINE
5
166
100
AcDbEntity
8
0
100
AcDbSpline
70
4
71
3
72
8
73
4
74
0
42
0.000000001
43
0.0000000001
44
0.0000000001
40
0
40
0
40
0
40
0
40
1
40
1
40
1
40
1
41
1
41
1
41
1
41
1
10
-21.923163611094164
20
27.50666364351909
30
0
10
-21.923163611094164
20
28.276707080205288
30
0
10
-21.299170691172293
20
28.900700000127166
30
0
10
-20.529973456064859
20
28.900700000127166
30
0
0
LINE
5
167
100
AcDbEntity
8
0
100
AcDbLine
10
-20.529973456064855
20
28.900700000127163
30
0
11
-20.529973456064859
21
26.113050387700412
31
0
0
SPLINE
5
168
100
AcDbEntity
8
0
100
AcDbSpline
70
4
71
3
72
8
73
4
74
0
42
0.000000001
43
0.0000000001
44
0.0000000001
40
0
40
0
40
0
40
0
40
1
40
1
40
1
40
1
41
1
41
1
41
1
41
1
10
-20.529973456064859
20
26.113050387700412
30
0
10
-21.299593791961673
20
26.113050387700412
30
0
10
-21.923163611094164
20
26.737043307622287
30
0
10
-21.923163611094164
20
27.50666364351909
30
0
0
SPLINE
5
169
100
AcDbEntity
8
0
100
AcDbSpline
70
0
71
2
72
6
73
3
74
0
42
0.000000001
43
0.0000000001
44
0.0000000001
40
-1
40
-1
40
-1
40
-0.00039931282674552808
40
-0.00039931282674552808
40
-0.00039931282674552808
10
-15.239152990976972
20
15.573745374679572
30
0
10
-14.126654999996429
20
15.679536447405402
30
0
10
-12.594966559661085
20
19.162945376360813
30
0
0
SPLINE
5
170
100
AcDbEntity
8
0
100
AcDbSpline
70
4
71
3
72
8
73
4
74
0
42
0.000000001
43
0.0000000001
44
0.0000000001
40
0.16256210237497817
40
0.16256210237497817
40
0.16256210237497817
40
0.16256210237497817
40
0.91973145603451933
40
0.91973145603451933
40
0.91973145603451933
40
0.91973145603451933
41
1
41
1
41
1
41
1
10
-12.594966559661088
20
19.162945376360817
30
0
10
-5.122588314094088
20
20.96779455455647
30
0
10
-0.56261956471563279
20
26.320048924480805
30
0
10
1.3719777398954327
20
29.110273071853101
30
0
0
ELLIPSE
5
171
100
AcDbEntity
8
0
100
AcDbEllipse
10
0.40287242418464292
20
29.085179405579261
30
0
11
2.6093678018003166
21
3.5783403411258448
31
0.0
40
0.17503634393483444
41
4.8462973662111724
42
5.0684430302827526
0
SPLINE
5
172
100
AcDbEntity
8
0
100
AcDbSpline
70
4
71
3
72
8
73
4
74
0
42
0.000000001
43
0.0000000001
44
0.0000000001
40
0
40
0
40
0
40
0
40
0.99998105882553101
40
0.99998105882553101
40
0.99998105882553101
40
0.99998105882553101
41
1
41
1
41
1
41
1
10
1.8994972674051951
20
29.90442426363628
30
0
10
1.2971052021910006
20
30.254089449320126
30
0
10
0.20705143040511323
20
30.668102274606163
30
0
10
-1.3842089630679644
20
30.445033787633665
30
0
0
SPLINE
5
173
100
AcDbEntity
8
0
100
AcDbSpline
70
0
71
2
72
6
73
3
74
0
42
0.000000001
43
0.0000000001
44
0.0000000001
40
0.00016816408914386731
40
0.00016816408914386731
40
0.00016816408914386731
40
1
40
1
40
1
10
-1.384208963068011
20
30.445033787633658
30
0
10
0.14722473499799479
20
31.740375015023687
30
0
10
2.1022723579406772
20
31.472451937993377
30
0
0
LINE
5
174
100
AcDbEntity
8
0
100
AcDbLine
10
2.1022723579406772
20
31.472451937993377
30
0
11
2.1019536396121268
21
31.472976865837317
31
0
0
LINE
5
175
100
AcDbEntity
8
0
100
AcDbLine
10
2.1019536396121268
20
31.472976865837317
30
0
11
2.1026970736185717
21
31.472875038782767
31
0
0
SPLINE
5
176
100
AcDbEntity
8
0
100
AcDbSpline
70
4
71
3
72
8
73
4
74
0
42
0.000000001
43
0.0000000001
44
0.0000000001
40
0
40
0
40
0
40
0
40
0.40671438348043953
40
0.40671438348043953
40
0.40671438348043953
40
0.40671438348043953
41
1
41
1
41
1
41
1
10
2.1026970736185717
20
31.472875038782767
30
0
10
1.7165068483887804
20
32.109064403452059
30
0
10
1.0112765608659939
20
33.182847972966584
30
0
10
-0.02518357980379235
20
34.429042224155772
30
0
0
SPLINE
5
177
100
AcDbEntity
8
0
100
AcDbSpline
70
4
71
3
72
8
73
4
74
0
42
0.000000001
43
0.0000000001
44
0.0000000001
40
0.25558758099575268
40
0.25558758099575268
40
0.25558758099575268
40
0.25558758099575268
40
0.84430356804040152
40
0.84430356804040152
40
0.84430356804040152
40
0.84430356804040152
41
1
41
1
41
1
41
1
10
-0.025183579807340623
20
34.429042224157875
30
0
10
-2.4118887717372455
20
37.299993386565539
30
0
10
-6.5555952963104067
20
41.08579019352711
30
0
10
-12.608067852918641
20
42.543824939645845
30
0
0
SPLINE
5
178
100
AcDbEntity
8
0
100
AcDbSpline
70
0
71
2
72
6
73
3
74
0
42
0.000000001
43
0.0000000001
44
0.0000000001
40
0.004676858624092459
40
0.004676858624092459
40
0.004676858624092459
40
1
40
1
40
1
10
-12.608067852918632
20
42.543824939645845
30
0
10
-14.131415662095746
20
45.997935639458504
30
0
10
-15.239152990976972
20
46.103274005254136
30
0
0
SPLINE
5
179
100
AcDbEntity
8
0
100
AcDbSpline
70
4
71
3
72
8
73
4
74
0
42
0.000000001
43
0.0000000001
44
0.0000000001
40
0
40
0
40
0
40
0
40
0.92197166500193029
40
0.92197166500193029
40
0.92197166500193029
40
0.92197166500193029
41
1
41
1
41
1
41
1
10
-15.239152990976972
20
46.103274005254136
30
0
10
-16.265644438406653
20
46.200849339800158
30
0
10
-25.018768619776282
20
45.846815215136118
30
0
10
-31.059424893102676
20
39.102851087763085
30
0
0
SPLINE
5
180
100
AcDbEntity
8
0
100
AcDbSpline
70
0
71
2
72
6
73
3
74
0
42
0.000000001
43
0.0000000001
44
0.0000000001
40
0.57375577988317839
40
0.57375577988317839
40
0.57375577988317839
40
0.76947084643364116
40
0.76947084643364116
40
0.76947084643364116
10
-31.059424893243484
20
39.102851087605856
30
0
10
-32.858067238744617
20
37.721562062597258
30
0
10
-34.342517848597907
20
35.869098571145784
30
0
0
SPLINE
5
181
100
AcDbEntity
8
0
100
AcDbSpline
70
0
71
2
72
6
73
3
74
0
42
0.000000001
43
0.0000000001
44
0.0000000001
40
0.076010659773662059
40
0.076010659773662059
40
0.076010659773662059
40
1
40
1
40
1
10
-34.342517848597929
20
35.869098571145742
30
0
10
-34.261678438853075
20
43.537235977819407
30
0
10
-43.159683895111094
20
43.724988940556869
30
0
0
SPLINE
5
182
100
AcDbEntity
8
0
100
AcDbSpline
70
4
71
3
72
8
73
4
74
0
42
0.000000001
43
0.0000000001
44
0.0000000001
40
0
40
0
40
0
40
0
40
1
40
1
40
1
40
1
41
1
41
1
41
1
41
1
10
-43.159683895111094
20
43.724988940556869
30
0
10
-43.159677435557064
20
43.725408811569231
30
0
10
-47.11276947657268
20
35.210909147262583
30
0
10
-40.118454799652113
20
30.851843824386606
30
0
0
SPLINE
5
183
100
AcDbEntity
8
0
100
AcDbSpline
70
0
71
2
72
6
73
3
74
0
42
0.000000001
43
0.0000000001
44
0.0000000001
40
0
40
0
40
0
40
1
40
1
40
1
10
-40.118454799652113
20
30.851843824386606
30
0
10
-47.11276947657268
20
26.49278173128765
30
0
10
-43.159683895111094
20
17.978278837203984
30
0
0
SPLINE
5
184
100
AcDbEntity
8
0
100
AcDbSpline
70
0
71
2
72
6
73
3
74
0
42
0.000000001
43
0.0000000001
44
0.0000000001
40
0
40
0
40
0
40
0.9239997626090285
40
0.9239997626090285
40
0.9239997626090285
10
-43.159683895111094
20
17.978278837203984
30
0
10
-34.261578071441875
20
18.165642972721795
30
0
10
-34.34251967343944
20
25.834282773313877
30
0
0
SPLINE
5
185
100
AcDbEntity
8
0
100
AcDbSpline
70
0
71
2
72
6
73
3
74
0
42
0.000000001
43
0.0000000001
44
0.0000000001
40
0.23051913841240984
40
0.23051913841240984
40
0.23051913841240984
40
0.42210796925615529
40
0.42210796925615529
40
0.42210796925615529
10
-34.342519673439412
20
25.834282773313831
30
0
10
-32.889337595765355
20
24.020975204191544
30
0
10
-31.135103317383297
20
22.659153168330576
30
0
0
SPLINE
5
186
100
AcDbEntity
8
0
100
AcDbSpline
70
4
71
3
72
8
73
4
74
0
42
0.000000001
43
0.0000000001
44
0.0000000001
40
-0.9258291598983559
40
-0.9258291598983559
40
-0.9258291598983559
40
-0.9258291598983559
40
0
40
0
40
0
40
0
41
1
41
1
41
1
41
1
10
-31.13510331729103
20
22.659153168226439
30
0
10
-25.092149365794356
20
15.833171833052688
30
0
10
-16.269939240155981
20
15.475761788590326
30
0
10
-15.239152990976972
20
15.573745374679572
30
0
0
ENDSEC
0
SECTION
2
OBJECTS
0
DICTIONARY
5
C
100
AcDbDictionary
3
ACAD_GROUP
350
D
3
ACAD_MLINESTYLE
350
17
0
DICTIONARY
5
D
100
AcDbDictionary
0
DICTIONARY
5
1A
330
C
100
AcDbDictionary
0
DICTIONARY
5
17
100
AcDbDictionary
0
ENDSEC
0
EOF
