0
SECTION
2
HEADER
9
$INSUNITS
70
4
9
$ACADVER
1
AC1014
9
$HANDSEED
5
FFFF
0
ENDSEC
0
SECTION
2
TABLES
0
TABLE
2
VPORT
5
8
100
AcDbSymbolTable
0
ENDTAB
0
TABLE
2
LTYPE
5
5
100
AcDbSymbolTable
0
LTYPE
5
14
100
AcDbSymbolTableRecord
100
AcDbLinetypeTableRecord
2
BYBLOCK
70
0
0
LTYPE
5
15
100
AcDbSymbolTableRecord
100
AcDbLinetypeTableRecord
2
BYLAYER
70
0
0
ENDTAB
0
TABLE
2
LAYER
5
2
100
AcDbSymbolTable
70
2
0
LAYER
5
50
100
AcDbSymbolTableRecord
100
AcDbLayerTableRecord
2
0
70
0
6
CONTINUOUS
0
ENDTAB
0
TABLE
2
STYLE
5
3
100
AcDbSymbolTable
70
1
0
STYLE
5
11
100
AcDbSymbolTableRecord
100
AcDbTextStyleTableRecord
2
STANDARD
70
0
0
ENDTAB
0
TABLE
2
VIEW
5
6
100
AcDbSymbolTable
70
0
0
ENDTAB
0
TABLE
2
UCS
5
7
100
AcDbSymbolTable
70
0
0
ENDTAB
0
TABLE
2
APPID
5
9
100
AcDbSymbolTable
70
2
0
APPID
5
12
100
AcDbSymbolTableRecord
100
AcDbRegAppTableRecord
2
ACAD
70
0
0
ENDTAB
0
TABLE
2
DIMSTYLE
5
A
100
AcDbSymbolTable
70
1
0
ENDTAB
0
TABLE
2
BLOCK_RECORD
5
1
100
AcDbSymbolTable
70
1
0
BLOCK_RECORD
5
1F
100
AcDbSymbolTableRecord
100
AcDbBlockTableRecord
2
*MODEL_SPACE
0
BLOCK_RECORD
5
1B
100
AcDbSymbolTableRecord
100
AcDbBlockTableRecord
2
*PAPER_SPACE
0
ENDTAB
0
ENDSEC
0
SECTION
2
BLOCKS
0
BLOCK
5
20
100
AcDbEntity
100
AcDbBlockBegin
2
*MODEL_SPACE
0
ENDBLK
5
21
100
AcDbEntity
100
AcDbBlockEnd
0
BLOCK
5
1C
100
AcDbEntity
100
AcDbBlockBegin
2
*PAPER_SPACE
0
ENDBLK
5
1D
100
AcDbEntity
100
AcDbBlockEnd
0
ENDSEC
0
SECTION
2
ENTITIES
0
LINE
5
100
100
AcDbEntity
8
0
100
AcDbLine
10
-10
20
-40
30
0
11
140
21
-40
31
0
0
SPLINE
5
101
100
AcDbEntity
8
0
100
AcDbSpline
70
4
71
3
72
8
73
4
74
0
42
0.000000001
43
0.0000000001
44
0.0000000001
40
0
40
0
40
0
40
0
40
1
40
1
40
1
40
1
41
1
41
1
41
1
41
1
10
137.25117337544762
20
-27.999710502624513
30
0
10
137.82743665059411
20
-27.737115097045901
30
0
10
138.45609013875327
20
-26.757627887725835
30
0
10
138.34591275533043
20
-25.747343139648443
30
0
0
SPLINE
5
102
100
AcDbEntity
8
0
100
AcDbSpline
70
4
71
3
72
8
73
4
74
0
42
0.000000001
43
0.0000000001
44
0.0000000001
40
0
40
0
40
0
40
0
40
1
40
1
40
1
40
1
41
1
41
1
41
1
41
1
10
138.34591275533043
20
-25.747343139648443
30
0
10
138.03761761983239
20
-22.917465000152593
30
0
10
134.26794461568196
20
-22.541862926483155
30
0
10
132.38231358846031
20
-23.801386337280274
30
0
0
SPLINE
5
103
100
AcDbEntity
8
0
100
AcDbSpline
70
4
71
3
72
8
73
4
74
0
42
0.000000001
43
0.0000000001
44
0.0000000001
40
0
40
0
40
0
40
0
40
1
40
1
40
1
40
1
41
1
41
1
41
1
41
1
10
132.38231358846031
20
-23.801386337280274
30
0
10
130.78180081685386
20
-24.870407810211184
30
0
10
129.25493665059409
20
-28.17050434112549
30
0
10
124.90201436360678
20
-30.781306705474854
30
0
0
SPLINE
5
104
100
AcDbEntity
8
0
100
AcDbSpline
70
4
71
3
72
8
73
4
74
0
42
0.000000001
43
0.0000000001
44
0.0000000001
40
0
40
0
40
0
40
0
40
1
40
1
40
1
40
1
41
1
41
1
41
1
41
1
10
124.90201436360678
20
-30.781306705474854
30
0
10
124.02412221272786
20
-31.307720794677735
30
0
10
122.8617609914144
20
-31.682370891571043
30
0
10
122.20294461568199
20
-31.682370891571043
30
0
0
LINE
5
105
100
AcDbEntity
8
0
100
AcDbLine
10
122.20294461568199
20
-31.682370891571043
30
0
11
122.1991367085775
21
-31.682370891571043
31
0
0
SPLINE
5
106
100
AcDbEntity
8
0
100
AcDbSpline
70
4
71
3
72
8
73
4
74
0
42
0.000000001
43
0.0000000001
44
0.0000000001
40
0
40
0
40
0
40
0
40
1
40
1
40
1
40
1
41
1
41
1
41
1
41
1
10
122.1991367085775
20
-31.682370891571043
30
0
10
118.31769727071131
20
-31.682370891571043
30
0
10
117.31757420857747
20
-26.093736724853514
30
0
10
119.79819798787439
20
-25.349198837280277
30
0
0
SPLINE
5
107
100
AcDbEntity
8
0
100
AcDbSpline
70
0
71
2
72
6
73
3
74
0
42
0.000000001
43
0.0000000001
44
0.0000000001
40
0
40
0
40
0
40
1
40
1
40
1
10
119.79819798787439
20
-25.349198837280277
30
0
10
122.40677907307943
20
-24.5665625
30
0
10
122.36677182515464
20
-27.984449806213384
30
0
0
SPLINE
5
108
100
AcDbEntity
8
0
100
AcDbSpline
70
4
71
3
72
8
73
4
74
0
42
0.000000001
43
0.0000000001
44
0.0000000001
40
0
40
0
40
0
40
0
40
1
40
1
40
1
40
1
41
1
41
1
41
1
41
1
10
122.36677182515464
20
-27.984449806213384
30
0
10
122.94303510030112
20
-27.722195949554443
30
0
10
123.62121075948082
20
-26.750009651184079
30
0
10
123.51136281331381
20
-25.739724903106691
30
0
0
SPLINE
5
109
100
AcDbEntity
8
0
100
AcDbSpline
70
4
71
3
72
8
73
4
74
0
42
0.000000001
43
0.0000000001
44
0.0000000001
40
0
40
0
40
0
40
0
40
1
40
1
40
1
40
1
41
1
41
1
41
1
41
1
10
123.51136281331381
20
-25.739724903106691
30
0
10
123.20306767781577
20
-22.90984676361084
30
0
10
119.43339467366539
20
-22.538055019378668
30
0
10
117.54776364644368
20
-23.797578430175786
30
0
0
SPLINE
5
110
100
AcDbEntity
8
0
100
AcDbSpline
70
4
71
3
72
8
73
4
74
0
42
0.000000001
43
0.0000000001
44
0.0000000001
40
0
40
0
40
0
40
0
40
1
40
1
40
1
40
1
41
1
41
1
41
1
41
1
10
117.54776364644368
20
-23.797578430175786
30
0
10
115.94725087483724
20
-24.866599903106689
30
0
10
114.4207064565023
20
-28.168600387573242
30
0
10
110.06746442159016
20
-30.779402751922611
30
0
0
SPLINE
5
111
100
AcDbEntity
8
0
100
AcDbSpline
70
4
71
3
72
8
73
4
74
0
42
0.000000001
43
0.0000000001
44
0.0000000001
40
0
40
0
40
0
40
0
40
1
40
1
40
1
40
1
41
1
41
1
41
1
41
1
10
110.06746442159016
20
-30.779402751922611
30
0
10
109.1895722707113
20
-31.305816841125491
30
0
10
108.02753079732263
20
-31.682373313903813
30
0
10
107.36839467366539
20
-31.682373313903813
30
0
0
LINE
5
112
100
AcDbEntity
8
0
100
AcDbLine
10
107.36839467366539
20
-31.682373313903817
30
0
11
107.36458676656088
21
-31.682373313903813
31
0
0
SPLINE
5
113
100
AcDbEntity
8
0
100
AcDbSpline
70
4
71
3
72
8
73
4
74
0
42
0.000000001
43
0.0000000001
44
0.0000000001
40
0
40
0
40
0
40
0
40
1
40
1
40
1
40
1
41
1
41
1
41
1
41
1
10
107.36458676656088
20
-31.682373313903813
30
0
10
103.48314732869468
20
-31.682373313903813
30
0
10
102.48302426656089
20
-26.09373914718628
30
0
10
104.96364804585778
20
-25.349201259613036
30
0
0
SPLINE
5
114
100
AcDbEntity
8
0
100
AcDbSpline
70
0
71
2
72
6
73
3
74
0
42
0.000000001
43
0.0000000001
44
0.0000000001
40
0
40
0
40
0
40
1
40
1
40
1
10
104.96364804585778
20
-25.349201259613036
30
0
10
107.57222913106283
20
-24.566564922332766
30
0
10
107.53222188313802
20
-27.984452228546143
30
0
0
SPLINE
5
115
100
AcDbEntity
8
0
100
AcDbSpline
70
4
71
3
72
8
73
4
74
0
42
0.000000001
43
0.0000000001
44
0.0000000001
40
0
40
0
40
0
40
0
40
1
40
1
40
1
40
1
41
1
41
1
41
1
41
1
10
107.53222188313802
20
-27.984452228546143
30
0
10
108.10848515828451
20
-27.722198371887213
30
0
10
108.7866608174642
20
-26.750012073516846
30
0
10
108.6768128712972
20
-25.739727325439453
30
0
0
SPLINE
5
116
100
AcDbEntity
8
0
100
AcDbSpline
70
4
71
3
72
8
73
4
74
0
42
0.000000001
43
0.0000000001
44
0.0000000001
40
0
40
0
40
0
40
0
40
1
40
1
40
1
40
1
41
1
41
1
41
1
41
1
10
108.6768128712972
20
-25.739727325439453
30
0
10
108.36851773579916
20
-22.9098491859436
30
0
10
104.59884473164877
20
-22.538057441711427
30
0
10
102.71321370442709
20
-23.797580852508545
30
0
0
SPLINE
5
117
100
AcDbEntity
8
0
100
AcDbSpline
70
4
71
3
72
8
73
4
74
0
42
0.000000001
43
0.0000000001
44
0.0000000001
40
0
40
0
40
0
40
0
40
1
40
1
40
1
40
1
41
1
41
1
41
1
41
1
10
102.71321370442709
20
-23.797580852508545
30
0
10
101.11270093282066
20
-24.866602325439455
30
0
10
99.585836766560902
20
-28.168602809906012
30
0
10
95.232914479573594
20
-30.779405174255373
30
0
0
SPLINE
5
118
100
AcDbEntity
8
0
100
AcDbSpline
70
4
71
3
72
8
73
4
74
0
42
0.000000001
43
0.0000000001
44
0.0000000001
40
0
40
0
40
0
40
0
40
1
40
1
40
1
40
1
41
1
41
1
41
1
41
1
10
95.232914479573594
20
-30.779405174255373
30
0
10
94.355022328694673
20
-31.305819263458257
30
0
10
93.192661107381198
20
-31.682375736236573
30
0
10
92.533844731648784
20
-31.682375736236573
30
0
0
LINE
5
119
100
AcDbEntity
8
0
100
AcDbLine
10
92.533844731648784
20
-31.68237573623658
30
0
11
92.530036824544268
21
-31.682375736236573
31
0
0
SPLINE
5
120
100
AcDbEntity
8
0
100
AcDbSpline
70
4
71
3
72
8
73
4
74
0
42
0.000000001
43
0.0000000001
44
0.0000000001
40
0
40
0
40
0
40
0
40
1
40
1
40
1
40
1
41
1
41
1
41
1
41
1
10
92.530036824544268
20
-31.682375736236573
30
0
10
88.648597386678063
20
-31.682375736236573
30
0
10
87.648474324544281
20
-26.093741569519043
30
0
10
90.129098103841159
20
-25.349203681945806
30
0
0
SPLINE
5
121
100
AcDbEntity
8
0
100
AcDbSpline
70
0
71
2
72
6
73
3
74
0
42
0.000000001
43
0.0000000001
44
0.0000000001
40
0
40
0
40
0
40
1
40
1
40
1
10
90.129098103841159
20
-25.349203681945806
30
0
10
92.737679189046247
20
-24.566567344665525
30
0
10
92.697671941121413
20
-27.984454650878909
30
0
0
SPLINE
5
122
100
AcDbEntity
8
0
100
AcDbSpline
70
4
71
3
72
8
73
4
74
0
42
0.000000001
43
0.0000000001
44
0.0000000001
40
0
40
0
40
0
40
0
40
1
40
1
40
1
40
1
41
1
41
1
41
1
41
1
10
92.697671941121413
20
-27.984454650878909
30
0
10
93.273935216267915
20
-27.722200794219972
30
0
10
93.952110875447588
20
-26.750014495849609
30
0
10
93.842262929280622
20
-25.739729747772216
30
0
0
SPLINE
5
123
100
AcDbEntity
8
0
100
AcDbSpline
70
4
71
3
72
8
73
4
74
0
42
0.000000001
43
0.0000000001
44
0.0000000001
40
0
40
0
40
0
40
0
40
1
40
1
40
1
40
1
41
1
41
1
41
1
41
1
10
93.842262929280622
20
-25.739729747772216
30
0
10
93.534287541707386
20
-22.909851608276369
30
0
10
89.764294789632189
20
-22.538059864044193
30
0
10
87.878663762410483
20
-23.797583274841312
30
0
0
SPLINE
5
124
100
AcDbEntity
8
0
100
AcDbSpline
70
4
71
3
72
8
73
4
74
0
42
0.000000001
43
0.0000000001
44
0.0000000001
40
0
40
0
40
0
40
0
40
1
40
1
40
1
40
1
41
1
41
1
41
1
41
1
10
87.878663762410483
20
-23.797583274841312
30
0
10
86.27815099080405
20
-24.866604747772215
30
0
10
84.751606572469058
20
-28.168605232238772
30
0
10
80.398684285481778
20
-30.779407596588136
30
0
0
SPLINE
5
125
100
AcDbEntity
8
0
100
AcDbSpline
70
4
71
3
72
8
73
4
74
0
42
0.000000001
43
0.0000000001
44
0.0000000001
40
0
40
0
40
0
40
0
40
1
40
1
40
1
40
1
41
1
41
1
41
1
41
1
10
80.398684285481778
20
-30.779407596588136
30
0
10
79.520792134602885
20
-31.305821685791017
30
0
10
78.358430913289411
20
-31.682378158569339
30
0
10
77.699614537556968
20
-31.682378158569339
30
0
0
LINE
5
126
100
AcDbEntity
8
0
100
AcDbLine
10
77.699614537556968
20
-31.682378158569342
30
0
11
77.695806630452495
21
-31.682378158569339
31
0
0
SPLINE
5
127
100
AcDbEntity
8
0
100
AcDbSpline
70
4
71
3
72
8
73
4
74
0
42
0.000000001
43
0.0000000001
44
0.0000000001
40
0
40
0
40
0
40
0
40
1
40
1
40
1
40
1
41
1
41
1
41
1
41
1
10
77.695806630452495
20
-31.682378158569339
30
0
10
73.814367192586275
20
-31.682378158569339
30
0
10
72.814244130452479
20
-26.093743991851809
30
0
10
75.294867909749371
20
-25.349206104278569
30
0
0
SPLINE
5
128
100
AcDbEntity
8
0
100
AcDbSpline
70
0
71
2
72
6
73
3
74
0
42
0.000000001
43
0.0000000001
44
0.0000000001
40
0
40
0
40
0
40
1
40
1
40
1
10
75.294867909749371
20
-25.349206104278569
30
0
10
77.903448994954431
20
-24.566569766998292
30
0
10
77.86344174702964
20
-27.984457073211672
30
0
0
SPLINE
5
129
100
AcDbEntity
8
0
100
AcDbSpline
70
4
71
3
72
8
73
4
74
0
42
0.000000001
43
0.0000000001
44
0.0000000001
40
0
40
0
40
0
40
0
40
1
40
1
40
1
40
1
41
1
41
1
41
1
41
1
10
77.86344174702964
20
-27.984457073211672
30
0
10
78.439705022176113
20
-27.722203216552739
30
0
10
79.117880681355814
20
-26.750016918182379
30
0
10
79.008032735188806
20
-25.739732170104986
30
0
0
SPLINE
5
130
100
AcDbEntity
8
0
100
AcDbSpline
70
4
71
3
72
8
73
4
74
0
42
0.000000001
43
0.0000000001
44
0.0000000001
40
0
40
0
40
0
40
0
40
1
40
1
40
1
40
1
41
1
41
1
41
1
41
1
10
79.008032735188806
20
-25.739732170104986
30
0
10
78.699737599690764
20
-22.909854030609132
30
0
10
74.930064595540372
20
-22.538062286376956
30
0
10
73.044433568318709
20
-23.797585697174071
30
0
0
SPLINE
5
131
100
AcDbEntity
8
0
100
AcDbSpline
70
4
71
3
72
8
73
4
74
0
42
0.000000001
43
0.0000000001
44
0.0000000001
40
0
40
0
40
0
40
0
40
1
40
1
40
1
40
1
41
1
41
1
41
1
41
1
10
73.044433568318709
20
-23.797585697174071
30
0
10
71.443920796712248
20
-24.866607170104981
30
0
10
69.917056630452478
20
-28.168607654571538
30
0
10
65.564134343465184
20
-30.779410018920899
30
0
0
SPLINE
5
132
100
AcDbEntity
8
0
100
AcDbSpline
70
4
71
3
72
8
73
4
74
0
42
0.000000001
43
0.0000000001
44
0.0000000001
40
0
40
0
40
0
40
0
40
1
40
1
40
1
40
1
41
1
41
1
41
1
41
1
10
65.564134343465184
20
-30.779410018920899
30
0
10
64.686247037251803
20
-31.305824108123783
30
0
10
63.523880971272803
20
-31.682380580902102
30
0
10
62.865064595540375
20
-31.682380580902102
30
0
0
LINE
5
133
100
AcDbEntity
8
0
100
AcDbLine
10
62.865064595540368
20
-31.682380580902105
30
0
11
62.86125668843588
21
-31.682380580902102
31
0
0
SPLINE
5
134
100
AcDbEntity
8
0
100
AcDbSpline
70
4
71
3
72
8
73
4
74
0
42
0.000000001
43
0.0000000001
44
0.0000000001
40
0
40
0
40
0
40
0
40
1
40
1
40
1
40
1
41
1
41
1
41
1
41
1
10
62.86125668843588
20
-31.682380580902102
30
0
10
58.97981725056966
20
-31.682380580902102
30
0
10
57.979694188435886
20
-26.093746414184569
30
0
10
60.460322812398289
20
-25.349208526611335
30
0
0
SPLINE
5
135
100
AcDbEntity
8
0
100
AcDbSpline
70
0
71
2
72
6
73
3
74
0
42
0.000000001
43
0.0000000001
44
0.0000000001
40
0
40
0
40
0
40
1
40
1
40
1
10
60.460322812398289
20
-25.349208526611335
30
0
10
63.068903897603363
20
-24.566572189331055
30
0
10
63.028896649678558
20
-27.984459495544435
30
0
0
SPLINE
5
136
100
AcDbEntity
8
0
100
AcDbSpline
70
4
71
3
72
8
73
4
74
0
42
0.000000001
43
0.0000000001
44
0.0000000001
40
0
40
0
40
0
40
0
40
1
40
1
40
1
40
1
41
1
41
1
41
1
41
1
10
63.028896649678558
20
-27.984459495544435
30
0
10
63.605159924825038
20
-27.722205638885498
30
0
10
64.283340428670257
20
-26.750019340515138
30
0
10
64.173482793172212
20
-25.739734592437745
30
0
0
SPLINE
5
137
100
AcDbEntity
8
0
100
AcDbSpline
70
4
71
3
72
8
73
4
74
0
42
0.000000001
43
0.0000000001
44
0.0000000001
40
0
40
0
40
0
40
0
40
1
40
1
40
1
40
1
41
1
41
1
41
1
41
1
10
64.173482793172212
20
-25.739734592437745
30
0
10
63.865192502339681
20
-22.909856452941895
30
0
10
60.095514653523772
20
-22.538064708709719
30
0
10
58.209878781636561
20
-23.797588119506838
30
0
0
SPLINE
5
138
100
AcDbEntity
8
0
100
AcDbSpline
70
4
71
3
72
8
73
4
74
0
42
0.000000001
43
0.0000000001
44
0.0000000001
40
0
40
0
40
0
40
0
40
1
40
1
40
1
40
1
41
1
41
1
41
1
41
1
10
58.209878781636561
20
-23.797588119506838
30
0
10
56.609361165364589
20
-24.866609592437744
30
0
10
55.082821591695165
20
-28.168610076904301
30
0
10
50.729894460042324
20
-30.779412441253662
30
0
0
SPLINE
5
139
100
AcDbEntity
8
0
100
AcDbSpline
70
4
71
3
72
8
73
4
74
0
42
0.000000001
43
0.0000000001
44
0.0000000001
40
0
40
0
40
0
40
0
40
1
40
1
40
1
40
1
41
1
41
1
41
1
41
1
10
50.729894460042324
20
-30.779412441253662
30
0
10
49.85200715382895
20
-31.305826530456542
30
0
10
48.689641087849949
20
-31.682383003234868
30
0
10
48.030824712117521
20
-31.682383003234868
30
0
0
LINE
5
140
100
AcDbEntity
8
0
100
AcDbLine
10
48.030824712117514
20
-31.682383003234872
30
0
11
48.02701680501302
21
-31.682383003234868
31
0
0
SPLINE
5
141
100
AcDbEntity
8
0
100
AcDbSpline
70
4
71
3
72
8
73
4
74
0
42
0.000000001
43
0.0000000001
44
0.0000000001
40
0
40
0
40
0
40
0
40
1
40
1
40
1
40
1
41
1
41
1
41
1
41
1
10
48.02701680501302
20
-31.682383003234868
30
0
10
44.145577367146814
20
-31.682383003234868
30
0
10
43.145454305013033
20
-26.093748836517335
30
0
10
45.626082928975435
20
-25.349210948944094
30
0
0
SPLINE
5
142
100
AcDbEntity
8
0
100
AcDbSpline
70
0
71
2
72
6
73
3
74
0
42
0.000000001
43
0.0000000001
44
0.0000000001
40
0
40
0
40
0
40
1
40
1
40
1
10
45.626082928975435
20
-25.349210948944094
30
0
10
48.23466401418051
20
-24.566574611663818
30
0
10
48.194656766255704
20
-27.984461917877198
30
0
0
SPLINE
5
143
100
AcDbEntity
8
0
100
AcDbSpline
70
4
71
3
72
8
73
4
74
0
42
0.000000001
43
0.0000000001
44
0.0000000001
40
0
40
0
40
0
40
0
40
1
40
1
40
1
40
1
41
1
41
1
41
1
41
1
10
48.194656766255704
20
-27.984461917877198
30
0
10
48.770920041402192
20
-27.722208061218264
30
0
10
49.449100545247404
20
-26.750021762847904
30
0
10
49.339242909749359
20
-25.739737014770512
30
0
0
SPLINE
5
144
100
AcDbEntity
8
0
100
AcDbSpline
70
4
71
3
72
8
73
4
74
0
42
0.000000001
43
0.0000000001
44
0.0000000001
40
0
40
0
40
0
40
0
40
1
40
1
40
1
40
1
41
1
41
1
41
1
41
1
10
49.339242909749359
20
-25.739737014770512
30
0
10
49.031267522176108
20
-22.909858875274658
30
0
10
45.261274770100918
20
-22.538067131042482
30
0
10
43.375638898213708
20
-23.7975905418396
30
0
0
SPLINE
5
145
100
AcDbEntity
8
0
100
AcDbSpline
70
4
71
3
72
8
73
4
74
0
42
0.000000001
43
0.0000000001
44
0.0000000001
40
0
40
0
40
0
40
0
40
1
40
1
40
1
40
1
41
1
41
1
41
1
41
1
10
43.375638898213708
20
-23.7975905418396
30
0
10
41.775121281941736
20
-24.866612014770514
30
0
10
40.248581708272297
20
-28.168612499237064
30
0
10
35.895654576619478
20
-30.779414863586428
30
0
0
SPLINE
5
146
100
AcDbEntity
8
0
100
AcDbSpline
70
4
71
3
72
8
73
4
74
0
42
0.000000001
43
0.0000000001
44
0.0000000001
40
0
40
0
40
0
40
0
40
1
40
1
40
1
40
1
41
1
41
1
41
1
41
1
10
35.895654576619478
20
-30.779414863586428
30
0
10
35.017767270406083
20
-31.305828952789309
30
0
10
33.855401204427089
20
-31.682385425567627
30
0
10
33.196584828694668
20
-31.682385425567627
30
0
0
LINE
5
147
100
AcDbEntity
8
0
100
AcDbLine
10
33.196584828694661
20
-31.682385425567631
30
0
11
33.192776921590159
21
-31.682385425567627
31
0
0
SPLINE
5
148
100
AcDbEntity
8
0
100
AcDbSpline
70
4
71
3
72
8
73
4
74
0
42
0.000000001
43
0.0000000001
44
0.0000000001
40
0
40
0
40
0
40
0
40
1
40
1
40
1
40
1
41
1
41
1
41
1
41
1
10
33.19277692159018
20
-31.682385425567627
30
0
10
29.311337483723968
20
-31.682385425567627
30
0
10
28.311214421590172
20
-26.093751258850094
30
0
10
30.791843045552582
20
-25.349213371276861
30
0
0
SPLINE
5
149
100
AcDbEntity
8
0
100
AcDbSpline
70
0
71
2
72
6
73
3
74
0
42
0.000000001
43
0.0000000001
44
0.0000000001
40
0
40
0
40
0
40
1
40
1
40
1
10
30.791843045552582
20
-25.349213371276861
30
0
10
33.400424130757656
20
-24.56657703399658
30
0
10
33.360416882832851
20
-27.984464340209961
30
0
0
SPLINE
5
150
100
AcDbEntity
8
0
100
AcDbSpline
70
4
71
3
72
8
73
4
74
0
42
0.000000001
43
0.0000000001
44
0.0000000001
40
0
40
0
40
0
40
0
40
1
40
1
40
1
40
1
41
1
41
1
41
1
41
1
10
33.360416882832851
20
-27.984464340209961
30
0
10
33.936680157979339
20
-27.722210483551027
30
0
10
34.614860661824551
20
-26.750024185180663
30
0
10
34.505003026326513
20
-25.739739437103275
30
0
0
SPLINE
5
151
100
AcDbEntity
8
0
100
AcDbSpline
70
4
71
3
72
8
73
4
74
0
42
0.000000001
43
0.0000000001
44
0.0000000001
40
0
40
0
40
0
40
0
40
1
40
1
40
1
40
1
41
1
41
1
41
1
41
1
10
34.505003026326513
20
-25.739739437103275
30
0
10
34.196712735493982
20
-22.909861297607424
30
0
10
30.427034886678062
20
-22.538069553375244
30
0
10
28.541399014790862
20
-23.797592964172367
30
0
0
SPLINE
5
152
100
AcDbEntity
8
0
100
AcDbSpline
70
4
71
3
72
8
73
4
74
0
42
0.000000001
43
0.0000000001
44
0.0000000001
40
0
40
0
40
0
40
0
40
1
40
1
40
1
40
1
41
1
41
1
41
1
41
1
10
28.541399014790862
20
-23.797592964172367
30
0
10
26.94088139851889
20
-24.866614437103273
30
0
10
25.414341824849451
20
-28.168614921569826
30
0
10
21.061417115529384
20
-30.779417285919187
30
0
0
SPLINE
5
153
100
AcDbEntity
8
0
100
AcDbSpline
70
4
71
3
72
8
73
4
74
0
42
0.000000001
43
0.0000000001
44
0.0000000001
40
0
40
0
40
0
40
0
40
1
40
1
40
1
40
1
41
1
41
1
41
1
41
1
10
21.061417115529384
20
-30.779417285919187
30
0
10
20.183529809316006
20
-31.305831375122072
30
0
10
19.021478646596279
20
-31.682387847900394
30
0
10
18.36234978993734
20
-31.682387847900394
30
0
0
LINE
5
154
100
AcDbEntity
8
0
100
AcDbLine
10
18.362349789937337
20
-31.682387847900397
30
0
11
18.358539460500086
21
-31.682387847900394
31
0
0
SPLINE
5
155
100
AcDbEntity
8
0
100
AcDbSpline
70
4
71
3
72
8
73
4
74
0
42
0.000000001
43
0.0000000001
44
0.0000000001
40
0
40
0
40
0
40
0
40
1
40
1
40
1
40
1
41
1
41
1
41
1
41
1
10
18.358539460500086
20
-31.682387847900394
30
0
10
14.47710244496664
20
-31.682387847900394
30
0
10
13.476976960500089
20
-26.093753681182864
30
0
10
15.957605584462492
20
-25.34921579360962
30
0
0
SPLINE
5
156
100
AcDbEntity
8
0
100
AcDbSpline
70
0
71
2
72
6
73
3
74
0
42
0.000000001
43
0.0000000001
44
0.0000000001
40
0
40
0
40
0
40
1
40
1
40
1
10
15.957605584462492
20
-25.34921579360962
30
0
10
18.566184247334803
20
-24.56657945632935
30
0
10
18.526181844075523
20
-27.984466762542723
30
0
0
SPLINE
5
157
100
AcDbEntity
8
0
100
AcDbSpline
70
4
71
3
72
8
73
4
74
0
42
0.000000001
43
0.0000000001
44
0.0000000001
40
0
40
0
40
0
40
0
40
1
40
1
40
1
40
1
41
1
41
1
41
1
41
1
10
18.526181844075523
20
-27.984466762542723
30
0
10
19.102445119222011
20
-27.722212905883794
30
0
10
19.78062320073446
20
-26.75002660751343
30
0
10
19.670770409901944
20
-25.739741859436037
30
0
0
SPLINE
5
158
100
AcDbEntity
8
0
100
AcDbSpline
70
4
71
3
72
8
73
4
74
0
42
0.000000001
43
0.0000000001
44
0.0000000001
40
0
40
0
40
0
40
0
40
1
40
1
40
1
40
1
41
1
41
1
41
1
41
1
10
19.670770409901944
20
-25.739741859436037
30
0
10
19.362795022328697
20
-22.909863719940184
30
0
10
15.592799847920741
20
-22.538071975708007
30
0
10
13.707168820699064
20
-23.797595386505126
30
0
0
SPLINE
5
159
100
AcDbEntity
8
0
100
AcDbSpline
70
4
71
3
72
8
73
4
74
0
42
0.000000001
43
0.0000000001
44
0.0000000001
40
0
40
0
40
0
40
0
40
1
40
1
40
1
40
1
41
1
41
1
41
1
41
1
10
13.707168820699064
20
-23.797595386505126
30
0
10
12.106651204427092
20
-24.866616859436039
30
0
10
10.580111630757653
20
-28.168617343902589
30
0
10
6.2268695958455433
20
-30.779419708251957
30
0
0
SPLINE
5
160
100
AcDbEntity
8
0
100
AcDbSpline
70
4
71
3
72
8
73
4
74
0
42
0.000000001
43
0.0000000001
44
0.0000000001
40
0
40
0
40
0
40
0
40
1
40
1
40
1
40
1
41
1
41
1
41
1
41
1
10
6.2268695958455433
20
-30.779419708251957
30
0
10
5.3489822896321648
20
-31.305833797454838
30
0
10
4.1869323380788215
20
-31.682390270233153
30
0
10
3.5278022702535017
20
-31.682390270233153
30
0
0
LINE
5
161
100
AcDbEntity
8
0
100
AcDbLine
10
3.5278022702535017
20
-31.682390270233157
30
0
11
3.5239919408162557
21
-31.682390270233153
31
0
0
SPLINE
5
162
100
AcDbEntity
8
0
100
AcDbSpline
70
4
71
3
72
8
73
4
74
0
42
0.000000001
43
0.0000000001
44
0.0000000001
40
0
40
0
40
0
40
0
40
1
40
1
40
1
40
1
41
1
41
1
41
1
41
1
10
3.5239919408162468
20
-31.682390270233153
30
0
10
-0.35744507471719977
20
-31.682390270233153
30
0
10
-1.3575705591837539
20
-26.093756103515627
30
0
10
1.1230568536122676
20
-25.349218215942386
30
0
0
SPLINE
5
163
100
AcDbEntity
8
0
100
AcDbSpline
70
0
71
2
72
6
73
3
74
0
42
0.000000001
43
0.0000000001
44
0.0000000001
40
0
40
0
40
0
40
1
40
1
40
1
10
1.1230568536122676
20
-25.349218215942386
30
0
10
3.7316367276509643
20
-24.56658187866211
30
0
10
3.6916319020589228
20
-27.98446918487549
30
0
0
SPLINE
5
164
100
AcDbEntity
8
0
100
AcDbSpline
70
4
71
3
72
8
73
4
74
0
42
0.000000001
43
0.0000000001
44
0.0000000001
40
0
40
0
40
0
40
0
40
1
40
1
40
1
40
1
41
1
41
1
41
1
41
1
10
3.6916319020589228
20
-27.98446918487549
30
0
10
4.2678939660390247
20
-27.722215328216553
30
0
10
4.946073258717858
20
-26.750029029846193
30
0
10
4.8362204678853393
20
-25.7397442817688
30
0
0
SPLINE
5
165
100
AcDbEntity
8
0
100
AcDbSpline
70
4
71
3
72
8
73
4
74
0
42
0.000000001
43
0.0000000001
44
0.0000000001
40
0
40
0
40
0
40
0
40
1
40
1
40
1
40
1
41
1
41
1
41
1
41
1
10
4.8362204678853393
20
-25.7397442817688
30
0
10
4.5282450803120966
20
-22.90986614227295
30
0
10
0.7582499059041381
20
-22.538074398040774
30
0
10
-1.1273823324839261
20
-23.797597808837892
30
0
0
SPLINE
5
166
100
AcDbEntity
8
0
100
AcDbSpline
70
4
71
3
72
8
73
4
74
0
42
0.000000001
43
0.0000000001
44
0.0000000001
40
0
40
0
40
0
40
0
40
1
40
1
40
1
40
1
41
1
41
1
41
1
41
1
10
-1.1273823324839261
20
-23.797597808837892
30
0
10
-2.7278999487558964
20
-24.866619281768799
30
0
10
-4.2544395224253311
20
-28.168619766235352
30
0
10
-8.6073648373285909
20
-30.77942213058472
30
0
0
SPLINE
5
167
100
AcDbEntity
8
0
100
AcDbSpline
70
4
71
3
72
8
73
4
74
0
42
0.000000001
43
0.0000000001
44
0.0000000001
40
0
40
0
40
0
40
0
40
1
40
1
40
1
40
1
41
1
41
1
41
1
41
1
10
-8.6073648373285909
20
-30.77942213058472
30
0
10
-9.4852521435419686
20
-31.305836219787597
30
0
10
-10.647302700678505
20
-31.682392692565919
30
0
10
-11.306432465712227
20
-31.682392692565919
30
0
0
LINE
5
168
100
AcDbEntity
8
0
100
AcDbLine
10
-11.306432465712227
20
-31.682392692565923
30
0
11
-11.039106547037763
21
-31.682392692565919
31
0
0
LINE
5
169
100
AcDbEntity
8
0
100
AcDbLine
10
-11.039106547037763
20
-31.682392692565919
30
0
11
-11.039106547037763
21
-33.904892692565916
31
0
0
LINE
5
170
100
AcDbEntity
8
0
100
AcDbLine
10
-11.039106547037763
20
-33.904892692565916
30
0
11
137.23339345296225
21
-33.904892692565916
31
0
0
LINE
5
171
100
AcDbEntity
8
0
100
AcDbLine
10
137.23339345296225
20
-33.904892692565916
30
0
11
137.23339345296228
21
-31.743353118896486
31
0
0
SPLINE
5
172
100
AcDbEntity
8
0
100
AcDbSpline
70
4
71
3
72
8
73
4
74
0
42
0.000000001
43
0.0000000001
44
0.0000000001
40
0
40
0
40
0
40
0
40
1
40
1
40
1
40
1
41
1
41
1
41
1
41
1
10
137.23339345296228
20
-31.743353118896486
30
0
10
133.10589345296225
20
-31.743353118896486
30
0
10
132.25213742574056
20
-26.124238739013673
30
0
10
134.73276120503749
20
-25.379700851440433
30
0
0
SPLINE
5
173
100
AcDbEntity
8
0
100
AcDbSpline
70
0
71
2
72
6
73
3
74
0
42
0.000000001
43
0.0000000001
44
0.0000000001
40
0
40
0
40
0
40
1
40
1
40
1
10
134.73276120503749
20
-25.379700851440433
30
0
10
137.34134229024252
20
-24.59674476623535
30
0
10
137.25117337544762
20
-27.999710502624513
30
0
0
ENDSEC
0
SECTION
2
OBJECTS
0
DICTIONARY
5
C
100
AcDbDictionary
3
ACAD_GROUP
350
D
3
ACAD_MLINESTYLE
350
17
0
DICTIONARY
5
D
100
AcDbDictionary
0
DICTIONARY
5
1A
330
C
100
AcDbDictionary
0
DICTIONARY
5
17
100
AcDbDictionary
0
ENDSEC
0
EOF
