0
SECTION
2
HEADER
9
$INSUNITS
70
4
9
$ACADVER
1
AC1014
9
$HANDSEED
5
FFFF
0
ENDSEC
0
SECTION
2
TABLES
0
TABLE
2
VPORT
5
8
100
AcDbSymbolTable
0
ENDTAB
0
TABLE
2
LTYPE
5
5
100
AcDbSymbolTable
0
LTYPE
5
14
100
AcDbSymbolTableRecord
100
AcDbLinetypeTableRecord
2
BYBLOCK
70
0
0
LTYPE
5
15
100
AcDbSymbolTableRecord
100
AcDbLinetypeTableRecord
2
BYLAYER
70
0
0
ENDTAB
0
TABLE
2
LAYER
5
2
100
AcDbSymbolTable
70
2
0
LAYER
5
50
100
AcDbSymbolTableRecord
100
AcDbLayerTableRecord
2
0
70
0
6
CONTINUOUS
0
ENDTAB
0
TABLE
2
STYLE
5
3
100
AcDbSymbolTable
70
1
0
STYLE
5
11
100
AcDbSymbolTableRecord
100
AcDbTextStyleTableRecord
2
STANDARD
70
0
0
ENDTAB
0
TABLE
2
VIEW
5
6
100
AcDbSymbolTable
70
0
0
ENDTAB
0
TABLE
2
UCS
5
7
100
AcDbSymbolTable
70
0
0
ENDTAB
0
TABLE
2
APPID
5
9
100
AcDbSymbolTable
70
2
0
APPID
5
12
100
AcDbSymbolTableRecord
100
AcDbRegAppTableRecord
2
ACAD
70
0
0
ENDTAB
0
TABLE
2
DIMSTYLE
5
A
100
AcDbSymbolTable
70
1
0
ENDTAB
0
TABLE
2
BLOCK_RECORD
5
1
100
AcDbSymbolTable
70
1
0
BLOCK_RECORD
5
1F
100
AcDbSymbolTableRecord
100
AcDbBlockTableRecord
2
*MODEL_SPACE
0
BLOCK_RECORD
5
1B
100
AcDbSymbolTableRecord
100
AcDbBlockTableRecord
2
*PAPER_SPACE
0
ENDTAB
0
ENDSEC
0
SECTION
2
BLOCKS
0
BLOCK
5
20
100
AcDbEntity
100
AcDbBlockBegin
2
*MODEL_SPACE
0
ENDBLK
5
21
100
AcDbEntity
100
AcDbBlockEnd
0
BLOCK
5
1C
100
AcDbEntity
100
AcDbBlockBegin
2
*PAPER_SPACE
0
ENDBLK
5
1D
100
AcDbEntity
100
AcDbBlockEnd
0
ENDSEC
0
SECTION
2
ENTITIES
0
SPLINE
5
100
100
AcDbEntity
8
0
100
AcDbSpline
70
4
71
3
72
8
73
4
74
0
42
0.000000001
43
0.0000000001
44
0.0000000001
40
0
40
0
40
0
40
0
40
1
40
1
40
1
40
1
41
1
41
1
41
1
41
1
10
-128.22131595611575
20
49.772595818837495
30
0
10
-123.4135748545329
20
49.773944250742602
30
0
10
-125.54902267456056
20
44.86433598200481
30
0
10
-123.04341818491621
20
42.05393339792888
30
0
0
SPLINE
5
101
100
AcDbEntity
8
0
100
AcDbSpline
70
0
71
2
72
6
73
3
74
0
42
0.000000001
43
0.0000000001
44
0.0000000001
40
0
40
0
40
0
40
1
40
1
40
1
10
-123.04341818491621
20
42.05393339792888
30
0
10
-120.53781369527184
20
39.243530813852956
30
0
10
-117.83112328847251
20
41.681398804982514
30
0
0
SPLINE
5
102
100
AcDbEntity
8
0
100
AcDbSpline
70
0
71
2
72
6
73
3
74
0
42
0.000000001
43
0.0000000001
44
0.0000000001
40
0
40
0
40
0
40
1
40
1
40
1
10
-117.83112328847251
20
41.681398804982514
30
0
10
-120.34095878601076
20
41.816863727569583
30
0
10
-120.54416020711265
20
43.814468701680511
30
0
0
SPLINE
5
103
100
AcDbEntity
8
0
100
AcDbSpline
70
4
71
3
72
8
73
4
74
0
42
0.000000001
43
0.0000000001
44
0.0000000001
40
0
40
0
40
0
40
0
40
1
40
1
40
1
40
1
41
1
41
1
41
1
41
1
10
-120.54416020711265
20
43.814468701680511
30
0
10
-120.54548441569013
20
43.828756427764901
30
0
10
-120.54706700642905
20
43.843044153849291
30
0
10
-120.54839121500652
20
43.857331879933682
30
0
0
SPLINE
5
104
100
AcDbEntity
8
0
100
AcDbSpline
70
4
71
3
72
8
73
4
74
0
42
0.000000001
43
0.0000000001
44
0.0000000001
40
0
40
0
40
0
40
0
40
1
40
1
40
1
40
1
41
1
41
1
41
1
41
1
10
-120.54839121500652
20
43.857331879933682
30
0
10
-120.81879622141521
20
46.739439551035566
30
0
10
-116.92889315287275
20
47.79671109517416
30
0
10
-115.59248409271241
20
45.228933397928877
30
0
0
SPLINE
5
105
100
AcDbEntity
8
0
100
AcDbSpline
70
4
71
3
72
8
73
4
74
0
42
0.000000001
43
0.0000000001
44
0.0000000001
40
0
40
0
40
0
40
0
40
1
40
1
40
1
40
1
41
1
41
1
41
1
41
1
10
-115.59248409271241
20
45.228933397928877
30
0
10
-115.48427041371666
20
45.02097209294638
30
0
10
-115.35330295562746
20
44.822797012329112
30
0
10
-115.19057871500652
20
44.640233866373705
30
0
0
SPLINE
5
106
100
AcDbEntity
8
0
100
AcDbSpline
70
0
71
2
72
6
73
3
74
0
42
0.000000001
43
0.0000000001
44
0.0000000001
40
0
40
0
40
0
40
1
40
1
40
1
10
-115.19057871500652
20
44.640233866373705
30
0
10
-113.78166923522951
20
43.060142167409268
30
0
10
-112.2981519063314
20
44.434654521942143
30
0
0
SPLINE
5
107
100
AcDbEntity
8
0
100
AcDbSpline
70
0
71
2
72
6
73
3
74
0
42
0.000000001
43
0.0000000001
44
0.0000000001
40
0
40
0
40
0
40
1
40
1
40
1
10
-112.2981519063314
20
44.434654521942143
30
0
10
-113.70944334665936
20
44.518261337280279
30
0
10
-113.8234786987305
20
45.641682751973477
30
0
0
SPLINE
5
108
100
AcDbEntity
8
0
100
AcDbSpline
70
4
71
3
72
8
73
4
74
0
42
0.000000001
43
0.0000000001
44
0.0000000001
40
0
40
0
40
0
40
0
40
1
40
1
40
1
40
1
41
1
41
1
41
1
41
1
10
-113.8234786987305
20
45.641682751973477
30
0
10
-113.82797616322836
20
45.685074806213386
30
0
10
-113.83168233235679
20
45.730053488413496
30
0
10
-113.83432267506919
20
45.776356379191085
30
0
0
SPLINE
5
109
100
AcDbEntity
8
0
100
AcDbSpline
70
4
71
3
72
8
73
4
74
0
42
0.000000001
43
0.0000000001
44
0.0000000001
40
0
40
0
40
0
40
0
40
1
40
1
40
1
40
1
41
1
41
1
41
1
41
1
10
-113.83432267506919
20
45.776356379191085
30
0
10
-114.00206921895347
20
48.661108430226648
30
0
10
-109.75074602762859
20
49.145296414693206
30
0
10
-109.18797353108727
20
46.311078262329104
30
0
0
SPLINE
5
110
100
AcDbEntity
8
0
100
AcDbSpline
70
4
71
3
72
8
73
4
74
0
42
0.000000001
43
0.0000000001
44
0.0000000001
40
0
40
0
40
0
40
0
40
1
40
1
40
1
40
1
41
1
41
1
41
1
41
1
10
-109.18797353108727
20
46.311078262329104
30
0
10
-108.90328483581544
20
44.877299499511729
30
0
10
-108.68738231658938
20
43.269165261586515
30
0
10
-107.60391324361167
20
42.05366694132487
30
0
0
SPLINE
5
111
100
AcDbEntity
8
0
100
AcDbSpline
70
0
71
2
72
6
73
3
74
0
42
0.000000001
43
0.0000000001
44
0.0000000001
40
0
40
0
40
0
40
1
40
1
40
1
10
-107.60391324361167
20
42.05366694132487
30
0
10
-105.0983087539673
20
39.243264357248947
30
0
10
-102.39161834716798
20
41.681132348378505
30
0
0
SPLINE
5
112
100
AcDbEntity
8
0
100
AcDbSpline
70
0
71
2
72
6
73
3
74
0
42
0.000000001
43
0.0000000001
44
0.0000000001
40
0
40
0
40
0
40
1
40
1
40
1
10
-102.39161834716798
20
41.681132348378505
30
0
10
-104.90145384470623
20
41.81659727096558
30
0
10
-105.10465526580813
20
43.814202245076501
30
0
0
LINE
5
113
100
AcDbEntity
8
0
100
AcDbLine
10
-105.10465526580811
20
43.814202245076501
30
0
11
-105.11021048227947
21
43.872673320770268
31
0
0
SPLINE
5
114
100
AcDbEntity
8
0
100
AcDbSpline
70
4
71
3
72
8
73
4
74
0
42
0.000000001
43
0.0000000001
44
0.0000000001
40
0
40
0
40
0
40
0
40
1
40
1
40
1
40
1
41
1
41
1
41
1
41
1
10
-105.11021048227947
20
43.872673320770268
30
0
10
-105.37108764648438
20
46.740493265787762
30
0
10
-101.50791098276775
20
47.784801292419445
30
0
10
-100.18472785949709
20
45.227076276143393
30
0
0
SPLINE
5
115
100
AcDbEntity
8
0
100
AcDbSpline
70
4
71
3
72
8
73
4
74
0
42
0.000000001
43
0.0000000001
44
0.0000000001
40
0
40
0
40
0
40
0
40
1
40
1
40
1
40
1
41
1
41
1
41
1
41
1
10
-100.18472785949709
20
45.227076276143393
30
0
10
-100.07757193247478
20
45.019906266530363
30
0
10
-99.947129313151052
20
44.822264099121099
30
0
10
-99.784946060180673
20
44.639967409769703
30
0
0
SPLINE
5
116
100
AcDbEntity
8
0
100
AcDbSpline
70
0
71
2
72
6
73
3
74
0
42
0.000000001
43
0.0000000001
44
0.0000000001
40
0
40
0
40
0
40
1
40
1
40
1
10
-99.784946060180673
20
44.639967409769703
30
0
10
-98.376036580403664
20
43.059875710805258
30
0
10
-96.92639153798423
20
44.43438806533814
30
0
0
SPLINE
5
117
100
AcDbEntity
8
0
100
AcDbSpline
70
0
71
2
72
6
73
3
74
0
42
0.000000001
43
0.0000000001
44
0.0000000001
40
0
40
0
40
0
40
1
40
1
40
1
10
-96.92639153798423
20
44.43438806533814
30
0
10
-98.337682978312188
20
44.517994880676277
30
0
10
-98.451718330383329
20
45.641416295369474
30
0
0
SPLINE
5
118
100
AcDbEntity
8
0
100
AcDbSpline
70
4
71
3
72
8
73
4
74
0
42
0.000000001
43
0.0000000001
44
0.0000000001
40
0
40
0
40
0
40
0
40
1
40
1
40
1
40
1
41
1
41
1
41
1
41
1
10
-98.451718330383329
20
45.641416295369474
30
0
10
-98.456215794881189
20
45.685070768992105
30
0
10
-98.459921964009624
20
45.730315907796225
30
0
10
-98.46256230672202
20
45.776881217956543
30
0
0
SPLINE
5
119
100
AcDbEntity
8
0
100
AcDbSpline
70
4
71
3
72
8
73
4
74
0
42
0.000000001
43
0.0000000001
44
0.0000000001
40
0
40
0
40
0
40
0
40
1
40
1
40
1
40
1
41
1
41
1
41
1
41
1
10
-98.46256230672202
20
45.776881217956543
30
0
10
-98.631899515787765
20
48.701848030090332
30
0
10
-94.322101211547874
20
49.192386563618982
30
0
10
-93.750067329406747
20
46.318748982747408
30
0
0
SPLINE
5
120
100
AcDbEntity
8
0
100
AcDbSpline
70
4
71
3
72
8
73
4
74
0
42
0.000000001
43
0.0000000001
44
0.0000000001
40
0
40
0
40
0
40
0
40
1
40
1
40
1
40
1
41
1
41
1
41
1
41
1
10
-93.750067329406747
20
46.318748982747408
30
0
10
-93.464320882161473
20
44.883121172587082
30
0
10
-93.249742571512883
20
43.271276728312181
30
0
10
-92.163891537984227
20
42.053400484720875
30
0
0
SPLINE
5
121
100
AcDbEntity
8
0
100
AcDbSpline
70
0
71
2
72
6
73
3
74
0
42
0.000000001
43
0.0000000001
44
0.0000000001
40
0
40
0
40
0
40
1
40
1
40
1
10
-92.163891537984227
20
42.053400484720875
30
0
10
-89.658287048339844
20
39.242997900644944
30
0
10
-86.951863098144543
20
41.680865891774502
30
0
0
SPLINE
5
122
100
AcDbEntity
8
0
100
AcDbSpline
70
0
71
2
72
6
73
3
74
0
42
0.000000001
43
0.0000000001
44
0.0000000001
40
0
40
0
40
0
40
1
40
1
40
1
10
-86.951863098144543
20
41.680865891774502
30
0
10
-89.46169859568279
20
41.816330814361578
30
0
10
-89.664900016784671
20
43.813935788472506
30
0
0
SPLINE
5
123
100
AcDbEntity
8
0
100
AcDbSpline
70
4
71
3
72
8
73
4
74
0
42
0.000000001
43
0.0000000001
44
0.0000000001
40
0
40
0
40
0
40
0
40
1
40
1
40
1
40
1
41
1
41
1
41
1
41
1
10
-89.664900016784671
20
43.813935788472506
30
0
10
-89.666224225362157
20
43.827957057952887
30
0
10
-89.667806816101091
20
43.842244784037277
30
0
10
-89.669131024678563
20
43.856532510121667
30
0
0
SPLINE
5
124
100
AcDbEntity
8
0
100
AcDbSpline
70
4
71
3
72
8
73
4
74
0
42
0.000000001
43
0.0000000001
44
0.0000000001
40
0
40
0
40
0
40
0
40
1
40
1
40
1
40
1
41
1
41
1
41
1
41
1
10
-89.669131024678563
20
43.856532510121667
30
0
10
-89.926834932963061
20
46.604228973388679
30
0
10
-86.154931767781591
20
47.72289050420126
30
0
10
-84.902133560180673
20
45.263584868113199
30
0
0
SPLINE
5
125
100
AcDbEntity
8
0
100
AcDbSpline
70
4
71
3
72
8
73
4
74
0
42
0.000000001
43
0.0000000001
44
0.0000000001
40
0
40
0
40
0
40
0
40
1
40
1
40
1
40
1
41
1
41
1
41
1
41
1
10
-84.902133560180673
20
45.263584868113199
30
0
10
-84.789688873291027
20
45.042922465006512
30
0
10
-84.652633285522469
20
44.832579199473066
30
0
10
-84.480655733744328
20
44.639696915944427
30
0
0
SPLINE
5
126
100
AcDbEntity
8
0
100
AcDbSpline
70
0
71
2
72
6
73
3
74
0
42
0.000000001
43
0.0000000001
44
0.0000000001
40
0
40
0
40
0
40
1
40
1
40
1
10
-84.480655733744328
20
44.639696915944427
30
0
10
-83.071746253967291
20
43.059605216979982
30
0
10
-81.554364713033053
20
44.434117571512871
30
0
0
SPLINE
5
127
100
AcDbEntity
8
0
100
AcDbSpline
70
0
71
2
72
6
73
3
74
0
42
0.000000001
43
0.0000000001
44
0.0000000001
40
0
40
0
40
0
40
1
40
1
40
1
10
-81.554364713033053
20
44.434117571512871
30
0
10
-82.96565615336101
20
44.517724386851
30
0
10
-83.079691505432137
20
45.641145801544198
30
0
0
SPLINE
5
128
100
AcDbEntity
8
0
100
AcDbSpline
70
4
71
3
72
8
73
4
74
0
42
0.000000001
43
0.0000000001
44
0.0000000001
40
0
40
0
40
0
40
0
40
1
40
1
40
1
40
1
41
1
41
1
41
1
41
1
10
-83.079691505432137
20
45.641145801544198
30
0
10
-83.084188969930025
20
45.685066731770839
30
0
10
-83.087895139058446
20
45.730574289957687
30
0
10
-83.090535481770843
20
45.777672513326017
30
0
0
SPLINE
5
129
100
AcDbEntity
8
0
100
AcDbSpline
70
4
71
3
72
8
73
4
74
0
42
0.000000001
43
0.0000000001
44
0.0000000001
40
0
40
0
40
0
40
0
40
1
40
1
40
1
40
1
41
1
41
1
41
1
41
1
10
-83.090535481770843
20
45.777672513326017
30
0
10
-83.261721738179531
20
48.742858123779307
30
0
10
-78.892923482259121
20
49.239747206370048
30
0
10
-78.312161127726242
20
46.326948579152436
30
0
0
SPLINE
5
130
100
AcDbEntity
8
0
100
AcDbSpline
70
4
71
3
72
8
73
4
74
0
42
0.000000001
43
0.0000000001
44
0.0000000001
40
0
40
0
40
0
40
0
40
1
40
1
40
1
40
1
41
1
41
1
41
1
41
1
10
-78.312161127726242
20
46.326948579152436
30
0
10
-78.025615310668968
20
44.889201227823897
30
0
10
-77.812094751993826
20
43.273658688863122
30
0
10
-76.724394671122241
20
42.053400484720875
30
0
0
SPLINE
5
131
100
AcDbEntity
8
0
100
AcDbSpline
70
0
71
2
72
6
73
3
74
0
42
0.000000001
43
0.0000000001
44
0.0000000001
40
0
40
0
40
0
40
1
40
1
40
1
10
-76.724394671122241
20
42.053400484720875
30
0
10
-74.218790181477885
20
39.242997900644944
30
0
10
-71.51236623128257
20
41.680865891774502
30
0
0
SPLINE
5
132
100
AcDbEntity
8
0
100
AcDbSpline
70
0
71
2
72
6
73
3
74
0
42
0.000000001
43
0.0000000001
44
0.0000000001
40
0
40
0
40
0
40
1
40
1
40
1
10
-71.51236623128257
20
41.680865891774502
30
0
10
-74.022201728820804
20
41.816330814361578
30
0
10
-74.225136693318689
20
43.813935788472506
30
0
0
SPLINE
5
133
100
AcDbEntity
8
0
100
AcDbSpline
70
4
71
3
72
8
73
4
74
0
42
0.000000001
43
0.0000000001
44
0.0000000001
40
0
40
0
40
0
40
0
40
1
40
1
40
1
40
1
41
1
41
1
41
1
41
1
10
-74.225136693318689
20
43.813935788472506
30
0
10
-74.227252197265642
20
43.834836483001716
30
0
10
-74.229367701212567
20
43.856003634134936
30
0
10
-74.231224822998058
20
43.877170785268156
30
0
0
SPLINE
5
134
100
AcDbEntity
8
0
100
AcDbSpline
70
4
71
3
72
8
73
4
74
0
42
0.000000001
43
0.0000000001
44
0.0000000001
40
0
40
0
40
0
40
0
40
1
40
1
40
1
40
1
41
1
41
1
41
1
41
1
10
-74.231224822998058
20
43.877170785268156
30
0
10
-74.480200258890804
20
46.64418131510417
30
0
10
-70.764656702677414
20
47.667855103810631
30
0
10
-69.467400614420583
20
45.21066900889079
30
0
0
SPLINE
5
135
100
AcDbEntity
8
0
100
AcDbSpline
70
4
71
3
72
8
73
4
74
0
42
0.000000001
43
0.0000000001
44
0.0000000001
40
0
40
0
40
0
40
0
40
1
40
1
40
1
40
1
41
1
41
1
41
1
41
1
10
-69.467400614420583
20
45.21066900889079
30
0
10
-69.361035982767746
20
45.009320672353113
30
0
10
-69.232983398437511
20
44.816967264811197
30
0
10
-69.074756622314467
20
44.639696915944427
30
0
0
SPLINE
5
136
100
AcDbEntity
8
0
100
AcDbSpline
70
0
71
2
72
6
73
3
74
0
42
0.000000001
43
0.0000000001
44
0.0000000001
40
0
40
0
40
0
40
1
40
1
40
1
10
-69.074756622314467
20
44.639696915944427
30
0
10
-67.665851179758718
20
43.059605216979982
30
0
10
-66.182329813639328
20
44.434117571512871
30
0
0
SPLINE
5
137
100
AcDbEntity
8
0
100
AcDbSpline
70
0
71
2
72
6
73
3
74
0
42
0.000000001
43
0.0000000001
44
0.0000000001
40
0
40
0
40
0
40
1
40
1
40
1
10
-66.182329813639328
20
44.434117571512871
30
0
10
-67.593617216746026
20
44.517724386851
30
0
10
-67.707652568817153
20
45.641145801544198
30
0
0
SPLINE
5
138
100
AcDbEntity
8
0
100
AcDbSpline
70
4
71
3
72
8
73
4
74
0
42
0.000000001
43
0.0000000001
44
0.0000000001
40
0
40
0
40
0
40
0
40
1
40
1
40
1
40
1
41
1
41
1
41
1
41
1
10
-67.707652568817153
20
45.641145801544198
30
0
10
-67.712150033315027
20
45.685333188374848
30
0
10
-67.715856202443447
20
45.731103165944418
30
0
10
-67.718500582377118
20
45.778463808695484
30
0
0
SPLINE
5
139
100
AcDbEntity
8
0
100
AcDbSpline
70
4
71
3
72
8
73
4
74
0
42
0.000000001
43
0.0000000001
44
0.0000000001
40
0
40
0
40
0
40
0
40
1
40
1
40
1
40
1
41
1
41
1
41
1
41
1
10
-67.718500582377118
20
45.778463808695484
30
0
10
-67.891011047363293
20
48.783864180246994
30
0
10
-63.463471221923839
20
49.286574935913094
30
0
10
-62.873980394999194
20
46.334352842966723
30
0
0
SPLINE
5
140
100
AcDbEntity
8
0
100
AcDbSpline
70
4
71
3
72
8
73
4
74
0
42
0.000000001
43
0.0000000001
44
0.0000000001
40
0
40
0
40
0
40
0
40
1
40
1
40
1
40
1
41
1
41
1
41
1
41
1
10
-62.873980394999194
20
46.334352842966723
30
0
10
-62.586643282572439
20
44.894756444295254
30
0
10
-62.374180475870773
20
43.275503698984785
30
0
10
-61.284364891052256
20
42.053129990895599
30
0
0
SPLINE
5
141
100
AcDbEntity
8
0
100
AcDbSpline
70
0
71
2
72
6
73
3
74
0
42
0.000000001
43
0.0000000001
44
0.0000000001
40
0
40
0
40
0
40
1
40
1
40
1
10
-61.284364891052256
20
42.053129990895599
30
0
10
-58.778760401407894
20
39.242727406819668
30
0
10
-56.072074031829843
20
41.680595397949219
30
0
0
SPLINE
5
142
100
AcDbEntity
8
0
100
AcDbSpline
70
0
71
2
72
6
73
3
74
0
42
0.000000001
43
0.0000000001
44
0.0000000001
40
0
40
0
40
0
40
1
40
1
40
1
10
-56.072074031829843
20
41.680595397949219
30
0
10
-58.581913566589364
20
41.816060320536302
30
0
10
-58.785110950469985
20
43.813665294647222
30
0
0
SPLINE
5
143
100
AcDbEntity
8
0
100
AcDbSpline
70
4
71
3
72
8
73
4
74
0
42
0.000000001
43
0.0000000001
44
0.0000000001
40
0
40
0
40
0
40
0
40
1
40
1
40
1
40
1
41
1
41
1
41
1
41
1
10
-58.785110950469985
20
43.813665294647222
30
0
10
-58.787755330403655
20
43.840125242869064
30
0
10
-58.790403747558599
20
43.866847610473634
30
0
10
-58.792785708109541
20
43.893832397460947
30
0
0
SPLINE
5
144
100
AcDbEntity
8
0
100
AcDbSpline
70
4
71
3
72
8
73
4
74
0
42
0.000000001
43
0.0000000001
44
0.0000000001
40
0
40
0
40
0
40
0
40
1
40
1
40
1
40
1
41
1
41
1
41
1
41
1
10
-58.792785708109541
20
43.893832397460947
30
0
10
-59.031970882415777
20
46.646030362447107
30
0
10
-55.342883237202969
20
47.657265472412114
30
0
10
-54.060185368855798
20
45.210664971669523
30
0
0
SPLINE
5
145
100
AcDbEntity
8
0
100
AcDbSpline
70
4
71
3
72
8
73
4
74
0
42
0.000000001
43
0.0000000001
44
0.0000000001
40
0
40
0
40
0
40
0
40
1
40
1
40
1
40
1
41
1
41
1
41
1
41
1
10
-54.060185368855798
20
45.210664971669523
30
0
10
-53.954616069793708
20
45.009316635131846
30
0
10
-53.826821867624929
20
44.81696322758993
30
0
10
-53.668603165944418
20
44.639692878723153
30
0
0
SPLINE
5
146
100
AcDbEntity
8
0
100
AcDbSpline
70
0
71
2
72
6
73
3
74
0
42
0.000000001
43
0.0000000001
44
0.0000000001
40
0
40
0
40
0
40
1
40
1
40
1
10
-53.668603165944418
20
44.639692878723153
30
0
10
-52.259960142771405
20
43.059601179758715
30
0
10
-50.810044606526702
20
44.43411353429159
30
0
0
SPLINE
5
147
100
AcDbEntity
8
0
100
AcDbSpline
70
0
71
2
72
6
73
3
74
0
42
0.000000001
43
0.0000000001
44
0.0000000001
40
0
40
0
40
0
40
1
40
1
40
1
10
-50.810044606526702
20
44.43411353429159
30
0
10
-52.221332009633386
20
44.517720349629727
30
0
10
-52.335367361704513
20
45.641141764322917
30
0
0
SPLINE
5
148
100
AcDbEntity
8
0
100
AcDbSpline
70
4
71
3
72
8
73
4
74
0
42
0.000000001
43
0.0000000001
44
0.0000000001
40
0
40
0
40
0
40
0
40
1
40
1
40
1
40
1
41
1
41
1
41
1
41
1
10
-52.335367361704513
20
45.641141764322917
30
0
10
-52.339864826202394
20
45.685591570536303
30
0
10
-52.343570995330815
20
45.73162800470989
30
0
10
-52.346215375264499
20
45.779255104064944
30
0
0
SPLINE
5
149
100
AcDbEntity
8
0
100
AcDbSpline
70
4
71
3
72
8
73
4
74
0
42
0.000000001
43
0.0000000001
44
0.0000000001
40
0
40
0
40
0
40
0
40
1
40
1
40
1
40
1
41
1
41
1
41
1
41
1
10
-52.346215375264499
20
45.779255104064944
30
0
10
-52.520046011606858
20
48.824874273935961
30
0
10
-48.03377269109091
20
49.333140246073413
30
0
10
-47.435549354553224
20
46.341761144002291
30
0
0
SPLINE
5
150
100
AcDbEntity
8
0
100
AcDbSpline
70
4
71
3
72
8
73
4
74
0
42
0.000000001
43
0.0000000001
44
0.0000000001
40
0
40
0
40
0
40
0
40
1
40
1
40
1
40
1
41
1
41
1
41
1
41
1
10
-47.435549354553224
20
46.341761144002291
30
0
10
-47.147154490153007
20
44.900311660766612
30
0
10
-46.936015892028813
20
43.277623240152998
30
0
10
-45.844343185424812
20
42.053129990895599
30
0
0
SPLINE
5
151
100
AcDbEntity
8
0
100
AcDbSpline
70
0
71
2
72
6
73
3
74
0
42
0.000000001
43
0.0000000001
44
0.0000000001
40
0
40
0
40
0
40
1
40
1
40
1
10
-45.844343185424812
20
42.053129990895599
30
0
10
-43.338738695780435
20
39.242727406819668
30
0
10
-40.632052326202398
20
41.680595397949219
30
0
0
SPLINE
5
152
100
AcDbEntity
8
0
100
AcDbSpline
70
0
71
2
72
6
73
3
74
0
42
0.000000001
43
0.0000000001
44
0.0000000001
40
0
40
0
40
0
40
1
40
1
40
1
10
-40.632052326202398
20
41.680595397949219
30
0
10
-43.14189186096192
20
41.816060320536302
30
0
10
-43.345089244842534
20
43.813665294647222
30
0
0
SPLINE
5
153
100
AcDbEntity
8
0
100
AcDbSpline
70
4
71
3
72
8
73
4
74
0
42
0.000000001
43
0.0000000001
44
0.0000000001
40
0
40
0
40
0
40
0
40
1
40
1
40
1
40
1
41
1
41
1
41
1
41
1
10
-43.345089244842534
20
43.813665294647222
30
0
10
-43.346413453420006
20
43.82768656412761
30
0
10
-43.348000081380214
20
43.841711870829272
30
0
10
-43.349324289957693
20
43.855733140309653
30
0
0
SPLINE
5
154
100
AcDbEntity
8
0
100
AcDbSpline
70
4
71
3
72
8
73
4
74
0
42
0.000000001
43
0.0000000001
44
0.0000000001
40
0
40
0
40
0
40
0
40
1
40
1
40
1
40
1
41
1
41
1
41
1
41
1
10
-43.349324289957693
20
43.855733140309653
30
0
10
-43.597237936655688
20
46.495744800567635
30
0
10
-39.99916944503785
20
47.568632316589365
30
0
10
-38.764094638824467
20
45.222304280598962
30
0
0
SPLINE
5
155
100
AcDbEntity
8
0
100
AcDbSpline
70
4
71
3
72
8
73
4
74
0
42
0.000000001
43
0.0000000001
44
0.0000000001
40
0
40
0
40
0
40
0
40
1
40
1
40
1
40
1
41
1
41
1
41
1
41
1
10
-38.764094638824467
20
45.222304280598962
30
0
10
-38.6558809598287
20
45.016458479563404
30
0
10
-38.525442377726243
20
44.820402940114342
30
0
10
-38.364046382904057
20
44.639692878723153
30
0
0
SPLINE
5
156
100
AcDbEntity
8
0
100
AcDbSpline
70
0
71
2
72
6
73
3
74
0
42
0.000000001
43
0.0000000001
44
0.0000000001
40
0
40
0
40
0
40
1
40
1
40
1
10
-38.364046382904057
20
44.639692878723153
30
0
10
-36.955140940348315
20
43.059601179758715
30
0
10
-35.437755362192796
20
44.43411353429159
30
0
0
SPLINE
5
157
100
AcDbEntity
8
0
100
AcDbSpline
70
0
71
2
72
6
73
3
74
0
42
0.000000001
43
0.0000000001
44
0.0000000001
40
0
40
0
40
0
40
1
40
1
40
1
10
-35.437755362192796
20
44.43411353429159
30
0
10
-36.84904276529948
20
44.517720349629727
30
0
10
-36.963078117370614
20
45.641141764322917
30
0
0
SPLINE
5
158
100
AcDbEntity
8
0
100
AcDbSpline
70
4
71
3
72
8
73
4
74
0
42
0.000000001
43
0.0000000001
44
0.0000000001
40
0
40
0
40
0
40
0
40
1
40
1
40
1
40
1
41
1
41
1
41
1
41
1
10
-36.963078117370614
20
45.641141764322917
30
0
10
-36.967575581868495
20
45.685858027140313
30
0
10
-36.971281750996916
20
45.732156880696621
30
0
10
-36.974192587534588
20
45.780046399434411
30
0
0
SPLINE
5
159
100
AcDbEntity
8
0
100
AcDbSpline
70
4
71
3
72
8
73
4
74
0
42
0.000000001
43
0.0000000001
44
0.0000000001
40
0
40
0
40
0
40
0
40
1
40
1
40
1
40
1
41
1
41
1
41
1
41
1
10
-36.974192587534588
20
45.780046399434411
30
0
10
-37.149347432454434
20
48.865880330403655
30
0
10
-32.604334561030072
20
49.379967975616459
30
0
10
-31.997380733489994
20
46.349427827199307
30
0
0
SPLINE
5
160
100
AcDbEntity
8
0
100
AcDbSpline
70
4
71
3
72
8
73
4
74
0
42
0.000000001
43
0.0000000001
44
0.0000000001
40
0
40
0
40
0
40
0
40
1
40
1
40
1
40
1
41
1
41
1
41
1
41
1
10
-31.997380733489994
20
46.349427827199307
30
0
10
-31.708190536499032
20
44.906125259399417
30
0
10
-31.498111708958948
20
43.279997126261392
30
0
10
-30.404589955012007
20
42.053121916453051
30
0
0
SPLINE
5
161
100
AcDbEntity
8
0
100
AcDbSpline
70
0
71
2
72
6
73
3
74
0
42
0.000000001
43
0.0000000001
44
0.0000000001
40
0
40
0
40
0
40
1
40
1
40
1
10
-30.404589955012007
20
42.053121916453051
30
0
10
-27.898985465367637
20
39.242719332377121
30
0
10
-25.19229707717896
20
41.680587323506671
30
0
0
SPLINE
5
162
100
AcDbEntity
8
0
100
AcDbSpline
70
0
71
2
72
6
73
3
74
0
42
0.000000001
43
0.0000000001
44
0.0000000001
40
0
40
0
40
0
40
1
40
1
40
1
10
-25.19229707717896
20
41.680587323506671
30
0
10
-27.702134593327841
20
41.816052246093761
30
0
10
-27.905333995819099
20
43.813657220204682
30
0
0
LINE
5
163
100
AcDbEntity
8
0
100
AcDbLine
10
-27.905333995819099
20
43.813657220204682
30
0
11
-27.909302584330248
21
43.855725065867112
31
0
0
SPLINE
5
164
100
AcDbEntity
8
0
100
AcDbSpline
70
4
71
3
72
8
73
4
74
0
42
0.000000001
43
0.0000000001
44
0.0000000001
40
0
40
0
40
0
40
0
40
1
40
1
40
1
40
1
41
1
41
1
41
1
41
1
10
-27.909302584330248
20
43.855725065867112
30
0
10
-28.156158479054771
20
46.483302084604901
30
0
10
-24.582961289087937
20
47.540577665964761
30
0
10
-23.348944234848027
20
45.207746060689296
30
0
0
SPLINE
5
165
100
AcDbEntity
8
0
100
AcDbSpline
70
4
71
3
72
8
73
4
74
0
42
0.000000001
43
0.0000000001
44
0.0000000001
40
0
40
0
40
0
40
0
40
1
40
1
40
1
40
1
41
1
41
1
41
1
41
1
10
-23.348944234848027
20
45.207746060689296
30
0
10
-23.242846059799195
20
45.007193056742352
30
0
10
-23.115316295623781
20
44.816163857777916
30
0
10
-22.957890907923382
20
44.63942238489787
30
0
0
SPLINE
5
166
100
AcDbEntity
8
0
100
AcDbSpline
70
0
71
2
72
6
73
3
74
0
42
0.000000001
43
0.0000000001
44
0.0000000001
40
0
40
0
40
0
40
1
40
1
40
1
10
-22.957890907923382
20
44.63942238489787
30
0
10
-21.548985465367636
20
43.059330685933439
30
0
10
-20.06546611785889
20
44.433843040466314
30
0
0
SPLINE
5
167
100
AcDbEntity
8
0
100
AcDbSpline
70
0
71
2
72
6
73
3
74
0
42
0.000000001
43
0.0000000001
44
0.0000000001
40
0
40
0
40
0
40
1
40
1
40
1
10
-20.06546611785889
20
44.433843040466314
30
0
10
-21.47675352096558
20
44.517449855804458
30
0
10
-21.590788873036708
20
45.640871270497641
30
0
0
SPLINE
5
168
100
AcDbEntity
8
0
100
AcDbSpline
70
4
71
3
72
8
73
4
74
0
42
0.000000001
43
0.0000000001
44
0.0000000001
40
0
40
0
40
0
40
0
40
1
40
1
40
1
40
1
41
1
41
1
41
1
41
1
10
-21.590788873036708
20
45.640871270497641
30
0
10
-21.641589228312178
20
46.1412000656128
30
0
10
-21.591053311030073
20
46.863244978586842
30
0
10
-21.157401243845623
20
47.510415585835787
30
0
0
SPLINE
5
169
100
AcDbEntity
8
0
100
AcDbSpline
70
4
71
3
72
8
73
4
74
0
42
0.000000001
43
0.0000000001
44
0.0000000001
40
0
40
0
40
0
40
0
40
1
40
1
40
1
40
1
41
1
41
1
41
1
41
1
10
-21.157401243845623
20
47.510415585835787
30
0
10
-19.925501712163292
20
49.349006525675463
30
0
10
-17.049215714136764
20
48.706595802307142
30
0
10
-16.59651401837667
20
46.540186532338467
30
0
0
SPLINE
5
170
100
AcDbEntity
8
0
100
AcDbSpline
70
4
71
3
72
8
73
4
74
0
42
0.000000001
43
0.0000000001
44
0.0000000001
40
0
40
0
40
0
40
0
40
1
40
1
40
1
40
1
41
1
41
1
41
1
41
1
10
-16.59651401837667
20
46.540186532338467
30
0
10
-16.285098918279015
20
45.050847530364997
30
0
10
-16.106769808133446
20
43.333966700236004
30
0
10
-14.964564212163292
20
42.052851422627775
30
0
0
SPLINE
5
171
100
AcDbEntity
8
0
100
AcDbSpline
70
0
71
2
72
6
73
3
74
0
42
0.000000001
43
0.0000000001
44
0.0000000001
40
0
40
0
40
0
40
1
40
1
40
1
10
-14.964564212163292
20
42.052851422627775
30
0
10
-12.458959722518923
20
39.242448838551844
30
0
10
-9.7522723436355605
20
41.680316829681402
30
0
0
SPLINE
5
172
100
AcDbEntity
8
0
100
AcDbSpline
70
0
71
2
72
6
73
3
74
0
42
0.000000001
43
0.0000000001
44
0.0000000001
40
0
40
0
40
0
40
1
40
1
40
1
10
-9.7522723436355605
20
41.680316829681402
30
0
10
-12.262109859784447
20
41.815781752268478
30
0
10
-12.465310271581016
20
43.813386726379406
30
0
0
SPLINE
5
173
100
AcDbEntity
8
0
100
AcDbSpline
70
4
71
3
72
8
73
4
74
0
42
0.000000001
43
0.0000000001
44
0.0000000001
40
0
40
0
40
0
40
0
40
1
40
1
40
1
40
1
41
1
41
1
41
1
41
1
10
-12.465310271581016
20
43.813386726379406
30
0
10
-12.668510683377585
20
45.810991700490327
30
0
10
-11.965776809056601
20
49.772595818837495
30
0
10
-4.6862959345181787
20
49.772595818837495
30
0
0
LINE
5
174
100
AcDbEntity
8
0
100
AcDbLine
10
-4.6862959345181778
20
49.772595818837495
30
0
11
-4.7032290498415641
21
51.804065004984551
31
0
0
LINE
5
175
100
AcDbEntity
8
0
100
AcDbLine
10
-4.7032290498415641
20
51.804065004984551
30
0
11
-128.22131595611575
21
51.804065004984551
31
0
0
LINE
5
176
100
AcDbEntity
8
0
100
AcDbLine
10
-128.22131595611575
20
51.804065004984551
30
0
11
-128.22131595611575
21
49.772595818837495
31
0
0
ENDSEC
0
SECTION
2
OBJECTS
0
DICTIONARY
5
C
100
AcDbDictionary
3
ACAD_GROUP
350
D
3
ACAD_MLINESTYLE
350
17
0
DICTIONARY
5
D
100
AcDbDictionary
0
DICTIONARY
5
1A
330
C
100
AcDbDictionary
0
DICTIONARY
5
17
100
AcDbDictionary
0
ENDSEC
0
EOF
