<?xml version="1.0" encoding="UTF-8" standalone="no"?>
<svg
   xmlns:dc="http://purl.org/dc/elements/1.1/"
   xmlns:cc="http://creativecommons.org/ns#"
   xmlns:rdf="http://www.w3.org/1999/02/22-rdf-syntax-ns#"
   xmlns:svg="http://www.w3.org/2000/svg"
   xmlns="http://www.w3.org/2000/svg"
   viewBox="0 0 4266.6665 2400"
   height="2400"
   width="4266.6665"
   xml:space="preserve"
   id="svg2"
   version="1.1"><metadata
     id="metadata8"><rdf:RDF><cc:Work
         rdf:about=""><dc:format>image/svg+xml</dc:format><dc:type
           rdf:resource="http://purl.org/dc/dcmitype/StillImage" /></cc:Work></rdf:RDF></metadata><defs
     id="defs6" /><g
     transform="matrix(1.3333333,0,0,-1.3333333,0,2400)"
     id="g10"><g
       transform="scale(0.1)"
       id="g12"><g
         transform="scale(1.96319)"
         id="g14"><path
           id="path16"
           style="fill:#f5e7de;fill-opacity:1;fill-rule:nonzero;stroke:none"
           d="M 16300,0 H 0 V 9168.75 H 16300 V 0" /></g><path
         id="path18"
         style="fill:#040606;fill-opacity:1;fill-rule:nonzero;stroke:none"
         d="m 7217.2,2205.8 -93.01,262 -92.01,-261 z m -245.02,-167 c -15,-41 50,-40 50,-55 0,-12 -11,-35 -19,-34 -15,2 -45.01,3 -75.01,3 -30,0 -60,-1 -75,-3 -9,-1 -19,22 -19,34 0,15 45,15 59,55 l 186.02,522 c -17,13 -37,18 -37,28 0,12 10.99,34.1 18.99,33 71.01,-6 147.01,0 181.02,0 34,0 44,-6 50,-23 l 199.01,-560 c 14,-41 59,-40 59,-55 0,-12 -10,-34 -17.99,-34 -40.01,2 -92.01,3 -144.02,3 -52,0 -103,-1 -143,-3 -8,0 -19.01,22 -19.01,34 0,15 64.01,14 50.01,55 l -35.01,97 -235.01,-2 -34,-95" /><path
         id="path20"
         style="fill:#040606;fill-opacity:1;fill-rule:nonzero;stroke:none"
         d="m 7840.17,2041.8 c 0,-24 50,-23 69,-23 100,0 155.01,43 155.01,123 0,80 -54,124 -151.02,124 h -72.99 z m 65,294 c 81,0 129.01,40 129.01,108 0,67 -48.01,108 -129.01,108 -51.01,0 -65,1 -65,-23 v -193 z m 378.02,-199 c 0,-123 -112.01,-188 -327.02,-188 -105.01,0 -151,3 -222.01,3 -44,0 -92.01,-1 -132.01,-3 -8,-1 -19.01,21 -19.01,33 0,16 55.01,13 55.01,55 v 497 c 0,42 -55.01,39 -55.01,55 0,12 11.01,34.1 19.01,33 40,-2 88.01,-3 132.01,-3 71.01,0 117,3 222.01,3 196.02,0 297.02,-63 297.02,-171 0,-63 -34,-111 -102.01,-143 86.01,-33 132.01,-92 132.01,-171" /><path
         id="path22"
         style="fill:#040606;fill-opacity:1;fill-rule:nonzero;stroke:none"
         d="m 8932.17,2146.8 c 5.99,7 35.99,-2 35.99,-10 0,-33 -86,-198 -292.01,-198 -193.02,0 -332.02,145 -332.02,346 0,203 142,347 341.02,347 80.01,0 117.01,-20 151.01,-20 25,0 33,10 49.01,10 12.99,0 20.99,-12 25.99,-31 4.01,-15 26.01,-142 26.01,-150 0,-8 -22,-29 -34.01,-29 -17.99,0 -68,148 -189.01,148 -94,0 -150.01,-90 -150.01,-240 0,-170 72,-268 192.01,-268 65.01,0 117.01,29 176.02,95" /><path
         id="path24"
         style="fill:#040606;fill-opacity:1;fill-rule:nonzero;stroke:none"
         d="m 9326.14,2551.8 c -50,0 -65,2 -65,-23 v -486 c 0,-25 51,-23 66.01,-23 114,0 176,89 176,266 0,177 -62,266 -177.01,266 z m -170.01,-600 c -44,0 -93,-1 -133,-3 -8,0 -18,21 -18,33 0,16 54,13 54,56 v 496 c 0,42 -55.01,39 -55.01,55 0,12 11.01,34.1 19.01,33 40,-2 88,-3 133,-3 70.01,0 111.01,3 216.02,3 210.01,0 351.01,-135 351.01,-337 0,-202 -140,-336 -351.01,-336 -105.01,1 -146.01,3 -216.02,3" /><path
         id="path26"
         style="fill:#040606;fill-opacity:1;fill-rule:nonzero;stroke:none"
         d="m 10016.1,2333.8 70,2 c 82,2 76,105 106,105 12,0 34,-11 34,-19 -5,-82 -5,-164 0,-246 0,-8 -22,-19 -34,-19 -30,0 -24,103 -106,105 l -70,2 v -209 c 0,-26 11,-33 73,-33 181,0 210,117 229,117 12,0 34,-10 34,-18 0,-8 -27,-128 -31,-143 -7,-23 -15,-30 -36,-29 -70,2 -161,3 -253,3 -90.99,0 -182.99,-1 -253,-3 -8.99,0 -18.99,21 -18.99,33 0,16 54,13 54,55 v 496 c 0,43 -54,40 -54,55 0,12 10,34 18.99,34 66.01,-2 157.01,-3 249,-3 103,0 207,1 281,3 20,1.1 31,-5 31,-23 0,-22 -15,-140 -15,-148 0,-8 -21,-19 -33,-19 -19,0 -22,117 -203,117 -60,0 -73,2 -73,-22 v -193" /><path
         id="path28"
         style="fill:#040606;fill-opacity:1;fill-rule:nonzero;stroke:none"
         d="m 10641.1,2313.8 70,2 c 82,2 76,105 106,105 12,0 34,-11 34,-19 -5,-82 -5,-164 0,-246 0,-8 -22,-19 -34,-19 -30,0 -24,103 -106,105 l -70,2 v -206 c 0,-43 55,-40 55,-55 0,-13 -11,-34 -19,-34 -39,2 -88,3 -136,3 -49,0 -97,-1 -137,-3 -9,0 -19,21 -19,33 0,16 54,13 54,56 v 495 c 0,43 -54,40 -54,55 0,12 10,34 19,34 66,-2 157,-3 249,-3 103,0 207,1 281,3 20,1.1 32,-5 32,-23 0,-22 -16,-140 -16,-148 0,-8 -21,-19 -33,-19 -19,0 -22,117 -203,117 -60,0 -73,2 -73,-22 v -213" /><path
         id="path30"
         style="fill:#040606;fill-opacity:1;fill-rule:nonzero;stroke:none"
         d="m 10958.1,2284.8 c 0,203 141,347 341,347 80,0 127,-20 161,-20 25,0 33,10 49,10 13,0 21,-12 26,-31 4,-15 26,-142 26,-150 0,-8 -22,-29 -34,-29 -19,0 -78,148 -199,148 -95,0 -150,-91 -150,-249 0,-158 55,-259 136,-259 54,0 90,43 90,108 v 39 c 0,43 -45,40 -45,55 0,12 11,33 19,34 112,10 174,47 190,47 12,0 34,-11 33,-19 -20,-190 -15,-281 4,-334 5,-11 -10,-34 -18,-33 -30,2 -52,3 -75,3 -22,0 -45,-1 -75,-3 -12,-1 -33,11 -33,19 v 39 c -40,-39 -91,-68 -136,-68 -180,0 -310,145 -310,346" /><path
         id="path32"
         style="fill:#040606;fill-opacity:1;fill-rule:nonzero;stroke:none"
         d="m 11904.1,2341.8 h 240 v 192 c 0,42 -54,39 -54,55 0,12 10,34.1 18,33 40,-2 89,-3 137,-3 49,0 98,1 137,3 8,1.1 19,-21 19,-33 0,-16 -55,-13 -55,-55 v -496 c 0,-43 55,-40 55,-56 0,-12 -11,-33 -19,-33 -39,2 -88,3 -137,3 -48,0 -97,-1 -137,-3 -8,0 -18,21 -18,33 0,16 54,13 54,56 v 229 h -240 v -229 c 0,-43 55,-40 55,-56 0,-12 -11,-33 -19,-33 -39,2 -88,3 -136,3 -49,0 -97,-1 -137,-3 -9,0 -19,21 -19,33 0,16 54,13 54,56 v 496 c 0,42 -54,39 -54,55 0,12 10,34.1 19,33 40,-2 88,-3 137,-3 48,0 97,1 136,3 8,1.1 19,-21 19,-33 0,-15 -55,-12 -55,-55 v -192" /><path
         id="path34"
         style="fill:#040606;fill-opacity:1;fill-rule:nonzero;stroke:none"
         d="m 12698.1,2037.8 c 0,-43 55,-40 55,-55 0,-13 -11,-34 -19,-34 -39,2 -88,3 -137,3 -49,0 -97.1,-1 -137.1,-3 -7.9,0 -17.9,21 -17.9,33 0,16 54,13 54,56 v 496 c 0,42 -54,40 -54,55 0,12 10,34.1 17.9,33 40,-2 88.1,-3 137.1,-3 49,0 98,1 137,3 8,1.1 19,-21 19,-33 0,-15 -55,-13 -55,-55 v -496" /><path
         id="path36"
         style="fill:#040606;fill-opacity:1;fill-rule:nonzero;stroke:none"
         d="m 12829,1718.8 c -75,0 -130,19 -143,32 -6,6 10,43 19,43 100,0 143,35 143,156 v 583 c 0,43 -54,40 -54,55 0,12 10,34 18,34 40,-2 89,-3 137,-3 49,0 98.1,1 137,3 8.1,0 19,-22 19,-34 0,-15 -55,-12 -55,-55 v -574 c 0,-163 -74,-240 -221,-240" /><path
         id="path38"
         style="fill:#040606;fill-opacity:1;fill-rule:nonzero;stroke:none"
         d="m 13402,2297.8 244,233 c 30,30 -38,41 -38,57 0,12 14,34 22,33 20,-2 59,-2.9 98,-2.9 38.1,0 77,0.9 97.1,2.9 8,1 19,-21 19,-33 0,-16 -57,-28 -89.1,-56 l -166,-153 245.1,-341 c 25,-35 74,-40 74,-56 0,-12 -10,-33 -18,-33 -40,2 -103,3 -167.1,3 -63,0 -126,-1 -166,-3 -8,0 -19,21 -19,33 0,16 70,21 45,56 l -145,202 -36,-33 v -169 c 0,-43 55,-40 55,-56 0,-12 -11,-33 -19,-33 -39,2 -88,3 -137,3 -49,0 -97,-1 -137,-3 -8,0 -18,21 -18,33 0,16 54,13 54,56 v 496 c 0,42 -54,39 -54,55 0,12 10,34.1 18,33 40,-2 88,-3 137,-3 49,0 98,1 137,3 8,1.1 19,-21 19,-33 0,-15 -55,-12 -55,-55 v -236" /><path
         id="path40"
         style="fill:#040606;fill-opacity:1;fill-rule:nonzero;stroke:none"
         d="m 14198,2054.8 c 0,-26 11,-32 73,-32 146,0 185,116 204,116 12,0 34,-10 34,-18 0,-8 -27,-128 -31,-143 -7,-23 -15,-30 -36,-29 -70,2 -155,3 -240,3 -86,0 -171,-1 -241,-3 -9,0 -19,21 -19,33 0,16 54,13 54,55 v 497 c 0,43 -54,39 -54,55 0,12 10,34.1 19,33 40,-2 88,-3 137,-3 48,0 97,1 136,3 8,1.1 19,-21 19,-33 0,-15 -55,-12 -55,-55 v -479" /><path
         id="path42"
         style="fill:#040606;fill-opacity:1;fill-rule:nonzero;stroke:none"
         d="m 14586,2588.8 c 0,12 11,34.1 19,33 71,-6 147,0 181,0 34,0 44,-6 51,-24 l 170,-467 170,467 c 7,18 16,24 51,24 34,0 101,-6 173,0 8,1.1 18,-21 18,-33 0,-16 -63,-15 -59,-57 l 54,-494 c 4,-43 49,-40 49,-55 0,-12 -10,-35 -18,-34 -15,2 -75,3 -135,3 -59,0 -119,-1 -134,-3 -8,-1 -19,22 -19,34 0,15 59,12 55,55 l -37,335 -154,-424 c -34,2 -59,3 -84,3 -25,0 -50,-1 -85,-3 l -150,425 -44,-336 c -6,-43 54,-40 54,-55 0,-12 -10,-35 -18,-34 -15,2 -43,3 -71,3 -28,0 -56,-1 -71,-3 -8,-1 -19,22 -19,34 0,15 44,12 50,55 l 63,495 c 5,42 -60,40 -60,56" /><path
         id="path44"
         style="fill:#040606;fill-opacity:1;fill-rule:nonzero;stroke:none"
         d="m 16137,1981.8 c 4,-11 -11,-34 -19,-33 -71,6 -124,0 -157,0 -36,0 -42,8 -52,23 l -289,461 v -395 c 0,-43 60,-40 60,-55 0,-12 -11,-35 -19,-34 -15,2 -44,3 -73,3 -29,0 -58,-1 -74,-3 -8,-1 -18,21 -18,33 0,16 49,13 49,56 v 494 c 0,43 -49,40 -49,55 0,12 10,36.1 18,35 72,-6 158,0 191,0 36,0 42,-8 52,-24 l 288,-459 v 393 c 0,43 -60,40 -60,56 0,12 11,34 19,33 15,-2 44,-2.9 73,-2.9 29,0 59,0.9 74,2.9 8,1 18,-21 18,-33 0,-16 -49,-13 -49,-56 v -415 c 0,-64 6,-105 17,-135" /><g
         transform="scale(1.03785)"
         id="g46"><path
           id="path48"
           style="fill:#040606;fill-opacity:1;fill-rule:nonzero;stroke:none"
           d="m 16088,2201.47 c 0,181.14 -40.4,266.9 -126.2,266.9 -86.7,0 -126.2,-88.65 -126.2,-266.9 0,-178.25 39.5,-265.93 126.2,-265.93 86.7,0 126.2,87.68 126.2,265.93 z m 212,0 c 0,-197.52 -137.8,-333.38 -338.2,-333.38 -200.4,0 -338.2,135.86 -338.2,333.38 0,197.52 138.8,334.34 338.2,334.34 199.5,0 338.2,-136.82 338.2,-334.34" /></g><g
         transform="scale(1.08184)"
         id="g50"><path
           id="path52"
           style="fill:#040606;fill-opacity:1;fill-rule:nonzero;stroke:none"
           d="m 15908.1,2337.5 v -261.59 c 12,-5.55 28.6,-8.32 48,-8.32 83.2,0 140.5,52.69 140.5,146.05 0,95.2 -58.2,145.12 -141.4,145.12 -35.1,0 -47.1,-1.85 -47.1,-21.26 z m 0,-454.78 c 0,-38.82 50.8,-36.05 50.8,-50.84 0,-11.09 -10.2,-30.5 -17.5,-30.5 -36.1,1.84 -81.4,2.77 -126.7,2.77 -45.3,0 -89.6,-0.93 -126.6,-2.77 -7.4,0 -16.7,19.41 -16.7,30.5 0,14.79 50,12.02 50,50.84 v 459.4 c 0,38.82 -51,36.05 -51,50.84 0,11.09 10.3,31.52 17.7,30.5 37,-1.85 81.3,-2.77 122,-2.77 75.8,0 90.6,2.77 177.5,2.77 195.9,0 312.4,-79.49 312.4,-209.82 0,-130.34 -117.4,-212.6 -302.3,-212.6 -36,0 -65.6,2.77 -89.6,10.16 v -128.48" /></g><g
         transform="scale(1.12865)"
         id="g54"><path
           id="path56"
           style="fill:#040606;fill-opacity:1;fill-rule:nonzero;stroke:none"
           d="m 16105.1,2024.37 c 0,166.57 -37.2,245.42 -116.1,245.42 -79.7,0 -116.1,-81.51 -116.1,-245.42 0,-163.92 36.4,-244.54 116.1,-244.54 79.8,0 116.1,80.62 116.1,244.54 z m 194.9,0 c 0,-161.26 -100.1,-278.21 -252.5,-302.14 41.6,-11.51 78.8,-21.26 103.6,-21.26 31.9,0 42.6,14.18 42.6,33.67 0,1.77 4.4,2.66 10.6,2.66 20.4,0 65.6,-14.18 65.6,-75.31 0,-67.34 -52.3,-124.93 -130.3,-123.16 -132,3.54 -233,161.25 -297.7,161.25 -24.8,0 -38.1,-18.6 -38.1,-37.21 0,-19.49 10.7,-37.21 41.7,-37.21 23,0 32.8,18.61 39.8,18.61 21.3,0 49.7,-31.9 49.7,-60.25 0,-37.22 -46.1,-77.09 -100.2,-77.09 -64.6,0 -116.9,56.71 -116.9,125.82 0,70.88 42.4,109.86 116.1,120.5 -96.6,49.61 -156.1,147.07 -156.1,271.12 0,181.63 127.7,307.44 311.1,307.44 183.4,0 311,-125.81 311,-307.44" /></g><g
         transform="scale(1.17632)"
         id="g58"><path
           id="path60"
           style="fill:#040606;fill-opacity:1;fill-rule:nonzero;stroke:none"
           d="m 15888.5,2168.46 v -204.88 c 0,-21.25 28.1,-19.55 41.7,-19.55 85,0 130.9,45.06 130.9,113.07 0,66.3 -44.2,111.36 -129.2,111.36 z m -171.8,-14.45 c 0,35.7 -46.7,33.15 -46.7,46.75 0,10.21 9.3,28.99 16.1,28.06 34,-1.7 74.8,-2.55 112.3,-2.55 60.4,0 74,2.55 163.3,2.55 176.8,0 287.3,-64.61 287.3,-173.42 0,-74.81 -52.7,-128.37 -143.7,-154.72 65.5,-23.81 93.5,-96.92 136,-167.48 18.7,-31.45 58.7,-34.85 58.7,-47.6 0,-10.2 -9.4,-28.91 -16.2,-28.91 -102.8,5.95 -150.4,0.85 -178.5,0.85 -54.4,0 -21.2,19.56 -59.5,75.66 l -101.1,149.62 h -56.2 V 1731.5 c 0,-35.7 46.8,-33.15 46.8,-46.75 0,-10.2 -9.3,-28.06 -16.1,-28.06 -33.2,1.7 -74.9,2.55 -116.6,2.55 -41.7,0 -82.5,-0.85 -116.5,-2.55 -6.8,0 -16.1,17.86 -16.1,28.06 0,13.6 46.7,11.05 46.7,46.75 v 422.51" /></g><g
         transform="scale(1.21086)"
         id="g62"><path
           id="path64"
           style="fill:#040606;fill-opacity:1;fill-rule:nonzero;stroke:none"
           d="m 15856.4,2004.2 c 0,103.23 81.8,169.3 209.8,169.3 74.3,0 104.9,-16.52 133.8,-16.52 20.6,0 26.4,8.26 40.5,8.26 10.7,0 16.6,-9.91 20.7,-25.6 4.1,-12.39 21.4,-117.27 21.4,-123.88 0,-6.61 -17.3,-23.95 -27.3,-23.95 -15.7,0 -80.9,122.23 -178.4,122.23 -39.6,0 -69.3,-23.95 -69.3,-56.16 0,-103.23 292.4,-85.89 292.4,-287.4 0,-108.19 -85.1,-169.3 -236.3,-169.3 -77.6,0 -103.2,15.69 -132.1,15.69 -20.7,0 -27.3,-7.43 -40.5,-7.43 -10.7,0 -17.3,9.91 -21.5,25.6 -3.3,12.39 -29.7,133.79 -29.7,140.39 0,6.61 18.2,23.95 28.1,23.95 15.7,0 85.1,-138.74 204.8,-138.74 47.9,0 78.5,21.47 78.5,56.16 -0.9,94.97 -294.9,80.93 -294.9,287.4" /></g><g
         transform="scale(1.25595)"
         id="g66"><path
           id="path68"
           style="fill:#040606;fill-opacity:1;fill-rule:nonzero;stroke:none"
           d="m 16100.1,1622.52 c 0,-34.24 43.8,-31.85 43.8,-43.8 0,-9.55 -8.8,-27.07 -15.2,-27.07 -31,1.6 -70,2.39 -109,2.39 -39.1,0 -77.3,-0.79 -109.1,-2.39 -6.4,0 -14.4,17.52 -14.4,27.07 0,11.95 43,9.56 43,43.8 v 389.34 c 0,11.95 -9.5,17.52 -31,17.52 -91.6,0 -129.8,-109.08 -144.9,-109.08 -9.6,0 -27.1,7.96 -27.1,15.13 0,6.37 15.1,117.04 16.7,127.39 3.2,20.7 11.2,25.56 27.9,24.68 82.8,-1.59 164.8,-2.39 246.8,-2.39 82,0 164.9,0.8 246.9,2.39 15.9,0.88 25.5,-3.98 25.5,-18.31 0,-16.72 -11.9,-127.39 -11.9,-133.76 0,-6.37 -17.6,-15.13 -27.1,-15.13 -15.1,0 -21.5,109.08 -135.4,109.08 -16,0 -25.5,2.39 -25.5,-17.52 v -389.34" /></g><g
         transform="scale(1.29791)"
         id="g70"><path
           id="path72"
           style="fill:#040606;fill-opacity:1;fill-rule:nonzero;stroke:none"
           d="m 16050.4,1493.79 c -134.1,0 -209.6,76.28 -209.6,215.73 v 242.7 c 0,32.36 -41.6,30.05 -41.6,42.37 0,9.25 7.7,25.43 14.6,25.43 30.9,-1.54 67.8,-2.31 105.6,-2.31 37,0 74.7,0.77 104.8,2.31 6.1,0 14.6,-16.18 14.6,-25.43 0,-12.32 -42.4,-10.01 -42.4,-42.37 v -251.94 c 0,-89.38 38.6,-135.61 104,-135.61 65.5,0 104.1,46.23 104.1,135.61 v 251.94 c 0,32.36 -42.4,30.05 -42.4,42.37 0,9.25 8.5,26.28 14.6,25.43 15.4,-1.54 35.5,-2.31 55.5,-2.31 20,0 40.1,0.77 55.5,2.31 6.1,0.85 12.3,-16.18 12.3,-25.43 0,-12.32 -40.1,-10.01 -40.1,-42.37 v -242.7 c 0,-139.45 -75.5,-215.73 -209.5,-215.73" /></g><g
         transform="scale(1.34367)"
         id="g74"><path
           id="path76"
           style="fill:#040606;fill-opacity:1;fill-rule:nonzero;stroke:none"
           d="m 15814,1884.98 c -10.4,29.77 -44.6,29.03 -44.6,40.93 0,8.93 8.2,24.56 14.1,24.56 29.8,-1.49 68.5,-2.15 107.2,-2.15 38.7,0 77.4,0.66 107.1,2.15 6,0 13.4,-15.63 13.4,-24.56 0,-11.9 -46.8,-11.16 -36.4,-40.93 l 110.9,-320.02 110.9,320.02 c 10.4,29.77 -36.5,29.03 -36.5,40.93 0,8.93 7.4,25.31 13.4,24.56 11.9,-1.49 34.2,-2.15 56.5,-2.15 22.4,0 44.7,0.66 55.9,2.15 5.9,0.75 14.1,-15.63 14.1,-24.56 0,-11.9 -34.2,-11.16 -44.7,-40.93 l -152.5,-434.63 c -25.3,1.49 -46.9,2.23 -67.7,2.23 -21.6,0 -42.5,-0.74 -68.5,-2.23 l -152.6,434.63" /></g><g
         transform="scale(1.41945)"
         id="g78"><path
           id="path80"
           style="fill:#040606;fill-opacity:1;fill-rule:nonzero;stroke:none"
           d="m 15698.3,1375.04 c -20.4,0 -40.2,-0.7 -64.8,-2.11 l -144.4,411.43 c -9.9,28.18 -42.3,27.47 -42.3,38.74 0,8.46 7.7,23.25 13.4,23.25 28.1,-1.41 64.8,-2.04 101.4,-2.04 36.6,0 73.3,0.63 101.5,2.04 5.6,0 12.6,-14.79 12.6,-23.25 0,-11.27 -44.3,-10.56 -34.5,-38.74 l 103.6,-298.01 c 32.4,94.41 107.1,248.69 95.1,298.01 -9.9,28.18 -41.6,27.47 -41.6,38.74 0,8.46 7.1,23.25 12.7,23.25 28.2,-1.41 64.8,-2.04 101.5,-2.04 37.3,0 73.9,0.63 101.4,2.04 5.6,0 13.4,-14.79 13.4,-23.25 0,-11.27 -45.1,-10.56 -35.2,-39.45 l 104.9,-302.23 105,302.23 c 9.9,28.89 -34.5,28.18 -34.5,39.45 0,8.46 7.7,23.96 13.4,23.25 10.5,-1.41 31.7,-2.04 52.8,-2.04 21.1,0 42.3,0.63 52.8,2.04 6.5,0.71 13.5,-14.79 13.5,-23.25 0,-11.27 -31.7,-10.56 -41.6,-38.74 l -145.2,-411.43 c -23.9,1.41 -44.3,2.11 -64.1,2.11 -20.4,0 -40.1,-0.7 -64.8,-2.11 l -107.8,307.16 c -33.8,-110.61 -102.1,-240.23 -114.1,-307.16 -24,1.41 -44.4,2.11 -64.1,2.11" /></g><g
         transform="scale(1.46484)"
         id="g82"><path
           id="path84"
           style="fill:#040606;fill-opacity:1;fill-rule:nonzero;stroke:none"
           d="m 16110.2,1615.06 74.4,113.32 c 15.7,24.58 -23.2,27.99 -23.2,38.91 0,8.19 9.6,23.28 15,22.53 10.3,-1.37 29.4,-2.05 48.5,-2.05 19.1,0 38.2,0.68 48.5,2.05 5.4,0.75 12.9,-14.34 12.9,-22.53 0,-10.92 -23.8,-14.33 -40.2,-38.91 l -106.5,-158.38 116.7,-178.86 c 15.7,-24.57 43.7,-27.3 43.7,-38.23 0,-8.19 -7.5,-22.53 -13,-22.53 -26.6,1.37 -66.9,2.05 -106.5,2.05 -40.2,0 -79.8,-0.68 -107.1,-2.05 -5.5,0 -13,14.34 -13,22.53 0,10.93 46.4,13.66 30.7,38.23 l -88.7,135.17 -87.4,-134.49 c -16.4,-24.57 22.5,-27.98 22.5,-38.22 0,-8.2 -9.6,-23.9 -15,-23.22 -10.3,1.37 -29.4,2.05 -48.5,2.05 -19.1,0 -38.2,-0.68 -48.5,-2.05 -5.4,-0.68 -12.9,15.02 -12.9,23.22 0,10.24 23.9,13.65 40.3,38.22 l 120.8,178.86 -103.1,159.07 c -16.4,24.57 -44.4,26.62 -44.4,37.54 0,8.19 7.5,23.28 13,22.53 27.3,-1.37 66.9,-2.05 107.2,-2.05 39.6,0 79.9,0.68 106.5,2.05 5.4,0.75 12.9,-14.34 12.9,-22.53 0,-10.24 -46.4,-12.97 -30,-37.54 l 74.4,-114.69" /></g><g
         transform="scale(1.50686)"
         id="g86"><path
           id="path88"
           style="fill:#040606;fill-opacity:1;fill-rule:nonzero;stroke:none"
           d="m 15895.1,1681.5 c -13.3,24.56 -33.2,25.89 -33.2,36.5 0,7.97 7.3,21.9 12.6,21.9 26.6,-1.32 59.8,-1.99 93,-1.99 33.8,0 67,0.67 93.6,1.99 5.3,0 11.9,-13.93 11.9,-21.9 0,-10.61 -39.2,-11.94 -25.9,-37.16 l 82.4,-161.26 82.2,161.26 c 13.3,25.22 -25.8,26.55 -25.8,37.16 0,7.97 6.6,22.64 11.9,21.9 10.6,-1.32 27.9,-1.99 45.1,-1.99 17.3,0 34.5,0.67 44.5,1.99 5.3,0.74 12.6,-13.93 12.6,-21.9 0,-10.61 -19.9,-11.94 -33.2,-37.16 L 16148,1447.91 v -95.57 c 0,-28.53 36.5,-26.54 36.5,-37.16 0,-7.96 -7.3,-21.9 -12.6,-21.9 -25.9,1.33 -58.4,1.99 -90.9,1.99 -32.5,0 -64.4,-0.66 -91,-1.99 -5.3,0 -11.9,13.94 -11.9,21.9 0,10.62 35.8,8.63 35.8,37.16 v 95.57 l -118.8,233.59" /></g><g
         transform="scale(1.54398)"
         id="g90"><path
           id="path92"
           style="fill:#040606;fill-opacity:1;fill-rule:nonzero;stroke:none"
           d="m 16274.7,1698.08 c 5.2,0.71 12.3,-13.6 12.3,-21.38 0,-9.71 1.3,-12.3 -12.9,-35.62 l -187.2,-310.23 c -8.5,-14.25 7.1,-20.73 40.2,-20.73 113.3,0 139.2,75.13 151.5,75.13 7.8,0 21.4,-6.48 21.4,-11.66 0,-5.18 -17.5,-82.9 -20.1,-92.62 -3.9,-14.89 -9.7,-19.43 -22.6,-18.78 -45.4,1.3 -106.3,1.94 -166.6,1.94 -60.8,0 -121.7,-0.64 -167.1,-1.94 -5.8,0 -12.3,13.6 -12.3,21.38 0,10.36 1.3,12.3 15.6,35.62 l 191.7,317.36 c 4.5,8.42 -7.8,14.25 -35,14.25 -97.1,0 -132.1,-79.02 -144.4,-79.02 -7.8,0 -21.4,7.13 -21.4,12.31 0,5.18 14.9,85.49 16.8,95.85 2,14.9 9.1,18.85 22.1,18.14 90.6,-1.95 227.4,-2.53 318,0" /></g><path
         id="path94"
         style="fill:#040606;fill-opacity:1;fill-rule:nonzero;stroke:none"
         d="m 9234.66,3362.1 v 12 c -57.01,-21 -123.01,-29 -123.01,-83 0,-31 22,-47 48,-47 37,0 75.01,50 75.01,118 z m 0,-145 c -39.01,-42 -89.02,-76 -125.01,-76 -115.01,0 -193.02,57 -193.02,138 0,150 215.02,136 318.03,155 v 15 c 0,107 -18.01,142 -67.01,142 -32.01,0 -52.01,-13 -52.01,-40 0,-43 35,-41 35,-53 0,-36 -28.99,-68 -97,-68 -67,0 -106,31 -106,82 0,82 91,139 227.01,139 162.01,0 252.02,-76 252.02,-215 v -196 c 0,-43 45,-39 45,-55 0,-12 -11.01,-34 -19,-34 -79.01,4 -105.01,4 -185.01,1 -12.01,-1 -33,10 -33,18 v 47" /><path
         id="path96"
         style="fill:#040606;fill-opacity:1;fill-rule:nonzero;stroke:none"
         d="m 9860.65,3396.1 c 0,99 -22.99,152 -67,152 -37,0 -75.01,-56 -75.01,-124 v -195 c 12,-4 24.01,-6 37,-6 77.02,0 105.01,60 105.01,173 z m -17,255 c 132.01,0 213.05,-97 213.05,-255 0,-149 -98.04,-255 -238.05,-255 -57,0 -110.01,21 -137.01,47 -66.01,-15 -109,-37 -122,-37 -12,0 -33.01,11 -33.01,19 v 566 c 0,43 -45,40 -45,55 0,12 11,33 19,34 102.01,10 169.01,47 185.01,47 12.01,0 33,-11 33,-19 v -278 c 39.01,43 89.01,76 125.01,76" /><path
         id="path98"
         style="fill:#040606;fill-opacity:1;fill-rule:nonzero;stroke:none"
         d="m 10646.7,3309.1 c 0,-33 -67,-168 -254.1,-168 -157,0 -270,106 -270,255 0,148 112,255 267,255 129.1,0 225.1,-71 225.1,-159 0,-59 -44,-95 -127.1,-95 -47,0 -76,22 -76,58 0,16 45.1,13 45.1,71 0,42 -23.1,64 -59.1,64 -53,0 -81,-46 -81,-141 0,-123 58,-195 146,-195 56.1,0 107.1,20 147.1,65 6,7 37,-2 37,-10" /><path
         id="path100"
         style="fill:#040606;fill-opacity:1;fill-rule:nonzero;stroke:none"
         d="m 10889.6,3396.1 c 0,-99 23,-152 67,-152 37,0 75,56 75,124 v 195 c -12,4 -24,6 -37,6 -77,0 -105,-60 -105,-173 z m 334.1,-156 c 0,-43 44,-40 44,-55 0,-12 -10,-34 -18,-34 -79,4 -105.1,4 -185.1,1 -12,-1 -33,10 -33,18 v 47 c -39,-42 -89,-76 -125,-76 -132,0 -213,98 -213,255 0,149 98,255 238,255 37,0 72,-9 100,-22 v 108 c 0,42 -45,39 -45,55 0,12 11,32 19,33 102,10 169,47 185.1,47 12,0 33,-11 33,-19 v -613" /><path
         id="path102"
         style="fill:#040606;fill-opacity:1;fill-rule:nonzero;stroke:none"
         d="m 11630.6,3514.1 c 0,50 -19,77 -54,77 -42,0 -63,-46 -63,-129 0,-46 6,-84 17,-114 55,43 100,89 100,166 z m 175,-195 c 4,4 9,6 14,6 9.1,0 19.1,-6 19.1,-18 0,-33 -63.1,-166 -250.1,-166 -157,0 -270,106 -270,255 0,147 110,255 260,255 129,0 228.1,-77 228.1,-174 0,-106 -157.1,-161 -253.1,-171 25,-34 63,-52 109,-52 53,0 108,25 143,65" /><path
         id="path104"
         style="fill:#040606;fill-opacity:1;fill-rule:nonzero;stroke:none"
         d="m 12316.6,3744.1 c 0,-55 -35,-84 -101,-84 -60,0 -97,26 -97,68 0,12 35,10 35,53 0,27 -14,40 -35,40 -62,0 -60,-114 -7,-189 l 121,10 c 10,0 14,-5 14,-12 0,-31 -8,-61 -31,-59 -25,1 -61,2 -101,3 v -334 c 0,-43 45,-40 45,-56 0,-12 -11,-33 -19,-33 -39,2 -81,3 -122,3 -41,0 -82,-1 -122,-3 -8,0 -18,21 -18,33 0,16 44,13 44,56 v 331 c -18,-2 -35,-4 -52,-6 -10,-2 -14,4 -14,10 0,18 16,49 28,48 11,0 24,0 37,0 -36,152 39,258 200,258 116,0 195,-55 195,-137" /><path
         id="path106"
         style="fill:#040606;fill-opacity:1;fill-rule:nonzero;stroke:none"
         d="m 12422.6,3421.1 c 0,-116 24,-170 71,-170 47,0 71,54 71,170 0,116 -24,170 -71,170 -47,0 -71,-54 -71,-170 z m 154,220 c 30,-6 57,-8 79,-8 79,0 115,28 132,28 11.1,0 19.1,-14 19.1,-33 0,-31 -16.1,-80 -34.1,-80 -22,0 -32,7 -63,13 32.1,-38 50,-86 50,-140 0,-134 -111,-230 -266,-230 -60,0 -113,14 -156,39 -18,-18 -45,-44 -45,-65 0,-22 12,-38 48,-38 67,0 208,57 297,57 104.1,0 162,-44 162,-139 0,-78 -59,-142.1 -126,-142.1 -57,0 -109,45 -109,87.1 0,32 32,68 56,68 9,0 20,-21 46,-21 34,0 56,20 56,42 0,21 -15,42 -43,42 -73,0 -177,-173.1 -326,-177 -87,-2 -147,63 -147,163 0,61 35,108 90,153 -44,41 -70,96 -70,161 0,134 111,230 267,230 30,0 57,-5 83,-10" /><path
         id="path108"
         style="fill:#040606;fill-opacity:1;fill-rule:nonzero;stroke:none"
         d="m 13019.6,3871.1 c 12,0 33,-11 34,-19 v -284 c 50,45 115,83 155,83 94,0 159,-66 159,-166 v -245 c 0,-43 44,-40 44,-56 0,-12 -11,-33 -19,-33 -39,2 -80,3 -121,3 -41,0 -82,-1 -122,-3 -8,-1 -19,21 -19,33 0,16 45,13 45,56 v 228 c 0,51 -16,75 -48,75 -36,0 -74,-71 -74,-139 v -164 c 0,-43 44,-40 44,-55 0,-13 -11,-34 -19,-34 -39,2 -80,3 -121,3 -41,0 -82,-1 -122,-3 -8,0 -19,21 -19,33 0,16 45,13 45,56 v 496 c 0,42 -45,39 -45,55 0,12 11,32 19,33 102,10 169,47 184,47" /><path
         id="path110"
         style="fill:#040606;fill-opacity:1;fill-rule:nonzero;stroke:none"
         d="m 13470.6,3763.1 c 0,63 48,108 115,108 63,0 105,-38 105,-97 0,-60 -45,-99 -115,-99 -67,0 -105,32 -105,88 z m 178,-122 c 12,0 33,-11 33,-19 v -382 c 0,-43 45,-40 45,-55 0,-13 -11,-34 -19,-34 -39,2 -81,3 -122,3 -41,0 -82,-1 -122,-3 -8,0 -18,21 -18,33 0,16 44,13 44,56 v 266 c 0,42 -44,39 -44,55 0,12 10,32 18,33 102,10 169,47 185,47" /><path
         id="path112"
         style="fill:#040606;fill-opacity:1;fill-rule:nonzero;stroke:none"
         d="m 13784.6,3763.1 c 0,63 48,108 115,108 63,0 105,-38 105,-97 0,-60 -45,-99 -115,-99 -67,0 -105,32 -105,88 z m -88,-821 c -6,5.9 10,34 19,34 75,0 88,22 88,137 v 393 c 0,42 -45,39 -45,55 0,12 11,32 19,33 102,10 169,47 185,47 12,0 33,-11 33,-19 l 1,-471 c 0,-153 -61,-240 -183,-240 -58,0 -104,18.9 -117,31" /><path
         id="path114"
         style="fill:#040606;fill-opacity:1;fill-rule:nonzero;stroke:none"
         d="m 14264.6,3871.1 c 12,0 33,-10 33,-19 v -415 l 130,115 c 31,28 -18,40 -18,56 0,12 14,34 22,33 20,-2 57,-3 94,-3 36,0 73,1 93,3 8,1 19,-21 19,-33 0,-16 -54,-31 -88,-56 l -90,-67 149,-244 c 22,-36 68,-41 68,-56 0,-12 -11,-34 -19,-34 -121,7 -167,1 -194,1 -50,0 -40,19 -78,89 l -74,133 -14,-11 v -123 c 0,-43 45,-40 45,-56 0,-12 -11,-33 -19,-33 -39,2 -81,3 -122,3 -41,0 -82,-1 -122,-3 -8,0 -18,21 -18,33 0,16 44,13 44,56 v 496 c 0,42 -44,39 -44,55 0,12 10,32 18,33 102,10 169,47 185,47" /><path
         id="path116"
         style="fill:#040606;fill-opacity:1;fill-rule:nonzero;stroke:none"
         d="m 14909.6,3871.1 c 12,0 33,-11 33,-19 v -612 c 0,-43 45,-40 45,-56 0,-12 -11,-33 -19,-33 -39,2 -81,3 -122,3 -41,0 -82,-1 -122,-3 -8,0 -18,21 -18,33 0,16 44,13 44,56 v 496 c 0,42 -44,39 -44,55 0,12 10,32 18,33 102,10 169,47 185,47" /><path
         id="path118"
         style="fill:#040606;fill-opacity:1;fill-rule:nonzero;stroke:none"
         d="m 15223.6,3641.1 c 12,0 33,-11 33,-19 v -54 c 51,45 116,83 155,83 70,0 124,-32 147,-90 52,48 124,90 167,90 94,0 159,-66 159,-166 v -245 c 0,-43 45,-40 45,-56 0,-12 -11,-33 -19,-33 -39,2 -81,3 -122,3 -41,0 -82,-1 -122,-3 -8,0 -18,21 -18,33 0,16 44,13 44,56 v 228 c 0,51 -15,75 -47,75 -37,0 -75,-71 -75,-139 v -164 c 0,-43 45,-40 45,-56 0,-12 -11,-33 -19,-33 -39,2 -81,3 -122,3 -41,0 -82,-1 -122,-3 -8,0 -18,21 -18,33 0,16 44,13 44,56 v 228 c 0,51 -15,75 -47,75 -37,0 -75,-71 -75,-139 v -164 c 0,-43 45,-40 45,-56 0,-12 -11,-33 -19,-33 -39,2 -81,3 -122,3 -41,0 -82,-1 -122.1,-3 -8,0 -18,21 -18,33 0,16 44.1,13 44.1,56 v 266 c 0,42 -44.1,39 -44.1,55 0,12 10,32 18,33 102.1,10 169.1,47 185.1,47" /><g
         transform="scale(1.0158)"
         id="g120"><path
           id="path122"
           style="fill:#040606;fill-opacity:1;fill-rule:nonzero;stroke:none"
           d="m 15914,3584.45 c 11.8,0 32.6,-10.83 32.6,-18.7 v -53.16 c 50.2,44.3 114.2,81.71 152.6,81.71 92.5,0 156.5,-64.98 156.5,-163.42 v -241.19 c 0,-42.33 44.3,-39.38 44.3,-55.13 0,-11.81 -10.8,-32.48 -18.7,-32.48 -38.4,1.97 -79.7,2.95 -120.1,2.95 -40.4,0 -80.7,-0.98 -120.1,-2.95 -7.9,0 -17.7,20.67 -17.7,32.48 0,15.75 43.3,12.8 43.3,55.13 v 224.46 c 0,50.2 -14.8,73.83 -46.3,73.83 -36.4,0 -73.8,-69.9 -73.8,-136.84 v -161.45 c 0,-42.33 44.3,-39.38 44.3,-55.13 0,-11.81 -10.9,-32.48 -18.7,-32.48 -38.5,1.97 -79.9,2.95 -120.2,2.95 -40.4,0 -80.7,-0.98 -120.1,-2.95 -7.9,0 -17.7,20.67 -17.7,32.48 0,15.75 43.3,12.8 43.3,55.13 v 261.86 c 0,41.35 -43.3,38.4 -43.3,54.15 0,11.81 9.8,31.5 17.7,32.48 100.4,9.85 166.4,46.27 182.1,46.27" /></g><g
         transform="scale(1.05175)"
         id="g124"><path
           id="path126"
           style="fill:#040606;fill-opacity:1;fill-rule:nonzero;stroke:none"
           d="m 15978.6,3229.01 c 0,-125.51 22.8,-185.41 67.5,-185.41 44.7,0 67.5,59.9 67.5,185.41 0,125.5 -22.8,185.4 -67.5,185.4 -44.7,0 -67.5,-59.9 -67.5,-185.4 z m 321.4,0 c 0,-140.72 -106.5,-242.46 -253.9,-242.46 -147.3,0 -253.8,101.74 -253.8,242.46 0,140.71 106.5,242.45 253.8,242.45 147.4,0 253.9,-101.74 253.9,-242.45" /></g><g
         transform="scale(1.09021)"
         id="g128"><path
           id="path130"
           style="fill:#040606;fill-opacity:1;fill-rule:nonzero;stroke:none"
           d="m 16120.2,3115.08 c 0,90.8 -21.1,139.42 -61.4,139.42 -34,0 -68.8,-69.71 -68.8,-132.09 V 2961.9 c 11,-3.67 22,-5.51 33.9,-5.51 70.6,0 96.3,55.04 96.3,158.69 z m -160.5,224.72 c 11,0 30.3,-10.09 30.3,-17.43 v -43.11 c 35.7,39.45 81.6,69.71 114.6,69.71 121.1,0 195.4,-88.97 195.4,-233.89 0,-136.67 -89.9,-233.9 -218.3,-233.9 -33.9,0 -66,8.25 -91.7,20.18 V 2760.1 c 0,-38.52 41.2,-35.77 41.2,-50.45 0,-11.01 -10,-30.27 -17.4,-30.27 -35.8,1.74 -74.3,2.75 -111.9,2.75 -37.6,0 -75.2,-1.01 -111.9,-2.75 -7.3,0 -16.5,19.26 -16.5,30.27 0,14.68 40.4,11.93 40.4,50.45 v 455.87 c 0,38.53 -40.4,35.78 -40.4,50.45 0,11.01 9.2,29.35 16.5,30.27 93.6,9.17 155,43.11 169.7,43.11" /></g><g
         transform="scale(1.12837)"
         id="g132"><path
           id="path134"
           style="fill:#040606;fill-opacity:1;fill-rule:nonzero;stroke:none"
           d="m 15965,3009.73 c 0,-89.51 20.4,-134.71 59.4,-134.71 31.9,0 65.6,49.63 65.6,109.9 v 172.81 c -9.8,3.55 -21.3,5.32 -32.8,5.32 -68.3,0 -92.2,-54.06 -92.2,-153.32 z m 335,-391.71 c 0,-10.64 -9.7,-29.25 -16.8,-29.25 -34.6,1.68 -70.9,2.66 -107.3,2.66 -36.3,0 -72.6,-0.98 -108.1,-2.66 -8,0 -16.8,18.61 -16.8,29.25 0,14.18 39,11.52 39,48.74 v 184.33 c -34.6,-37.22 -78,-67.35 -110.8,-67.35 -116.1,0 -187.9,86.85 -187.9,216.24 0,140.03 85.1,235.74 210,235.74 51.4,0 97.5,-18.61 121.5,-41.65 59.3,13.29 97.4,32.79 108.1,32.79 10.6,0 29.2,-9.75 29.2,-16.84 v -543.26 c 0,-37.22 39.9,-34.56 39.9,-48.74" /></g><g
         transform="scale(1.15905)"
         id="g136"><path
           id="path138"
           style="fill:#040606;fill-opacity:1;fill-rule:nonzero;stroke:none"
           d="m 16072.2,3141.46 c 10.4,0 28.5,-9.49 28.5,-16.4 v -81.1 c 27.6,57.81 70.7,106.12 112.2,106.12 50,0 87.1,-39.68 87.1,-91.45 0,-47.45 -38,-88 -82,-88 -17.2,0 -14.6,38.82 -61.2,38.82 -33.7,0 -56.1,-39.69 -56.1,-97.49 v -116.48 c 0,-37.1 38.8,-34.51 38.8,-47.45 0,-11.22 -9.5,-29.33 -16.4,-29.33 -33.6,1.72 -69.9,2.58 -105.2,2.58 -35.4,0 -70.8,-0.86 -105.3,-2.58 -6.9,0 -15.5,18.11 -15.5,28.47 0,13.8 37.9,11.21 37.9,48.31 v 229.5 c 0,36.24 -37.9,33.65 -37.9,47.45 0,10.36 8.6,27.61 15.5,28.48 88,8.62 145.8,40.55 159.6,40.55" /></g><g
         transform="scale(1.18942)"
         id="g140"><path
           id="path142"
           style="fill:#040606;fill-opacity:1;fill-rule:nonzero;stroke:none"
           d="m 16094,2640.87 c -108.4,0 -202.6,43.72 -202.6,95.01 0,42.04 43.7,77.35 79,77.35 71.5,0 58.9,-121.91 131.2,-121.91 31.1,0 57.2,14.29 57.2,38.67 0,75.67 -250.6,52.13 -250.6,202.62 0,81.56 75.7,137.05 185.8,137.05 99.2,0 193.4,-46.25 193.4,-95.01 0,-33.63 -43.7,-63.9 -79,-63.9 -71.5,0 -42.1,108.46 -110.2,108.46 -25.2,0 -48.7,-15.13 -48.7,-39.51 0,-75.67 250.5,-43.72 250.5,-199.26 0,-83.24 -83.2,-139.57 -206,-139.57" /></g><g
         transform="scale(1.21678)"
         id="g144"><path
           id="path146"
           style="fill:#040606;fill-opacity:1;fill-rule:nonzero;stroke:none"
           d="m 16152.1,3088.57 v -103.56 l 118.3,7.4 c 8.2,0.82 11.5,-4.11 11.5,-9.04 0,-25.48 -6.6,-50.95 -25.5,-49.31 -21.3,1.64 -69.8,2.46 -104.3,3.29 v -200.53 c 0,-46.03 14.8,-61.64 38.6,-61.64 23,0 46.8,15.61 78.9,52.6 4.9,5.75 30.4,-1.65 30.4,-8.22 0,-27.12 -54.2,-138.07 -175.1,-138.07 -77.2,0 -130.6,54.24 -130.6,136.42 v 190.67 c 0,34.52 -45.2,32.05 -45.2,45.2 0,9.87 9,26.3 15.6,27.12 83.8,8.22 147.1,123.28 159.4,123.28 9.9,0 28,-9.04 28,-15.61" /></g><g
         transform="scale(1.25408)"
         id="g148"><path
           id="path150"
           style="fill:#040606;fill-opacity:1;fill-rule:nonzero;stroke:none"
           d="m 16300,2539.79 c 0,-9.57 -8,-27.11 -14.4,-27.11 -62.9,3.19 -83.7,3.19 -147.5,0.8 -9.5,-0.8 -26.3,7.97 -26.3,14.35 v 43.86 c -40.7,-36.68 -92.5,-66.98 -123.7,-66.98 -74.9,0 -126.7,53.42 -126.7,133.16 v 157.89 c 0,33.49 -35.9,31.1 -35.9,43.85 0,9.57 8.7,25.52 15.1,26.32 81.4,7.97 134.8,37.48 147.5,37.48 9.7,0 26.4,-8.78 26.4,-15.16 v -236.82 c 0,-40.67 11.9,-60.6 37.4,-60.6 29.6,0 59.9,40.66 59.9,94.89 v 110.04 c 0,33.49 -35.9,31.1 -35.9,43.85 0,9.57 8.8,25.52 15.2,26.32 81.3,7.97 134.7,37.48 147.5,37.48 9.6,0 26.3,-8.78 26.3,-15.16 v -304.6 c 0,-34.29 35.1,-31.1 35.1,-43.86" /></g><g
         transform="scale(1.29009)"
         id="g152"><path
           id="path154"
           style="fill:#040606;fill-opacity:1;fill-rule:nonzero;stroke:none"
           d="m 15890.7,2753.37 c -11.7,31.01 -38,31.01 -38,42.63 0,9.31 7.7,26.36 13.9,26.36 31,-1.55 65.1,-2.33 100,-2.33 34.9,0 69.8,0.78 100,2.33 6.2,0 14.7,-17.05 14.7,-26.36 0,-11.62 -42.6,-11.62 -31,-42.63 l 76.1,-197.66 75.9,197.66 c 12.4,31.01 -30.2,31.01 -30.2,42.63 0,9.31 7.8,27.13 14.7,26.36 11.7,-1.55 30.3,-2.33 49.6,-2.33 18.6,0 37.2,0.78 48.9,2.33 6.2,0.77 14.7,-17.05 14.7,-26.36 0,-11.62 -26.4,-11.62 -38,-42.63 l -120.1,-310.83 c -26.5,1.55 -46.6,2.33 -66,2.33 -19.4,0 -38.8,-0.78 -65.9,-2.33 l -119.3,310.83" /></g><g
         transform="scale(1.34948)"
         id="g156"><path
           id="path158"
           style="fill:#040606;fill-opacity:1;fill-rule:nonzero;stroke:none"
           d="m 15638.2,2632.2 c -10.4,29.64 -36.3,29.64 -36.3,40.76 0,8.89 7.4,25.19 13.3,25.19 29.7,-1.48 62.3,-2.22 95.6,-2.22 33.4,0 66.7,0.74 95.6,2.22 5.9,0 14.1,-16.3 14.1,-25.19 0,-11.12 -40,-11.12 -29.7,-40.76 l 65.3,-183.77 c 25.1,65.95 73.3,133.38 60.7,183.77 -10.4,29.64 -36.3,29.64 -36.3,40.76 0,8.89 7.4,25.19 14.1,25.19 29.6,-1.48 62.2,-2.22 95.6,-2.22 32.7,0 66,0.74 94.9,2.22 5.9,0 14.1,-16.3 14.1,-25.19 0,-11.12 -40,-11.12 -29.7,-40.76 l 65.3,-185.25 65.2,185.25 c 10.3,29.64 -29.7,29.64 -29.7,40.76 0,8.89 8.2,25.94 14.1,25.19 7.4,-1.48 25.2,-2.22 43.7,-2.22 17.8,0 36.3,0.74 43.7,2.22 6,0.75 28.2,-16.3 28.2,-25.19 0,-11.12 -33.3,-11.12 -43.7,-40.76 l -106.7,-297.15 c -25.2,1.48 -44.5,2.22 -63,2.22 -18.5,0 -37.1,-0.74 -63.1,-2.22 l -70.4,197.86 c -25.2,-72.63 -69.6,-131.17 -82.2,-197.86 -25.2,1.48 -44.5,2.22 -63,2.22 -18.5,0 -37.1,-0.74 -63,-2.22 l -106.7,297.15" /></g><g
         transform="scale(1.38628)"
         id="g160"><path
           id="path162"
           style="fill:#040606;fill-opacity:1;fill-rule:nonzero;stroke:none"
           d="m 16042.5,2410.12 -52,-72.14 c -18,-25.25 24.6,-29.57 24.6,-40.39 0,-8.66 -10.1,-25.25 -15.9,-24.53 -10.8,1.44 -30.3,2.16 -49.8,2.16 -20.2,0 -39.6,-0.72 -50.5,-2.16 -5.7,-0.72 -13,15.87 -13,24.53 0,10.82 23.9,15.14 41.9,40.39 l 85.1,114.7 -75,109.64 c -17.3,25.25 -41.1,28.86 -41.1,39.68 0,8.65 7.2,24.52 13,24.52 28.8,-1.44 65.6,-2.16 102.4,-2.16 36.8,0 73.6,0.72 101.7,2.16 5.8,0 13.7,-15.87 13.7,-24.52 0,-10.82 -40.4,-14.43 -23.1,-39.68 l 39,-56.98 40.4,56.98 c 18,24.53 -24.6,28.86 -24.6,40.4 0,8.65 10.1,24.52 15.9,23.8 10.8,-1.44 30.3,-2.16 50.5,-2.16 19.5,0 39,0.72 49.8,2.16 5.7,0.72 13.7,-15.15 13.7,-23.8 0,-11.54 -24.5,-15.87 -42.6,-40.4 l -73.6,-99.54 85.2,-124.8 c 17.3,-25.25 41.8,-29.57 41.8,-40.39 0,-8.66 -7.2,-24.53 -13,-24.53 -28.1,1.44 -64.9,2.16 -101.7,2.16 -36.8,0 -73.6,-0.72 -102.4,-2.16 -5.8,0 -13.7,15.87 -13.7,24.53 0,10.82 39.6,15.14 22.3,40.39 l -49,72.14" /></g><g
         transform="scale(1.41665)"
         id="g164"><path
           id="path166"
           style="fill:#040606;fill-opacity:1;fill-rule:nonzero;stroke:none"
           d="m 16300,2546.92 c 0,-7.05 -3.5,-12 -7.1,-18.35 l -155.3,-254.82 c 98.9,0 125.7,85.41 138.4,85.41 8.5,0 24,-7.77 24,-13.41 0,-5.65 -15.5,-90.36 -18.3,-100.95 -4.3,-15.53 -10.6,-20.47 -24.8,-20.47 -48.7,1.41 -93.1,2.12 -137.6,2.12 -44.5,0 -88.9,-0.71 -137.7,-2.12 -6.3,0 -12.7,15.53 -12.7,24 0,7.06 2.9,12.71 6.4,18.36 l 155.3,254.12 c -98.8,0 -115.1,-85.42 -127.8,-85.42 -8.4,0 -24,7.77 -24,13.42 0,5.64 15.6,90.35 18.4,100.94 4.2,16.23 10.6,20.47 24.7,20.47 48.7,-1.41 90.3,-2.12 132.7,-2.12 41.6,0 83.3,0.71 132,2.12 6.3,0 13.4,-14.82 13.4,-23.3" /></g><path
         id="path168"
         style="fill:#040606;fill-opacity:1;fill-rule:nonzero;stroke:none"
         d="m 13548.6,15754.6 c 0,211.1 -17,277.1 -71,277.1 -54,0 -71,-66 -71,-277.1 0,-210 17,-276 71,-276 54,0 71,66 71,276 z m 220,0 c 0,-208 -116,-346 -291,-346 -175,0 -291,138 -291,346 0,209.1 116,347.1 291,347.1 175,0 291,-138 291,-347.1" /><path
         id="path170"
         style="fill:#040606;fill-opacity:1;fill-rule:nonzero;stroke:none"
         d="m 14084.6,15808.7 v -301.1 c 0,-43 65,-40 65,-56 0,-12 -11,-33 -19,-33 -39,2 -91,3 -142,3 -51.1,0 -102.1,-1 -142.1,-3 -8,0 -19,21 -19,33 0,16 65,13 65,56 v 415.1 c 0,43 -78,40 -78,55 0,12 10,33 19,34 102,10 209,90 225.1,90 12,0 33,-11 33,-19 0,-28 -7,-53 -7,-274" /><path
         id="path172"
         style="fill:#040606;fill-opacity:1;fill-rule:nonzero;stroke:none"
         d="m 14461.5,16101.7 c 147,0 248.1,-82 248.1,-202 0,-230.1 -397.1,-370.1 -397.1,-399.1 0,-7 8,-9 39,-9 269,0 326,137 344,137 12,0 34.1,-10 34.1,-18 0,-8 -37.1,-148 -41,-163 -6.1,-23 -15.1,-30 -35.1,-29 -70,2 -149,3 -227,3 -78,0 -156,-1 -227,-3 -8,0 -18,20 -18,32 0,56 307,253 307,436.1 0,62 -38,102 -94,102 -63,0 -117,-50 -151,-134 -1,-2 -4,-4 -8,-4 -11,0 -29,7 -29,14 0,130 115,237 255,237" /><path
         id="path174"
         style="fill:#040606;fill-opacity:1;fill-rule:nonzero;stroke:none"
         d="m 14901.5,15740.6 c -9,-1 -18,6 -18,15 0,37.1 15,65.1 36,63.1 8,0 17,-3 32,-3 80,0 118,40 118,119 0,74 -34,97 -69,97 -99,0 -29,-177 -114,-177 -42,0 -94,36 -94,76 0,98 99,171 234,171 155,0 263,-68 263,-167 0,-70 -51,-127 -152,-147 106,-1 182,-72.1 182,-171.1 0,-118 -126,-208 -292,-208 -168,0 -271,94 -271,247 0,7 18,14 29,14 4,0 7,-2 8,-4 34,-86 90,-140 177,-140 76,0 129,42 129,104 0,71 -53,116 -137,116 -26,0 -47,-2 -61,-5" /><path
         id="path176"
         style="fill:#040606;fill-opacity:1;fill-rule:nonzero;stroke:none"
         d="m 15634.5,15635.6 v 228.1 l -157,-227.1 z m 192,173.1 v -168.1 l 96,6 c 13,1 18,-5 18,-14 0,-39 -10,-77 -39,-75 -20,1 -46,3 -75,4 v -54 c 0,-43 64,-40 64,-56 0,-12 -10,-33 -18,-33 -40,2 -91,3 -142,3 -51,0 -102,-1 -142,-3 -8,0 -19,21 -19,33 0,16 65,13 65,56 v 54 c -84,-3 -204,-12 -239,-14 -28,-2 -38,36 -38,69 0,10 1,13 3,16 67,71 138,148 195,235.1 48,71 67,110 76,136 4,11 -5,15 -5,20 0,17 10,32 19,34 130,34 139,44 154,44 13,0 34,-10 34,-18 0,-28 -7,-54 -7,-275" /><g
         transform="scale(1.01163)"
         id="g178"><path
           id="path180"
           style="fill:#040606;fill-opacity:1;fill-rule:nonzero;stroke:none"
           d="m 16292.1,15887 c 0,-11.9 -18.8,-152.3 -24.7,-169.1 -4,-10.9 -20.8,-18.8 -32.6,-18.8 -18.8,0 -43.5,125.6 -211.6,125.6 -47.4,0 -53.4,-3 -57.3,-23.7 l -32.6,-139.4 c 40.5,20.7 91.9,38.5 124.5,38.5 141.4,0 242.2,-100.8 242.2,-236.2 0,-142.4 -108.7,-232.4 -263.9,-232.4 -138.4,0 -252.1,105.8 -252.1,234.3 0,7 17.8,13.9 28.7,13.9 3.9,0 6.9,-2 7.9,-4 33.6,-84 88,-132.4 154.2,-132.4 72.1,0 107.7,59.3 107.7,139.3 0,86 -39.5,128.6 -97.8,128.6 -45.5,0 -84.1,-25.7 -122.6,-68.3 -7.9,-7.9 -40.5,18.8 -38.6,32.7 19.8,104.8 26.7,208.6 41.6,312.4 1.9,11.8 14.8,22.7 33.6,18.7 24.7,-5.9 56.3,-7.9 96.8,-7.9 63.3,0 148.3,5 265.9,7.9 19.8,1 30.7,-5.9 30.7,-19.7" /></g><g
         transform="scale(1.04899)"
         id="g182"><path
           id="path184"
           style="fill:#040606;fill-opacity:1;fill-rule:nonzero;stroke:none"
           d="m 16040.7,14755.8 c 38.1,0 58.2,33.3 58.2,126.8 0,68.6 -25.8,107.7 -66.8,107.7 -22.9,0 -42.9,-11.4 -57.2,-30.5 1.9,-123.9 14.3,-204 65.8,-204 z m 233.6,450 c 0,-51.5 -69.6,-82 -109.7,-82 -81,0 -10.5,159.2 -106.7,159.2 -63.9,0 -82,-71.5 -83.9,-243.1 39.1,28.6 85.8,48.6 130.6,48.6 110.6,0 195.4,-67.7 195.4,-181.1 0,-129.7 -110.6,-218.4 -253.6,-218.4 -162,0 -277.4,122.1 -277.4,326.1 0,205 115.4,334.6 288.9,334.6 120.1,0 216.4,-62 216.4,-143.9" /></g><g
         transform="scale(1.08126)"
         id="g186"><path
           id="path188"
           style="fill:#040606;fill-opacity:1;fill-rule:nonzero;stroke:none"
           d="m 16004,14262.7 c -29.5,0 -61,-1 -88.7,-2.8 -11.1,0 -23.2,20.3 -23.2,38.8 0,198 320,494.9 320,507.8 0,7.4 -7.4,8.3 -34.2,8.3 -251.5,0 -298.7,-163.7 -316.3,-163.7 -11.1,0 -31.4,9.3 -31.4,16.7 0,7.4 34.2,173.9 37.9,187.7 6.5,21.3 13.9,27.8 32.4,26.9 65.6,-1.9 128.5,-2.8 191.4,-2.8 62.9,0 126.7,0.9 191.5,2.8 7.4,0 16.6,-19.5 16.6,-30.6 0,-83.2 -203.5,-268.2 -203.5,-560.5 0,-11.1 -9.2,-32.3 -17.5,-31.4 -18.5,1.8 -45.4,2.8 -75,2.8" /></g><g
         transform="scale(1.1169)"
         id="g190"><path
           id="path192"
           style="fill:#040606;fill-opacity:1;fill-rule:nonzero;stroke:none"
           d="m 16085.1,14257.9 c 0,62.7 -14.3,93.1 -43.9,93.1 -30.4,0 -44.7,-30.4 -44.7,-93.1 0,-63.6 14.3,-94 44.7,-94 29.6,0 43.9,30.4 43.9,94 z m 17.9,-278.5 c 0,81.5 -20.6,121.8 -61.8,121.8 -42,0 -62.6,-40.3 -62.6,-121.8 0,-80.6 20.6,-120.9 62.6,-120.9 41.2,0 61.8,40.3 61.8,120.9 z m 179.1,283.9 c 0,-67.2 -49.3,-115.5 -127.1,-128.1 89.5,-8.9 145,-67.1 145,-153.1 0,-114.6 -99.4,-186.2 -258.8,-186.2 -159.3,0 -258.7,71.6 -258.7,186.2 0,86 54.6,144.2 144.1,153.1 -77.8,12.6 -126.2,60.9 -126.2,128.1 0,93.1 94,153.1 240.8,153.1 146,0 240.9,-60 240.9,-153.1" /></g><g
         transform="scale(1.1542)"
         id="g194"><path
           id="path196"
           style="fill:#040606;fill-opacity:1;fill-rule:nonzero;stroke:none"
           d="m 16053.1,13889.8 c -32.1,0 -45.9,-30.3 -45.9,-115.2 0,-79.7 16.4,-115.3 53.7,-115.3 20.8,0 39,11.3 52.8,28.6 -0.8,122.2 -6.9,201.9 -60.6,201.9 z m 58.9,-276.4 c -34.7,-25.1 -76.3,-43.3 -117,-43.3 -107.4,0 -177.6,67.6 -177.6,174.2 0,123 94.5,206.2 236.5,206.2 156,0 246.1,-104.9 246.1,-285.1 0,-197.5 -104.8,-315.4 -270.3,-315.4 -164.6,0 -210.6,117 -210.6,144.7 0,7.8 26.9,15.6 32.1,9.5 33.8,-39.8 78,-56.3 126.5,-56.3 51.1,0 123.9,28.6 134.3,165.5" /></g><path
         id="path198"
         style="fill:#040606;fill-opacity:1;fill-rule:nonzero;stroke:none"
         d="m 9106.09,7839.8 c 21.52,-59.1 -59.16,-182.8 -102.17,-177.4 -381.82,32.2 -666.83,0 -844.29,0 -193.6,0 -225.87,43 -279.64,123.6 L 6325.84,10265.2 V 8140.98 c 0,-231.28 322.67,-215.08 322.67,-295.78 0,-64.5 -59.16,-188.2 -102.18,-182.8 -80.67,10.7 -236.62,16.1 -392.57,16.1 -155.95,0 -311.9,-5.4 -397.95,-16.1 -43.02,-5.4 -96.8,112.9 -96.8,177.4 0,86.1 263.51,69.9 263.51,301.18 v 2656.52 c 0,231.3 -263.51,215.2 -263.51,295.8 0,64.5 53.78,193.6 96.8,188.2 387.2,-32.2 849.67,0 1027.14,0 193.59,0 225.86,-43 279.64,-129 L 8611.35,8684.12 v 2113.38 c 0,231.3 -322.66,215.2 -322.66,301.2 0,64.5 59.15,182.8 102.17,177.5 80.67,-10.8 236.62,-16.2 392.58,-16.2 155.94,0 317.27,5.4 397.94,16.2 43.02,5.3 96.79,-113 96.79,-177.5 0,-86 -263.5,-69.9 -263.5,-301.2 V 8565.81 c 0,-344.17 32.26,-564.66 91.42,-726.01" /><path
         id="path200"
         style="fill:#040606;fill-opacity:1;fill-rule:nonzero;stroke:none"
         d="m 10633.3,8979.89 c 0,-709.85 129.1,-1048.69 381.8,-1048.69 252.8,0 381.8,338.84 381.8,1048.69 0,709.86 -129,1048.61 -381.8,1048.61 -252.7,0 -381.8,-338.75 -381.8,-1048.61 z m 1817.7,0 c 0,-795.9 -602.3,-1371.29 -1435.9,-1371.29 -833.5,0 -1435.81,575.39 -1435.81,1371.29 0,795.9 602.31,1371.31 1435.81,1371.31 833.6,0 1435.9,-575.41 1435.9,-1371.31" /><path
         id="path202"
         style="fill:#040606;fill-opacity:1;fill-rule:nonzero;stroke:none"
         d="M 13983.5,10926.6 V 10249 l 774.4,48.4 c 53.8,5.4 75.3,-26.9 75.3,-59.1 0,-166.7 -43,-333.45 -166.7,-322.69 -139.8,10.75 -457.1,16.13 -683,21.5 V 8624.97 c 0,-301.15 96.8,-403.33 252.8,-403.33 150.5,0 306.5,102.18 516.2,344.17 32.3,37.65 199,-10.75 199,-53.78 0,-177.46 -354.9,-903.43 -1145.5,-903.43 -505.5,0 -855,354.9 -855,892.68 V 9748.9 c 0,225.86 -295.8,209.73 -295.8,295.8 0,64.5 59.2,172.1 102.2,177.4 548.5,53.8 962.6,806.7 1043.3,806.7 64.5,0 182.8,-59.2 182.8,-102.2" /><g
         transform="scale(1.11785)"
         id="g204"><path
           id="path206"
           style="fill:#040606;fill-opacity:1;fill-rule:nonzero;stroke:none"
           d="m 16300,7018.1 c 0,-57.7 -48.1,-163.53 -86.6,-163.53 -380,19.24 -505.1,19.24 -890,4.74 -57.7,-4.74 -158.7,48.13 -158.7,86.6 v 264.62 c -245.4,-221.33 -558,-404.09 -745.7,-404.09 -452.2,0 -764.9,322.32 -764.9,803.38 v 952.53 c 0,202.03 -216.5,187.6 -216.5,264.58 0,57.73 52.9,153.94 91.5,158.75 490.6,48.11 812.9,226.11 889.9,226.11 57.8,0 158.8,-52.92 158.8,-91.41 V 7691.6 c 0,-245.34 72.2,-365.62 226.1,-365.62 177.9,0 360.8,245.35 360.8,572.48 v 663.89 c 0,202.03 -216.5,187.6 -216.5,264.58 0,57.73 52.9,153.94 91.4,158.75 490.7,48.11 813,226.11 890,226.11 57.7,0 158.7,-52.92 158.7,-91.41 V 7282.69 c 0,-206.89 211.7,-187.66 211.7,-264.59" /></g><g
         transform="scale(1.22177)"
         id="g208"><path
           id="path210"
           style="fill:#040606;fill-opacity:1;fill-rule:nonzero;stroke:none"
           d="m 15956.6,9440.61 c 52.9,0 145.3,-48.42 145.3,-83.63 V 6663.25 c 0,-189.3 198.1,-176.04 198.1,-246.51 0,-52.79 -48.4,-145.2 -83.7,-145.2 -171.6,8.76 -356.5,13.18 -536.9,13.18 -180.5,0 -360.9,-4.42 -537,-13.18 -35.2,0 -79.2,92.41 -79.2,145.2 0,70.47 193.6,57.21 193.6,246.51 v 2183.16 c 0,184.86 -193.6,171.65 -193.6,242.08 0,52.82 44,140.84 79.2,145.25 449,44.02 743.9,206.87 814.2,206.87" /></g><g
         transform="scale(1.41015)"
         id="g212"><path
           id="path214"
           style="fill:#040606;fill-opacity:1;fill-rule:nonzero;stroke:none"
           d="m 15506.8,6818.02 c 0,190.68 -72.5,293.65 -206,293.65 -160.1,0 -240.2,-175.43 -240.2,-491.95 0,-175.43 22.9,-320.33 64.8,-434.74 209.7,163.97 381.4,339.4 381.4,633.04 z m 667.3,-743.64 c 15.3,15.26 34.3,22.89 53.4,22.89 34.3,0 72.5,-22.89 72.5,-68.65 0,-125.84 -240.3,-633.04 -953.4,-633.04 -598.7,0 -1029.6,404.22 -1029.6,972.44 0,560.6 419.4,972.46 991.5,972.46 491.9,0 869.5,-293.65 869.5,-663.56 0,-404.23 -598.8,-613.98 -964.9,-652.11 95.4,-129.66 240.3,-198.31 415.7,-198.31 202.1,0 411.9,95.34 545.3,247.88" /></g><g
         transform="scale(1.61734)"
         id="g216"><path
           id="path218"
           style="fill:#040606;fill-opacity:1;fill-rule:nonzero;stroke:none"
           d="m 14996.6,6366.9 c 39.9,0 109.7,-36.58 109.7,-63.18 v -179.55 c 169.6,149.63 385.7,275.98 515.4,275.98 312.6,0 528.7,-219.46 528.7,-551.95 v -814.63 c 0,-143 149.6,-132.98 149.6,-186.22 0,-39.88 -36.5,-109.69 -63.2,-109.69 -129.6,6.62 -269.3,9.96 -405.6,9.96 -136.3,0 -272.7,-3.34 -405.7,-9.96 -26.5,0 -59.8,69.81 -59.8,109.69 0,53.24 146.3,43.22 146.3,186.22 v 758.1 c 0,169.57 -49.9,249.38 -156.3,249.38 -123,0 -249.4,-236.08 -249.4,-462.18 v -545.3 c 0,-143 149.6,-132.98 149.6,-186.22 0,-39.88 -36.5,-109.69 -63.1,-109.69 -129.7,6.62 -269.3,9.96 -405.7,9.96 -136.3,0 -272.6,-3.34 -405.6,-9.96 -26.6,0 -59.9,69.81 -59.9,109.69 0,53.24 146.3,43.22 146.3,186.22 v 884.45 c 0,139.65 -146.3,129.67 -146.3,182.88 0,39.9 33.3,106.39 59.9,109.72 339.1,33.25 561.9,156.28 615.1,156.28" /></g></g></g></svg>