<?xml version="1.0" encoding="utf-8"?>
<!-- Generator: Adobe Illustrator 27.5.0, SVG Export Plug-In . SVG Version: 6.00 Build 0)  -->
<svg version="1.1" xmlns="http://www.w3.org/2000/svg" xmlns:xlink="http://www.w3.org/1999/xlink" x="0px" y="0px"
	 viewBox="0 0 500 500" style="enable-background:new 0 0 500 500;" xml:space="preserve">
<g id="Background">
	<rect style="fill:#FFFFFF;" width="500" height="500"/>
</g>
<g id="Objects">
	<g>
		<g>
			<g>
				<path style="fill:#0796AD;" d="M465.433,227.277c-6.412,0-12.218,2.428-15.467,6.095c-3.248-3.667-8.969-6.095-15.381-6.095
					s-12.09,2.428-15.338,6.095c-3.248-3.667-8.904-6.095-15.317-6.095c-6.63,0-12.443,2.594-15.631,6.471
					c-3.189-3.877-8.996-6.471-15.626-6.471c-6.412,0-12.05,2.428-15.298,6.095c-3.248-3.667-8.884-6.095-15.297-6.095
					c-6.412,0-12.048,2.428-15.296,6.095c-3.248-3.667-8.883-6.095-15.296-6.095s-12.047,2.428-15.295,6.095
					c-3.248-3.667-8.883-6.095-15.295-6.095s-12.047,2.428-15.295,6.095c-3.248-3.667-8.883-6.095-15.295-6.095
					c-6.412,0-12.047,2.428-15.295,6.095c-3.248-3.667-8.883-6.095-15.295-6.095c-6.412,0-12.047,2.428-15.295,6.095
					c-3.248-3.667-8.883-6.095-15.295-6.095c-6.412,0-12.047,2.428-15.295,6.095c-3.248-3.667-8.883-6.095-15.295-6.095
					c-6.63,0-12.432,2.594-15.621,6.471c-3.189-3.877-8.991-6.471-15.621-6.471c-6.412,0-12.047,2.428-15.295,6.095
					c-3.248-3.667-8.883-6.095-15.295-6.095s-12.047,2.428-15.295,6.095c-3.248-3.667-8.883-6.095-15.295-6.095
					c-6.412,0-12.047,2.428-15.295,6.095c-3.248-3.667-8.532-6.095-14.944-6.095c-10.065,0-17.873,5.976-17.873,13.348V252h466
					v-11.374C484,233.254,475.498,227.277,465.433,227.277z"/>
				<path style="fill:#09B4C6;" d="M465.433,231.207c-6.412,0-12.218,2.428-15.467,6.095c-3.248-3.667-8.969-6.095-15.381-6.095
					s-12.09,2.428-15.338,6.095c-3.248-3.667-8.904-6.095-15.317-6.095c-6.63,0-12.443,2.594-15.631,6.471
					c-3.189-3.877-8.996-6.471-15.626-6.471c-6.412,0-12.05,2.428-15.298,6.095c-3.248-3.667-8.884-6.095-15.297-6.095
					c-6.412,0-12.048,2.428-15.296,6.095c-3.248-3.667-8.883-6.095-15.296-6.095s-12.047,2.428-15.295,6.095
					c-3.248-3.667-8.883-6.095-15.295-6.095s-12.047,2.428-15.295,6.095c-3.248-3.667-8.883-6.095-15.295-6.095
					c-6.412,0-12.047,2.428-15.295,6.095c-3.248-3.667-8.883-6.095-15.295-6.095c-6.412,0-12.047,2.428-15.295,6.095
					c-3.248-3.667-8.883-6.095-15.295-6.095c-6.412,0-12.047,2.428-15.295,6.095c-3.248-3.667-8.883-6.095-15.295-6.095
					c-6.63,0-12.432,2.594-15.621,6.471c-3.189-3.877-8.991-6.471-15.621-6.471c-6.412,0-12.047,2.428-15.295,6.095
					c-3.248-3.667-8.883-6.095-15.295-6.095s-12.047,2.428-15.295,6.095c-3.248-3.667-8.883-6.095-15.295-6.095
					c-6.412,0-12.047,2.428-15.295,6.095c-3.248-3.667-8.532-6.095-14.944-6.095c-10.065,0-17.873,5.976-17.873,13.348V255h466
					v-10.445C484,237.183,475.498,231.207,465.433,231.207z"/>
				<path style="fill:#07D5E0;" d="M465.433,235.806c-6.412,0-12.218,2.428-15.467,6.095c-3.248-3.667-8.969-6.095-15.381-6.095
					s-12.09,2.428-15.338,6.095c-3.248-3.667-8.904-6.095-15.317-6.095c-6.63,0-12.443,2.594-15.631,6.471
					c-3.189-3.877-8.996-6.471-15.626-6.471c-6.412,0-12.05,2.428-15.298,6.095c-3.248-3.667-8.884-6.095-15.297-6.095
					c-6.412,0-12.048,2.428-15.296,6.095c-3.248-3.667-8.883-6.095-15.296-6.095s-12.047,2.428-15.295,6.095
					c-3.248-3.667-8.883-6.095-15.295-6.095s-12.047,2.428-15.295,6.095c-3.248-3.667-8.883-6.095-15.295-6.095
					c-6.412,0-12.047,2.428-15.295,6.095c-3.248-3.667-8.883-6.095-15.295-6.095c-6.412,0-12.047,2.428-15.295,6.095
					c-3.248-3.667-8.883-6.095-15.295-6.095c-6.412,0-12.047,2.428-15.295,6.095c-3.248-3.667-8.883-6.095-15.295-6.095
					c-6.63,0-12.432,2.594-15.621,6.471c-3.189-3.877-8.991-6.471-15.621-6.471c-6.412,0-12.047,2.428-15.295,6.095
					c-3.248-3.667-8.883-6.095-15.295-6.095s-12.047,2.428-15.295,6.095c-3.248-3.667-8.883-6.095-15.295-6.095
					c-6.412,0-12.047,2.428-15.295,6.095c-3.248-3.667-8.532-6.095-14.944-6.095c-10.065,0-17.873,5.976-17.873,13.348V259h466
					v-9.846C484,241.782,475.498,235.806,465.433,235.806z"/>
			</g>
			<path style="fill:#0F7A93;" d="M465.046,158.944c-9.47-10.622-19.7-1.408-19.7-1.408s9.486,0.512,10.254,8.062
				c0.005,0.054,0.011,0.108,0.016,0.162c1.022,10.893-13.68,14.889-18.731,5.184c-0.409-0.786-0.904-1.535-1.519-2.225
				c-5.325-5.972-10.932-0.777-10.932-0.777s5.334,0.316,5.765,4.562c0.017,0.164,0.031,0.334,0.041,0.509
				c0.634,10.903-15.434,12.733-17.561,2.021c-1.076-5.419-1.892-11.497-5.987-16.091c-9.47-10.622-19.7-1.408-19.7-1.408
				s9.486,0.512,10.254,8.062c0.007,0.073,0.014,0.147,0.021,0.221c0.986,10.839-13.615,14.786-18.616,5.119
				c-0.405-0.783-0.898-1.53-1.511-2.219c-5.325-5.972-10.804-0.777-10.804-0.777s5.334,0.316,5.765,4.562
				c0.017,0.165,0.031,0.336,0.041,0.512c0.64,11.055-15.649,12.909-17.811,2.048c-1.08-5.426-1.891-11.518-5.995-16.121
				c-9.47-10.622-19.699-1.408-19.699-1.408s9.486,0.512,10.254,8.062c0.005,0.053,0.011,0.107,0.016,0.161
				c0.974,10.385-13.282,14.613-18.017,5.318c-0.425-0.834-0.943-1.629-1.593-2.358c-5.325-5.972-11.06-0.777-11.06-0.777
				s5.334,0.316,5.765,4.562c0.017,0.166,0.031,0.338,0.041,0.516c0.647,11.207-15.865,13.085-18.06,2.076
				c-1.083-5.434-1.89-11.54-6.001-16.152c-9.47-10.622-19.699-1.408-19.699-1.408s9.486,0.512,10.253,8.062
				c0.008,0.079,0.016,0.159,0.023,0.239c0.941,10.458-13.102,14.327-18.005,5.04c-0.402-0.761-0.886-1.488-1.484-2.158
				c-5.325-5.972-10.932-0.777-10.932-0.777s5.334,0.316,5.765,4.562c0.017,0.167,0.031,0.34,0.041,0.519
				c0.652,11.359-16.082,13.259-18.31,2.101c-1.086-5.441-1.889-11.561-6.008-16.181c-9.47-10.622-19.7-1.408-19.7-1.408
				s9.486,0.512,10.254,8.062c0.01,0.1,0.02,0.201,0.029,0.303c0.904,10.402-13.039,14.224-17.887,4.977
				c-0.399-0.761-0.882-1.488-1.48-2.158c-5.324-5.972-10.804-0.777-10.804-0.777s5.334,0.316,5.765,4.562
				c0.017,0.168,0.031,0.342,0.041,0.522c0.657,11.511-16.299,13.432-18.56,2.126c-1.09-5.448-1.888-11.581-6.014-16.209
				c-9.47-10.622-19.7-1.408-19.7-1.408s9.486,0.512,10.254,8.062c0.005,0.053,0.011,0.106,0.016,0.159
				c0.937,9.978-12.662,14.033-17.33,5.165c-0.409-0.778-0.902-1.519-1.512-2.202c-5.325-5.972-11.06-0.777-11.06-0.777
				s5.334,0.316,5.765,4.562c0.017,0.169,0.031,0.344,0.042,0.525c0.662,11.663-16.516,13.606-18.81,2.152
				c-1.093-5.455-1.887-11.601-6.02-16.238c-9.47-10.622-19.7-1.408-19.7-1.408s9.486,0.512,10.254,8.062
				c0.005,0.053,0.01,0.106,0.015,0.159c0.933,9.931-12.572,13.927-17.236,5.11c-0.401-0.758-0.883-1.48-1.478-2.148
				c-5.325-5.972-10.932-0.777-10.932-0.777s5.334,0.316,5.765,4.562c0.192,1.891,0.001,4.62-1.638,7.066
				c-4.656,6.949-15.527,4.521-17.238-3.667c-1.177-5.629-1.851-12.118-6.168-16.96c-9.47-10.622-19.7-1.408-19.7-1.408
				s9.486,0.512,10.254,8.062c0.768,7.55-1.888,22.523-29.401,22.523l0.064,7.678h58.355h58.355h58.355h58.355h58.355h58.355h58.355
				h58.355v-7.678C466.445,188.122,474.516,169.566,465.046,158.944z"/>
			<path style="fill:#0F7A93;" d="M485.504,97.308c-0.971-8.913-12.844-10.096-18.783-6.129c-5.041,3.367-9.85,13.761-23.56,21.984
				c-2.765,1.658-6.426,2.838-8.501,2.838h-0.012c-12.225,0-15.375-17.602-7.562-19.947c8.216-2.465,8.09,8.3,8.09,8.3
				c1.815-0.826,3.951-3.888,3.605-7.07c-0.971-8.913-12.844-10.084-18.783-6.117c-5.041,3.367-9.849,13.767-23.56,21.99
				c-2.765,1.658-6.425,2.844-8.501,2.844h-0.012c-12.225,0-15.375-17.602-7.562-19.947c8.216-2.465,8.09,8.3,8.09,8.3
				c1.815-0.826,3.951-3.888,3.605-7.07c-0.971-8.913-12.844-10.084-18.783-6.117c-5.041,3.367-9.85,13.767-23.56,21.99
				c-2.765,1.658-6.426,2.844-8.501,2.844h-0.012c-12.225,0-15.375-17.602-7.562-19.947c8.216-2.465,8.09,8.3,8.09,8.3
				c1.815-0.826,3.951-3.888,3.605-7.07c-0.97-8.913-12.844-10.084-18.783-6.117c-5.041,3.367-9.849,13.767-23.559,21.99
				c-2.765,1.658-6.426,2.844-8.501,2.844h-0.012c-12.225,0-15.375-17.602-7.562-19.947c8.216-2.465,8.09,8.3,8.09,8.3
				c1.815-0.826,3.951-3.888,3.605-7.07c-0.971-8.913-12.844-10.084-18.783-6.117c-5.041,3.367-9.85,13.767-23.56,21.99
				c-2.765,1.658-6.426,2.844-8.501,2.844h-0.012c-12.225,0-15.375-17.602-7.562-19.947c8.216-2.465,8.09,8.3,8.09,8.3
				c1.815-0.826,3.951-3.888,3.605-7.07c-0.971-8.913-12.844-10.084-18.783-6.117c-5.041,3.367-9.849,13.767-23.559,21.99
				c-2.765,1.658-6.426,2.844-8.501,2.844h-0.012c-12.225,0-15.375-17.602-7.562-19.947c8.216-2.465,8.09,8.3,8.09,8.3
				c1.815-0.826,3.951-3.888,3.605-7.07c-0.97-8.913-12.844-10.084-18.783-6.117c-5.041,3.367-9.849,13.767-23.559,21.99
				c-2.765,1.658-6.426,2.844-8.501,2.844h-0.012c-12.225,0-15.375-17.602-7.562-19.947c8.216-2.465,8.09,8.3,8.09,8.3
				c1.815-0.826,3.951-3.888,3.605-7.07c-0.971-8.913-12.844-10.084-18.783-6.117c-5.041,3.367-9.849,13.767-23.559,21.99
				c-2.765,1.658-6.425,2.844-8.501,2.844h-0.012c-12.225,0-15.375-17.602-7.562-19.947c8.216-2.465,8.09,8.3,8.09,8.3
				c1.815-0.826,3.951-3.888,3.605-7.07c-0.97-8.913-12.844-10.084-18.783-6.117c-5.041,3.367-9.849,13.767-23.56,21.99
				c-2.765,1.658-6.425,2.844-8.501,2.844h-0.012c-12.225,0-15.375-17.602-7.562-19.947c8.216-2.465,8.09,8.3,8.09,8.3
				c1.815-0.826,3.951-3.888,3.605-7.07c-0.97-8.913-12.844-10.084-18.783-6.117c-5.041,3.367-9.849,13.767-23.559,21.99
				c-2.765,1.658-6.425,2.844-8.501,2.844H15v7h45.863h46.723h46.723h46.723h46.723h46.723h46.723h46.723h46.723H482v-6.808
				c-13,0-15.689-17.698-7.876-20.043c8.216-2.466,7.932,8.252,7.932,8.252C483.871,103.575,485.851,100.49,485.504,97.308z"/>
			<g>
				<g>
					<path style="fill:#10B0C1;" d="M486,373.129c-4,0-8.735,1.986-12.341,5.445c-4.548,4.363-10.384,4.311-14.932-0.052
						c-3.606-3.459-7.818-5.522-12.406-5.522h-0.041c-4.437,0-8.583,1.922-12.111,5.175c-4.596,4.238-10.289,4.218-14.884-0.02
						c-3.528-3.253-7.674-5.155-12.111-5.155h-0.042c-4.437,0-8.583,1.922-12.111,5.175c-4.596,4.238-10.288,4.218-14.884-0.02
						c-3.528-3.253-7.674-5.155-12.111-5.155h-0.042c-4.437,0-8.583,1.922-12.111,5.175c-4.596,4.238-10.288,4.218-14.884-0.02
						c-3.528-3.253-7.674-5.155-12.111-5.155h-0.042c-4.437,0-8.583,1.922-12.111,5.175c-4.595,4.238-10.288,4.218-14.884-0.02
						c-3.528-3.253-7.674-5.155-12.111-5.155h-0.042c-4.437,0-8.583,1.922-12.111,5.175c-4.543,4.189-10.341,4.169-14.884-0.02
						c-3.528-3.253-7.674-5.155-12.111-5.155h-0.042c-4.437,0-8.583,1.922-12.111,5.175c-4.596,4.238-10.288,4.218-14.884-0.02
						c-3.528-3.253-7.674-5.155-12.111-5.155h-0.042c-4.437,0-8.583,1.922-12.111,5.175c-4.543,4.189-10.341,4.169-14.884-0.02
						c-3.528-3.253-7.674-5.155-12.111-5.155h-0.041c-4.588,0-8.866,2.051-12.472,5.51c-4.548,4.363-10.449,4.344-14.997-0.02
						c-3.606-3.459-7.883-5.49-12.472-5.49h-0.041c-4.437,0-8.583,1.922-12.111,5.175c-4.596,4.238-10.289,4.218-14.884-0.02
						c-3.528-3.253-7.674-5.155-12.111-5.155h-0.042c-4.437,0-8.583,1.922-12.111,5.175c-4.596,4.238-10.288,4.218-14.884-0.02
						C62.59,374.902,58.444,373,54.007,373h-0.042c-4.437,0-8.583,1.922-12.111,5.175c-4.536,4.182-9.73,4.409-14.242,0.167
						C24.101,375.04,20,373.133,16,373.08v7.464c4,0.053,7.978,1.915,11.455,5.127c4.588,4.238,10.038,4.245,14.627,0.009
						c3.536-3.264,7.574-5.146,12.023-5.146c4.445,0,8.539,1.878,12.073,5.137c4.596,4.237,10.259,4.237,14.855,0
						c3.534-3.258,7.672-5.137,12.117-5.137c4.445,0,8.591,1.878,12.124,5.137c4.596,4.237,10.285,4.237,14.881,0
						c3.534-3.258,7.685-5.137,12.13-5.137c4.596,0,8.88,2.007,12.491,5.471c4.548,4.364,10.448,4.364,14.997,0
						c3.611-3.464,7.896-5.471,12.492-5.471c4.445,0,8.598,1.878,12.132,5.137c4.543,4.189,10.341,4.189,14.884,0
						c3.534-3.258,7.687-5.137,12.132-5.137c4.445,0,8.598,1.878,12.132,5.137c4.596,4.237,10.289,4.237,14.884,0
						c3.534-3.258,7.687-5.137,12.132-5.137c4.445,0,8.598,1.878,12.132,5.137c4.543,4.189,10.341,4.189,14.884,0
						c3.534-3.258,7.687-5.137,12.132-5.137c4.445,0,8.598,1.878,12.132,5.137c4.543,4.189,10.341,4.189,14.884,0
						c3.534-3.258,7.687-5.137,12.132-5.137c4.445,0,8.598,1.878,12.132,5.137c4.596,4.237,10.289,4.237,14.884,0
						c3.534-3.258,7.687-5.137,12.132-5.137c4.445,0,8.598,1.878,12.132,5.137c4.596,4.237,10.288,4.237,14.884,0
						c3.534-3.258,7.687-5.137,12.132-5.137c4.445,0,8.598,1.878,12.132,5.137c4.596,4.238,10.289,4.238,14.884,0
						c3.534-3.258,7.687-5.137,12.132-5.137c4.596,0,8.881,2.007,12.492,5.471c4.548,4.364,10.318,4.364,14.866,0
						c3.575-3.429,8.341-5.423,12.341-5.463V373.129z"/>
				</g>
				<g>
					<path style="fill:#15DBE5;" d="M486,364.609c-4,0-8.735,1.986-12.341,5.445c-4.548,4.363-10.384,4.572-14.932,0.208
						c-3.606-3.459-7.818-5.262-12.406-5.262h-0.041c-4.437,0-8.583,1.662-12.111,4.915c-4.596,4.237-10.289,4.348-14.884,0.11
						c-3.528-3.253-7.674-5.025-12.111-5.025h-0.042c-4.437,0-8.583,1.662-12.111,4.915c-4.596,4.237-10.288,4.348-14.884,0.11
						c-3.528-3.253-7.674-5.026-12.111-5.026h-0.042c-4.437,0-8.583,1.662-12.111,4.915c-4.596,4.237-10.288,4.348-14.884,0.11
						c-3.528-3.253-7.674-5.025-12.111-5.025h-0.042c-4.437,0-8.583,1.662-12.111,4.915c-4.595,4.237-10.288,4.348-14.884,0.11
						c-3.528-3.253-7.674-5.025-12.111-5.025h-0.042c-4.437,0-8.583,1.662-12.111,4.915c-4.543,4.189-10.341,4.299-14.884,0.11
						c-3.528-3.253-7.674-5.025-12.111-5.025h-0.042c-4.437,0-8.583,1.662-12.111,4.915c-4.596,4.237-10.288,4.348-14.884,0.11
						c-3.528-3.253-7.674-5.025-12.111-5.025h-0.042c-4.437,0-8.583,1.662-12.111,4.915c-4.543,4.189-10.341,4.299-14.884,0.11
						c-3.528-3.253-7.674-5.025-12.111-5.025h-0.041c-4.588,0-8.866,1.79-12.472,5.25c-4.548,4.364-10.449,4.474-14.997,0.11
						c-3.606-3.459-7.883-5.36-12.472-5.36h-0.041c-4.437,0-8.583,1.662-12.111,4.915c-4.596,4.237-10.289,4.348-14.884,0.11
						c-3.528-3.253-7.674-5.025-12.111-5.025h-0.042c-4.437,0-8.583,1.662-12.111,4.915c-4.596,4.237-10.288,4.348-14.884,0.11
						C62.59,366.772,58.444,365,54.007,365h-0.042c-4.437,0-8.583,1.662-12.111,4.915c-4.536,4.182-9.73,4.279-14.242,0.036
						C24.101,366.65,20,364.613,16,364.56v7.464c4,0.053,7.978,1.915,11.455,5.127c4.588,4.238,10.038,4.245,14.627,0.009
						c3.536-3.264,7.574-5.146,12.023-5.146c4.445,0,8.539,1.878,12.073,5.137c4.596,4.237,10.259,4.237,14.855,0
						c3.534-3.258,7.672-5.137,12.117-5.137c4.445,0,8.591,1.878,12.124,5.137c4.596,4.237,10.285,4.237,14.881,0
						c3.534-3.258,7.685-5.137,12.13-5.137c4.596,0,8.88,2.007,12.491,5.471c4.548,4.363,10.448,4.363,14.997,0
						c3.611-3.464,7.896-5.471,12.492-5.471c4.445,0,8.598,1.878,12.132,5.137c4.543,4.189,10.341,4.189,14.884,0
						c3.534-3.258,7.687-5.137,12.132-5.137c4.445,0,8.598,1.878,12.132,5.137c4.596,4.237,10.289,4.237,14.884,0
						c3.534-3.258,7.687-5.137,12.132-5.137c4.445,0,8.598,1.878,12.132,5.137c4.543,4.189,10.341,4.189,14.884,0
						c3.534-3.258,7.687-5.137,12.132-5.137c4.445,0,8.598,1.878,12.132,5.137c4.543,4.189,10.341,4.189,14.884,0
						c3.534-3.258,7.687-5.137,12.132-5.137c4.445,0,8.598,1.878,12.132,5.137c4.596,4.237,10.289,4.237,14.884,0
						c3.534-3.258,7.687-5.137,12.132-5.137c4.445,0,8.598,1.878,12.132,5.137c4.596,4.237,10.288,4.237,14.884,0
						c3.534-3.258,7.687-5.137,12.132-5.137c4.445,0,8.598,1.878,12.132,5.137c4.596,4.238,10.289,4.238,14.884,0
						c3.534-3.259,7.687-5.137,12.132-5.137c4.596,0,8.881,2.007,12.492,5.471c4.548,4.364,10.318,4.364,14.866,0
						c3.575-3.429,8.341-5.423,12.341-5.464V364.609z"/>
				</g>
				<g>
					<path style="fill:#0B8AAD;" d="M486,381.649c-4,0-8.735,1.986-12.341,5.445c-4.548,4.363-10.384,4.551-14.932,0.188
						c-3.606-3.459-7.818-5.282-12.406-5.282h-0.041c-4.437,0-8.583,1.682-12.111,4.935c-4.596,4.238-10.289,4.338-14.884,0.1
						c-3.528-3.253-7.674-5.035-12.111-5.035h-0.042c-4.437,0-8.583,1.682-12.111,4.935c-4.596,4.237-10.288,4.338-14.884,0.1
						c-3.528-3.253-7.674-5.036-12.111-5.036h-0.042c-4.437,0-8.583,1.682-12.111,4.935c-4.596,4.237-10.288,4.337-14.884,0.1
						c-3.528-3.253-7.674-5.035-12.111-5.035h-0.042c-4.437,0-8.583,1.682-12.111,4.935c-4.595,4.238-10.288,4.338-14.884,0.1
						c-3.528-3.253-7.674-5.035-12.111-5.035h-0.042c-4.437,0-8.583,1.682-12.111,4.935c-4.543,4.189-10.341,4.289-14.884,0.1
						c-3.528-3.253-7.674-5.035-12.111-5.035h-0.042c-4.437,0-8.583,1.682-12.111,4.935c-4.596,4.237-10.288,4.337-14.884,0.1
						c-3.528-3.253-7.674-5.035-12.111-5.035h-0.042c-4.437,0-8.583,1.682-12.111,4.935c-4.543,4.189-10.341,4.289-14.884,0.1
						c-3.528-3.253-7.674-5.035-12.111-5.035h-0.041c-4.588,0-8.866,1.811-12.472,5.27c-4.548,4.364-10.449,4.464-14.997,0.1
						c-3.606-3.459-7.883-5.37-12.472-5.37h-0.041c-4.437,0-8.583,1.682-12.111,4.935c-4.596,4.238-10.289,4.338-14.884,0.1
						c-3.528-3.253-7.674-5.035-12.111-5.035h-0.042c-4.437,0-8.583,1.682-12.111,4.935c-4.596,4.237-10.288,4.338-14.884,0.1
						C62.59,383.782,58.444,382,54.007,382h-0.042c-4.437,0-8.583,1.682-12.111,4.935c-4.536,4.182-9.73,4.289-14.242,0.047
						C24.101,383.68,20,381.653,16,381.6v7.464c4,0.053,7.978,1.915,11.455,5.127c4.588,4.238,10.038,4.245,14.627,0.009
						c3.536-3.264,7.574-5.146,12.023-5.146c4.445,0,8.539,1.878,12.073,5.137c4.596,4.237,10.259,4.237,14.855,0
						c3.534-3.258,7.672-5.137,12.117-5.137c4.445,0,8.591,1.878,12.124,5.137c4.596,4.237,10.285,4.237,14.881,0
						c3.534-3.258,7.685-5.137,12.13-5.137c4.596,0,8.88,2.007,12.491,5.471c4.548,4.364,10.448,4.364,14.997,0
						c3.611-3.464,7.896-5.471,12.492-5.471c4.445,0,8.598,1.878,12.132,5.137c4.543,4.189,10.341,4.189,14.884,0
						c3.534-3.258,7.687-5.137,12.132-5.137c4.445,0,8.598,1.878,12.132,5.137c4.596,4.237,10.289,4.237,14.884,0
						c3.534-3.258,7.687-5.137,12.132-5.137c4.445,0,8.598,1.878,12.132,5.137c4.543,4.189,10.341,4.189,14.884,0
						c3.534-3.258,7.687-5.137,12.132-5.137c4.445,0,8.598,1.878,12.132,5.137c4.543,4.189,10.341,4.189,14.884,0
						c3.534-3.258,7.687-5.137,12.132-5.137c4.445,0,8.598,1.878,12.132,5.137c4.596,4.237,10.289,4.237,14.884,0
						c3.534-3.258,7.687-5.137,12.132-5.137c4.445,0,8.598,1.878,12.132,5.137c4.596,4.237,10.288,4.237,14.884,0
						c3.534-3.258,7.687-5.137,12.132-5.137c4.445,0,8.598,1.878,12.132,5.137c4.596,4.237,10.289,4.238,14.884,0
						c3.534-3.258,7.687-5.137,12.132-5.137c4.596,0,8.881,2.007,12.492,5.471c4.548,4.363,10.318,4.363,14.866,0
						c3.575-3.429,8.341-5.423,12.341-5.463V381.649z"/>
				</g>
			</g>
			<g>
				<path style="fill:#0F7A93;" d="M65.911,437.944c-3.4,4.021-7.804,6.967-13.41,6.967v8.188h23.384H99.27v-8.188
					c-5.606,0-10.01-2.946-13.41-6.967C80.117,431.153,71.653,431.153,65.911,437.944z"/>
				<path style="fill:#0F7A93;" d="M124.286,437.944c-3.4,4.021-7.804,6.967-13.41,6.967v8.188h23.384h23.384v-8.188
					c-5.606,0-10.01-2.946-13.41-6.967C138.493,431.153,130.029,431.153,124.286,437.944z"/>
				<path style="fill:#0F7A93;" d="M182.662,437.944c-3.4,4.021-7.804,6.967-13.41,6.967v8.188h23.384h23.384v-8.188
					c-5.606,0-10.01-2.946-13.41-6.967C196.868,431.153,188.404,431.153,182.662,437.944z"/>
				<path style="fill:#0F7A93;" d="M241.037,437.944c-3.4,4.021-7.804,6.967-13.41,6.967v8.188h23.384h23.384v-8.188
					c-5.606,0-10.01-2.946-13.41-6.967C255.244,431.153,246.78,431.153,241.037,437.944z"/>
				<path style="fill:#0F7A93;" d="M299.413,437.944c-3.4,4.021-7.804,6.967-13.41,6.967v8.188h23.384h23.384v-8.188
					c-5.606,0-10.01-2.946-13.41-6.967C313.62,431.153,305.155,431.153,299.413,437.944z"/>
				<path style="fill:#0F7A93;" d="M357.788,437.944c-3.4,4.021-7.804,6.967-13.41,6.967v8.188h23.384h23.384v-8.188
					c-5.606,0-10.01-2.946-13.41-6.967C371.995,431.153,363.531,431.153,357.788,437.944z"/>
				<path style="fill:#0F7A93;" d="M416.164,437.944c-3.4,4.021-7.804,6.967-13.41,6.967v8.188h23.384h23.384v-8.188
					c-5.606,0-10.01-2.946-13.41-6.967C430.371,431.153,421.906,431.153,416.164,437.944z"/>
				<path style="fill:#70C4DC;" d="M467.307,442.551c-7.168-8.476-17.71-8.476-24.877,0c-4.244,5.018-9.729,8.695-16.727,8.695
					c-6.997,0-12.488-3.677-16.732-8.695c-7.168-8.476-17.73-8.476-24.897,0c-4.244,5.018-9.739,8.695-16.736,8.695
					c-6.997,0-12.493-3.677-16.737-8.695c-7.167-8.476-17.732-8.476-24.9,0c-4.244,5.018-9.74,8.695-16.738,8.695
					s-12.494-3.677-16.738-8.695c-7.168-8.476-17.733-8.476-24.9,0c-4.244,5.018-9.741,8.695-16.738,8.695
					c-6.997,0-12.494-3.677-16.738-8.695c-7.167-8.476-17.732-8.476-24.9,0c-4.244,5.018-9.741,8.695-16.738,8.695
					c-6.997,0-12.494-3.677-16.738-8.695c-7.167-8.476-17.732-8.476-24.9,0c-4.244,5.018-9.741,8.695-16.738,8.695
					c-6.997,0-12.494-3.677-16.738-8.695c-7.167-8.476-17.732-8.476-24.9,0c-4.244,5.018-9.741,8.695-16.738,8.695
					c-6.997,0-12.494-3.677-16.738-8.695c-7.167-8.476-17.276-8.476-24.443,0C30.037,447.569,25,451.246,18,451.246V462h28.274
					h29.188h29.188h29.188h29.188h29.188H221.4h29.188h29.188h29.188h29.188h29.188h29.188h29.188h29.188H484v-10.754
					C478,451.246,471.551,447.569,467.307,442.551z"/>
				<path style="fill:#09B4C6;" d="M467.307,447.572c-7.168-8.476-17.71-8.476-24.877,0c-4.244,5.018-9.729,8.696-16.727,8.696
					c-6.997,0-12.488-3.677-16.732-8.696c-7.168-8.476-17.73-8.476-24.897,0c-4.244,5.018-9.739,8.696-16.736,8.696
					c-6.997,0-12.493-3.677-16.737-8.696c-7.167-8.476-17.732-8.476-24.9,0c-4.244,5.018-9.74,8.696-16.738,8.696
					s-12.494-3.677-16.738-8.696c-7.168-8.476-17.733-8.476-24.9,0c-4.244,5.018-9.741,8.696-16.738,8.696
					c-6.997,0-12.494-3.677-16.738-8.696c-7.167-8.476-17.732-8.476-24.9,0c-4.244,5.018-9.741,8.696-16.738,8.696
					c-6.997,0-12.494-3.677-16.738-8.696c-7.167-8.476-17.732-8.476-24.9,0c-4.244,5.018-9.741,8.696-16.738,8.696
					c-6.997,0-12.494-3.677-16.738-8.696c-7.167-8.476-17.732-8.476-24.9,0c-4.244,5.018-9.741,8.696-16.738,8.696
					c-6.997,0-12.494-3.677-16.738-8.696c-7.167-8.476-17.276-8.476-24.443,0C30.037,452.59,25,456.267,18,456.267V467h28.274
					h29.188h29.188h29.188h29.188h29.188H221.4h29.188h29.188h29.188h29.188h29.188h29.188h29.188h29.188H484v-10.733
					C478,456.267,471.551,452.59,467.307,447.572z"/>
			</g>
			<g>
				<path style="fill:#045A68;" d="M451,317.053v0.005v-0.088c-17,0-24.337-9.021-28.816-17.12c-2.319-4.193-6.99-4.193-9.309,0
					C408.396,307.949,400,317.059,384,317.059v-0.088c-16,0-24.274-9.021-28.753-17.12c-2.319-4.193-7.022-4.193-9.34,0
					C341.427,307.949,334,317.059,317,317.059v-0.088c-16,0-23.947-9.021-28.426-17.12c-2.319-4.193-6.685-4.193-9.004,0
					c-4.479,8.099-12.57,17.208-28.57,17.208v-0.088c-16,0-24.384-9.021-28.863-17.12c-2.319-4.193-6.967-4.193-9.286,0
					C208.372,307.949,200,317.059,184,317.059v-0.088c-15,0-24.321-9.021-28.8-17.12c-2.319-4.193-5.998-4.193-8.317,0
					C142.404,307.949,134,317.059,119,317.059v-0.088c-18,0-25.258-9.021-29.737-17.12c-2.319-4.193-7.03-4.193-9.348,0
					C75.435,307.949,66,317.059,51,317.059V328h32.696h33.222h33.652h33.09h33.785h32.957h33.917h32.825h33.52h33.222h33.652h33.09
					H451V317.053z"/>
				<path style="fill:#0F7A93;" d="M484,317.059v-0.088c-15,0-23.821-9.021-28.3-17.12c-2.319-4.193-6.749-4.193-9.067,0
					C442.154,307.949,434,317.059,418,317.059v-0.088c-17,0-24.258-9.021-28.737-17.12c-2.319-4.193-7.03-4.193-9.349,0
					C375.435,307.949,367,317.059,351,317.059v-0.088c-16,0-24.195-9.021-28.674-17.12c-2.319-4.193-7.061-4.193-9.38,0
					C308.467,307.949,301,317.059,284,317.059v-0.088c-16,0-23.867-9.021-28.346-17.12c-2.319-4.193-6.225-4.193-8.544,0
					c-4.479,8.099-12.11,17.208-28.11,17.208v-0.088c-16,0-24.804-9.021-29.284-17.12c-2.319-4.193-7.256-4.193-9.575,0
					C175.662,307.949,167,317.059,151,317.059v-0.088c-15,0-24.242-9.021-28.721-17.12c-2.319-4.193-6.038-4.193-8.357,0
					C109.443,307.949,101,317.059,86,317.059v-0.088c-18,0-25.179-9.021-29.658-17.12c-2.319-4.193-7.069-4.193-9.388,0
					C42.475,307.949,34,317.059,18,317.059V328h32.855h33.222h33.652h33.09h33.785h32.957h33.917h32.825h33.52h33.222h33.652h33.09
					h33.785H484V317.059z"/>
			</g>
		</g>
		<text transform="matrix(1 0 0 1 131.3913 57.7784)" style="fill:#0F7A93; font-family:'BebasNeueBook'; font-size:44.1195px;">WAVE COLLECTION</text>
	</g>
</g>
<g id="Designed_by_Freepik">
	<g>
		<g>
			<path style="fill:#002933;" d="M175.869,477.58c-0.14-0.17-0.34-0.25-0.61-0.25c-0.27,0-0.47,0.09-0.62,0.27
				c-0.14,0.191-0.21,0.46-0.21,0.82v2.6c-0.33-0.359-0.67-0.63-1.02-0.81c-0.35-0.17-0.77-0.26-1.28-0.26
				c-0.87,0-1.58,0.31-2.12,0.92c-0.53,0.62-0.8,1.47-0.8,2.57c0,0.52,0.07,1,0.2,1.449c0.14,0.45,0.33,0.841,0.6,1.17
				c0.26,0.33,0.57,0.58,0.93,0.761c0.35,0.18,0.74,0.27,1.16,0.27c0.32,0,0.62-0.05,0.88-0.14c0.27-0.08,0.52-0.21,0.75-0.38
				c0.23-0.17,0.46-0.391,0.7-0.66v0.17c0,0.32,0.08,0.57,0.23,0.75c0.16,0.17,0.36,0.26,0.6,0.26c0.24,0,0.44-0.09,0.6-0.25
				c0.15-0.17,0.23-0.42,0.23-0.76v-7.75C176.089,478,176.019,477.75,175.869,477.58z M174.099,484.75
				c-0.15,0.33-0.35,0.58-0.61,0.74c-0.25,0.16-0.54,0.24-0.84,0.24c-0.31,0-0.59-0.091-0.85-0.261c-0.26-0.17-0.46-0.42-0.61-0.75
				c-0.14-0.34-0.22-0.739-0.22-1.22c0-0.45,0.07-0.85,0.21-1.19c0.14-0.34,0.34-0.6,0.59-0.779c0.25-0.181,0.54-0.28,0.86-0.28
				c0.31,0,0.6,0.09,0.86,0.27c0.26,0.181,0.46,0.44,0.61,0.771c0.16,0.34,0.23,0.74,0.23,1.21
				C174.329,484,174.259,484.41,174.099,484.75z"/>
			<path style="fill:#002933;" d="M182.919,484.67c-0.17,0-0.3,0.04-0.39,0.12c-0.22,0.2-0.4,0.37-0.53,0.49
				c-0.14,0.12-0.29,0.229-0.45,0.34c-0.17,0.1-0.33,0.18-0.51,0.229c-0.17,0.051-0.36,0.07-0.57,0.07c-0.32,0-0.6-0.08-0.86-0.229
				c-0.26-0.15-0.47-0.381-0.63-0.69c-0.16-0.3-0.24-0.66-0.24-1.05h3.44c0.46,0,0.81-0.07,1.07-0.2c0.25-0.13,0.38-0.42,0.38-0.86
				c0-0.479-0.13-0.939-0.37-1.399c-0.24-0.46-0.61-0.84-1.11-1.13c-0.49-0.29-1.08-0.431-1.76-0.431c-0.53,0-1.01,0.08-1.44,0.25
				c-0.44,0.17-0.8,0.42-1.1,0.73c-0.29,0.32-0.52,0.7-0.67,1.149c-0.16,0.44-0.24,0.921-0.24,1.44c0,1.1,0.32,1.98,0.94,2.62
				c0.63,0.64,1.51,0.97,2.64,0.97c0.49,0,0.93-0.07,1.31-0.2c0.38-0.13,0.69-0.29,0.94-0.479c0.25-0.2,0.44-0.4,0.57-0.61
				c0.12-0.22,0.18-0.399,0.18-0.56c0-0.181-0.05-0.32-0.16-0.42C183.239,484.72,183.099,484.67,182.919,484.67z M179.249,481.599
				c0.28-0.3,0.64-0.449,1.08-0.449c0.46,0,0.83,0.149,1.11,0.449c0.28,0.301,0.44,0.75,0.49,1.351h-3.19
				C178.799,482.36,178.969,481.91,179.249,481.599z"/>
			<path style="fill:#002933;" d="M189.919,483.93c-0.18-0.25-0.44-0.47-0.79-0.649c-0.34-0.19-0.79-0.351-1.33-0.48
				c-0.46-0.109-0.82-0.21-1.08-0.28c-0.27-0.079-0.47-0.18-0.63-0.3c-0.15-0.109-0.23-0.27-0.23-0.45c0-0.199,0.1-0.369,0.31-0.51
				c0.22-0.13,0.48-0.2,0.8-0.2c0.31,0,0.55,0.051,0.73,0.16c0.18,0.101,0.34,0.24,0.47,0.41c0.16,0.2,0.31,0.36,0.43,0.46
				c0.13,0.1,0.28,0.16,0.46,0.16c0.25,0,0.45-0.07,0.58-0.2c0.14-0.13,0.2-0.29,0.2-0.49c0-0.19-0.06-0.38-0.19-0.569
				c-0.12-0.19-0.31-0.37-0.55-0.53c-0.24-0.16-0.54-0.28-0.91-0.38c-0.36-0.09-0.77-0.14-1.22-0.14c-0.58,0-1.08,0.09-1.49,0.279
				c-0.41,0.19-0.72,0.44-0.93,0.75c-0.21,0.311-0.31,0.65-0.31,1c0,0.391,0.11,0.73,0.34,1c0.23,0.271,0.53,0.49,0.91,0.65
				c0.38,0.16,0.87,0.32,1.48,0.47c0.53,0.13,0.92,0.27,1.15,0.41c0.24,0.14,0.35,0.37,0.35,0.67c0,0.21-0.11,0.38-0.33,0.54
				c-0.23,0.16-0.52,0.24-0.87,0.24c-0.43,0-0.78-0.08-1.03-0.23c-0.25-0.16-0.46-0.39-0.65-0.71c-0.08-0.16-0.18-0.29-0.28-0.38
				c-0.1-0.09-0.24-0.13-0.42-0.13c-0.21,0-0.39,0.07-0.52,0.2c-0.14,0.14-0.21,0.31-0.21,0.5c0,0.29,0.11,0.58,0.32,0.87
				c0.22,0.29,0.55,0.529,1,0.73c0.45,0.19,0.99,0.29,1.62,0.29c0.66,0,1.22-0.09,1.68-0.27c0.47-0.181,0.82-0.44,1.05-0.79
				c0.24-0.34,0.35-0.761,0.35-1.24C190.179,484.47,190.099,484.18,189.919,483.93z"/>
			<path style="fill:#002933;" d="M192.599,480.21c-0.17-0.18-0.38-0.27-0.64-0.27c-0.26,0-0.47,0.09-0.63,0.27
				c-0.16,0.17-0.24,0.43-0.24,0.78v5.029c0,0.341,0.08,0.601,0.24,0.79c0.16,0.181,0.37,0.28,0.63,0.28c0.26,0,0.47-0.09,0.64-0.27
				c0.17-0.181,0.25-0.45,0.25-0.801v-5.079C192.849,480.63,192.769,480.38,192.599,480.21z M192.579,477.62
				c-0.17-0.14-0.37-0.22-0.6-0.22c-0.24,0-0.44,0.08-0.62,0.25c-0.18,0.159-0.27,0.359-0.27,0.609c0,0.28,0.09,0.49,0.26,0.641
				c0.18,0.149,0.39,0.22,0.63,0.22c0.24,0,0.44-0.07,0.61-0.22c0.17-0.16,0.26-0.37,0.26-0.641
				C192.849,477.98,192.759,477.769,192.579,477.62z"/>
			<path style="fill:#002933;" d="M200.379,480.269c-0.11-0.22-0.34-0.329-0.68-0.329c-0.23,0-0.43,0.09-0.58,0.25
				c-0.15,0.17-0.22,0.409-0.22,0.71v0.239c-0.31-0.409-0.65-0.71-1.02-0.899c-0.36-0.19-0.79-0.29-1.29-0.29
				c-0.42,0-0.8,0.08-1.15,0.229c-0.35,0.141-0.65,0.36-0.92,0.66c-0.26,0.29-0.47,0.65-0.61,1.07c-0.15,0.43-0.22,0.899-0.22,1.43
				c0,0.71,0.12,1.33,0.36,1.87c0.23,0.54,0.57,0.96,1.01,1.26c0.44,0.311,0.95,0.46,1.54,0.46c0.49,0,0.91-0.1,1.27-0.3
				c0.35-0.2,0.66-0.49,0.93-0.86c-0.01,0.57-0.02,0.99-0.04,1.25c-0.01,0.261-0.07,0.5-0.17,0.73c-0.1,0.23-0.28,0.4-0.53,0.53
				c-0.25,0.13-0.6,0.189-1.06,0.189c-0.22,0-0.42-0.02-0.59-0.06c-0.17-0.04-0.32-0.101-0.44-0.19c-0.12-0.08-0.24-0.18-0.34-0.3
				c-0.1-0.12-0.2-0.24-0.29-0.35c-0.19-0.23-0.42-0.34-0.68-0.34c-0.2,0-0.38,0.069-0.52,0.199c-0.15,0.141-0.22,0.311-0.22,0.53
				c0,0.28,0.13,0.55,0.38,0.82c0.26,0.27,0.63,0.489,1.1,0.66c0.48,0.17,1.02,0.25,1.63,0.25c0.66,0,1.21-0.061,1.65-0.2
				c0.45-0.13,0.81-0.33,1.08-0.61c0.28-0.27,0.48-0.62,0.6-1.04c0.12-0.42,0.19-0.92,0.19-1.51v-5.1
				C200.549,480.81,200.489,480.49,200.379,480.269z M198.589,484.68c-0.16,0.311-0.37,0.551-0.63,0.7
				c-0.26,0.16-0.54,0.24-0.83,0.24c-0.49,0-0.9-0.18-1.21-0.55c-0.31-0.36-0.46-0.9-0.46-1.61c0-0.71,0.15-1.25,0.45-1.63
				c0.3-0.38,0.7-0.58,1.21-0.58c0.51,0,0.93,0.2,1.24,0.6c0.32,0.4,0.48,0.96,0.48,1.681
				C198.839,483.98,198.749,484.36,198.589,484.68z"/>
			<path style="fill:#002933;" d="M207.899,481.79c-0.03-0.24-0.11-0.48-0.22-0.691c-0.18-0.369-0.45-0.649-0.82-0.859
				c-0.36-0.2-0.78-0.3-1.24-0.3c-0.48,0-0.9,0.1-1.27,0.29c-0.1,0.05-0.19,0.109-0.29,0.18c-0.25,0.18-0.49,0.42-0.72,0.72v-0.22
				c0-0.21-0.04-0.391-0.11-0.53c-0.08-0.149-0.18-0.26-0.3-0.33c-0.13-0.069-0.27-0.109-0.42-0.109c-0.25,0-0.45,0.079-0.6,0.25
				c-0.15,0.159-0.22,0.409-0.22,0.75v5.079c0,0.341,0.08,0.601,0.25,0.79c0.16,0.181,0.37,0.28,0.62,0.28
				c0.26,0,0.48-0.09,0.64-0.27c0.17-0.181,0.25-0.45,0.25-0.801v-2.199c0-0.721,0.04-1.21,0.13-1.471
				c0.12-0.33,0.31-0.58,0.56-0.77c0.26-0.19,0.55-0.28,0.86-0.28c0.48,0,0.8,0.15,0.96,0.46c0.16,0.31,0.24,0.75,0.24,1.33v2.93
				c0,0.341,0.09,0.601,0.25,0.79c0.16,0.181,0.37,0.28,0.64,0.28c0.25,0,0.46-0.09,0.62-0.27c0.17-0.181,0.25-0.45,0.25-0.801
				v-3.27C207.959,482.36,207.939,482.04,207.899,481.79z"/>
			<path style="fill:#002933;" d="M214.769,484.67c-0.17,0-0.29,0.04-0.38,0.12c-0.22,0.2-0.4,0.37-0.54,0.49
				c-0.14,0.12-0.29,0.229-0.45,0.34c-0.16,0.1-0.33,0.18-0.5,0.229c-0.17,0.051-0.35,0.07-0.55,0.07h-0.01c-0.01,0-0.01,0-0.02,0
				c-0.31,0-0.6-0.08-0.86-0.229c-0.26-0.15-0.47-0.381-0.62-0.69c-0.03-0.06-0.06-0.11-0.08-0.17v-0.01
				c-0.11-0.261-0.16-0.56-0.17-0.87h3.44c0.46,0,0.82-0.07,1.07-0.2c0.25-0.13,0.38-0.42,0.38-0.86c0-0.479-0.12-0.939-0.37-1.399
				c-0.24-0.46-0.61-0.84-1.1-1.13c-0.49-0.29-1.08-0.431-1.77-0.431c-0.53,0-1.01,0.08-1.44,0.25c-0.43,0.17-0.8,0.42-1.09,0.73
				c-0.3,0.32-0.53,0.7-0.68,1.149c-0.15,0.44-0.23,0.921-0.23,1.44c0,1.1,0.31,1.98,0.94,2.62c0.62,0.64,1.5,0.97,2.63,0.97
				c0.49,0,0.93-0.07,1.31-0.2c0.01,0,0.03-0.01,0.04-0.01c0.36-0.13,0.66-0.29,0.91-0.47c0.25-0.2,0.43-0.4,0.56-0.61
				c0.12-0.22,0.19-0.399,0.19-0.56c0-0.181-0.06-0.32-0.17-0.42C215.099,484.72,214.949,484.67,214.769,484.67z M211.109,481.599
				c0.28-0.3,0.64-0.449,1.07-0.449c0.46,0,0.83,0.149,1.11,0.449c0.29,0.301,0.45,0.75,0.49,1.351h-3.19
				C210.649,482.36,210.819,481.91,211.109,481.599z"/>
			<path style="fill:#002933;" d="M222.639,477.58c-0.14-0.17-0.35-0.25-0.61-0.25c-0.271,0-0.48,0.09-0.62,0.27
				c-0.14,0.191-0.22,0.46-0.22,0.82v2.6c-0.33-0.359-0.66-0.63-1.01-0.81c-0.35-0.17-0.78-0.26-1.28-0.26
				c-0.88,0-1.58,0.31-2.12,0.92c-0.54,0.62-0.81,1.47-0.81,2.57c0,0.52,0.07,1,0.21,1.449c0.13,0.45,0.33,0.841,0.59,1.17
				c0.26,0.33,0.57,0.58,0.93,0.761c0.36,0.18,0.75,0.27,1.17,0.27c0.32,0,0.61-0.05,0.88-0.14c0.27-0.08,0.52-0.21,0.75-0.38
				c0.23-0.17,0.46-0.391,0.69-0.66v0.17c0,0.32,0.08,0.57,0.24,0.75c0.16,0.17,0.35,0.26,0.6,0.26c0.24,0,0.44-0.09,0.59-0.25
				c0.16-0.17,0.24-0.42,0.24-0.76v-7.75C222.859,478,222.779,477.75,222.639,477.58z M220.869,484.75
				c-0.15,0.33-0.36,0.58-0.61,0.74c-0.26,0.16-0.54,0.24-0.85,0.24c-0.3,0-0.58-0.091-0.84-0.261c-0.26-0.17-0.46-0.42-0.61-0.75
				c-0.15-0.34-0.22-0.739-0.22-1.22c0-0.45,0.07-0.85,0.21-1.19c0.14-0.34,0.33-0.6,0.59-0.779c0.25-0.181,0.54-0.28,0.86-0.28
				c0.31,0,0.59,0.09,0.85,0.27c0.26,0.181,0.47,0.44,0.62,0.771c0.15,0.34,0.23,0.74,0.23,1.21
				C221.099,484,221.019,484.41,220.869,484.75z"/>
			<path style="fill:#002933;" d="M233.219,481.57c-0.24-0.52-0.58-0.92-1.02-1.2c-0.44-0.28-0.95-0.42-1.54-0.42
				c-0.5,0-0.93,0.1-1.27,0.28c-0.35,0.18-0.68,0.439-1.01,0.789v-2.689c0-0.32-0.08-0.57-0.22-0.74c-0.15-0.18-0.36-0.26-0.63-0.26
				c-0.25,0-0.45,0.09-0.6,0.27c-0.14,0.181-0.21,0.45-0.21,0.811v7.67c0,0.33,0.07,0.58,0.22,0.75c0.15,0.17,0.34,0.26,0.59,0.26
				s0.45-0.09,0.61-0.26c0.16-0.17,0.24-0.42,0.24-0.75v-0.17c0.19,0.22,0.35,0.39,0.46,0.5c0.12,0.109,0.26,0.22,0.43,0.33
				c0.17,0.1,0.37,0.189,0.61,0.25c0.24,0.06,0.49,0.1,0.76,0.1c0.44,0,0.85-0.09,1.22-0.27c0.36-0.181,0.68-0.431,0.93-0.761
				c0.26-0.319,0.46-0.71,0.59-1.149c0.14-0.45,0.2-0.93,0.2-1.47C233.579,482.72,233.459,482.099,233.219,481.57z M231.339,485.15
				c-0.32,0.39-0.7,0.58-1.14,0.58c-0.52,0-0.94-0.19-1.26-0.57c-0.32-0.37-0.48-0.91-0.48-1.61c0-0.47,0.08-0.89,0.23-1.23
				c0.15-0.351,0.35-0.61,0.61-0.79c0.27-0.181,0.56-0.28,0.9-0.28c0.32,0,0.61,0.1,0.85,0.28c0.25,0.18,0.44,0.439,0.57,0.77
				c0.13,0.34,0.2,0.74,0.2,1.2C231.819,484.22,231.659,484.769,231.339,485.15z"/>
			<path style="fill:#002933;" d="M240.009,480.33c-0.07-0.12-0.16-0.21-0.28-0.28c-0.12-0.069-0.25-0.109-0.38-0.109
				c-0.19,0-0.33,0.029-0.43,0.1c-0.1,0.059-0.2,0.19-0.29,0.37c-0.09,0.189-0.19,0.439-0.3,0.77l-1.41,4.021l-1.49-4.33
				c-0.1-0.3-0.21-0.53-0.34-0.69c-0.13-0.16-0.32-0.239-0.57-0.239c-0.15,0-0.29,0.04-0.42,0.119c-0.14,0.07-0.25,0.181-0.32,0.31
				c-0.08,0.12-0.12,0.26-0.12,0.41c0,0.149,0.07,0.37,0.2,0.689l2.16,5.44l-0.16,0.399c-0.12,0.28-0.22,0.5-0.32,0.65
				c-0.09,0.15-0.19,0.25-0.31,0.31c-0.11,0.061-0.27,0.091-0.47,0.091c-0.09,0-0.18-0.011-0.29-0.04
				c-0.09-0.02-0.19-0.04-0.28-0.04c-0.24,0-0.42,0.06-0.54,0.17c-0.13,0.109-0.19,0.26-0.19,0.46c0,0.3,0.13,0.5,0.39,0.62
				c0.26,0.109,0.64,0.16,1.16,0.16c0.521,0,0.94-0.08,1.25-0.24c0.32-0.16,0.57-0.391,0.75-0.69c0.19-0.3,0.39-0.71,0.58-1.24
				l2.3-6c0.05-0.159,0.1-0.31,0.14-0.46c0.039-0.149,0.06-0.27,0.08-0.35C240.109,480.58,240.079,480.45,240.009,480.33z"/>
		</g>
		<g>
			<path style="fill:#002933;" d="M261.319,480.093h0.419v-0.527c0-0.552,0.067-0.987,0.207-1.313
				c0.139-0.324,0.377-0.561,0.71-0.708c0.332-0.147,0.788-0.222,1.367-0.222c1.029,0,1.54,0.249,1.54,0.755
				c0,0.162-0.054,0.302-0.163,0.417c-0.104,0.115-0.232,0.174-0.378,0.174c-0.067,0-0.188-0.013-0.357-0.04
				c-0.161-0.022-0.307-0.038-0.422-0.038c-0.317,0-0.52,0.096-0.614,0.281c-0.086,0.186-0.132,0.453-0.132,0.803v0.418h0.429
				c0.672,0,1.004,0.201,1.004,0.607c0,0.284-0.086,0.468-0.267,0.545c-0.177,0.078-0.423,0.116-0.737,0.116h-0.429v4.656
				c0,0.347-0.082,0.61-0.25,0.792c-0.164,0.185-0.376,0.275-0.639,0.275c-0.249,0-0.455-0.091-0.622-0.275
				c-0.166-0.182-0.247-0.445-0.247-0.792v-4.656h-0.484c-0.263,0-0.462-0.057-0.605-0.178c-0.142-0.115-0.213-0.271-0.213-0.459
				C260.435,480.302,260.73,480.093,261.319,480.093L261.319,480.093z"/>
			<path style="fill:#002933;" d="M267.072,484.549v1.469c0,0.355-0.09,0.623-0.253,0.8c-0.168,0.18-0.379,0.268-0.636,0.268
				c-0.259,0-0.466-0.089-0.628-0.272c-0.16-0.179-0.244-0.444-0.244-0.796v-4.895c0-0.79,0.284-1.186,0.854-1.186
				c0.294,0,0.503,0.092,0.633,0.276c0.128,0.185,0.199,0.457,0.215,0.819c0.208-0.362,0.423-0.634,0.643-0.819
				c0.225-0.185,0.517-0.276,0.888-0.276c0.372,0,0.727,0.092,1.074,0.276c0.349,0.185,0.522,0.432,0.522,0.735
				c0,0.214-0.075,0.394-0.221,0.53c-0.149,0.142-0.308,0.211-0.479,0.211c-0.067,0-0.225-0.043-0.47-0.122
				c-0.247-0.077-0.467-0.117-0.652-0.117c-0.258,0-0.47,0.069-0.632,0.202c-0.164,0.139-0.291,0.337-0.382,0.601
				c-0.088,0.268-0.148,0.587-0.185,0.952C267.088,483.573,267.072,484.021,267.072,484.549L267.072,484.549z"/>
			<path style="fill:#002933;" d="M275.889,484.67c-0.16,0-0.29,0.04-0.38,0.12c-0.22,0.2-0.399,0.37-0.54,0.479
				c-0.14,0.131-0.279,0.24-0.449,0.341c-0.16,0.109-0.33,0.189-0.5,0.23c-0.181,0.06-0.37,0.08-0.58,0.08
				c-0.311,0-0.601-0.08-0.86-0.229c-0.26-0.16-0.47-0.391-0.63-0.69c-0.15-0.3-0.23-0.66-0.24-1.06h3.44
				c0.46,0,0.819-0.061,1.069-0.19c0.25-0.14,0.38-0.42,0.38-0.86c0-0.479-0.12-0.939-0.37-1.409c-0.239-0.461-0.609-0.83-1.1-1.12
				c-0.49-0.29-1.08-0.431-1.77-0.431c-0.53,0-1.011,0.08-1.44,0.25c-0.43,0.17-0.8,0.41-1.09,0.73c-0.3,0.32-0.53,0.7-0.68,1.14
				c-0.16,0.45-0.23,0.931-0.23,1.45c0,1.1,0.31,1.98,0.94,2.62c0.619,0.64,1.5,0.96,2.63,0.96c0.489,0,0.93-0.061,1.31-0.19
				c0.38-0.13,0.7-0.29,0.95-0.479c0.25-0.2,0.44-0.4,0.57-0.62c0.12-0.21,0.18-0.39,0.18-0.55c0-0.181-0.06-0.32-0.17-0.42
				C276.219,484.72,276.069,484.67,275.889,484.67z M272.228,481.599c0.28-0.3,0.641-0.449,1.07-0.449
				c0.471,0,0.83,0.149,1.12,0.449c0.28,0.29,0.44,0.74,0.48,1.341h-3.19C271.77,482.349,271.939,481.91,272.228,481.599z"/>
			<path style="fill:#002933;" d="M283.199,484.67c-0.16,0-0.29,0.04-0.38,0.12c-0.221,0.2-0.4,0.37-0.54,0.479
				c-0.141,0.131-0.28,0.24-0.45,0.341c-0.16,0.109-0.33,0.189-0.51,0.23c-0.17,0.06-0.36,0.08-0.57,0.08
				c-0.31,0-0.6-0.08-0.86-0.229c-0.26-0.16-0.47-0.391-0.619-0.69c-0.16-0.3-0.24-0.66-0.25-1.06h3.44c0.46,0,0.82-0.061,1.07-0.19
				c0.25-0.14,0.38-0.42,0.38-0.86c0-0.479-0.12-0.939-0.37-1.409c-0.24-0.461-0.61-0.83-1.1-1.12c-0.5-0.29-1.08-0.431-1.771-0.431
				c-0.53,0-1.01,0.08-1.44,0.25c-0.439,0.17-0.8,0.41-1.09,0.73c-0.3,0.32-0.529,0.7-0.68,1.14c-0.16,0.45-0.24,0.931-0.24,1.45
				c0,1.1,0.32,1.98,0.95,2.62c0.62,0.64,1.5,0.96,2.63,0.96c0.49,0,0.93-0.061,1.311-0.19c0.38-0.13,0.699-0.29,0.949-0.479
				c0.25-0.2,0.44-0.4,0.56-0.62c0.13-0.21,0.18-0.39,0.18-0.55c0-0.181-0.05-0.32-0.16-0.42
				C283.529,484.72,283.379,484.67,283.199,484.67z M279.529,481.599c0.29-0.3,0.649-0.449,1.08-0.449
				c0.46,0,0.83,0.149,1.119,0.449c0.28,0.29,0.44,0.74,0.481,1.341h-3.19C279.079,482.349,279.249,481.91,279.529,481.599z"/>
			<path style="fill:#002933;" d="M291.509,483.29c-0.02-0.65-0.149-1.21-0.38-1.7c-0.27-0.53-0.63-0.94-1.08-1.22
				c-0.46-0.28-0.96-0.42-1.5-0.42c-0.45,0-0.85,0.1-1.2,0.29c-0.359,0.189-0.71,0.49-1.04,0.899v-0.21
				c0-0.33-0.069-0.569-0.229-0.739c-0.16-0.171-0.36-0.25-0.61-0.25s-0.449,0.079-0.6,0.239c-0.15,0.17-0.22,0.42-0.22,0.761v7.579
				c0,0.391,0.06,0.671,0.159,0.881c0.11,0.19,0.33,0.29,0.66,0.29c0.561,0,0.84-0.391,0.84-1.16v-2.63
				c0.181,0.22,0.36,0.409,0.551,0.569c0.14,0.12,0.279,0.221,0.43,0.311c0.34,0.2,0.76,0.3,1.26,0.3c0.42,0,0.811-0.08,1.17-0.24
				c0.37-0.17,0.681-0.41,0.95-0.71c0.26-0.31,0.47-0.689,0.63-1.14c0.15-0.45,0.221-0.95,0.221-1.49
				C291.52,483.43,291.52,483.36,291.509,483.29z M289.529,484.71c-0.15,0.34-0.34,0.59-0.601,0.76
				c-0.239,0.17-0.52,0.261-0.81,0.261c-0.06,0-0.12,0-0.17-0.021c-0.42-0.03-0.771-0.229-1.06-0.57
				c-0.33-0.38-0.489-0.93-0.489-1.63c0-0.74,0.159-1.3,0.5-1.69c0.329-0.38,0.739-0.57,1.22-0.57c0.31,0,0.59,0.09,0.84,0.27
				c0.25,0.181,0.44,0.431,0.58,0.771c0.15,0.33,0.22,0.729,0.22,1.19c0,0.43-0.06,0.8-0.19,1.109
				C289.559,484.63,289.549,484.67,289.529,484.71z"/>
			<path style="fill:#002933;" d="M293.909,480.2c-0.17-0.181-0.38-0.26-0.64-0.26c-0.25,0-0.461,0.079-0.62,0.26
				c-0.16,0.18-0.25,0.439-0.25,0.79v5.029c0,0.341,0.09,0.601,0.25,0.79c0.159,0.181,0.37,0.27,0.62,0.27
				c0.26,0,0.47-0.08,0.64-0.27c0.17-0.18,0.25-0.44,0.25-0.79v-5.079C294.159,480.62,294.079,480.38,293.909,480.2z
				 M293.899,477.62c-0.181-0.15-0.38-0.22-0.61-0.22c-0.23,0-0.44,0.08-0.62,0.239c-0.18,0.16-0.27,0.37-0.27,0.62
				c0,0.271,0.09,0.48,0.27,0.63c0.17,0.15,0.38,0.23,0.62,0.23c0.24,0,0.439-0.08,0.62-0.23c0.17-0.149,0.25-0.359,0.25-0.63
				C294.159,477.98,294.069,477.76,293.899,477.62z"/>
			<path style="fill:#002933;" d="M299.827,486.282l-1.548-2.552l-0.954,0.9v1.399c0,0.339-0.09,0.598-0.269,0.779
				c-0.175,0.185-0.384,0.275-0.614,0.275c-0.271,0-0.484-0.089-0.638-0.272c-0.153-0.179-0.232-0.444-0.232-0.796v-7.498
				c0-0.388,0.077-0.685,0.224-0.89c0.151-0.207,0.369-0.307,0.646-0.307c0.271,0,0.483,0.093,0.643,0.279
				c0.158,0.183,0.239,0.456,0.239,0.814v4.265l1.977-2.075c0.245-0.255,0.429-0.435,0.56-0.527
				c0.128-0.095,0.283-0.142,0.467-0.142c0.221,0,0.402,0.07,0.553,0.209c0.143,0.14,0.217,0.316,0.217,0.524
				c0,0.257-0.239,0.602-0.715,1.031l-0.933,0.855l1.802,2.835c0.131,0.213,0.229,0.368,0.287,0.479
				c0.058,0.107,0.088,0.217,0.088,0.313c0,0.28-0.077,0.498-0.23,0.661c-0.152,0.161-0.354,0.24-0.601,0.24
				c-0.214,0-0.382-0.055-0.497-0.174C300.185,486.794,300.024,486.584,299.827,486.282L299.827,486.282z"/>
			<path style="fill:#002933;" d="M303.646,487.085c-0.265,0-0.492-0.086-0.686-0.258c-0.192-0.169-0.291-0.411-0.291-0.722
				c0-0.262,0.094-0.487,0.278-0.675c0.186-0.19,0.412-0.283,0.684-0.283c0.268,0,0.498,0.094,0.692,0.279
				c0.19,0.186,0.286,0.414,0.286,0.679c0,0.307-0.097,0.547-0.286,0.718C304.129,486.999,303.903,487.085,303.646,487.085
				L303.646,487.085z"/>
			<path style="fill:#002933;" d="M312.389,484.909c0,0.218-0.066,0.453-0.197,0.701c-0.13,0.251-0.331,0.486-0.601,0.712
				c-0.268,0.225-0.604,0.408-1.013,0.544c-0.407,0.137-0.868,0.208-1.376,0.208c-1.089,0-1.938-0.318-2.547-0.949
				c-0.607-0.635-0.912-1.484-0.912-2.549c0-0.723,0.138-1.359,0.419-1.914c0.276-0.552,0.681-0.98,1.208-1.283
				c0.527-0.304,1.162-0.454,1.894-0.454c0.456,0,0.873,0.066,1.255,0.2c0.38,0.132,0.7,0.306,0.966,0.515
				c0.262,0.213,0.465,0.436,0.604,0.672c0.14,0.238,0.208,0.462,0.208,0.669c0,0.209-0.077,0.388-0.232,0.534
				c-0.159,0.146-0.35,0.22-0.568,0.22c-0.148,0-0.27-0.039-0.367-0.113c-0.097-0.076-0.206-0.196-0.324-0.367
				c-0.215-0.324-0.438-0.57-0.675-0.731c-0.232-0.164-0.528-0.245-0.89-0.245c-0.517,0-0.939,0.202-1.257,0.608
				c-0.316,0.403-0.477,0.962-0.477,1.663c0,0.331,0.043,0.637,0.124,0.913c0.079,0.276,0.197,0.513,0.353,0.708
				c0.156,0.194,0.342,0.342,0.561,0.443c0.22,0.104,0.461,0.152,0.721,0.152c0.353,0,0.655-0.081,0.905-0.244
				c0.255-0.163,0.477-0.411,0.669-0.747c0.107-0.197,0.222-0.351,0.345-0.463c0.124-0.111,0.277-0.169,0.458-0.169
				c0.215,0,0.393,0.083,0.533,0.245C312.316,484.551,312.389,484.727,312.389,484.909L312.389,484.909z"/>
			<path style="fill:#002933;" d="M319.728,482.06c-0.159-0.43-0.39-0.81-0.699-1.13c-0.311-0.319-0.681-0.56-1.11-0.729
				c-0.44-0.181-0.92-0.26-1.45-0.26c-0.529,0-1.01,0.079-1.439,0.25c-0.431,0.17-0.801,0.409-1.11,0.729
				c-0.3,0.311-0.54,0.69-0.7,1.13c-0.16,0.44-0.24,0.931-0.24,1.46c0,0.53,0.08,1.01,0.231,1.45c0.17,0.43,0.4,0.81,0.72,1.13
				c0.3,0.32,0.681,0.57,1.101,0.74c0.42,0.17,0.899,0.26,1.439,0.26c0.53,0,1.01-0.09,1.45-0.26c0.42-0.17,0.79-0.41,1.101-0.73
				c0.31-0.319,0.55-0.699,0.709-1.14c0.16-0.44,0.24-0.93,0.24-1.45C319.969,482.98,319.889,482.5,319.728,482.06z M317.739,485.17
				c-0.32,0.41-0.74,0.61-1.271,0.61c-0.359,0-0.66-0.09-0.92-0.271c-0.26-0.19-0.46-0.45-0.6-0.8c-0.141-0.34-0.21-0.74-0.21-1.2
				c0-0.46,0.069-0.87,0.21-1.22c0.14-0.34,0.34-0.61,0.609-0.79c0.261-0.17,0.56-0.26,0.91-0.26c0.53,0,0.95,0.2,1.271,0.6
				c0.31,0.4,0.47,0.96,0.47,1.67C318.209,484.22,318.049,484.769,317.739,485.17z"/>
			<path style="fill:#002933;" d="M326.677,483.642v2.336c0,0.371-0.082,0.645-0.251,0.832c-0.169,0.185-0.387,0.276-0.662,0.276
				c-0.267,0-0.484-0.092-0.645-0.276c-0.168-0.188-0.252-0.461-0.252-0.832v-2.8c0-0.442-0.015-0.787-0.043-1.033
				c-0.031-0.239-0.114-0.443-0.246-0.598c-0.133-0.16-0.345-0.238-0.631-0.238c-0.576,0-0.953,0.196-1.136,0.597
				c-0.182,0.391-0.275,0.958-0.275,1.699v2.373c0,0.364-0.083,0.642-0.245,0.829c-0.169,0.185-0.385,0.279-0.654,0.279
				c-0.268,0-0.485-0.094-0.655-0.279c-0.17-0.188-0.255-0.465-0.255-0.829v-5.028c0-0.331,0.076-0.583,0.228-0.753
				c0.155-0.174,0.356-0.259,0.602-0.259c0.242,0,0.441,0.084,0.605,0.241c0.16,0.161,0.24,0.384,0.24,0.667v0.166
				c0.308-0.362,0.634-0.631,0.978-0.8c0.351-0.177,0.733-0.262,1.161-0.262c0.441,0,0.82,0.089,1.137,0.264
				c0.318,0.177,0.579,0.444,0.787,0.798c0.298-0.358,0.616-0.625,0.955-0.8c0.339-0.175,0.714-0.262,1.127-0.262
				c0.479,0,0.896,0.097,1.242,0.284c0.346,0.188,0.605,0.46,0.778,0.81c0.149,0.32,0.224,0.82,0.224,1.503v3.431
				c0,0.371-0.083,0.645-0.249,0.832c-0.167,0.185-0.39,0.276-0.664,0.276c-0.268,0-0.483-0.094-0.653-0.279
				c-0.17-0.188-0.255-0.465-0.255-0.829v-2.956c0-0.378-0.017-0.68-0.047-0.906c-0.032-0.229-0.12-0.421-0.26-0.574
				c-0.144-0.154-0.359-0.232-0.646-0.232c-0.232,0-0.452,0.072-0.66,0.208c-0.208,0.135-0.371,0.323-0.488,0.551
				C326.743,482.364,326.677,482.89,326.677,483.642L326.677,483.642z"/>
		</g>
		<g>
			<path style="fill:#002933;" d="M244.872,483.087c-0.001-0.003-0.001-0.006-0.001-0.012
				C244.871,483.081,244.871,483.084,244.872,483.087z"/>
			<path style="fill:#002933;" d="M244.961,483.649c0.001,0,0.001,0,0.002,0c-0.034-0.16-0.06-0.319-0.081-0.476
				C244.903,483.332,244.929,483.491,244.961,483.649z"/>
			<path style="fill:#002933;" d="M245.542,485.28c-0.004-0.007-0.007-0.015-0.012-0.023
				C245.535,485.266,245.539,485.273,245.542,485.28z"/>
			<path style="fill:#002933;" d="M245.487,485.172c-0.015-0.03-0.03-0.062-0.044-0.091
				C245.457,485.112,245.472,485.142,245.487,485.172z"/>
			<path style="fill:#002933;" d="M245.124,484.277c0.086,0.271,0.19,0.534,0.31,0.785c-0.122-0.256-0.224-0.52-0.308-0.785
				C245.126,484.277,245.125,484.277,245.124,484.277z"/>
			<path style="fill:#002933;" d="M251.675,476.353c0.34,0,0.59,0.026,0.878,0.075l0.081-0.517c0,0-0.794-0.244-1.837-0.159
				l-0.082-0.281c0.324-0.068,0.567-0.356,0.567-0.701c0-0.395-0.321-0.714-0.716-0.714c-0.396,0-0.716,0.319-0.716,0.714
				c0,0.345,0.243,0.633,0.567,0.701l0.09,0.314c-1.107,0.152-1.989,0.585-1.989,0.585l0.156,0.478
				c0.67-0.224,1.251-0.358,1.778-0.416C250.97,476.377,251.358,476.353,251.675,476.353z"/>
			<path style="fill:#002933;" d="M245.529,478.968l0.004-0.005c0.026-0.034,0.051-0.065,0.077-0.097l-0.212-0.153l-0.331-0.241
				c-0.019,0.025-0.539,0.504-0.95,1.388c-0.018-0.027-0.038-0.055-0.061-0.081c-0.123-0.134-0.295-0.202-0.514-0.198
				c-0.003,0-0.006,0-0.01,0c-0.135,0-0.228-0.046-0.289-0.101c0.061-0.076,0.097-0.173,0.097-0.28c0-0.249-0.203-0.453-0.454-0.453
				c-0.249,0-0.453,0.204-0.453,0.453c0,0.251,0.204,0.454,0.453,0.454c0.04,0,0.077-0.007,0.113-0.014
				c0.111,0.123,0.288,0.231,0.547,0.226c0.133-0.001,0.231,0.033,0.296,0.105c0.075,0.082,0.1,0.2,0.108,0.29
				c-0.001,0.001-0.001,0.003-0.002,0.003c-0.295,0.807-0.211,1.81-0.211,1.81l0.716,0.028c0.015-0.365,0.067-1.004,0.252-1.512
				C245.064,479.608,245.511,478.994,245.529,478.968z"/>
			<path style="fill:#002933;" d="M257.909,476.952c-0.249,0-0.453,0.202-0.453,0.453c0,0.039,0.006,0.076,0.016,0.112
				c-0.124,0.112-0.232,0.29-0.228,0.549c0.002,0.134-0.032,0.23-0.104,0.296c-0.058,0.051-0.13,0.078-0.2,0.096
				c-0.533-0.747-1.19-1.203-1.19-1.203l-0.514,0.551c0.389,0.353,0.785,0.797,1.171,1.349c0.267,0.382,0.542,0.875,0.77,1.366
				l0.693-0.33c0,0-0.316-0.783-0.763-1.485c0.077-0.027,0.155-0.069,0.225-0.13c0.136-0.123,0.202-0.296,0.198-0.514
				c-0.001-0.142,0.045-0.236,0.101-0.3c0.077,0.06,0.174,0.098,0.279,0.098c0.252,0,0.454-0.204,0.454-0.454
				C258.363,477.154,258.161,476.952,257.909,476.952z"/>
			<path style="fill:#002933;" d="M256.108,483.188c-0.955,0.466-2.527,1.08-4.596,1.369c-0.812,0.112-1.599,0.154-2.324,0.154
				c-0.942,0-1.775-0.07-2.414-0.151c-0.729-0.092-1.3-0.204-1.648-0.283c0.084,0.266,0.186,0.529,0.308,0.785
				c0.002,0.007,0.005,0.014,0.008,0.019c0.015,0.029,0.029,0.061,0.044,0.091c0.015,0.029,0.029,0.059,0.044,0.086
				c0.004,0.008,0.008,0.016,0.012,0.023c0.205,0.387,0.452,0.742,0.732,1.05c0.976,1.067,1.97,1.236,1.98,1.237l0.016,0.002
				l0.015,0.005c0.009,0.004,0.89,0.288,2.23,0.288c1.319,0,2.613-0.266,3.845-0.791c0.913-0.467,1.777-1.177,2.205-1.81
				c0.331-0.489,0.57-1.012,0.712-1.555c0.075-0.288,0.135-0.75,0.1-1.236C257.108,482.651,256.684,482.908,256.108,483.188z"/>
			<path style="fill:#002933;" d="M256.089,479.37c-1.35-1.94-2.819-2.44-3.569-2.56c-0.29-0.05-0.52-0.069-0.841-0.069
				c-0.31,0-0.68,0.02-1.189,0.069c-0.5,0.051-1.06,0.19-1.71,0.41c-0.92,0.3-1.74,0.78-2.39,1.38l-0.02,0.021
				c-0.1,0.09-0.3,0.28-0.53,0.57c-0.03,0.04-0.45,0.63-0.77,1.529c-0.25,0.681-0.24,1.66-0.24,1.67c0,0.23,0.02,0.46,0.04,0.69
				c0,0,0,0,0,0.01c0.01,0.03,0.01,0.05,0.01,0.08c0.02,0.16,0.05,0.32,0.08,0.48c0.48,0.119,3.31,0.779,6.47,0.34
				c1.99-0.28,3.49-0.86,4.41-1.311c0.76-0.359,1.25-0.699,1.44-0.84C257.089,481.15,256.569,480.05,256.089,479.37z
				 M248.569,482.51c-1.06,0-1.91-0.85-1.91-1.91c0-1.05,0.85-1.899,1.91-1.899c1.05,0,1.91,0.85,1.91,1.899
				C250.479,481.66,249.619,482.51,248.569,482.51z M254.149,481.11c-0.65,0-1.181-0.53-1.181-1.19c0-0.65,0.53-1.18,1.181-1.18
				c0.649,0,1.18,0.529,1.18,1.18C255.329,480.58,254.799,481.11,254.149,481.11z"/>
		</g>
	</g>
</g>
</svg>
