<?xml version="1.0" encoding="utf-8"?>
<!-- Generator: Adobe Illustrator 27.5.0, SVG Export Plug-In . SVG Version: 6.00 Build 0)  -->
<svg version="1.1" xmlns="http://www.w3.org/2000/svg" xmlns:xlink="http://www.w3.org/1999/xlink" x="0px" y="0px"
	 viewBox="0 0 500 500" style="enable-background:new 0 0 500 500;" xml:space="preserve">
<g id="BACKGROUND">
	<rect style="fill:#FFFFFF;" width="500" height="500"/>
</g>
<g id="DESIGNED_BY_FREEPIK">
	<path style="fill:#50D1E2;" d="M180.392,483.672v-0.16c-0.217,0.25-0.432,0.451-0.645,0.607c-0.211,0.156-0.439,0.275-0.688,0.357
		c-0.246,0.08-0.516,0.121-0.809,0.121c-0.387,0-0.746-0.082-1.076-0.246c-0.33-0.164-0.615-0.398-0.857-0.703
		c-0.242-0.305-0.424-0.662-0.549-1.072c-0.123-0.412-0.186-0.855-0.186-1.334c0-1.012,0.246-1.803,0.74-2.367
		c0.494-0.565,1.145-0.846,1.951-0.846c0.467,0,0.859,0.08,1.18,0.238c0.32,0.16,0.633,0.406,0.938,0.738v-2.389
		c0-0.332,0.064-0.584,0.197-0.752c0.133-0.172,0.322-0.256,0.566-0.256c0.246,0,0.434,0.078,0.566,0.234
		c0.133,0.156,0.199,0.385,0.199,0.689v7.139c0,0.309-0.07,0.541-0.213,0.693c-0.143,0.154-0.326,0.232-0.553,0.232
		c-0.221,0-0.404-0.08-0.549-0.24C180.462,484.197,180.392,483.969,180.392,483.672z M177.208,481.295
		c0,0.44,0.068,0.813,0.203,1.121c0.137,0.309,0.324,0.541,0.561,0.695c0.238,0.158,0.496,0.236,0.777,0.236
		c0.285,0,0.545-0.076,0.779-0.225c0.234-0.146,0.424-0.375,0.563-0.68c0.141-0.307,0.211-0.689,0.211-1.148
		c0-0.43-0.07-0.801-0.211-1.111c-0.139-0.311-0.328-0.549-0.568-0.713c-0.238-0.164-0.5-0.244-0.785-0.244
		c-0.297,0-0.563,0.084-0.795,0.252c-0.232,0.166-0.414,0.408-0.543,0.723C177.27,480.516,177.208,480.881,177.208,481.295z
		 M187.528,481.705h-3.166c0.004,0.367,0.078,0.691,0.223,0.971c0.144,0.281,0.336,0.492,0.576,0.635
		c0.238,0.145,0.502,0.213,0.791,0.213c0.193,0,0.371-0.021,0.529-0.066c0.162-0.047,0.316-0.117,0.467-0.213
		c0.15-0.098,0.289-0.201,0.414-0.313c0.127-0.111,0.291-0.262,0.492-0.451c0.084-0.07,0.203-0.108,0.357-0.108
		c0.164,0,0.299,0.047,0.402,0.137c0.102,0.092,0.154,0.221,0.154,0.387c0,0.146-0.057,0.316-0.172,0.512
		c-0.115,0.195-0.287,0.383-0.52,0.564c-0.232,0.18-0.521,0.328-0.871,0.447c-0.35,0.117-0.752,0.178-1.207,0.178
		c-1.039,0-1.848-0.297-2.424-0.891c-0.578-0.592-0.867-1.397-0.867-2.412c0-0.478,0.072-0.922,0.215-1.33
		c0.143-0.41,0.35-0.762,0.621-1.053c0.273-0.293,0.609-0.516,1.01-0.674c0.398-0.156,0.842-0.232,1.328-0.232
		c0.631,0,1.174,0.131,1.625,0.398c0.455,0.268,0.793,0.611,1.018,1.035c0.225,0.422,0.34,0.853,0.34,1.293
		c0,0.406-0.117,0.67-0.352,0.791C188.28,481.643,187.952,481.705,187.528,481.705z M184.362,480.785h2.936
		c-0.039-0.553-0.189-0.969-0.447-1.242c-0.26-0.275-0.6-0.412-1.023-0.412c-0.402,0-0.734,0.139-0.992,0.418
		C184.575,479.826,184.419,480.24,184.362,480.785z M194.903,482.48c0,0.447-0.107,0.83-0.326,1.148
		c-0.217,0.318-0.537,0.559-0.963,0.723c-0.424,0.164-0.941,0.246-1.551,0.246c-0.58,0-1.078-0.09-1.494-0.266
		c-0.414-0.18-0.721-0.402-0.918-0.668c-0.197-0.268-0.297-0.535-0.297-0.805c0-0.178,0.063-0.33,0.191-0.455
		c0.125-0.127,0.285-0.189,0.479-0.189c0.17,0,0.301,0.041,0.391,0.123c0.092,0.084,0.18,0.201,0.262,0.35
		c0.166,0.289,0.365,0.504,0.596,0.647c0.232,0.143,0.547,0.215,0.945,0.215c0.326,0,0.592-0.072,0.799-0.217
		c0.207-0.145,0.311-0.309,0.311-0.496c0-0.283-0.107-0.492-0.324-0.621c-0.215-0.131-0.57-0.256-1.063-0.375
		c-0.559-0.139-1.012-0.283-1.361-0.436c-0.35-0.15-0.629-0.352-0.84-0.602c-0.209-0.25-0.314-0.555-0.314-0.918
		c0-0.324,0.098-0.631,0.291-0.92c0.193-0.287,0.48-0.518,0.857-0.689c0.377-0.174,0.832-0.26,1.367-0.26
		c0.418,0,0.795,0.043,1.129,0.131c0.334,0.086,0.613,0.203,0.836,0.35c0.223,0.147,0.393,0.309,0.51,0.486
		c0.117,0.178,0.174,0.352,0.174,0.523c0,0.184-0.063,0.336-0.186,0.455c-0.125,0.119-0.301,0.178-0.531,0.178
		c-0.166,0-0.307-0.047-0.424-0.143c-0.117-0.096-0.25-0.236-0.4-0.426c-0.121-0.158-0.266-0.285-0.432-0.379
		c-0.166-0.096-0.391-0.145-0.676-0.145c-0.293,0-0.537,0.063-0.73,0.189c-0.193,0.123-0.289,0.277-0.289,0.463
		c0,0.172,0.07,0.311,0.213,0.42c0.143,0.107,0.334,0.197,0.576,0.27c0.24,0.07,0.57,0.156,0.996,0.26
		c0.5,0.123,0.91,0.27,1.229,0.439c0.318,0.17,0.559,0.371,0.725,0.602C194.823,481.92,194.903,482.184,194.903,482.48z
		 M196.558,477.264c-0.225,0-0.418-0.068-0.578-0.209c-0.16-0.137-0.24-0.332-0.24-0.586c0-0.23,0.082-0.418,0.246-0.566
		c0.164-0.148,0.355-0.223,0.572-0.223c0.211,0,0.394,0.068,0.557,0.201c0.162,0.137,0.244,0.33,0.244,0.588
		c0,0.25-0.08,0.443-0.238,0.584C196.962,477.193,196.774,477.264,196.558,477.264z M197.358,478.935v4.678
		c0,0.324-0.078,0.57-0.23,0.736c-0.156,0.166-0.35,0.248-0.588,0.248c-0.238,0-0.43-0.086-0.578-0.254
		c-0.148-0.172-0.223-0.414-0.223-0.73v-4.631c0-0.32,0.074-0.56,0.223-0.723c0.148-0.162,0.34-0.244,0.578-0.244
		c0.238,0,0.432,0.082,0.588,0.244C197.28,478.422,197.358,478.647,197.358,478.935z M204.448,479.203v4.701
		c0,0.537-0.057,1-0.172,1.387c-0.113,0.387-0.299,0.707-0.551,0.961c-0.254,0.252-0.584,0.441-0.994,0.563
		c-0.408,0.123-0.918,0.183-1.525,0.183c-0.557,0-1.057-0.078-1.496-0.234c-0.438-0.156-0.775-0.357-1.012-0.604
		c-0.238-0.246-0.357-0.502-0.357-0.762c0-0.199,0.068-0.359,0.203-0.484c0.133-0.123,0.297-0.186,0.486-0.186
		c0.236,0,0.443,0.106,0.623,0.313c0.086,0.107,0.176,0.217,0.268,0.324c0.094,0.109,0.197,0.201,0.309,0.279
		c0.113,0.076,0.248,0.133,0.406,0.172c0.158,0.035,0.34,0.055,0.545,0.055c0.42,0,0.746-0.057,0.977-0.174
		c0.23-0.115,0.393-0.279,0.486-0.49c0.094-0.209,0.146-0.432,0.162-0.672c0.018-0.24,0.027-0.623,0.037-1.154
		c-0.25,0.35-0.537,0.615-0.863,0.797c-0.326,0.182-0.715,0.271-1.166,0.271c-0.541,0-1.014-0.139-1.42-0.414
		c-0.404-0.277-0.717-0.666-0.934-1.162c-0.217-0.5-0.326-1.074-0.326-1.726c0-0.486,0.066-0.924,0.199-1.315
		c0.133-0.392,0.322-0.723,0.566-0.992c0.244-0.27,0.527-0.471,0.848-0.607c0.32-0.135,0.672-0.203,1.055-0.203
		c0.459,0,0.855,0.088,1.193,0.262c0.334,0.178,0.646,0.453,0.936,0.828v-0.221c0-0.279,0.068-0.496,0.207-0.652
		c0.139-0.152,0.318-0.23,0.535-0.23c0.311,0,0.52,0.104,0.621,0.305C204.397,478.525,204.448,478.818,204.448,479.203z
		 M199.759,481.254c0,0.656,0.143,1.152,0.43,1.488c0.287,0.336,0.658,0.504,1.113,0.504c0.268,0,0.521-0.072,0.76-0.217
		c0.24-0.145,0.434-0.361,0.586-0.652c0.148-0.291,0.225-0.643,0.225-1.059c0-0.658-0.145-1.174-0.436-1.541
		c-0.291-0.367-0.674-0.551-1.148-0.551c-0.463,0-0.832,0.176-1.111,0.527C199.897,480.105,199.759,480.605,199.759,481.254z
		 M207.02,478.912v0.195c0.285-0.375,0.596-0.65,0.936-0.828c0.338-0.176,0.725-0.264,1.164-0.264c0.428,0,0.809,0.094,1.144,0.279
		c0.336,0.186,0.588,0.449,0.752,0.789c0.107,0.197,0.178,0.412,0.209,0.639c0.031,0.23,0.047,0.521,0.047,0.879v3.012
		c0,0.324-0.074,0.57-0.223,0.736c-0.148,0.166-0.34,0.248-0.578,0.248c-0.24,0-0.436-0.086-0.586-0.254
		c-0.152-0.172-0.227-0.414-0.227-0.73v-2.697c0-0.535-0.074-0.943-0.223-1.225c-0.146-0.283-0.441-0.424-0.887-0.424
		c-0.287,0-0.551,0.086-0.787,0.258c-0.238,0.172-0.412,0.408-0.521,0.709c-0.08,0.24-0.119,0.691-0.119,1.352v2.027
		c0,0.328-0.076,0.574-0.229,0.738c-0.15,0.164-0.348,0.246-0.59,0.246c-0.232,0-0.424-0.086-0.574-0.254
		c-0.15-0.172-0.227-0.414-0.227-0.73v-4.678c0-0.308,0.068-0.539,0.201-0.691c0.135-0.152,0.318-0.229,0.551-0.229
		c0.143,0,0.273,0.033,0.387,0.102c0.115,0.068,0.207,0.168,0.275,0.301C206.987,478.555,207.02,478.719,207.02,478.912z
		 M216.868,481.705h-3.166c0.006,0.367,0.078,0.691,0.223,0.971c0.145,0.281,0.336,0.492,0.576,0.635
		c0.238,0.145,0.502,0.213,0.791,0.213c0.193,0,0.371-0.021,0.531-0.066c0.158-0.047,0.314-0.117,0.465-0.213
		c0.15-0.098,0.287-0.201,0.416-0.313c0.125-0.111,0.289-0.262,0.49-0.451c0.084-0.07,0.203-0.108,0.355-0.108
		c0.166,0,0.301,0.047,0.404,0.137c0.104,0.092,0.154,0.221,0.154,0.387c0,0.146-0.059,0.316-0.172,0.512
		c-0.115,0.195-0.289,0.383-0.519,0.564c-0.231,0.18-0.522,0.328-0.871,0.447c-0.35,0.117-0.752,0.178-1.207,0.178
		c-1.039,0-1.848-0.297-2.426-0.891c-0.576-0.592-0.865-1.397-0.865-2.412c0-0.478,0.072-0.922,0.215-1.33
		c0.143-0.41,0.35-0.762,0.621-1.053c0.273-0.293,0.609-0.516,1.008-0.674c0.4-0.156,0.842-0.232,1.33-0.232
		c0.631,0,1.174,0.131,1.625,0.398c0.455,0.268,0.793,0.611,1.02,1.035c0.223,0.422,0.336,0.853,0.336,1.293
		c0,0.406-0.115,0.67-0.35,0.791C217.62,481.643,217.292,481.705,216.868,481.705z M213.702,480.785h2.936
		c-0.039-0.553-0.189-0.969-0.447-1.242c-0.26-0.275-0.6-0.412-1.023-0.412c-0.404,0-0.734,0.139-0.994,0.418
		C213.915,479.826,213.759,480.24,213.702,480.785z M223.466,483.672v-0.16c-0.217,0.25-0.432,0.451-0.643,0.607
		c-0.211,0.156-0.439,0.275-0.688,0.357c-0.246,0.08-0.516,0.121-0.809,0.121c-0.389,0-0.746-0.082-1.076-0.246
		c-0.33-0.164-0.615-0.398-0.857-0.703c-0.24-0.305-0.424-0.662-0.549-1.072c-0.123-0.412-0.186-0.855-0.186-1.334
		c0-1.012,0.246-1.803,0.74-2.367c0.494-0.565,1.145-0.846,1.951-0.846c0.467,0,0.859,0.08,1.18,0.238
		c0.32,0.16,0.633,0.406,0.936,0.738v-2.389c0-0.332,0.068-0.584,0.199-0.752c0.133-0.172,0.322-0.256,0.566-0.256
		c0.246,0,0.434,0.078,0.566,0.234c0.133,0.156,0.199,0.385,0.199,0.689v7.139c0,0.309-0.07,0.541-0.213,0.693
		c-0.143,0.154-0.326,0.232-0.553,0.232c-0.221,0-0.404-0.08-0.549-0.24C223.538,484.197,223.466,483.969,223.466,483.672z
		 M220.282,481.295c0,0.44,0.068,0.813,0.205,1.121c0.137,0.309,0.324,0.541,0.561,0.695c0.238,0.158,0.496,0.236,0.775,0.236
		c0.287,0,0.547-0.076,0.781-0.225c0.234-0.146,0.424-0.375,0.563-0.68c0.141-0.307,0.211-0.689,0.211-1.148
		c0-0.43-0.07-0.801-0.211-1.111c-0.139-0.311-0.33-0.549-0.568-0.713c-0.24-0.164-0.502-0.244-0.785-0.244
		c-0.297,0-0.562,0.084-0.795,0.252c-0.233,0.166-0.414,0.408-0.543,0.723C220.347,480.516,220.282,480.881,220.282,481.295z
		 M230.083,476.533v2.473c0.305-0.314,0.613-0.559,0.93-0.727c0.316-0.166,0.709-0.25,1.176-0.25c0.537,0,1.008,0.127,1.414,0.381
		c0.404,0.256,0.719,0.625,0.941,1.109c0.225,0.483,0.336,1.059,0.336,1.723c0,0.49-0.063,0.939-0.188,1.35
		c-0.125,0.408-0.305,0.762-0.541,1.063c-0.238,0.303-0.525,0.533-0.863,0.697c-0.338,0.164-0.711,0.246-1.117,0.246
		c-0.25,0-0.484-0.029-0.703-0.09c-0.221-0.059-0.406-0.135-0.561-0.232c-0.154-0.098-0.285-0.197-0.395-0.301
		c-0.109-0.102-0.252-0.258-0.43-0.463v0.16c0,0.305-0.074,0.535-0.221,0.691c-0.145,0.156-0.33,0.234-0.557,0.234
		c-0.229,0-0.412-0.078-0.547-0.234c-0.137-0.156-0.205-0.387-0.205-0.691v-7.068c0-0.326,0.064-0.574,0.197-0.742
		c0.133-0.168,0.318-0.252,0.555-0.252c0.25,0,0.441,0.08,0.576,0.238C230.015,476.01,230.083,476.238,230.083,476.533z
		 M230.159,481.342c0,0.647,0.148,1.139,0.441,1.486c0.295,0.346,0.682,0.52,1.16,0.52c0.406,0,0.758-0.178,1.053-0.531
		c0.293-0.355,0.441-0.859,0.441-1.522c0-0.428-0.061-0.795-0.184-1.102c-0.123-0.309-0.297-0.549-0.521-0.715
		c-0.225-0.168-0.488-0.252-0.789-0.252c-0.309,0-0.584,0.084-0.824,0.252c-0.24,0.166-0.432,0.41-0.568,0.729
		C230.229,480.523,230.159,480.904,230.159,481.342z M236.977,484.799l0.149-0.361l-1.992-5.018
		c-0.123-0.287-0.184-0.496-0.184-0.627c0-0.139,0.035-0.268,0.105-0.385c0.072-0.117,0.17-0.215,0.295-0.285
		c0.125-0.072,0.254-0.107,0.389-0.107c0.232,0,0.408,0.074,0.527,0.223c0.119,0.148,0.223,0.361,0.314,0.637l1.369,3.984
		l1.299-3.705c0.102-0.299,0.195-0.535,0.279-0.705c0.082-0.17,0.17-0.285,0.262-0.344c0.094-0.061,0.225-0.09,0.396-0.09
		c0.123,0,0.24,0.033,0.352,0.098c0.113,0.066,0.199,0.154,0.262,0.266c0.061,0.109,0.092,0.227,0.092,0.348
		c-0.018,0.076-0.041,0.182-0.078,0.32c-0.035,0.139-0.078,0.279-0.129,0.422l-2.111,5.527c-0.182,0.484-0.359,0.865-0.535,1.143
		c-0.174,0.277-0.402,0.49-0.69,0.639c-0.287,0.148-0.674,0.221-1.16,0.221c-0.473,0-0.83-0.051-1.066-0.152
		c-0.238-0.105-0.355-0.293-0.355-0.564c0-0.186,0.057-0.328,0.17-0.43c0.111-0.1,0.279-0.152,0.5-0.152
		c0.088,0,0.172,0.014,0.256,0.037c0.102,0.023,0.191,0.035,0.266,0.035c0.186,0,0.332-0.027,0.439-0.084
		c0.105-0.055,0.201-0.15,0.287-0.287C236.77,485.266,236.866,485.065,236.977,484.799z M260.427,478.156
		c-0.543,0-0.814,0.191-0.814,0.582c0,0.174,0.066,0.316,0.197,0.424c0.131,0.109,0.314,0.162,0.557,0.162h0.447v4.289
		c0,0.318,0.074,0.563,0.227,0.73c0.154,0.168,0.344,0.252,0.572,0.252c0.242,0,0.438-0.084,0.59-0.252
		c0.154-0.168,0.23-0.412,0.23-0.73v-4.289h0.395c0.289,0,0.516-0.033,0.68-0.107c0.164-0.07,0.244-0.24,0.244-0.502
		c0-0.373-0.307-0.559-0.924-0.559h-0.395v-0.385c0-0.322,0.041-0.568,0.121-0.74c0.086-0.17,0.273-0.258,0.565-0.258
		c0.107,0,0.242,0.012,0.389,0.033c0.156,0.025,0.268,0.037,0.33,0.037c0.133,0,0.252-0.053,0.348-0.158
		c0.1-0.107,0.15-0.236,0.15-0.385c0-0.467-0.471-0.695-1.42-0.695c-0.531,0-0.951,0.068-1.258,0.203
		c-0.307,0.137-0.525,0.354-0.652,0.652c-0.131,0.299-0.191,0.701-0.191,1.209v0.486H260.427 M265.726,482.26
		c0-0.486,0.014-0.898,0.045-1.236c0.033-0.338,0.09-0.631,0.17-0.877c0.084-0.242,0.201-0.426,0.353-0.553
		c0.148-0.123,0.344-0.186,0.58-0.186c0.172,0,0.373,0.035,0.602,0.107c0.227,0.072,0.369,0.111,0.432,0.111
		c0.158,0,0.305-0.063,0.441-0.193c0.135-0.127,0.203-0.291,0.203-0.488c0-0.281-0.158-0.508-0.48-0.678
		c-0.32-0.17-0.648-0.256-0.99-0.256s-0.609,0.086-0.816,0.256c-0.203,0.17-0.4,0.42-0.594,0.754
		c-0.014-0.334-0.078-0.584-0.197-0.754c-0.119-0.17-0.313-0.256-0.582-0.256c-0.525,0-0.789,0.365-0.789,1.094v4.508
		c0,0.324,0.078,0.568,0.227,0.732c0.148,0.17,0.34,0.25,0.578,0.25c0.236,0,0.432-0.08,0.584-0.246
		c0.152-0.162,0.234-0.408,0.234-0.736V482.26 M273.167,481.703h-3.168c0.006,0.367,0.078,0.693,0.223,0.973
		c0.147,0.279,0.336,0.49,0.576,0.635c0.24,0.143,0.502,0.211,0.793,0.211c0.193,0,0.369-0.02,0.531-0.068
		c0.158-0.043,0.314-0.115,0.463-0.213c0.152-0.094,0.289-0.197,0.416-0.313c0.127-0.109,0.291-0.26,0.492-0.447
		c0.084-0.07,0.203-0.109,0.355-0.109c0.168,0,0.301,0.047,0.404,0.139c0.103,0.092,0.152,0.219,0.152,0.385
		c0,0.148-0.055,0.316-0.166,0.512c-0.117,0.197-0.289,0.385-0.521,0.566c-0.234,0.178-0.525,0.328-0.873,0.445
		c-0.35,0.119-0.752,0.178-1.207,0.178c-1.041,0-1.85-0.295-2.426-0.887c-0.576-0.596-0.867-1.4-0.867-2.416
		c0-0.477,0.072-0.922,0.217-1.332c0.139-0.41,0.348-0.758,0.623-1.053c0.271-0.295,0.605-0.518,1.006-0.674
		c0.398-0.154,0.84-0.232,1.328-0.232c0.631,0,1.174,0.133,1.627,0.402c0.451,0.264,0.797,0.609,1.018,1.033
		c0.227,0.424,0.338,0.853,0.338,1.295c0,0.404-0.117,0.668-0.35,0.789C273.919,481.643,273.591,481.703,273.167,481.703
		 M269.999,480.783h2.936c-0.039-0.553-0.186-0.969-0.445-1.24c-0.262-0.277-0.598-0.412-1.023-0.412
		c-0.404,0-0.736,0.137-0.994,0.416C270.214,479.826,270.054,480.238,269.999,480.783 M279.901,481.703h-3.166
		c0.004,0.367,0.078,0.693,0.221,0.973c0.145,0.279,0.336,0.49,0.574,0.635c0.24,0.143,0.502,0.211,0.795,0.211
		c0.191,0,0.369-0.02,0.525-0.068c0.162-0.043,0.316-0.115,0.469-0.213c0.15-0.094,0.287-0.197,0.414-0.313
		c0.125-0.109,0.291-0.26,0.494-0.447c0.084-0.07,0.203-0.109,0.354-0.109c0.168,0,0.301,0.047,0.406,0.139
		c0.102,0.092,0.15,0.219,0.15,0.385c0,0.148-0.055,0.316-0.172,0.512c-0.109,0.197-0.283,0.385-0.518,0.566
		c-0.23,0.178-0.523,0.328-0.871,0.445c-0.348,0.119-0.754,0.178-1.207,0.178c-1.041,0-1.848-0.295-2.426-0.887
		c-0.578-0.596-0.867-1.4-0.867-2.416c0-0.477,0.072-0.922,0.217-1.332c0.141-0.41,0.348-0.758,0.621-1.053
		c0.271-0.295,0.607-0.518,1.008-0.674c0.398-0.154,0.844-0.232,1.328-0.232c0.631,0,1.174,0.133,1.631,0.402
		c0.451,0.264,0.791,0.609,1.014,1.033c0.223,0.424,0.34,0.853,0.34,1.295c0,0.404-0.119,0.668-0.35,0.789
		C280.651,481.643,280.323,481.703,279.901,481.703 M276.735,480.783h2.934c-0.039-0.553-0.189-0.969-0.445-1.24
		c-0.264-0.277-0.602-0.412-1.025-0.412c-0.404,0-0.734,0.137-0.996,0.416C276.946,479.826,276.788,480.238,276.735,480.783
		 M283.446,478.924v0.193c0.305-0.375,0.621-0.65,0.953-0.826c0.322-0.178,0.697-0.266,1.111-0.266c0.496,0,0.959,0.129,1.377,0.385
		c0.42,0.258,0.75,0.635,0.994,1.127c0.242,0.496,0.365,1.08,0.365,1.756c0,0.498-0.07,0.957-0.211,1.375
		c-0.139,0.416-0.334,0.766-0.58,1.049c-0.244,0.281-0.533,0.5-0.867,0.652c-0.338,0.15-0.693,0.227-1.078,0.227
		c-0.461,0-0.852-0.092-1.164-0.279c-0.314-0.182-0.613-0.457-0.9-0.814v2.43c0,0.709-0.26,1.068-0.775,1.068
		c-0.307,0-0.506-0.092-0.607-0.275c-0.094-0.186-0.147-0.451-0.147-0.805v-6.988c0-0.309,0.068-0.535,0.201-0.691
		c0.133-0.15,0.318-0.229,0.553-0.229c0.228,0,0.414,0.078,0.559,0.234C283.376,478.404,283.446,478.627,283.446,478.924
		 M286.62,481.275c0-0.428-0.066-0.795-0.195-1.1c-0.131-0.307-0.313-0.541-0.541-0.705c-0.228-0.164-0.488-0.248-0.77-0.248
		c-0.445,0-0.822,0.18-1.129,0.527c-0.307,0.353-0.463,0.871-0.463,1.557c0,0.641,0.154,1.145,0.461,1.502
		c0.303,0.357,0.678,0.535,1.131,0.535c0.268,0,0.518-0.078,0.748-0.23c0.23-0.158,0.414-0.393,0.551-0.703
		C286.55,482.096,286.62,481.719,286.62,481.275 M289.876,477.26c-0.227,0-0.418-0.072-0.576-0.209
		c-0.162-0.139-0.24-0.332-0.24-0.586c0-0.229,0.08-0.418,0.246-0.568c0.164-0.145,0.353-0.221,0.57-0.221
		c0.213,0,0.396,0.066,0.559,0.199c0.162,0.137,0.244,0.334,0.244,0.59c0,0.25-0.08,0.445-0.236,0.584
		C290.284,477.188,290.097,477.26,289.876,477.26 M290.679,478.932v4.684c0,0.322-0.078,0.566-0.23,0.73
		c-0.156,0.17-0.352,0.25-0.588,0.25c-0.238,0-0.428-0.084-0.58-0.252c-0.147-0.174-0.221-0.416-0.221-0.729v-4.637
		c0-0.318,0.074-0.559,0.221-0.721c0.152-0.166,0.342-0.246,0.58-0.246c0.236,0,0.432,0.08,0.588,0.246
		C290.601,478.42,290.679,478.645,290.679,478.932 M295.895,483.857c0.182,0.277,0.33,0.471,0.436,0.58
		c0.107,0.107,0.262,0.158,0.459,0.158c0.225,0,0.412-0.072,0.553-0.221c0.141-0.15,0.213-0.35,0.213-0.609
		c0-0.088-0.029-0.188-0.082-0.287c-0.053-0.101-0.145-0.244-0.264-0.441l-1.66-2.611l0.859-0.787
		c0.438-0.397,0.658-0.715,0.658-0.951c0-0.191-0.068-0.353-0.199-0.48c-0.139-0.129-0.307-0.195-0.51-0.195
		c-0.168,0-0.313,0.045-0.43,0.131c-0.121,0.086-0.291,0.252-0.516,0.486l-1.82,1.912v-3.93c0-0.328-0.076-0.582-0.221-0.75
		c-0.148-0.172-0.346-0.256-0.594-0.256c-0.254,0-0.455,0.092-0.594,0.281c-0.137,0.19-0.209,0.463-0.209,0.82v6.906
		c0,0.324,0.074,0.568,0.215,0.732c0.143,0.17,0.34,0.25,0.588,0.25c0.213,0,0.404-0.084,0.566-0.252
		c0.164-0.168,0.248-0.406,0.248-0.719v-1.289l0.879-0.828L295.895,483.857 M299.415,484.596c0.236,0,0.443-0.078,0.623-0.24
		c0.174-0.158,0.264-0.379,0.264-0.662c0-0.242-0.09-0.453-0.264-0.625c-0.18-0.17-0.391-0.256-0.639-0.256
		c-0.25,0-0.457,0.086-0.629,0.26c-0.17,0.174-0.256,0.381-0.256,0.621c0,0.287,0.09,0.51,0.268,0.666
		C298.96,484.518,299.169,484.596,299.415,484.596 M307.466,482.592c0-0.168-0.066-0.33-0.197-0.48
		c-0.129-0.148-0.293-0.225-0.49-0.225c-0.168,0-0.309,0.053-0.422,0.154c-0.113,0.104-0.221,0.244-0.318,0.426
		c-0.178,0.311-0.381,0.539-0.615,0.69c-0.23,0.15-0.51,0.225-0.834,0.225c-0.24,0-0.463-0.045-0.666-0.141
		c-0.201-0.094-0.371-0.229-0.516-0.408c-0.143-0.18-0.25-0.397-0.324-0.652c-0.074-0.254-0.113-0.537-0.113-0.842
		c0-0.645,0.146-1.158,0.438-1.531c0.295-0.373,0.682-0.561,1.158-0.561c0.332,0,0.605,0.074,0.82,0.227
		c0.219,0.148,0.422,0.375,0.621,0.674c0.109,0.156,0.209,0.268,0.299,0.338c0.09,0.068,0.201,0.105,0.338,0.105
		c0.201,0,0.377-0.068,0.523-0.203c0.145-0.135,0.215-0.301,0.215-0.492s-0.064-0.397-0.193-0.617
		c-0.127-0.217-0.313-0.422-0.555-0.619c-0.244-0.191-0.539-0.35-0.891-0.473c-0.352-0.123-0.734-0.183-1.154-0.183
		c-0.674,0-1.26,0.137-1.746,0.418c-0.484,0.277-0.857,0.674-1.111,1.182c-0.258,0.51-0.387,1.098-0.387,1.764
		c0,0.979,0.281,1.762,0.84,2.346c0.563,0.582,1.344,0.875,2.346,0.875c0.469,0,0.893-0.064,1.27-0.191
		c0.375-0.125,0.686-0.295,0.932-0.502c0.248-0.207,0.434-0.424,0.553-0.654C307.405,483.01,307.466,482.793,307.466,482.592
		 M314.452,481.307c0,0.48-0.076,0.926-0.223,1.334c-0.152,0.408-0.369,0.758-0.654,1.049c-0.283,0.293-0.625,0.517-1.02,0.674
		c-0.398,0.154-0.842,0.234-1.334,0.234c-0.49,0-0.932-0.08-1.324-0.238c-0.391-0.156-0.73-0.385-1.016-0.676
		c-0.287-0.297-0.504-0.646-0.656-1.047c-0.143-0.402-0.219-0.846-0.219-1.33c0-0.49,0.076-0.941,0.223-1.348
		c0.152-0.408,0.369-0.756,0.648-1.045c0.283-0.289,0.621-0.51,1.02-0.668c0.402-0.156,0.842-0.234,1.324-0.234
		c0.488,0,0.934,0.078,1.334,0.24c0.398,0.156,0.738,0.383,1.027,0.672c0.285,0.297,0.5,0.643,0.648,1.045
		C314.378,480.375,314.452,480.818,314.452,481.307 M312.827,481.307c0-0.662-0.146-1.176-0.435-1.541
		c-0.289-0.373-0.682-0.555-1.17-0.555c-0.318,0-0.598,0.082-0.838,0.246c-0.242,0.162-0.426,0.404-0.557,0.727
		c-0.131,0.32-0.195,0.693-0.195,1.123c0,0.424,0.063,0.791,0.191,1.105c0.131,0.32,0.315,0.563,0.555,0.728
		c0.24,0.168,0.52,0.252,0.844,0.252c0.488,0,0.881-0.184,1.17-0.555C312.681,482.467,312.827,481.957,312.827,481.307
		 M320.628,481.426c0-0.693,0.061-1.178,0.176-1.451c0.109-0.209,0.258-0.383,0.449-0.508c0.193-0.125,0.396-0.191,0.609-0.191
		c0.264,0,0.463,0.072,0.596,0.215c0.127,0.141,0.209,0.318,0.238,0.527c0.027,0.211,0.043,0.486,0.043,0.836v2.723
		c0,0.336,0.078,0.592,0.234,0.764c0.156,0.172,0.357,0.258,0.603,0.258c0.252,0,0.457-0.086,0.609-0.254
		c0.154-0.174,0.23-0.426,0.23-0.768v-3.16c0-0.629-0.068-1.09-0.207-1.385c-0.158-0.32-0.397-0.57-0.715-0.746
		c-0.32-0.172-0.705-0.26-1.145-0.26c-0.381,0-0.727,0.08-1.039,0.24c-0.313,0.16-0.605,0.406-0.879,0.736
		c-0.191-0.324-0.432-0.57-0.725-0.734c-0.291-0.16-0.641-0.242-1.047-0.242c-0.395,0-0.748,0.078-1.07,0.24
		c-0.318,0.156-0.619,0.402-0.902,0.736v-0.152c0-0.262-0.072-0.467-0.221-0.615c-0.148-0.145-0.334-0.223-0.557-0.223
		c-0.227,0-0.412,0.078-0.555,0.24c-0.141,0.156-0.209,0.387-0.209,0.693v4.631c0,0.336,0.078,0.592,0.234,0.764
		c0.156,0.172,0.355,0.258,0.604,0.258c0.248,0,0.447-0.086,0.602-0.258c0.15-0.172,0.227-0.428,0.227-0.764v-2.186
		c0-0.684,0.086-1.205,0.254-1.564c0.168-0.369,0.516-0.551,1.045-0.551c0.264,0,0.459,0.072,0.582,0.221
		c0.121,0.141,0.197,0.33,0.227,0.551c0.025,0.225,0.039,0.543,0.039,0.951v2.578c0,0.342,0.078,0.594,0.232,0.768
		c0.148,0.168,0.348,0.254,0.594,0.254c0.254,0,0.455-0.086,0.611-0.254c0.154-0.174,0.23-0.426,0.23-0.768V481.426
		 M245.278,480.914c-0.002-0.004-0.002-0.006-0.002-0.006S245.276,480.91,245.278,480.914z M245.358,481.432
		c0.002,0,0.002,0,0.002,0c-0.031-0.148-0.055-0.295-0.072-0.438C245.306,481.139,245.329,481.287,245.358,481.432z
		 M245.895,482.934c-0.004-0.006-0.008-0.014-0.012-0.021C245.888,482.92,245.892,482.928,245.895,482.934z M245.843,482.834
		c-0.014-0.027-0.027-0.057-0.039-0.084C245.815,482.779,245.829,482.807,245.843,482.834z M245.509,482.01
		c0.08,0.25,0.176,0.492,0.287,0.725c-0.113-0.238-0.207-0.48-0.285-0.725H245.509z M251.542,474.711
		c0.314,0,0.545,0.025,0.809,0.07l0.076-0.477c0,0-0.732-0.225-1.691-0.146l-0.076-0.26c0.299-0.063,0.523-0.328,0.523-0.645
		c0-0.363-0.297-0.658-0.66-0.658c-0.365,0-0.66,0.295-0.66,0.658c0,0.316,0.225,0.582,0.521,0.645l0.084,0.289
		c-1.02,0.141-1.832,0.539-1.832,0.539l0.145,0.439c0.617-0.205,1.152-0.33,1.639-0.383
		C250.894,474.732,251.251,474.711,251.542,474.711z M245.882,477.121l0.004-0.006c0.025-0.031,0.047-0.061,0.072-0.09l-0.197-0.141
		l-0.303-0.223c-0.018,0.023-0.496,0.465-0.875,1.279c-0.016-0.025-0.035-0.051-0.057-0.074c-0.113-0.123-0.271-0.188-0.473-0.184
		c-0.002,0-0.006,0-0.01,0c-0.125,0-0.211-0.041-0.266-0.094c0.055-0.07,0.088-0.158,0.088-0.256c0-0.231-0.188-0.418-0.418-0.418
		c-0.23,0-0.416,0.188-0.416,0.418c0,0.23,0.186,0.416,0.416,0.416c0.037,0,0.07-0.006,0.105-0.012
		c0.102,0.113,0.266,0.213,0.504,0.209c0.123-0.002,0.213,0.029,0.271,0.096c0.07,0.076,0.094,0.185,0.102,0.267
		c-0.002,0-0.002,0.004-0.002,0.004c-0.271,0.742-0.195,1.666-0.195,1.666l0.66,0.025c0.014-0.336,0.063-0.924,0.232-1.393
		C245.454,477.709,245.866,477.143,245.882,477.121z M257.286,475.264c-0.23,0-0.418,0.185-0.418,0.416
		c0,0.037,0.006,0.072,0.016,0.104c-0.115,0.103-0.215,0.268-0.211,0.508c0.002,0.121-0.029,0.211-0.098,0.272
		c-0.053,0.047-0.119,0.07-0.184,0.088c-0.49-0.688-1.096-1.109-1.096-1.109l-0.475,0.508c0.359,0.326,0.725,0.734,1.08,1.244
		c0.246,0.35,0.498,0.805,0.709,1.256l0.639-0.303c0,0-0.291-0.721-0.703-1.369c0.072-0.024,0.143-0.063,0.207-0.119
		c0.125-0.113,0.186-0.273,0.182-0.473c0-0.131,0.043-0.219,0.094-0.275c0.072,0.053,0.16,0.088,0.258,0.088
		c0.23,0,0.418-0.188,0.418-0.418S257.517,475.264,257.286,475.264z M255.628,481.008c-0.881,0.428-2.328,0.994-4.234,1.26
		c-0.748,0.103-1.473,0.143-2.139,0.143c-0.869,0-1.637-0.064-2.225-0.139c-0.672-0.086-1.197-0.19-1.52-0.262
		c0.078,0.244,0.172,0.486,0.285,0.725c0,0.006,0.004,0.012,0.008,0.016c0.012,0.027,0.025,0.057,0.039,0.084
		c0.014,0.027,0.027,0.055,0.041,0.078c0.004,0.008,0.008,0.016,0.012,0.021c0.188,0.357,0.416,0.684,0.674,0.967
		c0.898,0.984,1.814,1.139,1.822,1.141l0.016,0.002l0.014,0.004c0.008,0.004,0.82,0.266,2.055,0.266
		c1.213,0,2.406-0.246,3.541-0.728c0.842-0.43,1.637-1.084,2.031-1.666c0.305-0.451,0.525-0.934,0.656-1.434
		c0.068-0.266,0.125-0.691,0.092-1.139C256.548,480.512,256.157,480.75,255.628,481.008z M246.165,477.328
		c-0.025,0.037-0.408,0.578-0.709,1.406c-0.225,0.621-0.215,1.525-0.215,1.537l0,0c0,0.213,0.012,0.424,0.035,0.633
		c0,0,0,0.006,0.002,0.01c0.002,0.027,0.006,0.053,0.01,0.08c0.018,0.143,0.041,0.289,0.072,0.438
		c0.438,0.111,3.045,0.719,5.961,0.313c1.828-0.254,3.215-0.793,4.057-1.201c0.701-0.34,1.15-0.648,1.324-0.773
		c-0.174-0.642-0.65-1.648-1.088-2.275c-1.252-1.789-2.602-2.25-3.295-2.363c-0.264-0.043-0.477-0.068-0.777-0.068
		c-0.279,0-0.625,0.023-1.086,0.072c-0.465,0.049-0.983,0.17-1.582,0.371c-0.842,0.281-1.602,0.725-2.201,1.279l-0.02,0.018
		C246.563,476.885,246.378,477.057,246.165,477.328z M253.823,476.912c0.602,0,1.09,0.486,1.09,1.088c0,0.6-0.488,1.09-1.09,1.09
		c-0.6,0-1.086-0.49-1.086-1.09C252.737,477.398,253.224,476.912,253.823,476.912z M248.679,476.869c0.973,0,1.76,0.787,1.76,1.758
		c0,0.973-0.787,1.758-1.76,1.758c-0.969,0-1.756-0.785-1.756-1.758C246.923,477.656,247.71,476.869,248.679,476.869z"/>
</g>
<g id="OBJECTS">
	<g>
		<g>
			<g>
				<path style="fill:#3DC4BE;" d="M84.09,436.994c0,0,7.805,5.976,17.792,7.604c9.988,1.628,16.502,0.181,17.768-5.608
					c1.266-5.788,1.307-9.675,2.498-11.598L84.09,436.994z"/>
				<path style="fill:#3DC4BE;" d="M84.09,381.488c0,0,7.805-5.975,17.792-7.603c9.988-1.628,16.502-0.181,17.768,5.608
					c1.266,5.788,1.307,9.675,2.498,11.598L84.09,381.488z"/>
				<g>
					<path style="fill:#92EACA;" d="M130.929,399.961c0,0,10.314-8.914,14.716-13.974c0,0,7.281,21.974-1.971,42.79l-11.352-10.547
						L130.929,399.961z"/>
					<path style="fill:#3DC4BE;" d="M128.817,400.891c0,0,9.416-6.851,13.229-11.233c0,0,5.992,17.868-2.023,35.9l-9.999-8.841
						L128.817,400.891z"/>
				</g>
				<path style="fill:#78DDBB;" d="M117.706,383.03c-2.716-5.598-12.814-5.517-12.814-5.517c-28.461,0-41.036,19.154-45.164,24.387
					c-2.434,3.085-9.257,5.121-14.448,6.274c1.621,0.692,3.742,1.228,6.438,1.208c0,0-1.691,1.092-4.202,1.678
					c4.762,1.206,10.114,3.085,12.211,5.741c4.128,5.233,16.703,24.388,45.164,24.388c0,0,10.098,0.081,12.814-5.517
					c2.717-5.597,14.11-26.321,23.362-26.321C131.816,409.352,120.423,388.627,117.706,383.03z"/>
				<path style="fill:#92EACA;" d="M59.728,401.9c-2.434,3.085-9.257,5.121-14.448,6.274c1.621,0.692,3.742,1.228,6.438,1.208
					c0,0-1.691,1.092-4.202,1.678c4.762,1.206,10.114,3.085,12.211,5.741c2.197,2.785,6.786,9.511,14.886,15.195
					c7.831-5.832,12.892-15.061,12.892-25.451c0-8.634-3.496-16.461-9.167-22.208C67.891,390.379,62.24,398.716,59.728,401.9z"/>
				<g>
					<path style="fill:#3DC4BE;" d="M95.59,385.824c0,0,2.043,1.99,1.926,5.789c-0.117,3.8,1.149,3.619,1.33,8.141
						c0.181,4.522-1.575,11.215-1.33,14.834c0.245,3.618-0.909,11.578-5.669,15.92c0,0,5.551-2.171,7.903-8.684
						c2.352-6.513,0.362-10.885,1.447-14.217c1.086-3.331,0.724-8.216,0-11.472C100.475,392.879,99.571,388.175,95.59,385.824z"/>
					<path style="fill:#3DC4BE;" d="M104.41,389.396c0,0,1.825,1.778,1.72,5.171c-0.105,3.394,1.026,3.232,1.188,7.271
						c0.162,4.04-1.407,10.019-1.188,13.25c0.219,3.233-0.812,10.343-5.063,14.221c0,0,4.959-1.939,7.06-7.756
						c2.101-5.818,0.323-9.723,1.292-12.699c0.97-2.976,0.646-7.339,0-10.247C108.773,395.696,107.965,391.495,104.41,389.396z"/>
					<path style="fill:#3DC4BE;" d="M113.611,393.268c0,0,1.56,1.52,1.471,4.421c-0.09,2.901,0.878,2.764,1.016,6.217
						c0.138,3.453-1.203,8.564-1.016,11.328c0.187,2.765-0.694,8.842-4.329,12.158c0,0,4.239-1.658,6.036-6.632
						c1.796-4.974,0.276-8.313,1.105-10.857c0.829-2.544,0.553-6.273,0-8.761C117.341,398.655,116.65,395.063,113.611,393.268z"/>
				</g>
			</g>
			<g>
				<path style="fill:#FFFFFF;" d="M76.106,405.736c0,2.983-2.418,5.4-5.4,5.4c-2.983,0-5.401-2.418-5.401-5.4
					c0-2.982,2.418-5.4,5.401-5.4C73.688,400.336,76.106,402.754,76.106,405.736z"/>
				<path style="fill:#895F3D;" d="M71.021,405.736c0,1.272-1.032,2.304-2.303,2.304c-1.273,0-2.304-1.032-2.304-2.304
					c0-1.272,1.031-2.303,2.304-2.303C69.989,403.434,71.021,404.464,71.021,405.736z"/>
			</g>
		</g>
		<path style="fill:#46BC91;" d="M83.021,428.963c0,0,0.874,10.307,5.937,8.214C94.021,435.084,87.367,429.808,83.021,428.963z"/>
	</g>
	<g>
		<g>
			<path style="fill:#F98D43;" d="M89.839,339.831c0,0,8.418,6.588,17.418,1.088c0,0,10.193,2.764,12.513-5.285l-14.598-3.715
				L89.839,339.831z"/>
			<path style="fill:#F98D43;" d="M68.415,296.861c0,0,7.342-8.776,15.009-10.109c7.667-1.333,11.869,4,11.869,4
				s5.247-3,10.106-1.333c4.858,1.667,7.804,8.511,7.804,8.511s5.319-0.702,8.52,2.644c3.201,3.346,3.66,11.343,3.66,11.343
				L68.415,296.861z"/>
			<g>
				<path style="fill:#F98D43;" d="M130.148,323.753c0,0,13.307-13.357,20.704-10.882c7.397,2.476,6.334,19.5-0.3,23.334
					c-6.634,3.836-19.632-6.072-19.632-6.072L130.148,323.753z"/>
				<g>
					<path style="fill:#ED7618;" d="M88.179,291.925c-28.578-1.374-46.132,32.771-50.507,42.407
						c1.842-0.024,4.376-0.503,7.242-2.301c0,0-1.565,3.264-4.927,5.231c8.897,1.068,33.787,3.677,55.906,2.421
						c22.289-1.265,40.838-10.05,40.838-10.05S121.437,293.525,88.179,291.925z"/>
					<path style="fill:#F98D43;" d="M37.672,334.332c1.842-0.024,4.376-0.503,7.242-2.301c0,0-1.565,3.264-4.927,5.231
						c5.85,0.702,18.614,2.07,32.958,2.568c1.42-3.871,2.216-8.169,2.216-12.7c0-11.353-4.965-21.256-12.338-26.558
						C49.141,311.034,40.551,327.99,37.672,334.332z"/>
					<g>
						<path style="fill:#FFFFFF;" d="M58.925,324.826c0,2.982-2.417,5.4-5.4,5.4c-2.983,0-5.401-2.418-5.401-5.4
							s2.418-5.4,5.401-5.4C56.508,319.426,58.925,321.844,58.925,324.826z"/>
						<path style="fill:#895F3D;" d="M53.84,324.826c0,1.271-1.032,2.304-2.303,2.304c-1.273,0-2.304-1.032-2.304-2.304
							c0-1.272,1.031-2.303,2.304-2.303C52.808,322.523,53.84,323.554,53.84,324.826z"/>
					</g>
				</g>
				<g>
					<path style="fill:#F98D43;" d="M88.531,317.384c0,0,0.034-0.03,0.097-0.09c0.063-0.055,0.157-0.16,0.273-0.243
						c0.235-0.191,0.567-0.418,0.96-0.622c0.787-0.409,1.813-0.639,2.817-0.568c1.003,0.07,1.985,0.444,2.704,0.966
						c0.359,0.261,0.655,0.533,0.859,0.759c0.103,0.1,0.181,0.218,0.235,0.281c0.054,0.067,0.083,0.104,0.083,0.104
						s-0.034,0.033-0.098,0.093c-0.063,0.056-0.158,0.16-0.274,0.244c-0.235,0.192-0.567,0.42-0.96,0.626
						c-0.787,0.411-1.813,0.638-2.816,0.564c-1.004-0.076-1.985-0.453-2.705-0.973c-0.359-0.259-0.655-0.532-0.86-0.755
						c-0.103-0.099-0.181-0.217-0.235-0.28C88.56,317.422,88.531,317.384,88.531,317.384z"/>
					<path style="fill:#F98D43;" d="M89.194,308.294c0,0,0.034-0.031,0.098-0.092c0.063-0.054,0.157-0.16,0.273-0.243
						c0.235-0.191,0.567-0.417,0.961-0.622c0.787-0.41,1.813-0.64,2.817-0.569c1.003,0.071,1.985,0.445,2.705,0.966
						c0.359,0.262,0.655,0.536,0.859,0.76c0.103,0.1,0.181,0.218,0.235,0.281c0.054,0.068,0.084,0.105,0.084,0.105
						s-0.034,0.032-0.098,0.092c-0.063,0.056-0.157,0.161-0.273,0.244c-0.235,0.193-0.567,0.42-0.96,0.626
						c-0.787,0.411-1.813,0.638-2.816,0.564c-1.003-0.076-1.986-0.452-2.705-0.972c-0.359-0.26-0.655-0.532-0.86-0.756
						c-0.103-0.098-0.181-0.217-0.236-0.279C89.224,308.329,89.194,308.294,89.194,308.294z"/>
					<path style="fill:#F98D43;" d="M87.868,326.477c0,0,0.034-0.031,0.097-0.091c0.063-0.055,0.158-0.161,0.274-0.244
						c0.234-0.19,0.567-0.417,0.96-0.623c0.787-0.408,1.813-0.638,2.816-0.566c1.003,0.071,1.985,0.444,2.705,0.966
						c0.359,0.26,0.655,0.533,0.859,0.758c0.103,0.1,0.181,0.218,0.235,0.281c0.054,0.069,0.083,0.105,0.083,0.105
						s-0.034,0.031-0.098,0.092c-0.063,0.055-0.158,0.161-0.274,0.245c-0.235,0.191-0.567,0.42-0.961,0.626
						c-0.787,0.411-1.813,0.638-2.816,0.563c-1.003-0.076-1.985-0.451-2.705-0.971c-0.359-0.261-0.655-0.533-0.86-0.756
						c-0.103-0.099-0.18-0.219-0.235-0.281C87.896,326.513,87.868,326.477,87.868,326.477z"/>
					<path style="fill:#F98D43;" d="M89.839,299.468c0,0,0.034-0.03,0.097-0.091c0.063-0.054,0.158-0.16,0.274-0.244
						c0.234-0.19,0.567-0.417,0.96-0.622c0.787-0.409,1.813-0.639,2.817-0.568c1.003,0.071,1.985,0.445,2.704,0.967
						c0.359,0.26,0.655,0.534,0.859,0.758c0.103,0.101,0.181,0.219,0.235,0.282c0.054,0.068,0.083,0.105,0.083,0.105
						s-0.034,0.033-0.098,0.092c-0.063,0.056-0.158,0.161-0.274,0.245c-0.235,0.192-0.567,0.42-0.96,0.626
						c-0.787,0.411-1.813,0.637-2.816,0.563c-1.003-0.076-1.985-0.451-2.705-0.971c-0.359-0.26-0.655-0.533-0.86-0.756
						c-0.103-0.099-0.18-0.218-0.235-0.28C89.868,299.505,89.839,299.468,89.839,299.468z"/>
					<path style="fill:#F98D43;" d="M87.262,334.771c0,0,0.034-0.031,0.097-0.091c0.063-0.054,0.158-0.161,0.274-0.244
						c0.235-0.19,0.567-0.417,0.961-0.622c0.787-0.41,1.813-0.639,2.817-0.568c1.004,0.071,1.985,0.444,2.705,0.965
						c0.359,0.262,0.654,0.536,0.859,0.759c0.103,0.1,0.181,0.22,0.235,0.283c0.055,0.067,0.083,0.104,0.083,0.104
						s-0.034,0.032-0.098,0.092c-0.063,0.056-0.158,0.161-0.274,0.244c-0.235,0.193-0.566,0.419-0.96,0.626
						c-0.788,0.411-1.813,0.638-2.816,0.563c-1.003-0.076-1.985-0.452-2.705-0.972c-0.359-0.259-0.655-0.532-0.86-0.755
						c-0.103-0.099-0.18-0.218-0.235-0.28C87.291,334.806,87.262,334.771,87.262,334.771z"/>
					<path style="fill:#F98D43;" d="M96.705,313.453c0,0,0.034-0.031,0.097-0.09c0.064-0.055,0.158-0.161,0.274-0.243
						c0.235-0.191,0.567-0.419,0.96-0.622c0.787-0.41,1.813-0.64,2.817-0.569c1.004,0.071,1.985,0.444,2.705,0.966
						c0.359,0.262,0.655,0.534,0.859,0.759c0.103,0.1,0.181,0.218,0.235,0.282c0.055,0.067,0.084,0.104,0.084,0.104
						s-0.034,0.034-0.098,0.093c-0.063,0.056-0.158,0.161-0.274,0.244c-0.235,0.192-0.567,0.42-0.96,0.627
						c-0.788,0.411-1.813,0.637-2.816,0.562c-1.003-0.076-1.985-0.451-2.704-0.971c-0.359-0.26-0.655-0.532-0.86-0.755
						c-0.103-0.1-0.18-0.218-0.235-0.281C96.734,313.49,96.705,313.453,96.705,313.453z"/>
					<path style="fill:#F98D43;" d="M97.368,304.362c0,0,0.034-0.031,0.097-0.091c0.063-0.055,0.158-0.161,0.274-0.243
						c0.235-0.191,0.567-0.417,0.96-0.623c0.787-0.409,1.813-0.639,2.817-0.568c1.004,0.071,1.985,0.445,2.705,0.966
						c0.359,0.262,0.655,0.534,0.859,0.759c0.103,0.1,0.181,0.218,0.235,0.281c0.055,0.069,0.083,0.105,0.083,0.105
						s-0.034,0.032-0.098,0.093c-0.063,0.055-0.158,0.161-0.274,0.243c-0.235,0.192-0.567,0.42-0.96,0.626
						c-0.788,0.412-1.813,0.639-2.816,0.564c-1.003-0.076-1.985-0.452-2.705-0.972c-0.359-0.261-0.655-0.533-0.86-0.756
						c-0.103-0.098-0.18-0.217-0.235-0.28C97.397,304.398,97.368,304.362,97.368,304.362z"/>
					<path style="fill:#F98D43;" d="M96.041,322.545c0,0,0.034-0.03,0.097-0.091c0.064-0.054,0.158-0.16,0.274-0.243
						c0.235-0.19,0.567-0.418,0.96-0.623c0.787-0.409,1.813-0.639,2.817-0.567c1.004,0.071,1.985,0.444,2.704,0.966
						c0.359,0.261,0.655,0.534,0.859,0.759c0.103,0.1,0.181,0.218,0.236,0.281c0.054,0.068,0.083,0.104,0.083,0.104
						s-0.034,0.032-0.098,0.092c-0.063,0.056-0.158,0.161-0.274,0.246c-0.235,0.191-0.567,0.42-0.96,0.626
						c-0.788,0.41-1.813,0.637-2.816,0.562c-1.003-0.076-1.985-0.452-2.704-0.971c-0.359-0.26-0.655-0.532-0.86-0.755
						c-0.103-0.1-0.18-0.219-0.235-0.281C96.07,322.582,96.041,322.545,96.041,322.545z"/>
					<path style="fill:#F98D43;" d="M95.436,330.84c0,0,0.034-0.032,0.098-0.092c0.063-0.055,0.157-0.161,0.273-0.244
						c0.235-0.19,0.568-0.416,0.96-0.622c0.787-0.409,1.813-0.638,2.817-0.567c1.004,0.071,1.985,0.444,2.705,0.965
						c0.359,0.261,0.655,0.535,0.859,0.759c0.103,0.1,0.181,0.218,0.235,0.281c0.054,0.069,0.083,0.107,0.083,0.107
						s-0.034,0.031-0.098,0.092c-0.063,0.055-0.157,0.16-0.273,0.243c-0.235,0.193-0.567,0.42-0.96,0.626
						c-0.787,0.412-1.813,0.639-2.816,0.565c-1.003-0.076-1.986-0.452-2.704-0.972c-0.359-0.261-0.655-0.533-0.86-0.757
						c-0.103-0.097-0.181-0.217-0.236-0.279C95.465,330.875,95.436,330.84,95.436,330.84z"/>
					<path style="fill:#F98D43;" d="M105.172,319c0,0,0.034-0.03,0.097-0.09c0.064-0.055,0.158-0.16,0.274-0.243
						c0.235-0.191,0.567-0.418,0.96-0.622c0.787-0.41,1.813-0.64,2.817-0.569c1.003,0.071,1.985,0.444,2.705,0.967
						c0.359,0.261,0.655,0.533,0.859,0.759c0.103,0.1,0.181,0.218,0.236,0.281c0.054,0.067,0.083,0.104,0.083,0.104
						s-0.034,0.034-0.098,0.093c-0.063,0.057-0.158,0.161-0.274,0.245c-0.235,0.192-0.566,0.42-0.96,0.626
						c-0.788,0.411-1.813,0.637-2.816,0.563c-1.003-0.076-1.985-0.452-2.704-0.972c-0.36-0.259-0.656-0.532-0.86-0.755
						c-0.103-0.099-0.181-0.217-0.236-0.28C105.202,319.038,105.172,319,105.172,319z"/>
					<path style="fill:#F98D43;" d="M105.836,309.91c0,0,0.034-0.032,0.097-0.092c0.064-0.054,0.158-0.161,0.274-0.243
						c0.235-0.191,0.567-0.417,0.96-0.622c0.787-0.41,1.813-0.64,2.817-0.569c1.003,0.071,1.985,0.445,2.705,0.966
						c0.359,0.262,0.654,0.536,0.859,0.759c0.103,0.1,0.181,0.218,0.236,0.282c0.054,0.068,0.083,0.105,0.083,0.105
						s-0.034,0.032-0.098,0.092c-0.063,0.056-0.158,0.161-0.274,0.243c-0.235,0.193-0.566,0.42-0.96,0.627
						c-0.788,0.411-1.813,0.638-2.816,0.564c-1.004-0.076-1.985-0.452-2.705-0.972c-0.359-0.261-0.655-0.532-0.86-0.756
						c-0.103-0.098-0.18-0.217-0.235-0.28C105.865,309.945,105.836,309.91,105.836,309.91z"/>
					<path style="fill:#F98D43;" d="M104.509,328.092c0,0,0.034-0.03,0.097-0.091c0.064-0.054,0.158-0.16,0.274-0.243
						c0.235-0.19,0.567-0.418,0.96-0.623c0.787-0.408,1.813-0.638,2.817-0.566c1.003,0.071,1.985,0.444,2.705,0.966
						c0.359,0.26,0.655,0.533,0.859,0.758c0.103,0.1,0.181,0.218,0.236,0.281c0.054,0.068,0.083,0.105,0.083,0.105
						s-0.034,0.031-0.098,0.092c-0.063,0.055-0.158,0.16-0.274,0.245c-0.235,0.191-0.566,0.42-0.96,0.626
						c-0.788,0.41-1.813,0.638-2.816,0.563c-1.004-0.076-1.986-0.452-2.705-0.972c-0.36-0.26-0.656-0.532-0.86-0.755
						c-0.103-0.1-0.18-0.219-0.235-0.281C104.538,328.129,104.509,328.092,104.509,328.092z"/>
					<path style="fill:#F98D43;" d="M114.356,314.741c0,0,0.034-0.03,0.097-0.09c0.063-0.055,0.158-0.16,0.274-0.243
						c0.235-0.191,0.567-0.419,0.96-0.622c0.787-0.41,1.813-0.64,2.816-0.569c1.004,0.071,1.985,0.444,2.705,0.966
						c0.359,0.262,0.655,0.534,0.859,0.76c0.103,0.1,0.181,0.218,0.235,0.281c0.055,0.067,0.083,0.103,0.083,0.103
						s-0.034,0.034-0.098,0.093c-0.064,0.056-0.158,0.161-0.274,0.245c-0.235,0.192-0.567,0.42-0.96,0.626
						c-0.787,0.411-1.813,0.637-2.816,0.562c-1.003-0.076-1.985-0.451-2.704-0.971c-0.359-0.259-0.655-0.532-0.86-0.755
						c-0.102-0.1-0.18-0.218-0.235-0.281C114.385,314.778,114.356,314.741,114.356,314.741z"/>
					<path style="fill:#F98D43;" d="M113.692,323.833c0,0,0.034-0.03,0.097-0.091c0.064-0.054,0.158-0.16,0.274-0.243
						c0.235-0.19,0.567-0.418,0.96-0.623c0.787-0.408,1.813-0.639,2.816-0.567c1.004,0.071,1.985,0.445,2.705,0.966
						c0.359,0.261,0.655,0.534,0.859,0.759c0.103,0.1,0.181,0.218,0.235,0.281c0.055,0.068,0.084,0.105,0.084,0.105
						s-0.034,0.031-0.098,0.092c-0.063,0.055-0.158,0.16-0.274,0.245c-0.235,0.191-0.567,0.42-0.961,0.626
						c-0.787,0.41-1.813,0.638-2.816,0.563c-1.003-0.076-1.985-0.453-2.704-0.972c-0.359-0.26-0.655-0.532-0.86-0.755
						c-0.103-0.1-0.18-0.219-0.235-0.281C113.722,323.87,113.692,323.833,113.692,323.833z"/>
				</g>
			</g>
		</g>
		<path style="fill:#B54D06;" d="M87.95,340.229c5.063-2.093-1.591-7.369-5.937-8.214C82.013,332.016,82.887,342.322,87.95,340.229"
			/>
	</g>
	<g>
		<g>
			<g>
				<g>
					<path style="fill:#F4D645;" d="M151.274,206.085c-3.087-6.468-1.688-13.907,2.933-18.84c-2.043,0.148-4.094,0.656-6.054,1.592
						c-8.43,4.022-12,14.117-7.978,22.545c4.023,8.43,14.117,12.003,22.546,7.98c1.96-0.936,3.645-2.21,5.045-3.706
						C161.024,216.146,154.362,212.554,151.274,206.085z"/>
					<path style="fill:#F7B942;" d="M25.883,206.75c0.368,2.16,2.561,6.213,6.739,10.702c1.779,0.434,4.305,0.604,7.469-0.364
						c0,0-1.73,2.003-4.578,3.227c9.427,8.648,26.013,17.769,51.016,17.769c41.115,0,62.219-31.333,62.219-31.333H25.883z"/>
					<path style="fill:#F4D645;" d="M32.622,217.452c1.779,0.434,4.305,0.604,7.469-0.364c0,0-1.73,2.003-4.578,3.227
						c4.712,4.323,11.213,8.764,19.66,12.124c6.139-3.527,10.196-9.604,10.196-16.514c0-3.313-0.936-6.432-2.583-9.174H25.883
						C26.251,208.91,28.444,212.963,32.622,217.452z"/>
					<g>
						<path style="fill:#FFFFFF;" d="M57.413,214.579c0,2.983-2.417,5.4-5.4,5.4c-2.983,0-5.401-2.418-5.401-5.4
							c0-2.982,2.418-5.4,5.401-5.4C54.996,209.178,57.413,211.596,57.413,214.579z"/>
						<path style="fill:#895F3D;" d="M52.328,214.578c0,1.273-1.032,2.304-2.303,2.304c-1.273,0-2.304-1.032-2.304-2.304
							c0-1.272,1.031-2.303,2.304-2.303C51.296,212.275,52.328,213.306,52.328,214.578z"/>
					</g>
				</g>
				<g>
					<path style="fill:#F4D645;" d="M83.016,211.287c0,0.72-1.776,1.303-3.966,1.303s-3.966-0.583-3.966-1.303
						c0-0.719,1.776-1.302,3.966-1.302S83.016,210.567,83.016,211.287z"/>
					<path style="fill:#F4D645;" d="M83.016,221.287c0,0.72-1.776,1.303-3.966,1.303s-3.966-0.583-3.966-1.303
						c0-0.719,1.776-1.302,3.966-1.302S83.016,220.567,83.016,221.287z"/>
					<path style="fill:#F4D645;" d="M83.016,231.287c0,0.72-1.776,1.303-3.966,1.303s-3.966-0.583-3.966-1.303
						c0-0.72,1.776-1.302,3.966-1.302S83.016,230.567,83.016,231.287z"/>
					<path style="fill:#F4D645;" d="M93.016,216.287c0,0.72-1.776,1.303-3.966,1.303s-3.966-0.583-3.966-1.303
						c0-0.719,1.776-1.302,3.966-1.302S93.016,215.567,93.016,216.287z"/>
					<path style="fill:#F4D645;" d="M93.016,226.287c0,0.72-1.776,1.303-3.966,1.303s-3.966-0.583-3.966-1.303
						c0-0.719,1.776-1.302,3.966-1.302S93.016,225.567,93.016,226.287z"/>
					<path style="fill:#F4D645;" d="M103.016,211.287c0,0.72-1.776,1.303-3.966,1.303s-3.966-0.583-3.966-1.303
						c0-0.719,1.776-1.302,3.966-1.302S103.016,210.567,103.016,211.287z"/>
					<path style="fill:#F4D645;" d="M103.016,221.287c0,0.72-1.776,1.303-3.966,1.303s-3.966-0.583-3.966-1.303
						c0-0.719,1.776-1.302,3.966-1.302S103.016,220.567,103.016,221.287z"/>
					<path style="fill:#F4D645;" d="M103.016,231.287c0,0.72-1.776,1.303-3.966,1.303s-3.966-0.583-3.966-1.303
						c0-0.72,1.776-1.302,3.966-1.302S103.016,230.567,103.016,231.287z"/>
					<path style="fill:#F4D645;" d="M113.016,216.287c0,0.72-1.776,1.303-3.966,1.303c-2.19,0-3.966-0.583-3.966-1.303
						c0-0.719,1.776-1.302,3.966-1.302C111.24,214.984,113.016,215.567,113.016,216.287z"/>
					<path style="fill:#F4D645;" d="M113.016,226.287c0,0.72-1.776,1.303-3.966,1.303c-2.19,0-3.966-0.583-3.966-1.303
						c0-0.719,1.776-1.302,3.966-1.302C111.24,224.984,113.016,225.567,113.016,226.287z"/>
					<path style="fill:#F4D645;" d="M123.016,221.287c0,0.72-1.776,1.303-3.966,1.303c-2.19,0-3.966-0.583-3.966-1.303
						c0-0.719,1.776-1.302,3.966-1.302C121.24,219.984,123.016,220.567,123.016,221.287z"/>
				</g>
			</g>
			<path style="fill:#F4D645;" d="M67.369,206.75c0,0,18.902-6.266,19.714-4.923c0.813,1.343-2.067,2.367-2.067,2.367
				s10.543-4.46,10.711-2.367c0.168,2.093-2.637,2.782-2.637,2.782s10.796-4.625,11.926-2.782c1.13,1.843-2.229,2.303-2.229,2.303
				s13.046-4.896,12.952-2.303c-0.094,2.593-2.344,2.782-2.344,2.782s11.49-2.689,11.62-1.689c0.13,1-1.12,3.83-1.12,3.83H67.369z"
				/>
		</g>
		<path style="fill:#EA9918;" d="M72.052,238.528c5.063-2.093-1.591-7.369-5.937-8.214
			C66.115,230.314,66.989,240.621,72.052,238.528"/>
	</g>
	<g>
		<g>
			<path style="fill:#3DC4BE;" d="M76.766,149.715c0,0,3.62,8.235,6.249,8.485c2.63,0.25,26.732-0.755,40.841-20.914L76.766,149.715
				z"/>
			<path style="fill:#3DC4BE;" d="M76.766,94.568c0,0,3.62-8.235,6.249-8.485c2.63-0.25,26.732,0.755,40.841,20.914L76.766,94.568z"
				/>
			<g>
				<g>
					<path style="fill:#3DC4BE;" d="M141.785,122.173c16.522-10.297,7.184-30.41,7.184-30.41
						c-22.748,0.479-20.653,21.657-20.653,21.657l-0.051,8.752l0.051,8.753c0,0-2.095,21.177,20.653,21.657
						C148.969,152.583,158.307,132.47,141.785,122.173z"/>
					<g>
						<g>
							<g>
								<path style="fill:#61D1C9;" d="M144.959,94.968c-9.624,2.194-13.676,14.665-14.994,22.955
									c-0.18,1.132,1.55,1.619,1.731,0.477c1.217-7.651,4.763-19.653,13.74-21.701C146.565,96.442,146.086,94.71,144.959,94.968
									L144.959,94.968z"/>
							</g>
							<g>
								<path style="fill:#61D1C9;" d="M144.422,99.871c-3.493,6.871-7.799,14.75-14.044,19.444c-0.913,0.687-0.02,2.247,0.906,1.55
									c6.528-4.907,11.043-12.915,14.689-20.088C146.496,99.747,144.947,98.838,144.422,99.871L144.422,99.871z"/>
							</g>
							<g>
								<path style="fill:#61D1C9;" d="M147.891,98.049c0.324,9.871-5.12,19.222-14.102,23.349c-1.051,0.483-0.138,2.03,0.907,1.551
									c9.528-4.378,15.334-14.43,14.991-24.9C149.649,96.894,147.853,96.89,147.891,98.049L147.891,98.049z"/>
							</g>
						</g>
						<g>
							<g>
								<path style="fill:#61D1C9;" d="M144.959,151.111c-9.624-2.194-13.676-14.666-14.994-22.955
									c-0.18-1.132,1.55-1.619,1.731-0.477c1.217,7.651,4.763,19.653,13.74,21.701
									C146.565,149.637,146.086,151.369,144.959,151.111L144.959,151.111z"/>
							</g>
							<g>
								<path style="fill:#61D1C9;" d="M144.422,146.209c-3.493-6.871-7.799-14.75-14.044-19.444
									c-0.913-0.687-0.02-2.247,0.906-1.55c6.528,4.906,11.043,12.915,14.689,20.088
									C146.496,146.333,144.947,147.242,144.422,146.209L144.422,146.209z"/>
							</g>
							<g>
								<path style="fill:#61D1C9;" d="M147.891,148.031c0.324-9.871-5.12-19.223-14.102-23.35c-1.051-0.482-0.138-2.03,0.907-1.55
									c9.528,4.377,15.334,14.43,14.991,24.9C149.649,149.186,147.853,149.19,147.891,148.031L147.891,148.031z"/>
							</g>
						</g>
					</g>
				</g>
				<g>
					<path style="fill:#78DDBB;" d="M89.096,93.117c-27.255,0-42.256,20.021-46.565,26.817c1.423,0.826,3.998,1.804,7.757,1.277
						c0,0-3.618,3.061-8.237,2.428c3.57,5.88,18.666,27.59,47.045,27.59c32.826,0,46.276-29.057,46.276-29.057
						S121.921,93.117,89.096,93.117z"/>
					<g>
						<path style="fill:#92EACA;" d="M42.53,119.935c1.423,0.826,3.998,1.804,7.757,1.277c0,0-3.618,3.061-8.237,2.428
							c2.243,3.695,9.042,13.639,20.825,20.521c8.773-4.009,14.977-13.78,14.977-25.22c0-8.811-3.693-16.62-9.391-21.585
							C54.053,103.613,45.591,115.107,42.53,119.935z"/>
						<g>
							<path style="fill:#FFFFFF;" d="M68.672,114.689c0,2.983-2.418,5.4-5.4,5.4c-2.983,0-5.401-2.417-5.401-5.4
								c0-2.982,2.418-5.4,5.401-5.4C66.255,109.289,68.672,111.707,68.672,114.689z"/>
							<path style="fill:#895F3D;" d="M63.587,114.689c0,1.272-1.032,2.304-2.303,2.304c-1.273,0-2.304-1.032-2.304-2.304
								c0-1.272,1.031-2.303,2.304-2.303C62.555,112.386,63.587,113.417,63.587,114.689z"/>
						</g>
					</g>
				</g>
				<g>
					<path style="fill:#3DC4BE;" d="M88.329,103.795c1.819,0,3.293,1.474,3.293,3.292c0,1.819-1.474,3.293-3.293,3.293V103.795z"/>
					<path style="fill:#3DC4BE;" d="M88.329,118.162c1.819,0,3.293,1.474,3.293,3.292c0,1.819-1.474,3.293-3.293,3.293V118.162z"/>
					<path style="fill:#3DC4BE;" d="M88.329,132.529c1.819,0,3.293,1.474,3.293,3.293c0,1.819-1.474,3.293-3.293,3.293V132.529z"/>
					<path style="fill:#3DC4BE;" d="M95.513,110.979c1.818,0,3.291,1.474,3.291,3.292c0,1.819-1.474,3.293-3.291,3.293V110.979z"/>
					<path style="fill:#3DC4BE;" d="M95.513,125.346c1.818,0,3.291,1.474,3.291,3.292c0,1.819-1.474,3.293-3.291,3.293V125.346z"/>
					<path style="fill:#3DC4BE;" d="M102.696,118.162c1.818,0,3.292,1.474,3.292,3.292c0,1.819-1.474,3.293-3.292,3.293V118.162z"/>
					<path style="fill:#3DC4BE;" d="M95.513,98.049c1.818,0,3.291,1.474,3.291,3.292c0,1.819-1.474,3.293-3.291,3.293V98.049z"/>
					<path style="fill:#3DC4BE;" d="M95.513,139.712c1.818,0,3.291,1.474,3.291,3.292c0,1.819-1.474,3.293-3.291,3.293V139.712z"/>
					<path style="fill:#3DC4BE;" d="M102.696,103.795c1.818,0,3.292,1.474,3.292,3.292c0,1.819-1.474,3.293-3.292,3.293V103.795z"/>
					<path style="fill:#3DC4BE;" d="M102.696,132.529c1.818,0,3.292,1.474,3.292,3.293c0,1.819-1.474,3.293-3.292,3.293V132.529z"/>
					<path style="fill:#3DC4BE;" d="M109.879,110.979c1.818,0,3.292,1.474,3.292,3.292c0,1.819-1.474,3.293-3.292,3.293V110.979z"/>
					<path style="fill:#3DC4BE;" d="M109.879,125.346c1.818,0,3.292,1.474,3.292,3.292c0,1.819-1.474,3.293-3.292,3.293V125.346z"/>
				</g>
			</g>
		</g>
		<path style="fill:#46BC91;" d="M81.45,151.622c5.063-2.093-1.591-7.369-5.937-8.214C75.513,143.408,76.387,153.715,81.45,151.622"
			/>
	</g>
	<g>
		<g>
			<path style="fill:#6BC5ED;" d="M234.266,142.087c0,0,12.516,6.626,25.266,4.986l-1.369-2.239c0,0,18.26,2.4,27.315-8.501
				l-34.566-7.401L234.266,142.087z"/>
			<path style="fill:#6BC5ED;" d="M234.266,101.61c0,0,12.516-6.627,25.266-4.986l-1.369,2.239c0,0,18.26-2.4,27.315,8.501
				l-34.566,7.401L234.266,101.61z"/>
			<g>
				<path style="fill:#6BC5ED;" d="M314.146,122.723h-6.887H314.146c0-0.001,8.178-3.98,11.191-6.13
					c3.014-2.151,3.873-17.368-1.723-18.997c-5.596-1.628-23.234,25.116-23.242,25.126l0,0v0.001l0,0l0,0
					c0.008,0.01,17.647,26.754,23.242,25.126c5.596-1.628,4.736-16.846,1.723-18.997
					C322.324,126.702,314.146,122.723,314.146,122.723z"/>
				<g>
					<g>
						<path style="fill:#45A5D8;" d="M247.252,100.971c-36.441,0-56.499,14.449-62.26,19.354c1.903,0.596,5.346,1.302,10.372,0.922
							c0,0-3.739,3.768-11.013,1.752c4.773,4.244,24.957,19.912,62.902,19.912c43.889,0,61.871-20.971,61.871-20.971
							S291.141,100.971,247.252,100.971z"/>
					</g>
					<path style="fill:#6BC5ED;" d="M195.363,121.247c0,0-3.739,3.768-11.013,1.752c4.014,3.569,18.933,15.216,46.146,18.831
						c3.976-5.119,6.295-11.234,6.295-17.809c0-8.23-3.63-15.741-9.605-21.476c-23.877,3.875-37.596,13.864-42.195,17.779
						C186.895,120.921,190.337,121.627,195.363,121.247z"/>
				</g>
				<g>
					<path style="fill:#FFFFFF;" d="M220.21,118.068c0,2.983-2.418,5.4-5.4,5.4c-2.983,0-5.401-2.418-5.401-5.4
						c0-2.982,2.419-5.4,5.401-5.4C217.792,112.668,220.21,115.085,220.21,118.068z"/>
					<path style="fill:#895F3D;" d="M215.124,118.067c0,1.272-1.031,2.304-2.303,2.304c-1.273,0-2.305-1.032-2.305-2.304
						c0-1.272,1.031-2.303,2.305-2.303C214.093,115.765,215.124,116.795,215.124,118.067z"/>
				</g>
				<g>
					<path style="fill:#477ED6;" d="M242.295,104.989c0,0,0.454,0.364,1.12,1.136c0.318,0.392,0.732,0.862,1.117,1.456
						c0.198,0.296,0.408,0.611,0.63,0.943c0.205,0.342,0.395,0.714,0.609,1.099c0.433,0.766,0.807,1.642,1.195,2.577
						c0.322,0.953,0.714,1.957,0.935,3.04c0.288,1.071,0.464,2.203,0.589,3.36c0.189,1.154,0.117,2.341,0.17,3.522
						c-0.052,1.179-0.165,2.357-0.294,3.508c-0.215,1.139-0.447,2.256-0.698,3.324c-0.336,1.048-0.68,2.051-1.016,2.992
						c-0.346,0.939-0.822,1.768-1.198,2.548c-0.38,0.78-0.745,1.482-1.164,2.058c-0.383,0.591-0.747,1.088-1.039,1.499
						c-0.588,0.817-0.955,1.257-0.955,1.257s0.109-0.579,0.355-1.546c0.125-0.482,0.267-1.068,0.464-1.72
						c0.214-0.645,0.344-1.411,0.538-2.218c0.166-0.817,0.419-1.674,0.585-2.6c0.155-0.93,0.327-1.899,0.527-2.893
						c0.115-1.009,0.225-2.046,0.378-3.091c0.041-1.056,0.14-2.122,0.172-3.19l-0.008-1.6c0.006-0.533,0.01-1.063-0.047-1.586
						c-0.041-0.524-0.069-1.046-0.093-1.563c-0.039-0.515-0.129-1.018-0.176-1.52c-0.085-1.008-0.298-1.958-0.435-2.883
						c-0.206-0.904-0.345-1.789-0.566-2.579c-0.207-0.795-0.399-1.532-0.603-2.178c-0.196-0.649-0.388-1.212-0.544-1.682
						C242.516,105.528,242.295,104.989,242.295,104.989z"/>
					<path style="fill:#477ED6;" d="M252.513,106.165c0,0,0.423,0.339,1.043,1.058c0.297,0.365,0.683,0.803,1.041,1.356
						c0.184,0.276,0.38,0.569,0.587,0.879c0.19,0.318,0.369,0.665,0.568,1.023c0.402,0.713,0.75,1.529,1.111,2.4
						c0.301,0.887,0.666,1.823,0.871,2.832c0.268,0.998,0.432,2.052,0.549,3.13c0.176,1.075,0.107,2.181,0.158,3.281
						c-0.049,1.098-0.154,2.195-0.275,3.268c-0.199,1.062-0.416,2.102-0.65,3.097c-0.313,0.976-0.631,1.911-0.943,2.787
						c-0.322,0.874-0.767,1.647-1.117,2.374c-0.355,0.726-0.694,1.381-1.085,1.917c-0.356,0.551-0.695,1.014-0.968,1.395
						c-0.548,0.761-0.89,1.171-0.89,1.171s0.102-0.539,0.331-1.439c0.115-0.45,0.248-0.996,0.432-1.603
						c0.199-0.601,0.321-1.314,0.502-2.066c0.154-0.761,0.391-1.559,0.546-2.422c0.144-0.866,0.304-1.77,0.49-2.695
						c0.108-0.939,0.21-1.906,0.352-2.879c0.038-0.983,0.131-1.977,0.16-2.972l-0.007-1.491c0.005-0.496,0.009-0.99-0.044-1.478
						c-0.038-0.488-0.064-0.974-0.087-1.456c-0.037-0.48-0.12-0.948-0.163-1.416c-0.079-0.939-0.278-1.824-0.405-2.686
						c-0.191-0.842-0.322-1.666-0.527-2.402c-0.193-0.741-0.372-1.427-0.562-2.029c-0.183-0.604-0.362-1.128-0.506-1.566
						C252.719,106.666,252.513,106.165,252.513,106.165z"/>
					<path style="fill:#477ED6;" d="M262.623,106.765c0,0,0.408,0.327,1.004,1.018c0.285,0.351,0.658,0.773,1.002,1.305
						c0.178,0.266,0.365,0.548,0.564,0.846c0.184,0.307,0.355,0.64,0.547,0.985c0.389,0.687,0.723,1.472,1.07,2.31
						c0.289,0.854,0.641,1.754,0.838,2.726c0.26,0.96,0.416,1.975,0.529,3.013c0.17,1.035,0.104,2.099,0.152,3.158
						c-0.047,1.057-0.148,2.113-0.264,3.145c-0.193,1.021-0.402,2.022-0.627,2.98c-0.301,0.939-0.609,1.839-0.91,2.683
						c-0.311,0.841-0.736,1.585-1.074,2.285c-0.342,0.699-0.668,1.329-1.043,1.845c-0.344,0.53-0.67,0.976-0.932,1.343
						c-0.527,0.732-0.858,1.127-0.858,1.127s0.098-0.519,0.318-1.386c0.111-0.433,0.24-0.958,0.416-1.542
						c0.191-0.579,0.309-1.265,0.482-1.989c0.148-0.732,0.377-1.501,0.525-2.331c0.139-0.833,0.293-1.703,0.473-2.594
						c0.104-0.904,0.201-1.834,0.338-2.771c0.037-0.946,0.127-1.903,0.154-2.86l-0.006-1.434c0.004-0.478,0.008-0.953-0.043-1.422
						c-0.037-0.47-0.063-0.938-0.084-1.401c-0.035-0.462-0.115-0.912-0.156-1.363c-0.076-0.904-0.268-1.755-0.391-2.585
						c-0.184-0.81-0.311-1.604-0.508-2.312c-0.186-0.713-0.357-1.374-0.539-1.953c-0.176-0.581-0.35-1.086-0.488-1.508
						C262.822,107.248,262.623,106.765,262.623,106.765z"/>
					<path style="fill:#477ED6;" d="M272.623,108.169c0,0,0.408,0.292,1.004,0.911c0.285,0.314,0.658,0.692,1.002,1.168
						c0.178,0.238,0.365,0.491,0.564,0.757c0.184,0.274,0.355,0.573,0.547,0.881c0.389,0.615,0.723,1.318,1.07,2.068
						c0.289,0.765,0.641,1.57,0.838,2.44c0.26,0.86,0.416,1.768,0.529,2.697c0.17,0.926,0.104,1.879,0.152,2.827
						c-0.047,0.946-0.148,1.891-0.264,2.815c-0.193,0.915-0.402,1.811-0.627,2.667c-0.301,0.841-0.609,1.646-0.91,2.401
						c-0.311,0.753-0.736,1.419-1.074,2.045c-0.342,0.626-0.668,1.189-1.043,1.651c-0.344,0.475-0.67,0.873-0.932,1.203
						c-0.527,0.656-0.858,1.009-0.858,1.009s0.098-0.465,0.318-1.24c0.111-0.388,0.24-0.858,0.416-1.38
						c0.191-0.518,0.309-1.133,0.482-1.78c0.148-0.656,0.377-1.343,0.525-2.086c0.139-0.746,0.293-1.524,0.473-2.322
						c0.104-0.809,0.201-1.642,0.338-2.481c0.037-0.847,0.127-1.704,0.154-2.56l-0.006-1.284c0.004-0.428,0.008-0.853-0.043-1.273
						c-0.037-0.42-0.063-0.839-0.084-1.254c-0.035-0.414-0.115-0.816-0.156-1.22c-0.076-0.809-0.268-1.571-0.391-2.314
						c-0.184-0.725-0.311-1.436-0.508-2.07c-0.186-0.639-0.357-1.229-0.539-1.749c-0.176-0.521-0.35-0.972-0.488-1.35
						C272.822,108.602,272.623,108.169,272.623,108.169z"/>
					<path style="fill:#477ED6;" d="M282.947,110.345c0,0,0.361,0.246,0.891,0.768c0.252,0.264,0.582,0.582,0.889,0.983
						c0.156,0.2,0.322,0.413,0.5,0.638c0.162,0.231,0.314,0.482,0.484,0.742c0.344,0.518,0.641,1.109,0.949,1.742
						c0.256,0.644,0.566,1.322,0.742,2.055c0.229,0.724,0.369,1.488,0.469,2.271c0.15,0.78,0.092,1.583,0.135,2.381
						c-0.043,0.796-0.133,1.592-0.234,2.371c-0.17,0.77-0.355,1.524-0.555,2.246c-0.266,0.709-0.541,1.386-0.807,2.022
						c-0.275,0.634-0.654,1.195-0.953,1.722c-0.303,0.527-0.592,1.002-0.924,1.391c-0.305,0.4-0.594,0.735-0.826,1.012
						c-0.467,0.552-0.76,0.85-0.76,0.85s0.088-0.391,0.283-1.045c0.098-0.326,0.211-0.722,0.369-1.162
						c0.168-0.436,0.273-0.953,0.426-1.499c0.133-0.552,0.334-1.131,0.467-1.756c0.123-0.628,0.26-1.284,0.418-1.956
						c0.092-0.681,0.18-1.383,0.301-2.089c0.033-0.713,0.111-1.434,0.137-2.156l-0.006-1.081c0.004-0.36,0.008-0.719-0.037-1.072
						c-0.033-0.354-0.057-0.707-0.076-1.056c-0.029-0.349-0.101-0.688-0.139-1.027c-0.066-0.682-0.236-1.323-0.346-1.948
						c-0.162-0.611-0.275-1.209-0.449-1.743c-0.164-0.538-0.316-1.036-0.478-1.473c-0.156-0.438-0.309-0.819-0.432-1.137
						C283.123,110.709,282.947,110.345,282.947,110.345z"/>
				</g>
			</g>
		</g>
		<path style="fill:#2489B5;" d="M237.835,145.941c5.063-2.093-1.592-7.369-5.938-8.214
			C231.898,137.727,232.772,148.034,237.835,145.941"/>
	</g>
	<g>
		<g>
			<g>
				<g>
					<path style="fill:#B74F08;" d="M416.086,139.452c0,0,11.676,8.518,20.483,6.419c8.807-2.099,12.221-9.556,5.492-15.284
						C436.74,126.057,416.086,139.452,416.086,139.452z"/>
					<path style="fill:#ED7618;" d="M414.971,138.727c0,0,10.875,7.636,19.682,5.537c8.807-2.099,12.047-9.601,6.826-14.247
						C436.258,125.371,414.971,138.727,414.971,138.727z"/>
				</g>
				<g>
					<path style="fill:#B74F08;" d="M388.316,138.879c0,0,8.082,12.469,13.059,12.469c4.643,0,10.953-4.267,11.512-5.476
						c0.557-1.208-2.975-5.61-2.975-5.61L388.316,138.879z"/>
					<path style="fill:#ED7618;" d="M388.316,138.879c0,0,7.242,10.951,11.883,10.951c4.643,0,10.955-4.267,11.512-5.476
						c0.557-1.209-1.799-4.092-1.799-4.092L388.316,138.879z"/>
				</g>
				<g>
					<path style="fill:#B74F08;" d="M386.279,106.765c0,0,5.32-14.935,15.31-13.766c9.992,1.169,11.959,8.796,16.045,8.873
						c4.084,0.076,22.299-8.705,26.863,19.033L386.279,106.765z"/>
					<path style="fill:#ED7618;" d="M386.318,105.651c0,0,5.205-11.594,15.195-10.426c9.992,1.168,11.959,8.797,16.045,8.873
						c4.084,0.076,19.268-8.014,26.977,15.692L386.318,105.651z"/>
				</g>
				<g>
					<path style="fill:#B74F08;" d="M445.457,121.911c0,0,16.43-18.219,24.244-13.631c7.813,4.587,4.375,27.586-3.44,31.715
						c-7.813,4.128-20.805-13.728-20.805-13.728V121.911z"/>
					<path style="fill:#ED7618;" d="M445.904,120.161c0,0,14.639-14.249,21.602-10.161c6.963,4.088,3.9,24.581-3.063,28.26
						c-6.963,3.679-18.539-10.247-18.539-10.247V120.161z"/>
				</g>
				<path style="fill:#ED7618;" d="M357.545,120.782c1.834,0.631,4.318,1.045,7.48,0.601c0,0-3.436,2.915-8.139,3.136
					c48.783,36.381,95.629-0.413,95.629-0.413C403.871,84.578,367.092,112.081,357.545,120.782z"/>
				<path style="fill:#F98D43;" d="M381.277,137.232c4.996-3.236,8.26-8.487,8.26-14.432c0-6.605-4.021-12.357-9.982-15.434
					c-10.738,4.027-18.363,10.091-22.01,13.415c1.834,0.631,4.318,1.045,7.48,0.601c0,0-3.436,2.915-8.139,3.136
					C365.145,130.678,373.348,134.734,381.277,137.232z"/>
				<g>
					<path style="fill:#FFFFFF;" d="M384.42,117.956c0,2.983-2.418,5.4-5.4,5.4c-2.982,0-5.402-2.418-5.402-5.4
						c0-2.982,2.42-5.4,5.402-5.4C382.002,112.555,384.42,114.973,384.42,117.956z"/>
					<path style="fill:#895F3D;" d="M379.334,117.955c0,1.272-1.031,2.304-2.303,2.304c-1.273,0-2.305-1.032-2.305-2.304
						c0-1.272,1.031-2.303,2.305-2.303C378.303,115.652,379.334,116.683,379.334,117.955z"/>
				</g>
				<path style="fill:#F98D43;" d="M428.81,109.34c-2.336-1.017-4.633-1.884-6.885-2.62c-7.01,12.957-3.125,26.906-1.355,31.826
					c2.551-0.587,4.992-1.27,7.301-2.019C425.52,124.882,427.152,115.182,428.81,109.34z"/>
				<path style="fill:#F98D43;" d="M412.695,104.373c-2.266-0.409-4.475-0.681-6.631-0.842
					c-11.754,16.795-2.635,36.785-2.598,36.865c0.895,0.063,1.773,0.087,2.656,0.117c1.617-0.067,3.207-0.184,4.77-0.347
					C406.092,122.201,411.102,108.147,412.695,104.373z"/>
			</g>
			<path style="fill:#F98D43;" d="M445.553,118.842c-2.672-1.871-5.301-3.538-7.889-5.026c-1.91,7.128-1.26,14.004-0.18,18.978
				c3.047-1.383,5.701-2.782,7.893-4.042C445.135,125.148,445.244,121.822,445.553,118.842z"/>
		</g>
		<path style="fill:#B54D06;" d="M401.41,140.047c5.063-2.093-1.592-7.369-5.938-8.214
			C395.473,131.833,396.348,142.14,401.41,140.047"/>
	</g>
	<g>
		<g>
			<path style="fill:#78DDBB;" d="M229.781,234.154c0,0,15.51,14,31.131,12.749c15.619-1.25,21.883-16.877,21.627-26.438
				L229.781,234.154z"/>
			<path style="fill:#78DDBB;" d="M229.781,191.173c0,0,15.51-14,31.131-12.75c15.619,1.25,21.883,16.877,21.627,26.439
				L229.781,191.173z"/>
			<g>
				<g>
					<path style="fill:#78DDBB;" d="M279.145,207.003c0,0,15.238-14.999,18.26-13.667c3.023,1.333,4.445,30.333,2.076,33.667
						c-2.369,3.333-20.336-11.667-20.336-11.667V207.003z"/>
					<path style="fill:#3DC4BE;" d="M260.225,184.585c-11.766,0-39.088,2.093-48.83,27.191c1.759,0.594,4.386,0.997,7.802,0.16
						c0,0-2.956,3.069-7.32,3.581c10.142,23.946,36.775,25.954,48.348,25.954c11.947,0,23.594-14.606,23.594-28.443
						C283.818,199.19,272.172,184.585,260.225,184.585z"/>
					<path style="fill:#78DDBB;" d="M211.395,211.776c1.759,0.594,4.386,0.997,7.802,0.16c0,0-2.956,3.069-7.32,3.581
						c4.533,10.702,12.36,17.014,20.664,20.732c3.176-6.836,5.07-15.402,5.07-24.708c0-8.196-1.47-15.818-3.99-22.191
						C224.614,193.131,216.021,199.856,211.395,211.776z"/>
					<g>
						<path style="fill:#FFFFFF;" d="M233.08,204.383c0,2.983-2.418,5.4-5.4,5.4c-2.982,0-5.401-2.418-5.401-5.4
							c0-2.982,2.419-5.4,5.401-5.4C230.662,198.983,233.08,201.401,233.08,204.383z"/>
						<path style="fill:#895F3D;" d="M227.994,204.383c0,1.273-1.031,2.304-2.303,2.304c-1.273,0-2.305-1.032-2.305-2.304
							c0-1.272,1.031-2.303,2.305-2.303C226.963,202.08,227.994,203.111,227.994,204.383z"/>
					</g>
				</g>
				<g>
					<ellipse style="fill:#78DDBB;" cx="248.161" cy="212.794" rx="2.75" ry="19.542"/>
					<path style="fill:#78DDBB;" d="M260.912,213.027c0,9.21-1.232,16.677-2.75,16.677c-1.519,0-2.752-7.466-2.752-16.677
						c0-9.21,1.232-16.677,2.752-16.677C259.68,196.35,260.912,203.817,260.912,213.027z"/>
					<path style="fill:#78DDBB;" d="M270.912,213.027c0,7.628-1.232,13.812-2.75,13.812c-1.52,0-2.75-6.184-2.75-13.812
						c0-7.628,1.23-13.812,2.75-13.812C269.68,199.215,270.912,205.399,270.912,213.027z"/>
				</g>
			</g>
		</g>
		<path style="fill:#46BC91;" d="M245.368,241.275c5.063-2.093-1.592-7.369-5.938-8.214
			C239.43,233.061,240.304,243.368,245.368,241.275"/>
	</g>
	<g>
		<g>
			<path style="fill:#F4D645;" d="M246.414,346.736c0,0-1.239,6.468,1.374,8.022c3.516,2.092,13.529,0.083,10.435-6.438
				c0,0,3.1,2.271,6.857,1.046c3.76-1.226,12.508-8.116,13.838-11.142c1.887-4.289-2.152-11.113-2.152-11.113L246.414,346.736z"/>
			<path style="fill:#F4D645;" d="M230.463,283.427c0,0,6.301-9.076,15.985-9.326c9.684-0.25,14.565,6.985,14.565,6.985
				s17.715-1.36,19.791,21.092L230.463,283.427z"/>
			<g>
				<path style="fill:#F4D645;" d="M278.883,313.647c0,0,25.023-26.518,32.012-22.15c6.988,4.367-12.512,22.681-12.512,22.681
					s10.645,9.103,10.322,13.395C308.383,331.863,290.383,326.43,278.883,313.647z"/>
				<path style="fill:#F7B942;" d="M244.126,281.086c-25.763,0-39.943,23.344-44.017,31.27c1.345,0.963,3.779,2.103,7.332,1.489
					c0,0-3.42,3.568-7.786,2.83c3.375,6.857,17.645,32.17,44.471,32.17c31.028,0,43.743-33.88,43.743-33.88
					S275.154,281.086,244.126,281.086z"/>
				<path style="fill:#F4D645;" d="M200.11,312.355c1.345,0.963,3.779,2.103,7.332,1.489c0,0-3.42,3.568-7.786,2.83
					c2.433,4.943,10.528,19.472,24.904,27.201c6.606-6.877,10.823-17.324,10.823-29.025c0-11.613-4.153-21.991-10.675-28.87
					C211.036,293.267,203.009,306.714,200.11,312.355z"/>
				<g>
					<path style="fill:#FFFFFF;" d="M226.248,306.47c0,2.983-2.418,5.4-5.4,5.4c-2.982,0-5.402-2.417-5.402-5.4
						c0-2.982,2.42-5.4,5.402-5.4C223.83,301.069,226.248,303.487,226.248,306.47z"/>
					<path style="fill:#895F3D;" d="M221.162,306.469c0,1.273-1.031,2.305-2.303,2.305c-1.274,0-2.305-1.031-2.305-2.305
						c0-1.272,1.031-2.303,2.305-2.303C220.13,304.166,221.162,305.197,221.162,306.469z"/>
				</g>
				<g>
					<g>
						<path style="fill:#F4D645;" d="M236.499,289.734c12.281,14.823,7.495,38.045-0.195,53.511
							c-0.716,1.439,1.44,2.705,2.158,1.262c8.262-16.614,12.876-40.763-0.195-56.54
							C237.238,286.724,235.479,288.503,236.499,289.734L236.499,289.734z"/>
					</g>
					<g>
						<path style="fill:#F4D645;" d="M246.499,289.734c12.282,14.823,7.494,38.045-0.195,53.511
							c-0.716,1.439,1.44,2.705,2.158,1.262c8.26-16.614,12.877-40.763-0.195-56.54
							C247.238,286.724,245.479,288.503,246.499,289.734L246.499,289.734z"/>
					</g>
					<g>
						<path style="fill:#F4D645;" d="M259.486,294.644c6.889,14.172,4.842,30.156-1.115,44.275c-0.627,1.484,1.795,2.126,2.41,0.664
							c6.24-14.792,8.051-31.415,0.863-46.201C260.941,291.932,258.785,293.2,259.486,294.644L259.486,294.644z"/>
					</g>
					<g>
						<path style="fill:#F4D645;" d="M270.428,296.676c5.123,12.539,3.982,25.931-0.533,38.487c-0.547,1.521,1.869,2.17,2.41,0.664
							c4.647-12.916,5.809-26.908,0.533-39.815C272.238,294.54,269.818,295.184,270.428,296.676L270.428,296.676z"/>
					</g>
				</g>
			</g>
		</g>
		<path style="fill:#EA9918;" d="M237.443,347.843c5.062-2.093-1.592-7.369-5.938-8.214
			C231.505,339.629,232.379,349.935,237.443,347.843"/>
	</g>
	<g>
		<g>
			<path style="fill:#78DDBB;" d="M398.35,330.029c0,0,8.479,5.054,21.311,5.054c0,0-5.492-0.56-8.832-2.526
				c0,0,7.332,2.308,16.666,0c0,0-4.801,0.304-7-0.974c0,0,14.346,0.769,22.756-6.699L398.35,330.029z"/>
			<path style="fill:#78DDBB;" d="M398.35,299.618c0,0,8.479-5.054,21.311-5.054c0,0-5.492,0.559-8.832,2.526
				c0,0,7.332-2.308,16.666,0c0,0-4.801-0.304-7,0.974c0,0,14.346-0.769,22.756,6.699L398.35,299.618z"/>
			<g>
				<path style="fill:#78DDBB;" d="M470.076,325.649c0.943-3.774-0.252-9.626-7.238-11.001c6.986-1.375,8.182-7.227,7.238-11.001
					c-1.25-5,2-7.75,2-7.75c-11-2.5-12.068,6-12.068,10.746c0,4.746-5.932,7.705-5.932,7.705c0.607,0.121,1.188,0.217,1.754,0.3
					c-0.566,0.083-1.146,0.179-1.754,0.3c0,0,5.932,2.959,5.932,7.705c0,4.746,1.068,13.246,12.068,10.746
					C472.076,333.399,468.826,330.649,470.076,325.649z"/>
				<g>
					<g>
						<g>
							<path style="fill:#3DC4BE;" d="M409.885,299.031c-29.522,0-45.772,10.946-50.44,14.662c1.543,0.451,4.332,0.985,8.404,0.698
								c0,0-3.031,2.853-8.924,1.327c3.867,3.215,20.219,15.084,50.959,15.084c35.555,0,50.123-15.886,50.123-15.886
								S445.439,299.031,409.885,299.031z"/>
						</g>
						<path style="fill:#78DDBB;" d="M367.85,314.392c0,0-3.031,2.853-8.924,1.327c3.252,2.704,15.34,11.527,37.385,14.265
							c3.221-3.878,5.1-8.51,5.1-13.49c0-6.234-2.941-11.925-7.781-16.269c-19.344,2.936-30.457,10.502-34.184,13.469
							C360.988,314.145,363.777,314.679,367.85,314.392z"/>
					</g>
					<g>
						<path style="fill:#FFFFFF;" d="M386.785,312.044c0,2.983-2.418,5.4-5.4,5.4c-2.983,0-5.4-2.417-5.4-5.4
							c0-2.982,2.418-5.4,5.4-5.4C384.367,306.644,386.785,309.061,386.785,312.044z"/>
						<path style="fill:#895F3D;" d="M381.699,312.044c0,1.272-1.031,2.305-2.303,2.305c-1.273,0-2.305-1.032-2.305-2.305
							c0-1.271,1.031-2.303,2.305-2.303C380.668,309.741,381.699,310.772,381.699,312.044z"/>
					</g>
				</g>
				<path style="fill:#78DDBB;" d="M434.299,315.104c0.096-1.769-1.361-3.074-2.975-3.357c0.268-0.479,0.441-1.028,0.475-1.643
					c0.096-1.787-1.395-3.101-3.025-3.365c0.264-0.478,0.436-1.024,0.469-1.635c0.104-1.932-1.643-3.326-3.422-3.422
					c-0.805-0.043-0.801,1.207,0,1.25c2.756,0.148,2.793,4.06,0.123,4.326c-0.432-0.266-0.918-0.438-1.42-0.52
					c0.264-0.478,0.436-1.024,0.469-1.635c0.104-1.932-1.643-3.326-3.422-3.422c-0.805-0.043-0.801,1.207,0,1.25
					c2.801,0.15,2.801,4.193,0,4.344c-0.043,0.002-0.074,0.021-0.113,0.029c-0.453-0.293-0.973-0.479-1.506-0.566
					c0.264-0.478,0.435-1.024,0.469-1.635c0.103-1.932-1.643-3.326-3.422-3.422c-0.805-0.043-0.801,1.207,0,1.25
					c2.756,0.148,2.793,4.06,0.123,4.326c-0.432-0.266-0.918-0.438-1.42-0.52c0.264-0.478,0.435-1.024,0.469-1.635
					c0.103-1.932-1.643-3.326-3.422-3.422c-0.805-0.043-0.801,1.207,0,1.25c2.801,0.15,2.801,4.193,0,4.344
					c-0.801,0.043-0.805,1.293,0,1.25c0.834-0.045,1.555-0.338,2.125-0.798c0.1,0.112,0.242,0.194,0.432,0.204
					c0.506,0.027,0.916,0.184,1.238,0.419c0.017,0.02,0.045,0.03,0.066,0.048c1.057,0.837,1.057,2.573,0,3.41
					c-0.021,0.017-0.049,0.028-0.066,0.048c-0.322,0.235-0.733,0.392-1.238,0.419c-0.189,0.01-0.33,0.091-0.43,0.203
					c-0.609-0.463-1.359-0.756-2.127-0.797c-0.805-0.043-0.801,1.207,0,1.25c2.801,0.15,2.801,4.193,0,4.344
					c-0.801,0.043-0.805,1.293,0,1.25c0.834-0.045,1.555-0.338,2.125-0.798c0.1,0.112,0.242,0.194,0.432,0.204
					c0.506,0.027,0.916,0.184,1.238,0.419c0.017,0.02,0.045,0.03,0.066,0.048c1.057,0.837,1.057,2.573,0,3.41
					c-0.021,0.017-0.049,0.028-0.066,0.048c-0.322,0.235-0.733,0.392-1.238,0.419c-0.189,0.01-0.33,0.091-0.43,0.203
					c-0.609-0.463-1.359-0.756-2.127-0.797c-0.805-0.043-0.801,1.207,0,1.25c2.801,0.15,2.801,4.193,0,4.344
					c-0.801,0.043-0.805,1.293,0,1.25c1.936-0.104,3.318-1.486,3.422-3.422c0.033-0.612-0.135-1.161-0.416-1.641
					c0.512-0.085,0.977-0.256,1.377-0.512c2.66,0.275,2.621,4.177-0.133,4.324c-0.801,0.043-0.805,1.293,0,1.25
					c1.936-0.104,3.318-1.486,3.422-3.422c0.033-0.612-0.135-1.161-0.416-1.641c0.545-0.091,1.041-0.274,1.461-0.559
					c0.035,0.008,0.065,0.025,0.105,0.027c2.801,0.15,2.801,4.193,0,4.344c-0.801,0.043-0.805,1.293,0,1.25
					c1.936-0.104,3.318-1.486,3.422-3.422c0.033-0.612-0.135-1.161-0.416-1.641c0.512-0.085,0.977-0.256,1.377-0.512
					c2.66,0.275,2.621,4.177-0.133,4.324c-0.801,0.043-0.805,1.293,0,1.25c1.936-0.104,3.318-1.486,3.422-3.422
					c0.033-0.612-0.135-1.161-0.416-1.641c1.695-0.281,2.877-1.579,2.973-3.359c0.033-0.615-0.137-1.167-0.42-1.648
					C433.045,318.157,434.205,316.866,434.299,315.104z M427.945,307.728c0.1,0.112,0.242,0.194,0.432,0.204
					c2.801,0.15,2.801,4.193,0,4.344c-0.19,0.01-0.33,0.091-0.43,0.203c-0.297-0.226-0.625-0.409-0.977-0.542
					c0.334-0.519,0.541-1.139,0.578-1.833c0.037-0.696-0.172-1.318-0.529-1.84C427.361,308.133,427.67,307.95,427.945,307.728z
					 M425.943,317.259c-0.432-0.266-0.918-0.438-1.42-0.52c0.264-0.478,0.436-1.024,0.469-1.635
					c0.033-0.612-0.135-1.161-0.416-1.641c0.512-0.085,0.977-0.256,1.377-0.512C428.57,313.222,428.568,316.997,425.943,317.259z
					 M421.57,317.276c-0.043,0.002-0.074,0.021-0.113,0.029c-0.453-0.293-0.973-0.479-1.506-0.566
					c0.264-0.478,0.435-1.024,0.469-1.635c0.033-0.612-0.135-1.161-0.416-1.641c0.545-0.091,1.041-0.274,1.461-0.559
					c0.035,0.008,0.065,0.025,0.105,0.027C424.371,313.083,424.371,317.126,421.57,317.276z M417.121,317.259
					c-0.432-0.266-0.918-0.438-1.42-0.52c0.264-0.478,0.435-1.024,0.469-1.635c0.033-0.612-0.135-1.161-0.416-1.641
					c0.512-0.085,0.977-0.256,1.377-0.512C419.748,313.222,419.746,316.997,417.121,317.259z M423.695,307.728
					c0.1,0.112,0.242,0.194,0.432,0.204c0.506,0.027,0.916,0.184,1.238,0.419c0.018,0.02,0.045,0.03,0.066,0.048
					c1.057,0.837,1.057,2.573,0,3.41c-0.021,0.017-0.049,0.028-0.066,0.048c-0.322,0.235-0.732,0.392-1.238,0.419
					c-0.19,0.01-0.33,0.091-0.43,0.203c-0.373-0.283-0.797-0.497-1.25-0.632c0.301-0.501,0.494-1.086,0.529-1.743
					c0.035-0.658-0.156-1.247-0.479-1.751C422.947,308.219,423.35,308.007,423.695,307.728z M419.123,307.728
					c0.1,0.112,0.242,0.194,0.432,0.204c2.801,0.15,2.801,4.193,0,4.344c-0.189,0.01-0.33,0.091-0.43,0.203
					c-0.297-0.226-0.625-0.409-0.977-0.542c0.334-0.519,0.541-1.139,0.578-1.833c0.037-0.696-0.172-1.318-0.529-1.84
					C418.539,308.133,418.848,307.95,419.123,307.728z M418.148,321.938c0.334-0.519,0.541-1.139,0.578-1.833
					c0.037-0.696-0.172-1.318-0.529-1.84c0.342-0.132,0.65-0.314,0.926-0.536c0.1,0.112,0.242,0.194,0.432,0.204
					c2.801,0.15,2.801,4.193,0,4.344c-0.189,0.01-0.33,0.091-0.43,0.203C418.828,322.254,418.5,322.07,418.148,321.938z
					 M422.447,321.848c0.301-0.501,0.494-1.086,0.529-1.743c0.035-0.658-0.156-1.247-0.479-1.751
					c0.449-0.135,0.852-0.347,1.197-0.625c0.1,0.112,0.242,0.194,0.432,0.204c0.506,0.027,0.916,0.184,1.238,0.419
					c0.018,0.02,0.045,0.03,0.066,0.048c1.057,0.837,1.057,2.573,0,3.41c-0.021,0.017-0.049,0.028-0.066,0.048
					c-0.322,0.235-0.732,0.392-1.238,0.419c-0.19,0.01-0.33,0.091-0.43,0.203C423.324,322.196,422.9,321.982,422.447,321.848z
					 M428.377,322.276c-0.19,0.01-0.33,0.091-0.43,0.203c-0.297-0.226-0.625-0.409-0.977-0.542c0.334-0.519,0.541-1.139,0.578-1.833
					c0.037-0.696-0.172-1.318-0.529-1.84c0.342-0.132,0.65-0.314,0.926-0.536c0.1,0.112,0.242,0.194,0.432,0.204
					C431.178,318.083,431.178,322.126,428.377,322.276z M430.877,317.276c-0.174,0.01-0.305,0.082-0.402,0.181
					c-0.498-0.37-1.086-0.618-1.701-0.718c0.264-0.478,0.436-1.024,0.469-1.635c0.033-0.612-0.135-1.161-0.416-1.641
					c0.633-0.105,1.189-0.351,1.646-0.713c0.1,0.099,0.229,0.172,0.404,0.182C433.678,313.083,433.678,317.126,430.877,317.276z"/>
			</g>
		</g>
		<path style="fill:#46BC91;" d="M409.014,333.95c5.063-2.093-1.592-7.369-5.938-8.214
			C403.076,325.736,403.951,336.043,409.014,333.95"/>
	</g>
	<g>
		<g>
			<path style="fill:#6BC5ED;" d="M411.074,240.253c0,0,27.51,12.855,34.828-16.246L411.074,240.253z"/>
			<path style="fill:#6BC5ED;" d="M395.305,190.432c0,0,5.912-9.526,19.664-8.026c13.752,1.5,31.742,24.235,31.742,24.235
				L395.305,190.432z"/>
			<g>
				<path style="fill:#6BC5ED;" d="M458.1,214.895c1.24-0.989,16.584-13.364,12.744-17.899c-4-4.725-25.666,15.566-25.666,15.566
					v2.262v0.141v2.262c0,0,21.666,20.29,25.666,15.566C474.684,228.259,459.34,215.884,458.1,214.895z"/>
				<g>
					<g>
						<path style="fill:#45A5D8;" d="M406.588,189.372c-27.254,0-42.256,17.586-46.565,23.556c1.424,0.725,3.998,1.584,7.756,1.122
							c0,0-3.617,2.688-8.236,2.133c3.57,5.165,18.666,24.233,47.045,24.233c32.826,0,46.277-25.522,46.277-25.522
							S439.414,189.372,406.588,189.372z"/>
						<path style="fill:#6BC5ED;" d="M360.023,212.928c1.424,0.725,3.998,1.584,7.756,1.122c0,0-3.617,2.688-8.236,2.133
							c2.242,3.245,9.043,11.979,20.826,18.024c8.772-3.521,14.977-12.104,14.977-22.152c0-7.739-3.693-14.598-9.391-18.96
							C371.547,198.591,363.084,208.688,360.023,212.928z"/>
					</g>
					<g>
						<path style="fill:#FFFFFF;" d="M386.166,208.944c0,2.983-2.418,5.4-5.4,5.4s-5.402-2.417-5.402-5.4
							c0-2.982,2.42-5.4,5.402-5.4S386.166,205.962,386.166,208.944z"/>
						<path style="fill:#895F3D;" d="M381.08,208.944c0,1.272-1.031,2.304-2.303,2.304c-1.273,0-2.305-1.032-2.305-2.304
							c0-1.272,1.031-2.303,2.305-2.303C380.049,206.641,381.08,207.672,381.08,208.944z"/>
					</g>
				</g>
				<g>
					<path style="fill:#477ED6;" d="M403.34,214.345c0,0,7.734,2.25,7.734,0S403.34,214.345,403.34,214.345z"/>
					<path style="fill:#477ED6;" d="M403.34,204.345c0,0,7.734,2.25,7.734,0S403.34,204.345,403.34,204.345z"/>
					<path style="fill:#477ED6;" d="M403.34,194.345c0,0,7.734,2.25,7.734,0S403.34,194.345,403.34,194.345z"/>
					<path style="fill:#477ED6;" d="M403.34,234.345c0,0,7.734,2.25,7.734,0S403.34,234.345,403.34,234.345z"/>
					<path style="fill:#477ED6;" d="M403.34,224.345c0,0,7.734,2.25,7.734,0S403.34,224.345,403.34,224.345z"/>
					<path style="fill:#477ED6;" d="M413.34,209.345c0,0,7.734,2.25,7.734,0S413.34,209.345,413.34,209.345z"/>
					<path style="fill:#477ED6;" d="M413.34,199.345c0,0,7.734,2.25,7.734,0S413.34,199.345,413.34,199.345z"/>
					<path style="fill:#477ED6;" d="M413.34,229.345c0,0,7.734,2.25,7.734,0S413.34,229.345,413.34,229.345z"/>
					<path style="fill:#477ED6;" d="M413.34,219.345c0,0,7.734,2.25,7.734,0S413.34,219.345,413.34,219.345z"/>
					<path style="fill:#477ED6;" d="M423.34,204.345c0,0,7.734,2.25,7.734,0S423.34,204.345,423.34,204.345z"/>
					<path style="fill:#477ED6;" d="M423.34,224.345c0,0,7.734,2.25,7.734,0S423.34,224.345,423.34,224.345z"/>
					<path style="fill:#477ED6;" d="M423.34,214.345c0,0,7.734,2.25,7.734,0S423.34,214.345,423.34,214.345z"/>
					<path style="fill:#477ED6;" d="M433.34,209.345c0,0,7.734,2.25,7.734,0S433.34,209.345,433.34,209.345z"/>
					<path style="fill:#477ED6;" d="M433.34,219.345c0,0,7.734,2.25,7.734,0S433.34,219.345,433.34,219.345z"/>
				</g>
			</g>
		</g>
		<path style="fill:#2489B5;" d="M397.363,239.311c5.063-2.093-1.592-7.369-5.938-8.214
			C391.426,231.098,392.301,241.404,397.363,239.311"/>
	</g>
	<g>
		<g>
			<path style="fill:#6BC5ED;" d="M239.987,437.932c0,0,10.885,11.383,17.884-1.188c0,0,11.125,6.42,14-5.927
				c0,0,11.164,1.755,10.832-8.921L239.987,437.932z"/>
			<path style="fill:#6BC5ED;" d="M239.987,380.553c0,0,10.885-11.383,17.884,1.188c0,0,11.125-6.42,14,5.927
				c0,0,11.164-1.755,10.832,8.921L239.987,380.553z"/>
			<g>
				<path style="fill:#6BC5ED;" d="M305.621,391.764c-16.25,5.5-21,16.711-21,16.711s4.75,11.211,21,16.711l-4.238-16.711
					L305.621,391.764z"/>
				<path style="fill:#45A5D8;" d="M245.488,380.26c-27.256,0-34.257,20.022-38.566,26.817c1.424,0.825,3.998,1.804,7.758,1.277
					c0,0-3.618,3.061-8.237,2.429c3.569,5.88,10.666,27.59,39.046,27.59c32.827,0,46.276-29.057,46.276-29.057
					S278.314,380.26,245.488,380.26z"/>
				<path style="fill:#6BC5ED;" d="M206.921,407.077c1.424,0.825,3.998,1.804,7.758,1.277c0,0-3.618,3.061-8.237,2.429
					c2.63,4.331,7.185,17.244,20.739,23.749c10.508-4.55,17.861-15.008,17.861-27.188c0-10.469-5.436-19.662-13.635-24.929
					C215.545,387.766,210.368,401.644,206.921,407.077z"/>
				<g>
					<circle style="fill:#FFFFFF;" cx="226.371" cy="401.988" r="5.4"/>
					<path style="fill:#895F3D;" d="M226.685,401.988c0,1.271-1.031,2.304-2.303,2.304c-1.273,0-2.304-1.032-2.304-2.304
						c0-1.273,1.03-2.303,2.304-2.303C225.654,399.685,226.685,400.716,226.685,401.988z"/>
				</g>
			</g>
			<g>
				<path style="fill:#477ED6;" d="M254.079,386.897c-1.715,0-2.708,2.414-2.708,2.414s0.993,2.414,2.708,2.414
					c1.716,0,3.792-2.414,3.792-2.414S255.795,386.897,254.079,386.897z"/>
				<path style="fill:#477ED6;" d="M254.079,396.897c-1.715,0-2.708,2.414-2.708,2.414s0.993,2.414,2.708,2.414
					c1.716,0,3.792-2.414,3.792-2.414S255.795,396.897,254.079,396.897z"/>
				<path style="fill:#477ED6;" d="M254.079,406.897c-1.715,0-2.708,2.414-2.708,2.414s0.993,2.414,2.708,2.414
					c1.716,0,3.792-2.414,3.792-2.414S255.795,406.897,254.079,406.897z"/>
				<path style="fill:#477ED6;" d="M254.079,416.897c-1.715,0-2.708,2.414-2.708,2.414s0.993,2.414,2.708,2.414
					c1.716,0,3.792-2.414,3.792-2.414S255.795,416.897,254.079,416.897z"/>
				<path style="fill:#477ED6;" d="M254.079,426.897c-1.715,0-2.708,2.414-2.708,2.414s0.993,2.414,2.708,2.414
					c1.716,0,3.792-2.414,3.792-2.414S255.795,426.897,254.079,426.897z"/>
				<path style="fill:#477ED6;" d="M261.08,401.897c-1.715,0-2.709,2.414-2.709,2.414s0.994,2.414,2.709,2.414
					c1.715,0,3.791-2.414,3.791-2.414S262.795,401.897,261.08,401.897z"/>
				<path style="fill:#477ED6;" d="M261.08,391.897c-1.715,0-2.709,2.414-2.709,2.414s0.994,2.414,2.709,2.414
					c1.715,0,3.791-2.414,3.791-2.414S262.795,391.897,261.08,391.897z"/>
				<path style="fill:#477ED6;" d="M261.08,411.897c-1.715,0-2.709,2.414-2.709,2.414s0.994,2.414,2.709,2.414
					c1.715,0,3.791-2.414,3.791-2.414S262.795,411.897,261.08,411.897z"/>
				<path style="fill:#477ED6;" d="M261.08,421.897c-1.715,0-2.709,2.414-2.709,2.414s0.994,2.414,2.709,2.414
					c1.715,0,3.791-2.414,3.791-2.414S262.795,421.897,261.08,421.897z"/>
				<path style="fill:#477ED6;" d="M268.08,396.897c-1.715,0-2.709,2.414-2.709,2.414s0.994,2.414,2.709,2.414
					c1.715,0,3.791-2.414,3.791-2.414S269.795,396.897,268.08,396.897z"/>
				<path style="fill:#477ED6;" d="M268.08,406.897c-1.715,0-2.709,2.414-2.709,2.414s0.994,2.414,2.709,2.414
					c1.715,0,3.791-2.414,3.791-2.414S269.795,406.897,268.08,406.897z"/>
				<path style="fill:#477ED6;" d="M268.08,416.897c-1.715,0-2.709,2.414-2.709,2.414s0.994,2.414,2.709,2.414
					c1.715,0,3.791-2.414,3.791-2.414S269.795,416.897,268.08,416.897z"/>
				<path style="fill:#477ED6;" d="M276.08,401.897c-1.715,0-2.709,2.414-2.709,2.414s0.994,2.414,2.709,2.414
					c1.715,0,3.791-2.414,3.791-2.414S277.795,401.897,276.08,401.897z"/>
				<path style="fill:#477ED6;" d="M276.08,411.897c-1.715,0-2.709,2.414-2.709,2.414s0.994,2.414,2.709,2.414
					c1.715,0,3.791-2.414,3.791-2.414S277.795,411.897,276.08,411.897z"/>
			</g>
		</g>
		<path style="fill:#2489B5;" d="M241.164,430.285c0,0,0.874,10.307,5.938,8.214C252.163,436.406,245.51,431.13,241.164,430.285z"/>
	</g>
	<text transform="matrix(1 0 0 1 137.6914 46.4736)" style="fill:#50D1E2; font-family:'Quicksand-Bold'; font-size:23.083px;">FLAT FISH COLLECTION</text>
	<g>
		<g>
			<g>
				<path style="fill:#F4D645;" d="M398.004,385.198c0,0,34.037-5.223,40.342-0.777c0,0,2.842,5.002,1.135,11.028L398.004,385.198z"
					/>
				<path style="fill:#F4D645;" d="M398.004,433.286c0,0,34.037,5.223,40.342,0.777c0,0,2.842-5.002,1.135-11.028L398.004,433.286z"
					/>
				<path style="fill:#F4D645;" d="M442.043,409.713c0,0,19.574-24.705,24.877-23.292c5.303,1.414-2.225,36.395-4.986,38.479
					C459.172,426.985,442.043,409.713,442.043,409.713z"/>
				<path style="fill:#F7B942;" d="M407.369,384.421c-26.148,0-40.539,17.38-44.674,23.278c1.365,0.717,3.836,1.566,7.443,1.109
					c0,0-3.471,2.657-7.902,2.108c3.424,5.103,17.906,23.947,45.133,23.947c31.49,0,44.395-25.221,44.395-25.221
					S438.859,384.421,407.369,384.421z"/>
				<path style="fill:#F4D645;" d="M362.695,407.699c1.365,0.717,3.836,1.566,7.443,1.109c0,0-3.471,2.657-7.902,2.108
					c2.779,4.143,12.85,17.343,31.111,22.163c2.973-7.322,4.656-15.58,4.656-24.327c0-8.108-1.449-15.796-4.027-22.709
					C376.219,390.497,366.06,402.899,362.695,407.699z"/>
				<g>
					<circle style="fill:#FFFFFF;" cx="381.857" cy="402.863" r="5.4"/>
					<path style="fill:#895F3D;" d="M382.172,402.862c0,1.273-1.031,2.305-2.303,2.305c-1.273,0-2.303-1.031-2.303-2.305
						c0-1.272,1.029-2.303,2.303-2.303C381.141,400.56,382.172,401.591,382.172,402.862z"/>
				</g>
			</g>
			<g>
				<path style="fill:#F4D645;" d="M412.633,397.07c0,1.427-1.977,2.583-4.416,2.583c-2.44,0-4.416-1.156-4.416-2.583
					c0-1.428,1.977-2.584,4.416-2.584C410.656,394.486,412.633,395.643,412.633,397.07z"/>
				<path style="fill:#F4D645;" d="M419.967,403.145c0,1.427-1.979,2.583-4.416,2.583c-2.439,0-4.418-1.156-4.418-2.583
					c0-1.428,1.979-2.584,4.418-2.584C417.988,400.56,419.967,401.717,419.967,403.145z"/>
				<path style="fill:#F4D645;" d="M412.633,410.848c0,1.427-1.977,2.583-4.416,2.583c-2.44,0-4.416-1.156-4.416-2.583
					c0-1.428,1.977-2.584,4.416-2.584C410.656,408.264,412.633,409.42,412.633,410.848z"/>
				<path style="fill:#F4D645;" d="M424.383,416.015c0,1.427-1.978,2.583-4.416,2.583c-2.44,0-4.418-1.156-4.418-2.583
					c0-1.428,1.978-2.584,4.418-2.584C422.404,413.431,424.383,414.587,424.383,416.015z"/>
				<path style="fill:#F4D645;" d="M414.133,423.036c0,1.427-1.977,2.583-4.416,2.583c-2.44,0-4.416-1.156-4.416-2.583
					c0-1.428,1.977-2.584,4.416-2.584C412.156,420.452,414.133,421.608,414.133,423.036z"/>
				<path style="fill:#F4D645;" d="M431.633,407.755c0,1.427-1.977,2.583-4.416,2.583c-2.44,0-4.416-1.156-4.416-2.583
					c0-1.428,1.977-2.584,4.416-2.584C429.656,405.171,431.633,406.327,431.633,407.755z"/>
				<path style="fill:#F4D645;" d="M430.133,398.81c0,1.427-1.977,2.583-4.416,2.583c-2.44,0-4.416-1.156-4.416-2.583
					c0-1.428,1.977-2.584,4.416-2.584C428.156,396.227,430.133,397.383,430.133,398.81z"/>
				<path style="fill:#F4D645;" d="M437.467,416.015c0,1.427-1.979,2.583-4.416,2.583c-2.439,0-4.418-1.156-4.418-2.583
					c0-1.428,1.979-2.584,4.418-2.584C435.488,413.431,437.467,414.587,437.467,416.015z"/>
				<path style="fill:#F4D645;" d="M445.133,407.755c0,1.427-1.977,2.583-4.416,2.583c-2.44,0-4.416-1.156-4.416-2.583
					c0-1.428,1.977-2.584,4.416-2.584C443.156,405.171,445.133,406.327,445.133,407.755z"/>
			</g>
		</g>
		<path style="fill:#EA9918;" d="M402.69,434.252c5.063-2.093-1.592-7.369-5.938-8.214
			C396.753,426.038,397.626,436.345,402.69,434.252"/>
	</g>
</g>
</svg>
