<svg width="410.5mm" height="194mm" viewBox="0 0 410.5 194" xmlns="http://www.w3.org/2000/svg" version="1.1" preserveAspectRatio="xMidYMid meet"><g id="svgGroup" stroke-linecap="round" fill-rule="evenodd" font-size="9pt" stroke="#000" stroke-width="0.25mm" fill="none" style="stroke:#000;stroke-width:0.25mm;fill:none"><path d="M 21.303 191 L 43.282 191 L 43.282 194 L 66.261 194 L 66.261 191 L 88.239 191 L 88.239 194 L 111.219 194 L 111.219 191 L 133.198 191 L 133.198 194 L 154.5 194 L 154.5 159.74 L 151.5 159.74 L 151.5 137.761 L 154.5 137.761 L 154.5 103.5 L 133.198 103.5 L 133.198 106.5 L 111.219 106.5 L 111.219 103.5 L 88.239 103.5 L 88.239 106.5 L 66.261 106.5 L 66.261 103.5 L 43.282 103.5 L 43.282 106.5 L 21.303 106.5 L 21.303 103.5 L 0 103.5 L 0 137.761 L 3 137.761 L 3 159.74 L 0 159.74 L 0 194 L 21.303 194 L 21.303 191 Z" id="front_outsideCutPath" stroke="#FF0000" stroke-width="0.1" style="stroke:#FF0000;stroke-width:0.1" vector-effect="non-scaling-stroke"/><path d="M 90.441 155.586 L 88.973 155.586 L 88.973 149.32 A 4.147 4.147 0 0 0 88.926 148.67 Q 88.871 148.327 88.754 148.054 A 1.745 1.745 0 0 0 88.434 147.552 Q 87.998 147.08 87.162 146.99 A 3.889 3.889 0 0 0 86.746 146.969 A 4.44 4.44 0 0 0 85.915 147.041 Q 85.453 147.13 85.096 147.326 A 2.068 2.068 0 0 0 84.519 147.791 Q 83.873 148.542 83.817 150.186 A 9.399 9.399 0 0 0 83.812 150.504 L 83.812 155.586 L 82.345 155.586 L 82.345 145.9 L 83.538 145.9 L 83.777 147.225 L 83.847 147.225 A 2.971 2.971 0 0 1 85.011 146.167 A 3.572 3.572 0 0 1 85.111 146.116 A 3.973 3.973 0 0 1 86.525 145.739 A 4.804 4.804 0 0 1 86.923 145.723 A 5.792 5.792 0 0 1 87.909 145.801 Q 88.442 145.893 88.863 146.094 A 2.636 2.636 0 0 1 89.557 146.567 A 2.543 2.543 0 0 1 90.176 147.54 Q 90.325 147.94 90.39 148.437 A 6.402 6.402 0 0 1 90.441 149.267 L 90.441 155.586 Z M 62.257 145.9 L 62.257 147.04 L 59.791 147.04 L 59.791 155.586 L 58.324 155.586 L 58.324 147.04 L 56.591 147.04 L 56.591 146.377 L 58.324 145.847 L 58.324 145.307 A 5.946 5.946 0 0 1 58.462 143.96 Q 58.982 141.737 61.443 141.737 A 4.724 4.724 0 0 1 62.112 141.788 Q 62.437 141.835 62.799 141.924 A 9.497 9.497 0 0 1 63.246 142.046 L 62.866 143.222 Q 62.264 143.027 61.786 142.971 A 3.155 3.155 0 0 0 61.417 142.948 A 1.979 1.979 0 0 0 60.94 143.002 A 1.271 1.271 0 0 0 60.188 143.5 A 1.698 1.698 0 0 0 59.964 143.953 Q 59.815 144.395 59.794 145.051 A 6.926 6.926 0 0 0 59.791 145.272 L 59.791 145.9 L 62.257 145.9 Z M 97.909 154.375 L 97.909 155.498 Q 97.693 155.601 97.294 155.673 A 5.487 5.487 0 0 1 97.206 155.688 A 6.359 6.359 0 0 1 96.791 155.741 Q 96.596 155.76 96.42 155.762 A 3.761 3.761 0 0 1 96.371 155.763 A 3.832 3.832 0 0 1 95.242 155.611 Q 93.56 155.092 93.56 152.802 L 93.56 147.04 L 92.173 147.04 L 92.173 146.333 L 93.56 145.723 L 94.179 143.655 L 95.027 143.655 L 95.027 145.9 L 97.838 145.9 L 97.838 147.04 L 95.027 147.04 L 95.027 152.74 Q 95.027 153.355 95.232 153.769 A 1.423 1.423 0 0 0 95.443 154.083 A 1.363 1.363 0 0 0 96.281 154.529 A 1.961 1.961 0 0 0 96.583 154.552 A 4.818 4.818 0 0 0 97.289 154.501 A 4.441 4.441 0 0 0 97.334 154.494 A 7.936 7.936 0 0 0 97.546 154.458 Q 97.748 154.42 97.889 154.381 A 2.203 2.203 0 0 0 97.909 154.375 Z M 69.601 145.829 L 69.398 147.19 A 6.466 6.466 0 0 0 68.933 147.104 Q 68.61 147.057 68.337 147.057 A 2.542 2.542 0 0 0 66.459 147.869 A 3.478 3.478 0 0 0 66.326 148.012 A 3.35 3.35 0 0 0 65.518 149.893 A 4.453 4.453 0 0 0 65.491 150.389 L 65.491 155.586 L 64.024 155.586 L 64.024 145.9 L 65.235 145.9 L 65.403 147.694 L 65.474 147.694 A 4.954 4.954 0 0 1 66.027 146.902 A 3.785 3.785 0 0 1 66.773 146.235 Q 67.533 145.723 68.443 145.723 A 6.735 6.735 0 0 1 69.046 145.749 A 4.916 4.916 0 0 1 69.601 145.829 Z M 78.58 154.433 A 4.093 4.093 0 0 0 79.067 153.763 Q 79.773 152.556 79.773 150.734 Q 79.773 149.792 79.574 149.01 A 4.568 4.568 0 0 0 78.576 147.075 A 3.841 3.841 0 0 0 76.793 145.925 A 4.93 4.93 0 0 0 75.345 145.723 A 5.698 5.698 0 0 0 74.322 145.811 A 3.881 3.881 0 0 0 72.058 147.044 A 4.053 4.053 0 0 0 71.56 147.734 Q 70.873 148.931 70.873 150.734 A 7.339 7.339 0 0 0 70.966 151.923 A 5.427 5.427 0 0 0 71.421 153.403 A 4.822 4.822 0 0 0 71.528 153.612 A 3.972 3.972 0 0 0 72.977 155.153 Q 73.984 155.763 75.284 155.763 A 5.697 5.697 0 0 0 76.278 155.68 A 3.911 3.911 0 0 0 78.58 154.433 Z M 72.394 150.734 A 7.429 7.429 0 0 0 72.464 151.795 Q 72.542 152.334 72.706 152.77 A 3.078 3.078 0 0 0 73.136 153.562 A 2.405 2.405 0 0 0 74.702 154.484 A 3.644 3.644 0 0 0 75.319 154.534 A 3.408 3.408 0 0 0 76.218 154.422 A 2.371 2.371 0 0 0 77.506 153.566 A 3.149 3.149 0 0 0 77.997 152.611 Q 78.253 151.827 78.253 150.734 A 7.32 7.32 0 0 0 78.184 149.691 Q 78.107 149.16 77.946 148.73 A 3.021 3.021 0 0 0 77.506 147.928 A 2.413 2.413 0 0 0 76.006 147.033 A 3.7 3.7 0 0 0 75.301 146.969 A 3.492 3.492 0 0 0 74.432 147.071 A 2.337 2.337 0 0 0 73.127 147.915 A 3.033 3.033 0 0 0 72.656 148.826 Q 72.516 149.245 72.451 149.757 A 7.752 7.752 0 0 0 72.394 150.734 Z" id="front_labelLayer" stroke="#777777" fill="#777777" style="stroke:#777777;fill:#777777" vector-effect="non-scaling-stroke"/><path d="M 171.782 191 L 193.761 191 L 193.761 194 L 216.74 194 L 216.74 191 L 238.719 191 L 238.719 194 L 250 194 L 250 160.24 L 253 160.24 L 253 137.261 L 250 137.261 L 250 103.5 L 238.719 103.5 L 238.719 106.5 L 216.74 106.5 L 216.74 103.5 L 193.761 103.5 L 193.761 106.5 L 171.782 106.5 L 171.782 103.5 L 160.5 103.5 L 160.5 137.261 L 157.5 137.261 L 157.5 160.24 L 160.5 160.24 L 160.5 194 L 171.782 194 L 171.782 191 Z" id="left_outsideCutPath" stroke="#FF0000" stroke-width="0.1" style="stroke:#FF0000;stroke-width:0.1" vector-effect="non-scaling-stroke"/><path d="M 211.688 145.9 L 211.688 147.04 L 209.223 147.04 L 209.223 155.586 L 207.756 155.586 L 207.756 147.04 L 206.023 147.04 L 206.023 146.377 L 207.756 145.847 L 207.756 145.307 A 5.946 5.946 0 0 1 207.894 143.96 Q 208.414 141.737 210.875 141.737 A 4.724 4.724 0 0 1 211.544 141.788 Q 211.869 141.835 212.231 141.924 A 9.497 9.497 0 0 1 212.678 142.046 L 212.298 143.222 Q 211.696 143.027 211.218 142.971 A 3.155 3.155 0 0 0 210.849 142.948 A 1.979 1.979 0 0 0 210.372 143.002 A 1.271 1.271 0 0 0 209.62 143.5 A 1.698 1.698 0 0 0 209.396 143.953 Q 209.247 144.395 209.226 145.051 A 6.926 6.926 0 0 0 209.223 145.272 L 209.223 145.9 L 211.688 145.9 Z M 204.821 150.08 L 204.821 151.008 L 198.149 151.008 A 5.888 5.888 0 0 0 198.252 151.994 Q 198.358 152.531 198.57 152.955 A 2.755 2.755 0 0 0 199.01 153.597 A 2.666 2.666 0 0 0 200.41 154.386 A 4.039 4.039 0 0 0 201.313 154.481 A 7.749 7.749 0 0 0 204.215 153.906 A 8.879 8.879 0 0 0 204.406 153.827 L 204.406 155.135 A 8.807 8.807 0 0 1 203.603 155.438 A 6.735 6.735 0 0 1 202.934 155.617 A 6.159 6.159 0 0 1 202.323 155.711 Q 201.842 155.763 201.26 155.763 A 5.701 5.701 0 0 1 199.833 155.594 A 4.037 4.037 0 0 1 197.87 154.455 Q 196.629 153.147 196.629 150.822 Q 196.629 148.913 197.395 147.644 A 4.344 4.344 0 0 1 197.782 147.102 Q 198.935 145.723 200.88 145.723 A 4.47 4.47 0 0 1 202.138 145.891 A 3.401 3.401 0 0 1 203.761 146.92 A 4.102 4.102 0 0 1 204.69 148.795 A 5.971 5.971 0 0 1 204.821 150.08 Z M 217.91 154.375 L 217.91 155.498 Q 217.695 155.601 217.295 155.673 A 5.487 5.487 0 0 1 217.208 155.688 A 6.359 6.359 0 0 1 216.793 155.741 Q 216.598 155.76 216.422 155.762 A 3.761 3.761 0 0 1 216.372 155.763 A 3.832 3.832 0 0 1 215.243 155.611 Q 213.562 155.092 213.562 152.802 L 213.562 147.04 L 212.174 147.04 L 212.174 146.333 L 213.562 145.723 L 214.181 143.655 L 215.029 143.655 L 215.029 145.9 L 217.84 145.9 L 217.84 147.04 L 215.029 147.04 L 215.029 152.74 Q 215.029 153.355 215.234 153.769 A 1.423 1.423 0 0 0 215.445 154.083 A 1.363 1.363 0 0 0 216.282 154.529 A 1.961 1.961 0 0 0 216.585 154.552 A 4.818 4.818 0 0 0 217.29 154.501 A 4.441 4.441 0 0 0 217.336 154.494 A 7.936 7.936 0 0 0 217.548 154.458 Q 217.75 154.42 217.891 154.381 A 2.203 2.203 0 0 0 217.91 154.375 Z M 194.057 141.834 L 194.057 155.586 L 192.59 155.586 L 192.59 141.834 L 194.057 141.834 Z M 198.184 149.815 L 203.248 149.815 Q 203.248 148.427 202.63 147.689 A 2.01 2.01 0 0 0 201.419 147 A 3.015 3.015 0 0 0 200.862 146.951 A 2.892 2.892 0 0 0 200.027 147.066 A 2.234 2.234 0 0 0 199.002 147.711 Q 198.374 148.399 198.213 149.564 A 5.542 5.542 0 0 0 198.184 149.815 Z" id="left_labelLayer" stroke="#777777" fill="#777777" style="stroke:#777777;fill:#777777" vector-effect="non-scaling-stroke"/><path d="M 299.782 191 L 321.761 191 L 321.761 194 L 344.74 194 L 344.74 191 L 366.719 191 L 366.719 194 L 389.698 194 L 389.698 191 L 407.5 191 L 407.5 180.219 L 410.5 180.219 L 410.5 157.24 L 407.5 157.24 L 407.5 135.261 L 410.5 135.261 L 410.5 112.282 L 407.5 112.282 L 407.5 101.5 L 389.698 101.5 L 389.698 98.5 L 366.719 98.5 L 366.719 101.5 L 344.74 101.5 L 344.74 98.5 L 321.761 98.5 L 321.761 101.5 L 299.782 101.5 L 299.782 98.5 L 276.803 98.5 L 276.803 101.5 L 259 101.5 L 259 112.282 L 256 112.282 L 256 135.261 L 259 135.261 L 259 157.24 L 256 157.24 L 256 180.219 L 259 180.219 L 259 191 L 276.803 191 L 276.803 194 L 299.782 194 L 299.782 191 Z" id="top_outsideCutPath" stroke="#FF0000" stroke-width="0.1" style="stroke:#FF0000;stroke-width:0.1" vector-effect="non-scaling-stroke"/><path d="M 340.114 148.936 L 340.002 148.936 A 14.651 14.651 0 0 1 340.098 150.019 A 12.277 12.277 0 0 1 340.114 150.633 L 340.114 154.839 L 338.566 154.839 L 338.566 140.029 L 339.825 140.029 L 340.039 141.428 L 340.114 141.428 A 4.167 4.167 0 0 1 340.717 140.744 A 3.222 3.222 0 0 1 341.504 140.216 A 3.877 3.877 0 0 1 342.615 139.891 A 5.018 5.018 0 0 1 343.322 139.843 A 4.745 4.745 0 0 1 344.663 140.022 A 3.508 3.508 0 0 1 346.46 141.233 A 4.649 4.649 0 0 1 347.254 142.781 Q 347.458 143.449 347.529 144.252 A 10.081 10.081 0 0 1 347.566 145.131 A 9.077 9.077 0 0 1 347.445 146.658 Q 347.306 147.472 347.006 148.125 A 4.351 4.351 0 0 1 346.442 149.043 Q 345.318 150.437 343.322 150.437 A 4.696 4.696 0 0 1 342.142 150.294 A 4.086 4.086 0 0 1 341.499 150.069 A 3.429 3.429 0 0 1 340.114 148.936 Z M 324.987 148.973 L 324.987 150.158 A 1.523 1.523 0 0 1 324.806 150.229 Q 324.614 150.293 324.338 150.342 A 5.792 5.792 0 0 1 324.246 150.358 Q 323.756 150.437 323.364 150.437 Q 320.398 150.437 320.398 147.313 L 320.398 141.233 L 318.934 141.233 L 318.934 140.486 L 320.398 139.843 L 321.051 137.661 L 321.947 137.661 L 321.947 140.029 L 324.912 140.029 L 324.912 141.233 L 321.947 141.233 L 321.947 147.248 A 3.117 3.117 0 0 0 321.992 147.795 Q 322.087 148.33 322.385 148.665 A 1.438 1.438 0 0 0 323.269 149.136 A 2.069 2.069 0 0 0 323.588 149.16 A 5.084 5.084 0 0 0 324.333 149.106 A 4.686 4.686 0 0 0 324.381 149.099 A 8.374 8.374 0 0 0 324.604 149.061 Q 324.818 149.021 324.966 148.979 A 2.328 2.328 0 0 0 324.987 148.973 Z M 335.852 145.131 Q 335.852 147.63 334.593 149.034 A 4.127 4.127 0 0 1 332.164 150.35 A 6.012 6.012 0 0 1 331.114 150.437 A 4.972 4.972 0 0 1 329.67 150.234 A 4.311 4.311 0 0 1 328.68 149.794 A 4.191 4.191 0 0 1 327.151 148.168 A 5.088 5.088 0 0 1 327.039 147.947 A 5.727 5.727 0 0 1 326.558 146.385 A 7.745 7.745 0 0 1 326.46 145.131 A 8.038 8.038 0 0 1 326.602 143.576 Q 326.78 142.671 327.185 141.966 A 4.277 4.277 0 0 1 327.71 141.237 Q 328.96 139.843 331.18 139.843 A 5.202 5.202 0 0 1 332.707 140.056 A 4.053 4.053 0 0 1 334.588 141.27 A 4.821 4.821 0 0 1 335.641 143.311 Q 335.852 144.137 335.852 145.131 Z M 328.065 145.131 A 7.84 7.84 0 0 0 328.139 146.251 Q 328.221 146.819 328.394 147.28 A 3.248 3.248 0 0 0 328.848 148.115 A 2.537 2.537 0 0 0 330.501 149.088 A 3.845 3.845 0 0 0 331.152 149.141 Q 332.672 149.141 333.46 148.12 A 3.323 3.323 0 0 0 333.977 147.112 Q 334.129 146.646 334.196 146.078 A 8.155 8.155 0 0 0 334.248 145.131 A 7.725 7.725 0 0 0 334.175 144.03 Q 334.008 142.873 333.46 142.17 A 2.547 2.547 0 0 0 331.876 141.225 A 3.905 3.905 0 0 0 331.133 141.158 Q 329.613 141.158 328.839 142.156 A 3.201 3.201 0 0 0 328.341 143.117 Q 328.194 143.559 328.125 144.1 A 8.181 8.181 0 0 0 328.065 145.131 Z M 340.114 144.786 L 340.114 145.131 Q 340.114 147.285 340.832 148.213 A 2.246 2.246 0 0 0 341.971 148.982 Q 342.479 149.141 343.136 149.141 Q 344.46 149.141 345.211 148.069 Q 345.803 147.222 345.928 145.871 A 8.248 8.248 0 0 0 345.961 145.112 A 7.812 7.812 0 0 0 345.888 144.004 Q 345.808 143.443 345.638 142.986 A 3.282 3.282 0 0 0 345.211 142.179 Q 344.46 141.158 343.098 141.158 A 4.461 4.461 0 0 0 342.265 141.23 Q 341.329 141.409 340.832 142.025 Q 340.133 142.893 340.114 144.786 Z" id="top_labelLayer" stroke="#777777" fill="#777777" style="stroke:#777777;fill:#777777" vector-effect="non-scaling-stroke"/><path d="M 21.303 97.5 L 43.282 97.5 L 43.282 100.5 L 66.261 100.5 L 66.261 97.5 L 88.239 97.5 L 88.239 100.5 L 111.219 100.5 L 111.219 97.5 L 133.198 97.5 L 133.198 100.5 L 154.5 100.5 L 154.5 66.239 L 151.5 66.239 L 151.5 44.261 L 154.5 44.261 L 154.5 10 L 133.198 10 L 133.198 13 L 111.219 13 L 111.219 10 L 88.239 10 L 88.239 13 L 66.261 13 L 66.261 10 L 43.282 10 L 43.282 13 L 21.303 13 L 21.303 10 L 0 10 L 0 44.261 L 3 44.261 L 3 66.239 L 0 66.239 L 0 100.5 L 21.303 100.5 L 21.303 97.5 Z" id="back_outsideCutPath" stroke="#FF0000" stroke-width="0.1" style="stroke:#FF0000;stroke-width:0.1" vector-effect="non-scaling-stroke"/><path d="M 89.641 57.079 L 89.711 57.079 A 8.685 8.685 0 0 1 89.926 56.789 Q 90.286 56.321 90.869 55.665 L 93.998 52.351 L 95.739 52.351 L 91.815 56.478 L 96.013 62.037 L 94.236 62.037 L 90.816 57.459 L 89.711 58.414 L 89.711 62.037 L 88.262 62.037 L 88.262 48.286 L 89.711 48.286 L 89.711 55.577 A 9.777 9.777 0 0 1 89.707 55.853 Q 89.694 56.306 89.643 57.043 A 60.904 60.904 0 0 1 89.641 57.079 Z M 59.954 60.791 L 59.848 60.791 L 59.539 62.037 L 58.487 62.037 L 58.487 48.286 L 59.954 48.286 L 59.954 51.626 A 30.588 30.588 0 0 1 59.938 52.66 Q 59.92 53.181 59.884 53.641 L 59.954 53.641 A 3.336 3.336 0 0 1 62.389 52.227 A 5.011 5.011 0 0 1 62.994 52.192 A 4.484 4.484 0 0 1 64.256 52.36 A 3.357 3.357 0 0 1 65.96 53.496 Q 66.805 54.539 66.974 56.278 A 9.417 9.417 0 0 1 67.016 57.185 Q 67.016 59.572 65.951 60.893 A 3.473 3.473 0 0 1 63.482 62.191 A 4.976 4.976 0 0 1 62.994 62.214 A 4.45 4.45 0 0 1 61.876 62.078 A 3.872 3.872 0 0 1 61.267 61.865 A 3.249 3.249 0 0 1 59.954 60.791 Z M 76.623 62.037 L 75.535 62.037 L 75.244 60.659 L 75.173 60.659 Q 74.661 61.301 74.152 61.651 A 2.703 2.703 0 0 1 73.728 61.892 A 3.383 3.383 0 0 1 73.029 62.112 Q 72.69 62.182 72.298 62.204 A 6.602 6.602 0 0 1 71.93 62.214 Q 70.489 62.214 69.672 61.472 Q 68.854 60.729 68.854 59.36 A 2.539 2.539 0 0 1 70.298 56.964 Q 71.373 56.392 73.249 56.296 A 14.33 14.33 0 0 1 73.547 56.284 L 75.191 56.231 L 75.191 55.63 Q 75.191 54.49 74.7 53.946 A 1.489 1.489 0 0 0 74.09 53.548 Q 73.846 53.46 73.544 53.425 A 3.625 3.625 0 0 0 73.132 53.403 Q 72.158 53.403 70.979 53.883 A 9.825 9.825 0 0 0 70.392 54.145 L 69.941 53.023 A 6.764 6.764 0 0 1 71.247 52.486 A 7.699 7.699 0 0 1 71.51 52.413 Q 72.363 52.192 73.22 52.192 Q 74.303 52.192 75.036 52.493 A 2.497 2.497 0 0 1 75.787 52.961 Q 76.623 53.73 76.623 55.427 L 76.623 62.037 Z M 86.106 52.678 L 85.655 53.924 Q 85.169 53.73 84.594 53.602 A 6.06 6.06 0 0 0 84.133 53.516 Q 83.908 53.484 83.708 53.476 A 3.252 3.252 0 0 0 83.578 53.473 A 3.254 3.254 0 0 0 82.256 53.722 Q 80.626 54.44 80.626 57.238 Q 80.626 58.41 80.936 59.224 A 3.043 3.043 0 0 0 81.346 59.978 Q 82.067 60.933 83.481 60.933 A 6.141 6.141 0 0 0 85.175 60.686 A 7.583 7.583 0 0 0 85.964 60.411 L 85.964 61.71 A 4.173 4.173 0 0 1 84.943 62.072 Q 84.301 62.214 83.516 62.214 A 5.483 5.483 0 0 1 82.182 62.061 A 3.718 3.718 0 0 1 80.259 60.919 A 4.244 4.244 0 0 1 79.377 59.299 Q 79.106 58.403 79.106 57.256 Q 79.106 54.826 80.277 53.5 A 3.799 3.799 0 0 1 82.357 52.304 A 5.759 5.759 0 0 1 83.613 52.174 A 6.621 6.621 0 0 1 85.01 52.325 A 7.323 7.323 0 0 1 85.417 52.424 Q 85.825 52.536 86.097 52.674 A 2.201 2.201 0 0 1 86.106 52.678 Z M 62.782 53.42 A 4.123 4.123 0 0 0 61.984 53.492 Q 61.529 53.582 61.184 53.785 A 1.951 1.951 0 0 0 60.617 54.282 Q 60.035 55.039 59.964 56.707 A 11.303 11.303 0 0 0 59.954 57.185 Q 59.954 58.919 60.445 59.815 A 2.213 2.213 0 0 0 60.635 60.106 A 2.128 2.128 0 0 0 61.714 60.835 Q 62.075 60.948 62.515 60.976 A 4.717 4.717 0 0 0 62.818 60.986 A 2.925 2.925 0 0 0 63.648 60.874 A 2.11 2.11 0 0 0 64.833 60 A 3.368 3.368 0 0 0 65.249 59.099 Q 65.38 58.671 65.442 58.153 A 8.406 8.406 0 0 0 65.496 57.168 A 8.668 8.668 0 0 0 65.443 56.18 Q 65.319 55.1 64.9 54.448 A 2.434 2.434 0 0 0 64.833 54.348 A 2.139 2.139 0 0 0 63.471 53.486 A 3.393 3.393 0 0 0 62.782 53.42 Z M 75.155 58.149 L 75.155 57.274 L 73.688 57.336 A 10.772 10.772 0 0 0 72.828 57.398 Q 71.979 57.497 71.447 57.732 A 2.253 2.253 0 0 0 71.165 57.879 A 1.565 1.565 0 0 0 70.419 59.015 A 2.317 2.317 0 0 0 70.392 59.377 Q 70.392 60.077 70.764 60.482 A 1.307 1.307 0 0 0 70.873 60.588 Q 71.289 60.947 71.992 60.996 A 3.3 3.3 0 0 0 72.221 61.003 A 4.039 4.039 0 0 0 73.094 60.915 Q 73.701 60.78 74.15 60.442 A 2.449 2.449 0 0 0 74.373 60.252 A 2.457 2.457 0 0 0 75.059 59.025 Q 75.154 58.63 75.155 58.164 A 4.658 4.658 0 0 0 75.155 58.149 Z" id="back_labelLayer" stroke="#777777" fill="#777777" style="stroke:#777777;fill:#777777" vector-effect="non-scaling-stroke"/><path d="M 171.782 97.5 L 193.761 97.5 L 193.761 100.5 L 216.74 100.5 L 216.74 97.5 L 238.719 97.5 L 238.719 100.5 L 250 100.5 L 250 66.739 L 253 66.739 L 253 43.761 L 250 43.761 L 250 10 L 238.719 10 L 238.719 13 L 216.74 13 L 216.74 10 L 193.761 10 L 193.761 13 L 171.782 13 L 171.782 10 L 160.5 10 L 160.5 43.761 L 157.5 43.761 L 157.5 66.739 L 160.5 66.739 L 160.5 100.5 L 171.782 100.5 L 171.782 97.5 Z" id="right_outsideCutPath" stroke="#FF0000" stroke-width="0.1" style="stroke:#FF0000;stroke-width:0.1" vector-effect="non-scaling-stroke"/><path d="M 216.505 59.952 L 215.038 59.952 L 215.038 53.686 A 4.147 4.147 0 0 0 214.99 53.035 Q 214.936 52.693 214.819 52.42 A 1.745 1.745 0 0 0 214.499 51.918 Q 214.062 51.446 213.226 51.356 A 3.889 3.889 0 0 0 212.811 51.335 A 4.44 4.44 0 0 0 211.981 51.407 Q 211.075 51.58 210.579 52.166 Q 209.937 52.925 209.882 54.571 A 9.469 9.469 0 0 0 209.877 54.888 L 209.877 59.952 L 208.41 59.952 L 208.41 46.2 L 209.877 46.2 L 209.877 50.363 Q 209.877 50.903 209.84 51.311 A 5.739 5.739 0 0 1 209.806 51.609 L 209.894 51.609 A 2.931 2.931 0 0 1 210.921 50.62 A 3.581 3.581 0 0 1 211.127 50.508 A 3.766 3.766 0 0 1 212.363 50.142 A 4.761 4.761 0 0 1 212.952 50.106 A 5.952 5.952 0 0 1 213.952 50.185 Q 214.999 50.363 215.617 50.95 A 2.554 2.554 0 0 1 216.247 51.94 Q 216.505 52.642 216.505 53.633 L 216.505 59.952 Z M 203.071 50.265 L 206.421 50.265 L 206.421 51.193 L 204.627 51.405 A 2.384 2.384 0 0 1 204.833 51.712 Q 204.924 51.871 205.006 52.061 A 4.523 4.523 0 0 1 205.069 52.214 Q 205.263 52.713 205.263 53.341 A 3.363 3.363 0 0 1 205.109 54.384 A 2.72 2.72 0 0 1 204.291 55.612 A 3.254 3.254 0 0 1 203.011 56.287 Q 202.527 56.423 201.951 56.452 A 6.372 6.372 0 0 1 201.622 56.461 A 4.715 4.715 0 0 1 201.076 56.43 A 3.981 3.981 0 0 1 200.809 56.39 A 2.611 2.611 0 0 0 200.388 56.662 Q 199.872 57.079 199.872 57.636 A 0.76 0.76 0 0 0 199.911 57.885 Q 199.981 58.089 200.179 58.212 A 0.814 0.814 0 0 0 200.199 58.224 Q 200.463 58.377 201.03 58.407 A 5.581 5.581 0 0 0 201.322 58.414 L 203.036 58.414 A 6.005 6.005 0 0 1 203.948 58.479 Q 204.425 58.552 204.81 58.709 A 2.651 2.651 0 0 1 205.453 59.077 A 2.146 2.146 0 0 1 206.251 60.444 A 3.224 3.224 0 0 1 206.297 61.003 A 3.177 3.177 0 0 1 206.116 62.102 Q 205.823 62.903 205.057 63.423 A 3.488 3.488 0 0 1 205.007 63.456 Q 204.107 64.044 202.632 64.223 A 11.628 11.628 0 0 1 201.242 64.3 A 8.22 8.22 0 0 1 200.139 64.231 Q 199.02 64.079 198.312 63.593 Q 197.349 62.932 197.287 61.76 A 3.098 3.098 0 0 1 197.283 61.596 Q 197.283 60.712 197.848 60.067 A 2.562 2.562 0 0 1 198.728 59.425 A 3.631 3.631 0 0 1 199.439 59.192 A 1.523 1.523 0 0 1 198.848 58.714 A 1.808 1.808 0 0 1 198.816 58.67 A 1.36 1.36 0 0 1 198.566 57.935 A 1.684 1.684 0 0 1 198.564 57.848 A 1.678 1.678 0 0 1 198.649 57.308 A 1.487 1.487 0 0 1 198.847 56.92 A 2.1 2.1 0 0 1 199.124 56.608 Q 199.373 56.375 199.74 56.151 A 2.572 2.572 0 0 1 198.622 55.257 A 3.188 3.188 0 0 1 198.516 55.1 A 3.033 3.033 0 0 1 198.05 53.638 A 3.702 3.702 0 0 1 198.043 53.403 Q 198.043 51.812 198.997 50.95 A 3.116 3.116 0 0 1 200.193 50.291 Q 200.854 50.089 201.702 50.089 Q 202.462 50.089 203.071 50.265 Z M 223.973 58.741 L 223.973 59.863 Q 223.758 59.967 223.358 60.038 A 5.487 5.487 0 0 1 223.27 60.053 A 6.359 6.359 0 0 1 222.856 60.107 Q 222.66 60.126 222.485 60.128 A 3.761 3.761 0 0 1 222.435 60.128 A 3.832 3.832 0 0 1 221.306 59.976 Q 219.625 59.458 219.625 57.168 L 219.625 51.405 L 218.237 51.405 L 218.237 50.698 L 219.625 50.089 L 220.243 48.021 L 221.092 48.021 L 221.092 50.265 L 223.902 50.265 L 223.902 51.405 L 221.092 51.405 L 221.092 57.106 Q 221.092 57.721 221.297 58.135 A 1.423 1.423 0 0 0 221.507 58.449 A 1.363 1.363 0 0 0 222.345 58.895 A 1.961 1.961 0 0 0 222.647 58.918 A 4.818 4.818 0 0 0 223.353 58.867 A 4.441 4.441 0 0 0 223.399 58.86 A 7.936 7.936 0 0 0 223.61 58.824 Q 223.813 58.786 223.953 58.747 A 2.203 2.203 0 0 0 223.973 58.741 Z M 192.104 50.195 L 191.9 51.556 A 6.466 6.466 0 0 0 191.435 51.47 Q 191.113 51.423 190.84 51.423 A 2.542 2.542 0 0 0 188.962 52.234 A 3.478 3.478 0 0 0 188.829 52.378 A 3.35 3.35 0 0 0 188.021 54.259 A 4.453 4.453 0 0 0 187.994 54.755 L 187.994 59.952 L 186.527 59.952 L 186.527 50.265 L 187.738 50.265 L 187.906 52.059 L 187.976 52.059 A 4.954 4.954 0 0 1 188.53 51.268 A 3.785 3.785 0 0 1 189.276 50.601 Q 190.036 50.089 190.946 50.089 A 6.735 6.735 0 0 1 191.549 50.114 A 4.916 4.916 0 0 1 192.104 50.195 Z M 195.382 50.265 L 195.382 59.952 L 193.915 59.952 L 193.915 50.265 L 195.382 50.265 Z M 202.568 59.731 L 200.809 59.731 Q 200.078 59.731 199.583 59.987 A 1.718 1.718 0 0 0 199.253 60.208 A 1.546 1.546 0 0 0 198.746 61.084 A 2.348 2.348 0 0 0 198.697 61.578 A 1.473 1.473 0 0 0 198.794 62.124 Q 198.95 62.52 199.36 62.771 A 2.35 2.35 0 0 0 199.937 63.019 Q 200.482 63.176 201.248 63.178 A 7.578 7.578 0 0 0 201.26 63.178 A 9.863 9.863 0 0 0 202.223 63.134 Q 203.188 63.039 203.795 62.737 A 2.437 2.437 0 0 0 203.995 62.625 A 2.14 2.14 0 0 0 204.492 62.21 A 1.604 1.604 0 0 0 204.883 61.127 A 1.985 1.985 0 0 0 204.847 60.733 Q 204.75 60.257 204.397 60.036 A 1.392 1.392 0 0 0 204.067 59.892 Q 203.544 59.731 202.568 59.731 Z M 199.819 54.619 A 1.57 1.57 0 0 0 200.067 54.905 Q 200.584 55.375 201.467 55.422 A 3.777 3.777 0 0 0 201.666 55.427 A 3.196 3.196 0 0 0 202.503 55.327 Q 203.461 55.067 203.719 54.127 A 2.971 2.971 0 0 0 203.814 53.341 Q 203.814 51.609 202.445 51.251 A 3.191 3.191 0 0 0 201.64 51.158 A 3.078 3.078 0 0 0 201.013 51.218 Q 200.628 51.298 200.335 51.485 A 1.689 1.689 0 0 0 200.049 51.715 Q 199.576 52.187 199.505 53.048 A 3.859 3.859 0 0 0 199.492 53.367 Q 199.492 54.134 199.819 54.619 Z M 193.812 47.372 A 1.626 1.626 0 0 0 193.792 47.641 Q 193.792 48.135 194.039 48.378 A 0.823 0.823 0 0 0 194.337 48.568 A 0.932 0.932 0 0 0 194.658 48.622 A 0.856 0.856 0 0 0 195.268 48.378 A 0.716 0.716 0 0 0 195.407 48.193 Q 195.524 47.974 195.524 47.641 Q 195.524 47.146 195.268 46.907 A 0.864 0.864 0 0 0 194.658 46.668 A 1.12 1.12 0 0 0 194.584 46.671 A 0.848 0.848 0 0 0 194.039 46.903 Q 193.863 47.069 193.812 47.372 Z" id="right_labelLayer" stroke="#777777" fill="#777777" style="stroke:#777777;fill:#777777" vector-effect="non-scaling-stroke"/><path d="M 299.782 92.5 L 321.761 92.5 L 321.761 95.5 L 344.74 95.5 L 344.74 92.5 L 366.719 92.5 L 366.719 95.5 L 389.698 95.5 L 389.698 92.5 L 407.5 92.5 L 407.5 81.719 L 410.5 81.719 L 410.5 58.739 L 407.5 58.739 L 407.5 36.761 L 410.5 36.761 L 410.5 13.781 L 407.5 13.781 L 407.5 3 L 389.698 3 L 389.698 0 L 366.719 0 L 366.719 3 L 344.74 3 L 344.74 0 L 321.761 0 L 321.761 3 L 299.782 3 L 299.782 0 L 276.803 0 L 276.803 3 L 259 3 L 259 13.781 L 256 13.781 L 256 36.761 L 259 36.761 L 259 58.739 L 256 58.739 L 256 81.719 L 259 81.719 L 259 92.5 L 276.803 92.5 L 276.803 95.5 L 299.782 95.5 L 299.782 92.5 Z" id="bottom_outsideCutPath" stroke="#FF0000" stroke-width="0.1" style="stroke:#FF0000;stroke-width:0.1" vector-effect="non-scaling-stroke"/><path d="M 364.67 54.912 L 363.122 54.912 L 363.122 48.263 A 4.567 4.567 0 0 0 363.076 47.591 Q 363.025 47.248 362.917 46.972 A 1.871 1.871 0 0 0 362.599 46.43 A 1.629 1.629 0 0 0 361.842 45.94 Q 361.572 45.853 361.243 45.829 A 3.594 3.594 0 0 0 360.977 45.819 A 3.984 3.984 0 0 0 360.166 45.896 Q 359.321 46.072 358.841 46.649 Q 358.154 47.475 358.151 49.189 A 8.526 8.526 0 0 0 358.151 49.205 L 358.151 54.912 L 356.603 54.912 L 356.603 48.263 A 4.567 4.567 0 0 0 356.557 47.591 Q 356.506 47.248 356.398 46.972 A 1.871 1.871 0 0 0 356.08 46.43 Q 355.558 45.819 354.448 45.819 A 3.845 3.845 0 0 0 353.653 45.896 Q 353.162 46 352.797 46.244 A 2.029 2.029 0 0 0 352.317 46.691 Q 351.641 47.563 351.641 49.55 L 351.641 54.912 L 350.093 54.912 L 350.093 44.691 L 351.352 44.691 L 351.604 46.09 L 351.678 46.09 A 3.043 3.043 0 0 1 352.914 44.924 A 3.676 3.676 0 0 1 354.366 44.517 A 4.439 4.439 0 0 1 354.7 44.504 A 5.069 5.069 0 0 1 355.841 44.623 Q 357.29 44.958 357.834 46.239 L 357.908 46.239 A 3.232 3.232 0 0 1 359.126 45.03 A 3.884 3.884 0 0 1 359.233 44.971 A 3.918 3.918 0 0 1 360.67 44.533 A 4.886 4.886 0 0 1 361.21 44.504 Q 362.944 44.504 363.807 45.395 Q 364.435 46.043 364.606 47.258 A 7.101 7.101 0 0 1 364.67 48.244 L 364.67 54.912 Z M 303.378 53.597 L 303.266 53.597 L 302.94 54.912 L 301.83 54.912 L 301.83 40.401 L 303.378 40.401 L 303.378 43.926 Q 303.378 45.072 303.308 45.991 A 19.305 19.305 0 0 1 303.304 46.052 L 303.378 46.052 A 3.52 3.52 0 0 1 305.947 44.56 A 5.287 5.287 0 0 1 306.586 44.523 Q 308.601 44.523 309.715 45.899 A 4.562 4.562 0 0 1 310.515 47.439 Q 310.712 48.074 310.786 48.834 A 9.937 9.937 0 0 1 310.83 49.792 A 9.077 9.077 0 0 1 310.71 51.319 Q 310.57 52.133 310.27 52.786 A 4.351 4.351 0 0 1 309.706 53.705 Q 308.582 55.099 306.586 55.099 A 4.696 4.696 0 0 1 305.406 54.955 A 4.086 4.086 0 0 1 304.763 54.73 A 3.429 3.429 0 0 1 303.378 53.597 Z M 329.771 53.635 L 329.771 54.819 A 1.523 1.523 0 0 1 329.591 54.891 Q 329.398 54.955 329.122 55.004 A 5.792 5.792 0 0 1 329.03 55.02 Q 328.54 55.099 328.149 55.099 Q 325.183 55.099 325.183 51.975 L 325.183 45.894 L 323.719 45.894 L 323.719 45.148 L 325.183 44.504 L 325.836 42.322 L 326.731 42.322 L 326.731 44.691 L 329.697 44.691 L 329.697 45.894 L 326.731 45.894 L 326.731 51.909 A 3.117 3.117 0 0 0 326.776 52.457 Q 326.871 52.991 327.169 53.327 A 1.438 1.438 0 0 0 328.053 53.797 A 2.069 2.069 0 0 0 328.372 53.821 A 5.084 5.084 0 0 0 329.117 53.768 A 4.686 4.686 0 0 0 329.165 53.76 A 8.374 8.374 0 0 0 329.389 53.722 Q 329.602 53.682 329.751 53.641 A 2.328 2.328 0 0 0 329.771 53.635 Z M 336.514 53.635 L 336.514 54.819 A 1.523 1.523 0 0 1 336.334 54.891 Q 336.141 54.955 335.865 55.004 A 5.792 5.792 0 0 1 335.773 55.02 Q 335.283 55.099 334.891 55.099 Q 331.926 55.099 331.926 51.975 L 331.926 45.894 L 330.461 45.894 L 330.461 45.148 L 331.926 44.504 L 332.578 42.322 L 333.474 42.322 L 333.474 44.691 L 336.44 44.691 L 336.44 45.894 L 333.474 45.894 L 333.474 51.909 A 3.117 3.117 0 0 0 333.519 52.457 Q 333.614 52.991 333.912 53.327 A 1.438 1.438 0 0 0 334.796 53.797 A 2.069 2.069 0 0 0 335.115 53.821 A 5.084 5.084 0 0 0 335.86 53.768 A 4.686 4.686 0 0 0 335.908 53.76 A 8.374 8.374 0 0 0 336.131 53.722 Q 336.345 53.682 336.493 53.641 A 2.328 2.328 0 0 0 336.514 53.635 Z M 322.357 49.792 Q 322.357 52.292 321.098 53.695 A 4.127 4.127 0 0 1 318.669 55.011 A 6.012 6.012 0 0 1 317.619 55.099 A 4.972 4.972 0 0 1 316.175 54.895 A 4.311 4.311 0 0 1 315.185 54.455 A 4.191 4.191 0 0 1 313.656 52.829 A 5.088 5.088 0 0 1 313.544 52.609 A 5.727 5.727 0 0 1 313.063 51.047 A 7.745 7.745 0 0 1 312.966 49.792 A 8.038 8.038 0 0 1 313.107 48.238 Q 313.285 47.332 313.69 46.627 A 4.277 4.277 0 0 1 314.215 45.899 Q 315.465 44.504 317.685 44.504 A 5.202 5.202 0 0 1 319.212 44.718 A 4.053 4.053 0 0 1 321.093 45.931 A 4.821 4.821 0 0 1 322.146 47.973 Q 322.357 48.799 322.357 49.792 Z M 347.379 49.792 Q 347.379 52.292 346.12 53.695 A 4.127 4.127 0 0 1 343.691 55.011 A 6.012 6.012 0 0 1 342.641 55.099 A 4.972 4.972 0 0 1 341.197 54.895 A 4.311 4.311 0 0 1 340.207 54.455 A 4.191 4.191 0 0 1 338.679 52.829 A 5.088 5.088 0 0 1 338.566 52.609 A 5.727 5.727 0 0 1 338.085 51.047 A 7.745 7.745 0 0 1 337.988 49.792 A 8.038 8.038 0 0 1 338.129 48.238 Q 338.307 47.332 338.712 46.627 A 4.277 4.277 0 0 1 339.237 45.899 Q 340.487 44.504 342.707 44.504 A 5.202 5.202 0 0 1 344.234 44.718 A 4.053 4.053 0 0 1 346.115 45.931 A 4.821 4.821 0 0 1 347.169 47.973 Q 347.379 48.799 347.379 49.792 Z M 314.57 49.792 A 7.84 7.84 0 0 0 314.644 50.912 Q 314.727 51.481 314.899 51.941 A 3.248 3.248 0 0 0 315.353 52.777 A 2.537 2.537 0 0 0 317.006 53.75 A 3.845 3.845 0 0 0 317.657 53.802 Q 319.177 53.802 319.965 52.781 A 3.323 3.323 0 0 0 320.482 51.773 Q 320.635 51.307 320.701 50.739 A 8.155 8.155 0 0 0 320.753 49.792 A 7.725 7.725 0 0 0 320.68 48.691 Q 320.513 47.535 319.965 46.831 A 2.547 2.547 0 0 0 318.381 45.886 A 3.905 3.905 0 0 0 317.638 45.819 Q 316.118 45.819 315.344 46.817 A 3.201 3.201 0 0 0 314.846 47.779 Q 314.699 48.221 314.63 48.761 A 8.181 8.181 0 0 0 314.57 49.792 Z M 339.592 49.792 A 7.84 7.84 0 0 0 339.666 50.912 Q 339.749 51.481 339.922 51.941 A 3.248 3.248 0 0 0 340.375 52.777 A 2.537 2.537 0 0 0 342.028 53.75 A 3.845 3.845 0 0 0 342.679 53.802 Q 344.199 53.802 344.987 52.781 A 3.323 3.323 0 0 0 345.504 51.773 Q 345.657 51.307 345.723 50.739 A 8.155 8.155 0 0 0 345.775 49.792 A 7.725 7.725 0 0 0 345.702 48.691 Q 345.535 47.535 344.987 46.831 A 2.547 2.547 0 0 0 343.404 45.886 A 3.905 3.905 0 0 0 342.66 45.819 Q 341.14 45.819 340.366 46.817 A 3.201 3.201 0 0 0 339.868 47.779 Q 339.721 48.221 339.653 48.761 A 8.181 8.181 0 0 0 339.592 49.792 Z M 306.363 45.819 A 4.35 4.35 0 0 0 305.52 45.895 Q 305.04 45.99 304.676 46.204 A 2.059 2.059 0 0 0 304.078 46.729 A 2.65 2.65 0 0 0 303.694 47.459 Q 303.435 48.185 303.389 49.288 A 11.928 11.928 0 0 0 303.378 49.792 Q 303.378 51.947 304.096 52.874 A 2.246 2.246 0 0 0 305.236 53.643 Q 305.743 53.802 306.4 53.802 A 3.086 3.086 0 0 0 307.277 53.685 A 2.226 2.226 0 0 0 308.526 52.763 A 3.554 3.554 0 0 0 308.966 51.811 Q 309.104 51.36 309.169 50.813 A 8.871 8.871 0 0 0 309.226 49.774 Q 309.226 47.778 308.526 46.798 A 2.258 2.258 0 0 0 307.089 45.889 A 3.581 3.581 0 0 0 306.363 45.819 Z" id="bottom_labelLayer" stroke="#777777" fill="#777777" style="stroke:#777777;fill:#777777" vector-effect="non-scaling-stroke"/></g></svg>